<svg id="Grupo_1071194" data-name="Grupo 1071194" xmlns="http://www.w3.org/2000/svg" width="175" height="174.702" viewBox="0 0 175 174.702">
  <path id="Trazado_805371" data-name="Trazado 805371" d="M72.03,41.13a21.973,21.973,0,0,0-.222-3.094,2.613,2.613,0,0,1,1.392-2.63l1.637-.9a2.636,2.636,0,0,0,1.032-3.691l-4.532-7.5a2.9,2.9,0,0,0-3.859-.99l-1.654.914a3,3,0,0,1-3.221-.264,24,24,0,0,0-5.286-2.94A2.776,2.776,0,0,1,55.476,17.5V15.7A2.765,2.765,0,0,0,52.663,13H43.589a2.765,2.765,0,0,0-2.813,2.7v1.8a2.776,2.776,0,0,1-1.842,2.532,24,24,0,0,0-5.286,2.934,3,3,0,0,1-3.221.264l-1.654-.914a2.9,2.9,0,0,0-3.859.99l-4.532,7.5A2.636,2.636,0,0,0,21.414,34.5l1.637.9a2.613,2.613,0,0,1,1.406,2.63,21.615,21.615,0,0,0,0,6.188,2.613,2.613,0,0,1-1.406,2.63l-1.637.9a2.636,2.636,0,0,0-1.032,3.691l4.532,7.5a2.9,2.9,0,0,0,3.859.99l1.654-.914a3,3,0,0,1,3.221.264,24,24,0,0,0,5.274,2.945,2.776,2.776,0,0,1,1.842,2.532V66.57a2.765,2.765,0,0,0,2.813,2.7h9.063a2.765,2.765,0,0,0,2.813-2.7V64.758A2.776,2.776,0,0,1,57.3,62.227a24,24,0,0,0,5.286-2.934,3,3,0,0,1,3.221-.264l1.654.914a2.9,2.9,0,0,0,3.859-.99l4.532-7.5a2.636,2.636,0,0,0-1.032-3.691l-1.637-.9a2.613,2.613,0,0,1-1.392-2.63,21.971,21.971,0,0,0,.245-3.1Z" transform="translate(33.754 21.054)" fill="#7083a6"/>
  <circle id="Elipse_5695" data-name="Elipse 5695" cx="12.658" cy="12.658" r="12.658" transform="translate(69.216 49.525)" fill="#e4ecf2"/>
  <circle id="Elipse_5696" data-name="Elipse 5696" cx="14.737" cy="14.737" r="14.737" transform="translate(145.526)" fill="#6f9fde"/>
  <ellipse id="Elipse_5697" data-name="Elipse 5697" cx="14.737" cy="13.816" rx="14.737" ry="13.816" transform="translate(0 88.421)" fill="#6f9fde"/>
  <ellipse id="Elipse_5698" data-name="Elipse 5698" cx="11.053" cy="11.974" rx="11.053" ry="11.974" transform="translate(141.842 77.368)" fill="#d9777b"/>
  <circle id="Elipse_5699" data-name="Elipse 5699" cx="11.053" cy="11.053" r="11.053" transform="translate(16.579)" fill="#d9777b"/>
  <g id="Grupo_1066813" data-name="Grupo 1066813" transform="translate(29.826 19.089)">
    <path id="Trazado_805372" data-name="Trazado 805372" d="M0,0H22.678V5.626H0Z" transform="translate(0 68.766) rotate(-29.745)" fill="#90aacc"/>
    <path id="Trazado_805373" data-name="Trazado 805373" d="M0,0H5.626V22.239H0Z" transform="translate(12.458 4.624) rotate(-55.308)" fill="#90aacc"/>
    <path id="Trazado_805374" data-name="Trazado 805374" d="M0,0H36.675V5.626H0Z" transform="translate(81.529 23.86) rotate(-32.467)" fill="#90aacc"/>
    <path id="Trazado_805375" data-name="Trazado 805375" d="M0,0H5.626V23.409H0Z" transform="matrix(0.541, -0.841, 0.841, 0.541, 85.706, 52.531)" fill="#90aacc"/>
  </g>
  <path id="Trazado_805376" data-name="Trazado 805376" d="M20.584,85.874A8.267,8.267,0,0,0,22.6,91.292L39.563,113.77a24.138,24.138,0,0,0,7.525,5.2l-.017,18.357H78.033L78.05,116.9A25.227,25.227,0,0,0,90.374,94.636l.062-29.288a6.188,6.188,0,0,0-12.377,0V59.159a6.141,6.141,0,0,0-3.094-5.345,5.8,5.8,0,0,0-3.094-.844,6.239,6.239,0,0,0-6.188,6.188V52.971a6.1,6.1,0,0,0-3.094-5.345,5.812,5.812,0,0,0-3.094-.844,6.188,6.188,0,0,0-6.188,6.16V28.189a6.146,6.146,0,0,0-3.094-5.345A5.806,5.806,0,0,0,47.116,22a6.211,6.211,0,0,0-6.188,6.188v58.83l-6.782-7.677A8.312,8.312,0,0,0,21.98,81.23a8.121,8.121,0,0,0-1.4,4.644Z" transform="translate(34.803 37.37)" fill="#ffc780"/>
  <path id="Trazado_805377" data-name="Trazado 805377" d="M52.245,67.229l.062-29.288a6.158,6.158,0,0,0-.563-2.532A6.189,6.189,0,0,1,55.4,41.035l-.062,29.288A25.227,25.227,0,0,1,43.015,92.585L43,113.021H39.907l.017-23.53A25.224,25.224,0,0,0,52.245,67.229Z" transform="translate(69.835 61.681)" fill="#e6b374"/>
  <path id="Trazado_805378" data-name="Trazado 805378" d="M39.714,33.2a6.188,6.188,0,0,1,3.657,5.626V54.3H40.277V35.732A6.155,6.155,0,0,0,39.714,33.2Z" transform="translate(69.485 57.676)" fill="#e6b374"/>
  <path id="Trazado_805379" data-name="Trazado 805379" d="M35.308,31a6.188,6.188,0,0,1,3.657,5.626V58.3H35.871V33.549A6.121,6.121,0,0,0,35.308,31Z" transform="translate(61.497 53.688)" fill="#e6b374"/>
  <path id="Trazado_805380" data-name="Trazado 805380" d="M30.906,22.2a6.188,6.188,0,0,1,3.657,5.626V74.27H31.452V24.732a6.155,6.155,0,0,0-.546-2.532Z" transform="translate(53.517 37.733)" fill="#e6b374"/>
</svg>
