<svg xmlns="http://www.w3.org/2000/svg" width="55" height="55" viewBox="0 0 55 55">
  <g id="Grupo_1071080" data-name="Grupo 1071080" transform="translate(-419 -13171)">
    <rect id="Rectángulo_375551" data-name="Rectángulo 375551" width="55" height="55" transform="translate(419 13171)" fill="none"/>
    <g id="recursos-naturales" transform="translate(419 13171)">
      <g id="Grupo_1067010" data-name="Grupo 1067010" transform="translate(3.983 16.655)">
        <path id="Trazado_806966" data-name="Trazado 806966" d="M44.384,160.979c0,3.124-1.635,4.356-3.652,4.356s-3.652-1.232-3.652-4.356,1.635-5.936,3.652-5.936,3.652,2.811,3.652,5.936Z" transform="translate(-37.08 -155.043)" fill="#64cc56"/>
        <path id="Trazado_806967" data-name="Trazado 806967" d="M57.283,155.042a2.544,2.544,0,0,0-1.66.678,7.15,7.15,0,0,1,1.992,5.258c0,2.2-.81,3.458-1.992,4.013a3.889,3.889,0,0,0,1.66.343c2.017,0,3.652-1.232,3.652-4.356S59.3,155.042,57.283,155.042Z" transform="translate(-53.631 -155.042)" fill="#5bbd4f"/>
        <path id="Trazado_806968" data-name="Trazado 806968" d="M414.232,160.979c0,3.124-1.635,4.356-3.652,4.356s-3.652-1.232-3.652-4.356,1.635-5.936,3.652-5.936S414.232,157.854,414.232,160.979Z" transform="translate(-367.198 -155.043)" fill="#64cc56"/>
        <path id="Trazado_806969" data-name="Trazado 806969" d="M427.131,155.042a2.544,2.544,0,0,0-1.66.678,7.15,7.15,0,0,1,1.992,5.258c0,2.2-.81,3.458-1.992,4.013a3.889,3.889,0,0,0,1.66.343c2.017,0,3.652-1.232,3.652-4.356S429.148,155.042,427.131,155.042Z" transform="translate(-383.749 -155.042)" fill="#5bbd4f"/>
      </g>
      <path id="Trazado_806970" data-name="Trazado 806970" d="M153.275,66.269s-1.056-5.539-2.038-6.922S149.2,57.581,148.37,56.3a32.615,32.615,0,0,1-2.932-8.042,6.391,6.391,0,0,0-3.221-4.171,3.3,3.3,0,0,0-2.774,0c-.791.346-1.788,2.527-1.788,2.527s-2.05,4.733-2.158,5.955-.232,3.565-.8,4.591-1.391,2.873-2.929,3.53-4.072,1.143-4.657,1.809a27.174,27.174,0,0,0-1.94,3.766h28.109Z" transform="translate(-111.72 -39.079)" fill="#90a4ae"/>
      <path id="Trazado_806971" data-name="Trazado 806971" d="M267.647,59.346c-.982-1.383-2.038-1.766-2.866-3.043a32.62,32.62,0,0,1-2.932-8.042,6.391,6.391,0,0,0-3.221-4.171,3.3,3.3,0,0,0-2.774,0,1.115,1.115,0,0,0-.266.176,6.175,6.175,0,0,1,2.942,3.995A32.623,32.623,0,0,0,261.46,56.3c.828,1.277,1.884,1.66,2.867,3.043s2.038,6.922,2.038,6.922h3.32S268.629,60.73,267.647,59.346Z" transform="translate(-228.13 -39.079)" fill="#78909c"/>
      <path id="Trazado_806972" data-name="Trazado 806972" d="M51.68,276.144H3.32A3.32,3.32,0,0,1,0,272.824V251.079a3.32,3.32,0,0,1,3.32-3.32H51.68a3.32,3.32,0,0,1,3.32,3.32v21.746A3.32,3.32,0,0,1,51.68,276.144Z" transform="translate(0 -221.144)" fill="#64cc56"/>
      <path id="Trazado_806973" data-name="Trazado 806973" d="M453.51,247.759h-3.32a3.32,3.32,0,0,1,3.32,3.32v21.746a3.32,3.32,0,0,1-3.32,3.32h3.32a3.32,3.32,0,0,0,3.32-3.32V251.079A3.32,3.32,0,0,0,453.51,247.759Z" transform="translate(-401.83 -221.144)" fill="#5bbd4f"/>
      <circle id="Elipse_5705" data-name="Elipse 5705" cx="5.589" cy="5.589" r="5.589" transform="translate(10.415 6.394)" fill="#ffd54f"/>
      <path id="Trazado_806974" data-name="Trazado 806974" d="M136.454,59.524a5.588,5.588,0,0,0-1.507.207,5.588,5.588,0,0,1,0,10.763,5.588,5.588,0,1,0,1.507-10.97Z" transform="translate(-120.451 -53.13)" fill="#ffca28"/>
      <g id="Grupo_1067011" data-name="Grupo 1067011" transform="translate(4.02)">
        <path id="Trazado_806975" data-name="Trazado 806975" d="M142.278,0a.806.806,0,0,0-.806.806V2.253a.806.806,0,0,0,1.611,0V.806A.806.806,0,0,0,142.278,0Z" transform="translate(-130.295)" fill="#ffca28"/>
        <path id="Trazado_806976" data-name="Trazado 806976" d="M207.912,30.713a.806.806,0,0,0-1.139,0l-1.024,1.024a.806.806,0,0,0,1.139,1.139l1.024-1.024A.806.806,0,0,0,207.912,30.713Z" transform="translate(-187.456 -27.203)" fill="#ffca28"/>
        <path id="Trazado_806977" data-name="Trazado 806977" d="M39.676,104.048H38.229a.806.806,0,0,0,0,1.611h1.448a.806.806,0,0,0,0-1.611Z" transform="translate(-37.423 -92.871)" fill="#ffca28"/>
        <path id="Trazado_806978" data-name="Trazado 806978" d="M69.275,30.713a.806.806,0,0,0-1.139,1.139l1.024,1.024A.806.806,0,0,0,70.3,31.737Z" transform="translate(-64.626 -27.203)" fill="#ffca28"/>
      </g>
      <path id="Trazado_806979" data-name="Trazado 806979" d="M66.964,294.2c0,.464.638,1.273,1.932,1.7,1.489.492,4.027.8,7.241,2,2.125.8,4.964,2.865,5.448,5.487a6.36,6.36,0,0,1-.683,4.15H62.927A11.818,11.818,0,0,0,66,306.524a7.268,7.268,0,0,0,3.413-3.138c.816-1.782-6.18-4.563-7.472-5.207-3.008-1.5-.579-3.715.978-4.283.618-.225.225-1.292-.416-1.292H40.556a4.331,4.331,0,0,1-3.182-1.415,5,5,0,0,1-1.318-3.417,4.675,4.675,0,0,1,4.5-4.833H78.81a4.335,4.335,0,0,1,3.182,1.415,5,5,0,0,1,1.318,3.389A4.75,4.75,0,0,1,78.73,292.6H69.694c-1.045,0-2.732.593-2.729,1.6Z" transform="translate(-32.183 -252.544)" fill="#bdf9ff"/>
      <g id="Grupo_1067012" data-name="Grupo 1067012" transform="translate(36.714 30.394)">
        <path id="Trazado_806980" data-name="Trazado 806980" d="M408.99,284.354a4.335,4.335,0,0,0-3.182-1.415h-3.32a4.335,4.335,0,0,1,3.182,1.415,5,5,0,0,1,1.318,3.389,4.75,4.75,0,0,1-4.579,4.862h3.32a4.75,4.75,0,0,0,4.579-4.862A5,5,0,0,0,408.99,284.354Z" transform="translate(-395.895 -282.939)" fill="#8cf2ff"/>
        <path id="Trazado_806981" data-name="Trazado 806981" d="M349.011,405.654c-3.214-1.205-5.752-1.51-7.241-2,2.125.8,8.515,2.593,9.369,7.489a6.444,6.444,0,0,1-.683,4.15h3.32a6.36,6.36,0,0,0,.683-4.15C353.976,408.519,351.136,406.451,349.011,405.654Z" transform="translate(-341.77 -390.685)" fill="#8cf2ff"/>
      </g>
    </g>
  </g>
</svg>
