<svg xmlns="http://www.w3.org/2000/svg" width="55" height="55" viewBox="0 0 55 55">
  <g id="Grupo_1071079" data-name="Grupo 1071079" transform="translate(-596 -13171)">
    <rect id="Rectángulo_375552" data-name="Rectángulo 375552" width="55" height="55" transform="translate(596 13171)" fill="none"/>
    <g id="Layer_9" data-name="Layer 9" transform="translate(594 13169)">
      <path id="Trazado_806988" data-name="Trazado 806988" d="M22,2H58.667V57H22Z" transform="translate(-1.667 0)" fill="#e2e7f6"/>
      <path id="Trazado_806989" data-name="Trazado 806989" d="M22,2H55V53.333H22Z" transform="translate(-1.667 0)" fill="#f2f2f2"/>
      <path id="Trazado_806990" data-name="Trazado 806990" d="M32,46h5.5V57H32Z" transform="translate(-2.5 -3.667)" fill="#5e87ca"/>
      <path id="Trazado_806991" data-name="Trazado 806991" d="M34.75,53.333V46H32v8.25h1.833A.917.917,0,0,0,34.75,53.333Z" transform="translate(-2.5 -3.667)" fill="#78a0d4"/>
      <path id="Trazado_806992" data-name="Trazado 806992" d="M52,34h5.5V56H52Z" transform="translate(-4.167 -2.667)" fill="#3b5892"/>
      <path id="Trazado_806993" data-name="Trazado 806993" d="M54.75,52.333V34H52V53.25h1.833A.917.917,0,0,0,54.75,52.333Z" transform="translate(-4.167 -2.667)" fill="#4c6cb5"/>
      <path id="Trazado_806994" data-name="Trazado 806994" d="M42,42h5.5V56.667H42Z" transform="translate(-3.333 -3.333)" fill="#4c6cb5"/>
      <path id="Trazado_806995" data-name="Trazado 806995" d="M44.75,53V42H42V53.917h1.833A.917.917,0,0,0,44.75,53Z" transform="translate(-3.333 -3.333)" fill="#5e87ca"/>
      <path id="Trazado_806996" data-name="Trazado 806996" d="M21.5,25l4.741-4.741A8.851,8.851,0,0,0,28.833,14H5a8.852,8.852,0,0,0,2.593,6.259L12.333,25Z" transform="translate(-0.25 -1)" fill="#f6b940"/>
      <path id="Trazado_806997" data-name="Trazado 806997" d="M21.25,26H12.083L7.672,30.411A19.367,19.367,0,0,0,6.079,55.995,7.786,7.786,0,0,0,12.224,59H21.11a7.786,7.786,0,0,0,6.142-3,19.363,19.363,0,0,0-1.59-25.584Z" transform="translate(0 -2)" fill="#f4a93c"/>
      <ellipse id="Elipse_5706" data-name="Elipse 5706" cx="10.17" cy="9.572" rx="10.17" ry="9.572" transform="translate(6.441 32.763)" fill="#f9d266"/>
      <path id="Trazado_806998" data-name="Trazado 806998" d="M25.333,44.167a10.066,10.066,0,0,0-4.682-8.5,10.073,10.073,0,0,0-8.969,17.926,10.062,10.062,0,0,0,13.651-9.422Z" transform="translate(-0.416 -2.75)" fill="#fce797"/>
      <path id="Trazado_806999" data-name="Trazado 806999" d="M21.333,43.5v-.917a2.75,2.75,0,0,0-2.75-2.75V38H16.75v1.833A2.75,2.75,0,0,0,14,42.583V43.5a2.75,2.75,0,0,0,2.75,2.75V49a.917.917,0,0,1-.917-.917v-.917H14v.917a2.75,2.75,0,0,0,2.75,2.75v1.833h1.833V50.833a2.75,2.75,0,0,0,2.75-2.75v-.917a2.75,2.75,0,0,0-2.75-2.75v-2.75a.917.917,0,0,1,.917.917V43.5ZM19.5,47.167v.917a.917.917,0,0,1-.917.917V46.25A.917.917,0,0,1,19.5,47.167Zm-2.75-2.75a.917.917,0,0,1-.917-.917v-.917a.917.917,0,0,1,.917-.917Z" transform="translate(-1 -3)" fill="#f4a93c"/>
      <path id="Trazado_807000" data-name="Trazado 807000" d="M32,27.833l9.167-9.167,3.667,3.667,5.5-5.5L48.5,15h7.333v7.333L54,20.5l-8.25,8.25-3.667-3.667L35.667,31.5Z" transform="translate(-2.5 -1.083)" fill="#6bc13b"/>
      <g id="Grupo_1067013" data-name="Grupo 1067013" transform="translate(23.083 4.75)">
        <path id="Trazado_807001" data-name="Trazado 807001" d="M25,5H36V6.833H25Z" transform="translate(-25 -5)" fill="#c8cded"/>
        <path id="Trazado_807002" data-name="Trazado 807002" d="M39,5h1.833V6.833H39Z" transform="translate(-26.167 -5)" fill="#c8cded"/>
        <path id="Trazado_807003" data-name="Trazado 807003" d="M25,9H36v1.833H25Z" transform="translate(-25 -5.333)" fill="#c8cded"/>
        <path id="Trazado_807004" data-name="Trazado 807004" d="M39,9h1.833v1.833H39Z" transform="translate(-26.167 -5.333)" fill="#c8cded"/>
      </g>
      <path id="Trazado_807005" data-name="Trazado 807005" d="M16.377,24.536A14.673,14.673,0,0,1,14.833,18H13a16.534,16.534,0,0,0,1.726,7.333h2.049Z" transform="translate(-0.917 -1.333)" fill="#f9d266"/>
      <path id="Trazado_807006" data-name="Trazado 807006" d="M18.882,25.333h2.049A16.534,16.534,0,0,0,22.657,18H20.823a14.673,14.673,0,0,1-1.544,6.536Z" transform="translate(-1.407 -1.333)" fill="#f9d266"/>
    </g>
  </g>
</svg>
