<svg xmlns="http://www.w3.org/2000/svg" width="55" height="55" viewBox="0 0 55 55">
  <g id="Grupo_1071078" data-name="Grupo 1071078" transform="translate(-773 -13171)">
    <rect id="Rectángulo_375553" data-name="Rectángulo 375553" width="55" height="55" transform="translate(773 13171)" fill="none"/>
    <g id="ley_1_" data-name="ley (1)" transform="translate(773 13140.199)">
      <g id="Grupo_1067022" data-name="Grupo 1067022" transform="translate(0 33.518)">
        <g id="Grupo_1067016" data-name="Grupo 1067016" transform="translate(0 19.032)">
          <g id="Grupo_1067014" data-name="Grupo 1067014" transform="translate(0 6.335)">
            <path id="Trazado_807013" data-name="Trazado 807013" d="M21.8,275.49l-2.674-2.674-18.2,16.8A2.882,2.882,0,1,0,5,293.69Z" transform="translate(0 -272.816)" fill="#873f30"/>
            <path id="Trazado_807014" data-name="Trazado 807014" d="M6.113,300.709a2.883,2.883,0,0,1-4.075,0,2.854,2.854,0,0,1-.7-1.148,2.878,2.878,0,0,0,2.925-.7c.028-.028.055-.057.082-.085l16.8-18.2L23,282.424l-16.8,18.2c-.027.028-.054.057-.08.084Z" transform="translate(-1.193 -279.751)" fill="#6c3328"/>
          </g>
          <path id="Trazado_807015" data-name="Trazado 807015" d="M178.581,213.053l-6.157,7.344,2.515,2.515,7.344-6.157Z" transform="translate(-154.146 -213.053)" fill="#873f30"/>
          <path id="Trazado_807016" data-name="Trazado 807016" d="M186.936,213.053l-1.989,2.373.6.6a1.125,1.125,0,0,1,0,1.591l-3.774,3.774,1.524,1.524,7.344-6.157Z" transform="translate(-162.502 -213.053)" fill="#6c3328"/>
          <g id="Grupo_1067015" data-name="Grupo 1067015" transform="translate(16.327 5.754)">
            <path id="Trazado_807017" data-name="Trazado 807017" d="M156.989,272.861l-2.441-2.441a1.807,1.807,0,0,1,2.556-2.556l2.441,2.441a1.807,1.807,0,0,1-2.556,2.556Z" transform="translate(-154.018 -267.334)" fill="#ba5d4f"/>
            <path id="Trazado_807018" data-name="Trazado 807018" d="M168.985,282.308a1.807,1.807,0,0,1-2.556,0l-1.851-1.851a1.807,1.807,0,1,0,2.556-2.556l1.851,1.851A1.806,1.806,0,0,1,168.985,282.308Z" transform="translate(-163.46 -276.781)" fill="#a34f41"/>
          </g>
        </g>
        <g id="Grupo_1067019" data-name="Grupo 1067019" transform="translate(19.114 2.246)">
          <g id="Grupo_1067017" data-name="Grupo 1067017" transform="translate(0 0)">
            <path id="Trazado_807019" data-name="Trazado 807019" d="M0,0H7.667V12.038H0Z" transform="translate(8.511 0) rotate(45)" fill="#ba5d4f"/>
          </g>
          <g id="Grupo_1067018" data-name="Grupo 1067018" transform="translate(11.874 11.882)">
            <path id="Trazado_807020" data-name="Trazado 807020" d="M0,0H7.667V12.038H0Z" transform="translate(5.421 13.931) rotate(-135)" fill="#a34f41"/>
          </g>
        </g>
        <g id="Grupo_1067021" data-name="Grupo 1067021" transform="translate(16.865)">
          <path id="Trazado_807021" data-name="Trazado 807021" d="M159.821,46.143l-.188-.188a1.829,1.829,0,0,1,0-2.586l9.315-9.315a1.829,1.829,0,0,1,2.586,0l.188.188a1.829,1.829,0,0,1,0,2.586l-9.315,9.315a1.829,1.829,0,0,1-2.586,0Z" transform="translate(-159.097 -33.518)" fill="#873f30"/>
          <path id="Trazado_807022" data-name="Trazado 807022" d="M321.349,207.671l.188.188a1.829,1.829,0,0,0,2.586,0l9.315-9.315a1.829,1.829,0,0,0,0-2.586l-.188-.188a1.829,1.829,0,0,0-2.586,0l-9.315,9.315a1.828,1.828,0,0,0,0,2.586Z" transform="translate(-303.671 -178.091)" fill="#6c3328"/>
          <g id="Grupo_1067020" data-name="Grupo 1067020" transform="translate(4.708 4.708)">
            <path id="Trazado_807023" data-name="Trazado 807023" d="M0,0H8.61V18.18H0Z" transform="translate(13.825 0.968) rotate(45)" fill="#fcc16d"/>
            <path id="Trazado_807024" data-name="Trazado 807024" d="M0,0H18.18V4.358H0Z" transform="translate(3.974 16.835) rotate(-45)" fill="#fca62f"/>
            <path id="Trazado_807025" data-name="Trazado 807025" d="M217.364,78.643l-1.491-.61a1.371,1.371,0,0,0-1.489.3L203.911,88.806a1.371,1.371,0,0,0-.3,1.489l.61,1.491a.914.914,0,0,0,1.493.3l11.951-11.951A.914.914,0,0,0,217.364,78.643Z" transform="translate(-203.509 -77.931)" fill="#873f30"/>
            <path id="Trazado_807026" data-name="Trazado 807026" d="M278.2,139.48l.61,1.491a1.371,1.371,0,0,1-.3,1.489l-10.473,10.473a1.371,1.371,0,0,1-1.489.3l-1.491-.61a.914.914,0,0,1-.3-1.493l11.951-11.951A.914.914,0,0,1,278.2,139.48Z" transform="translate(-258.026 -132.448)" fill="#6c3328"/>
          </g>
        </g>
      </g>
      <g id="Grupo_1067025" data-name="Grupo 1067025" transform="translate(19.003 63.733)">
        <g id="Grupo_1067023" data-name="Grupo 1067023" transform="translate(6.06 6.555)">
          <path id="Trazado_807027" data-name="Trazado 807027" d="M258.646,384.672H236.44v-3.116a1.165,1.165,0,0,1,1.165-1.165h19.876a1.165,1.165,0,0,1,1.165,1.165Z" transform="translate(-236.44 -380.391)" fill="#ba5d4f"/>
          <path id="Trazado_807028" data-name="Trazado 807028" d="M415.543,381.558v3.116h-2.437v-3.116a1.165,1.165,0,0,0-1.165-1.165h2.437A1.165,1.165,0,0,1,415.543,381.558Z" transform="translate(-393.337 -380.393)" fill="#a34f41"/>
        </g>
        <path id="Trazado_807029" data-name="Trazado 807029" d="M212.431,414.127H180.437a1.165,1.165,0,0,1-1.059-1.65l1.131-2.47a6.016,6.016,0,0,1,5.47-3.511h20.911a6.016,6.016,0,0,1,5.47,3.511l1.131,2.47A1.165,1.165,0,0,1,212.431,414.127Z" transform="translate(-179.27 -397.175)" fill="#873f30"/>
        <path id="Trazado_807030" data-name="Trazado 807030" d="M419.091,414.123h-3.115a1.165,1.165,0,0,0,1.059-1.649L415.9,410a6.017,6.017,0,0,0-5.469-3.511h3.114a6.018,6.018,0,0,1,5.47,3.511l1.131,2.471A1.165,1.165,0,0,1,419.091,414.123Z" transform="translate(-385.931 -397.17)" fill="#6c3328"/>
        <g id="Grupo_1067024" data-name="Grupo 1067024" transform="translate(28.11)">
          <g id="XMLID_233_" transform="translate(2.547 2.144)">
            <path id="Trazado_807031" data-name="Trazado 807031" d="M469.28,341.266a.807.807,0,0,1-.569-1.379l.873-.868a.807.807,0,1,1,1.138,1.145l-.873.868A.8.8,0,0,1,469.28,341.266Z" transform="translate(-468.473 -338.784)" fill="#fcc16d"/>
          </g>
          <g id="XMLID_232_">
            <path id="Trazado_807032" data-name="Trazado 807032" d="M445.251,321.376a.808.808,0,0,1-.783-1l.3-1.207a.807.807,0,1,1,1.565.393l-.3,1.207A.807.807,0,0,1,445.251,321.376Z" transform="translate(-444.444 -318.555)" fill="#fcc16d"/>
          </g>
          <g id="XMLID_153_" transform="translate(4.338 5.273)">
            <path id="Trazado_807033" data-name="Trazado 807033" d="M486.171,370.207a.807.807,0,0,1-.191-1.591l1.21-.3a.807.807,0,0,1,.383,1.567l-1.209.3A.811.811,0,0,1,486.171,370.207Z" transform="translate(-485.364 -368.297)" fill="#fcc16d"/>
          </g>
        </g>
      </g>
    </g>
  </g>
</svg>
