<svg xmlns="http://www.w3.org/2000/svg" width="55" height="55" viewBox="0 0 55 55">
  <g id="Grupo_1071077" data-name="Grupo 1071077" transform="translate(-950 -13171)">
    <rect id="Rectángulo_375554" data-name="Rectángulo 375554" width="55" height="55" transform="translate(950 13171)" fill="none"/>
    <g id="editor-grafico_1_" data-name="editor-grafico (1)" transform="translate(950 13146.303)">
      <g id="Grupo_1067055" data-name="Grupo 1067055" transform="translate(0 28.323)">
        <g id="Grupo_1067036" data-name="Grupo 1067036" transform="translate(0 0)">
          <g id="Grupo_1067027" data-name="Grupo 1067027" transform="translate(22.702 38.23)">
            <g id="Grupo_1067026" data-name="Grupo 1067026">
              <path id="Trazado_807040" data-name="Trazado 807040" d="M211.336,384.214h9.6v7.753h-9.6Z" transform="translate(-211.336 -384.214)" fill="#647fa0"/>
            </g>
          </g>
          <g id="Grupo_1067028" data-name="Grupo 1067028" transform="translate(22.702 38.23)">
            <path id="Trazado_807041" data-name="Trazado 807041" d="M211.336,384.214h3.47v7.753h-3.47Z" transform="translate(-211.336 -384.214)" fill="#5e6f90"/>
          </g>
          <path id="Trazado_807042" data-name="Trazado 807042" d="M54.313,333.044H.687L0,333.151v3.287a2.213,2.213,0,0,0,2.213,2.213H52.787A2.213,2.213,0,0,0,55,336.438v-3.287Z" transform="translate(0 -300.31)" fill="#a2c7f8"/>
          <g id="Grupo_1067029" data-name="Grupo 1067029" transform="translate(16.766 45.872)">
            <path id="Trazado_807043" data-name="Trazado 807043" d="M176.434,458.4H157.179a1.107,1.107,0,0,1-1.107-1.107v-.829a1.107,1.107,0,0,1,1.107-1.107h19.256a1.107,1.107,0,0,1,1.107,1.107v.829A1.107,1.107,0,0,1,176.434,458.4Z" transform="translate(-156.072 -455.353)" fill="#a2c7f8"/>
          </g>
          <g id="Grupo_1067030" data-name="Grupo 1067030" transform="translate(16.766 45.872)">
            <path id="Trazado_807044" data-name="Trazado 807044" d="M161.605,457.289v-.829a1.107,1.107,0,0,1,1.107-1.107h-5.533a1.107,1.107,0,0,0-1.107,1.107v.829a1.107,1.107,0,0,0,1.107,1.107h5.533A1.107,1.107,0,0,1,161.605,457.289Z" transform="translate(-156.072 -455.353)" fill="#8db3df"/>
          </g>
          <g id="Grupo_1067031" data-name="Grupo 1067031" transform="translate(0 32.841)">
            <path id="Trazado_807045" data-name="Trazado 807045" d="M5.589,337.332v-3.287H0v3.287a2.213,2.213,0,0,0,2.213,2.213H7.8A2.213,2.213,0,0,1,5.589,337.332Z" transform="translate(0 -334.045)" fill="#8db3df"/>
          </g>
          <g id="Grupo_1067032" data-name="Grupo 1067032" transform="translate(24.702 34.718)">
            <path id="Trazado_807046" data-name="Trazado 807046" d="M234.746,353.129h-3.984a.806.806,0,1,1,0-1.611h3.984a.806.806,0,0,1,0,1.611Z" transform="translate(-229.956 -351.518)" fill="#647fa0"/>
          </g>
          <g id="Grupo_1067033" data-name="Grupo 1067033" transform="translate(0)">
            <path id="Trazado_807047" data-name="Trazado 807047" d="M55,61.164H0V29.983a1.66,1.66,0,0,1,1.66-1.66H53.34A1.66,1.66,0,0,1,55,29.983V61.164Z" transform="translate(0 -28.323)" fill="#647fa0"/>
          </g>
          <path id="Trazado_807048" data-name="Trazado 807048" d="M3.479,58.239a.553.553,0,0,1-.553-.553V31.8a.553.553,0,0,1,.553-.553h2.11V29.983a1.66,1.66,0,0,1,1.66-1.66H1.66A1.66,1.66,0,0,0,0,29.983V61.164H5.589V58.239H3.479Z" transform="translate(0 -28.323)" fill="#5e6f90"/>
          <g id="Grupo_1067034" data-name="Grupo 1067034" transform="translate(2.926 2.926)">
            <path id="Trazado_807049" data-name="Trazado 807049" d="M27.234,81.994V56.11a.553.553,0,0,1,.553-.553H75.83a.553.553,0,0,1,.553.553V81.994a.553.553,0,0,1-.553.553H27.787A.553.553,0,0,1,27.234,81.994Z" transform="translate(-27.234 -55.557)" fill="#fff3de"/>
          </g>
          <g id="Grupo_1067035" data-name="Grupo 1067035" transform="translate(2.926 2.926)">
            <path id="Trazado_807050" data-name="Trazado 807050" d="M31.875,81.994V56.11a.553.553,0,0,1,.553-.553H27.787a.553.553,0,0,0-.553.553V81.994a.553.553,0,0,0,.553.553h4.641A.553.553,0,0,1,31.875,81.994Z" transform="translate(-27.234 -55.557)" fill="#ffe5c2"/>
          </g>
        </g>
        <g id="Grupo_1067054" data-name="Grupo 1067054" transform="translate(7.224 5.47)">
          <g id="Grupo_1067042" data-name="Grupo 1067042" transform="translate(27.653 7.78)">
            <g id="Grupo_1067037" data-name="Grupo 1067037" transform="translate(0 11.398)">
              <path id="Trazado_807051" data-name="Trazado 807051" d="M331.637,259.382H325.48a.806.806,0,1,1,0-1.611h6.157a.806.806,0,1,1,0,1.611Z" transform="translate(-324.674 -257.771)" fill="#647fa0"/>
            </g>
            <g id="Grupo_1067038" data-name="Grupo 1067038" transform="translate(0 8.549)">
              <path id="Trazado_807052" data-name="Trazado 807052" d="M336.767,232.856H325.48a.806.806,0,0,1,0-1.611h11.288a.806.806,0,1,1,0,1.611Z" transform="translate(-324.674 -231.245)" fill="#647fa0"/>
            </g>
            <g id="Grupo_1067039" data-name="Grupo 1067039" transform="translate(0 5.699)">
              <path id="Trazado_807053" data-name="Trazado 807053" d="M336.767,206.328H325.48a.806.806,0,0,1,0-1.611h11.288a.806.806,0,1,1,0,1.611Z" transform="translate(-324.674 -204.717)" fill="#647fa0"/>
            </g>
            <g id="Grupo_1067040" data-name="Grupo 1067040" transform="translate(0 2.85)">
              <path id="Trazado_807054" data-name="Trazado 807054" d="M336.767,179.8H325.48a.806.806,0,0,1,0-1.611h11.288a.806.806,0,1,1,0,1.611Z" transform="translate(-324.674 -178.19)" fill="#647fa0"/>
            </g>
            <g id="Grupo_1067041" data-name="Grupo 1067041">
              <path id="Trazado_807055" data-name="Trazado 807055" d="M336.767,153.274H325.48a.806.806,0,0,1,0-1.611h11.288a.806.806,0,1,1,0,1.611Z" transform="translate(-324.674 -151.663)" fill="#647fa0"/>
            </g>
          </g>
          <g id="Grupo_1067051" data-name="Grupo 1067051">
            <path id="Trazado_807056" data-name="Trazado 807056" d="M103.777,99.98a.43.43,0,0,1-.43-.43v-2.2H88v2.2a.43.43,0,0,1-.43.43h-2.2v13.069h2.2a.43.43,0,0,1,.43.43v2.14h15.347v-2.14a.43.43,0,0,1,.43-.43h2.118V99.98Z" transform="translate(-83.421 -95.4)" fill="#fff"/>
            <path id="Trazado_807057" data-name="Trazado 807057" d="M88,99.55a.43.43,0,0,1-.43.43h-2.2v13.069h2.2a.43.43,0,0,1,.43.43v2.14h.813V97.345H88Z" transform="translate(-83.421 -95.4)" fill="#eaf6ff"/>
            <g id="Grupo_1067043" data-name="Grupo 1067043" transform="translate(1.141 1.139)">
              <path id="Trazado_807058" data-name="Trazado 807058" d="M109.876,89.845h15.347v1.611H109.876Z" transform="translate(-106.438 -89.845)" fill="#647fa0"/>
              <path id="Trazado_807059" data-name="Trazado 807059" d="M77.867,121.871h1.611V134.94H77.867Z" transform="translate(-77.867 -118.431)" fill="#647fa0"/>
              <path id="Trazado_807060" data-name="Trazado 807060" d="M109.876,259.96h15.347v1.611H109.876Z" transform="translate(-106.438 -241.686)" fill="#647fa0"/>
              <path id="Trazado_807061" data-name="Trazado 807061" d="M268.96,121.871h1.611V134.94H268.96Z" transform="translate(-248.432 -118.431)" fill="#647fa0"/>
            </g>
            <g id="Grupo_1067044" data-name="Grupo 1067044" transform="translate(6.074 5.931)">
              <path id="Trazado_807062" data-name="Trazado 807062" d="M123.787,134.457H136.06v10.3H123.787Z" transform="translate(-123.787 -134.457)" fill="#46cc8d"/>
            </g>
            <g id="Grupo_1067045" data-name="Grupo 1067045" transform="translate(6.074 5.931)">
              <path id="Trazado_807063" data-name="Trazado 807063" d="M123.787,134.457h3.468v10.3h-3.468Z" transform="translate(-123.787 -134.457)" fill="#08b865"/>
            </g>
            <g id="Grupo_1067046" data-name="Grupo 1067046" transform="translate(0.806 18.347)">
              <path id="Trazado_807064" data-name="Trazado 807064" d="M74.747,250.035h3.075v3.075H74.747Z" transform="translate(-74.747 -250.035)" fill="#0593fc"/>
            </g>
            <g id="Grupo_1067047" data-name="Grupo 1067047" transform="translate(19.819 17.541)">
              <path id="Trazado_807065" data-name="Trazado 807065" d="M255.9,247.222h-3.612a.537.537,0,0,1-.537-.537v-3.613a.537.537,0,0,1,.537-.537H255.9a.537.537,0,0,1,.537.537v3.613A.537.537,0,0,1,255.9,247.222Z" transform="translate(-251.748 -242.535)" fill="#0593fc"/>
            </g>
            <g id="Grupo_1067048" data-name="Grupo 1067048" transform="translate(0 17.541)">
              <path id="Trazado_807066" data-name="Trazado 807066" d="M71.4,247.222H67.784a.537.537,0,0,1-.537-.537v-3.613a.537.537,0,0,1,.537-.537H71.4a.537.537,0,0,1,.537.537v3.613A.537.537,0,0,1,71.4,247.222Z" transform="translate(-67.247 -242.535)" fill="#0593fc"/>
            </g>
            <path id="Trazado_807067" data-name="Trazado 807067" d="M253.963,246.685v-3.613a.537.537,0,0,1,.537-.537h-2.215a.537.537,0,0,0-.537.537v3.613a.537.537,0,0,0,.537.537H254.5A.537.537,0,0,1,253.963,246.685Z" transform="translate(-231.929 -224.994)" fill="#0182fc"/>
            <path id="Trazado_807068" data-name="Trazado 807068" d="M69.462,246.685v-3.613a.537.537,0,0,1,.537-.537H67.784a.537.537,0,0,0-.537.537v3.613a.537.537,0,0,0,.537.537H70A.537.537,0,0,1,69.462,246.685Z" transform="translate(-67.247 -224.994)" fill="#0182fc"/>
            <g id="Grupo_1067049" data-name="Grupo 1067049" transform="translate(19.819)">
              <path id="Trazado_807069" data-name="Trazado 807069" d="M255.9,83.928h-3.612a.537.537,0,0,1-.537-.537V79.778a.537.537,0,0,1,.537-.537H255.9a.537.537,0,0,1,.537.537v3.612A.537.537,0,0,1,255.9,83.928Z" transform="translate(-251.748 -79.241)" fill="#0593fc"/>
            </g>
            <path id="Trazado_807070" data-name="Trazado 807070" d="M253.963,83.391V79.778a.537.537,0,0,1,.537-.537h-2.215a.537.537,0,0,0-.537.537v3.612a.537.537,0,0,0,.537.537H254.5A.537.537,0,0,1,253.963,83.391Z" transform="translate(-231.929 -79.241)" fill="#0182fc"/>
            <g id="Grupo_1067050" data-name="Grupo 1067050">
              <path id="Trazado_807071" data-name="Trazado 807071" d="M71.4,83.928H67.784a.537.537,0,0,1-.537-.537V79.778a.537.537,0,0,1,.537-.537H71.4a.537.537,0,0,1,.537.537v3.612A.537.537,0,0,1,71.4,83.928Z" transform="translate(-67.247 -79.241)" fill="#0593fc"/>
            </g>
            <path id="Trazado_807072" data-name="Trazado 807072" d="M69.462,83.391V79.778A.537.537,0,0,1,70,79.241H67.784a.537.537,0,0,0-.537.537v3.612a.537.537,0,0,0,.537.537H70A.537.537,0,0,1,69.462,83.391Z" transform="translate(-67.247 -79.241)" fill="#0182fc"/>
          </g>
          <g id="Grupo_1067052" data-name="Grupo 1067052" transform="translate(27.653 1.585)">
            <path id="Trazado_807073" data-name="Trazado 807073" d="M337.036,98.047H325.211a.537.537,0,0,1-.537-.537V94.537a.537.537,0,0,1,.537-.537h11.825a.537.537,0,0,1,.537.537V97.51A.537.537,0,0,1,337.036,98.047Z" transform="translate(-324.674 -94)" fill="#fe646f"/>
          </g>
          <g id="Grupo_1067053" data-name="Grupo 1067053" transform="translate(27.653 1.585)">
            <path id="Trazado_807074" data-name="Trazado 807074" d="M329.74,97.415V94.632a.632.632,0,0,1,.632-.632h-5.161a.537.537,0,0,0-.537.537V97.51a.537.537,0,0,0,.537.537h5.161A.632.632,0,0,1,329.74,97.415Z" transform="translate(-324.674 -94)" fill="#fd4755"/>
          </g>
        </g>
      </g>
      <path id="Trazado_807075" data-name="Trazado 807075" d="M129.366,126.957H117.093a.806.806,0,0,0-.806.806v10.3a.806.806,0,0,0,.806.806h12.273a.806.806,0,0,0,.806-.806v-10.3A.806.806,0,0,0,129.366,126.957Zm-2.213,1.611-9.254,7.767v-7.767Zm-7.847,8.689,9.254-7.767v7.767Z" transform="translate(-103.795 -88.039)" fill="#647fa0"/>
    </g>
  </g>
</svg>
