<svg xmlns="http://www.w3.org/2000/svg" width="55" height="55" viewBox="0 0 55 55">
  <g id="Grupo_1071076" data-name="Grupo 1071076" transform="translate(-1127 -13171)">
    <rect id="Rectángulo_375558" data-name="Rectángulo 375558" width="55" height="55" transform="translate(1127 13171)" fill="none"/>
    <g id="sociologia" transform="translate(1111 13155)">
      <g id="Grupo_1067073" data-name="Grupo 1067073" transform="translate(24.067 16)">
        <g id="Grupo_1067057" data-name="Grupo 1067057" transform="translate(0 0)">
          <g id="Grupo_1067056" data-name="Grupo 1067056">
            <ellipse id="Elipse_5707" data-name="Elipse 5707" cx="19.362" cy="19.16" rx="19.362" ry="19.16" fill="#5ad7ff"/>
          </g>
        </g>
        <g id="Grupo_1067059" data-name="Grupo 1067059" transform="translate(19.433 0)">
          <g id="Grupo_1067058" data-name="Grupo 1067058">
            <path id="Trazado_807082" data-name="Trazado 807082" d="M256,16V54.5A19.25,19.25,0,0,0,256,16Z" transform="translate(-256 -16)" fill="#23aae6"/>
          </g>
        </g>
        <g id="Grupo_1067061" data-name="Grupo 1067061" transform="translate(6.659)">
          <g id="Grupo_1067060" data-name="Grupo 1067060">
            <path id="Trazado_807083" data-name="Trazado 807083" d="M146.292,21.5h1.6a2.75,2.75,0,1,1,0,5.5h-.229a2.75,2.75,0,1,0,0,5.5h12.375a2.75,2.75,0,1,0,0-5.5,2.75,2.75,0,0,1,0-5.5h2.75a2.75,2.75,0,0,0,2.569-3.731,19.26,19.26,0,0,0-20.843,3.081A2.738,2.738,0,0,0,146.292,21.5Z" transform="translate(-144.518 -16)" fill="#91c83c"/>
          </g>
        </g>
        <g id="Grupo_1067066" data-name="Grupo 1067066" transform="translate(19.433)">
          <g id="Grupo_1067063" data-name="Grupo 1067063">
            <g id="Grupo_1067062" data-name="Grupo 1067062">
              <path id="Trazado_807084" data-name="Trazado 807084" d="M258.75,21.5h2.75a2.75,2.75,0,0,0,2.569-3.731A19.176,19.176,0,0,0,256,16v8.25A2.75,2.75,0,0,1,258.75,21.5Z" transform="translate(-256 -16)" fill="#4b9641"/>
            </g>
          </g>
          <g id="Grupo_1067065" data-name="Grupo 1067065" transform="translate(0 8.25)">
            <g id="Grupo_1067064" data-name="Grupo 1067064">
              <path id="Trazado_807085" data-name="Trazado 807085" d="M261.5,93.5a2.75,2.75,0,0,0-2.75-2.75A2.75,2.75,0,0,1,256,88v8.25h2.75A2.75,2.75,0,0,0,261.5,93.5Z" transform="translate(-256 -88)" fill="#4b9641"/>
            </g>
          </g>
        </g>
        <g id="Grupo_1067068" data-name="Grupo 1067068" transform="translate(16.683 22)">
          <g id="Grupo_1067067" data-name="Grupo 1067067">
            <path id="Trazado_807086" data-name="Trazado 807086" d="M253.8,208H240.25a2.75,2.75,0,1,0,0,5.5,2.75,2.75,0,0,1,0,5.5h-5.5a2.75,2.75,0,0,0,0,5.5A19.253,19.253,0,0,0,253.8,208Z" transform="translate(-232 -208)" fill="#4b9641"/>
          </g>
        </g>
        <g id="Grupo_1067070" data-name="Grupo 1067070" transform="translate(16.683 33)">
          <g id="Grupo_1067069" data-name="Grupo 1067069">
            <path id="Trazado_807087" data-name="Trazado 807087" d="M234.75,309.5V304a2.75,2.75,0,0,0,0,5.5Z" transform="translate(-232 -304)" fill="#91c83c"/>
          </g>
        </g>
        <g id="Grupo_1067072" data-name="Grupo 1067072" transform="translate(4.308 22)">
          <g id="Grupo_1067071" data-name="Grupo 1067071">
            <path id="Trazado_807088" data-name="Trazado 807088" d="M129.5,213.5h-2.75a2.75,2.75,0,1,1,0-5.5h2.75a2.75,2.75,0,1,1,0,5.5Z" transform="translate(-124 -208)" fill="#91c83c"/>
          </g>
        </g>
      </g>
      <g id="Grupo_1067086" data-name="Grupo 1067086" transform="translate(34.333 43.5)">
        <g id="Grupo_1067075" data-name="Grupo 1067075" transform="translate(4.583)">
          <g id="Grupo_1067074" data-name="Grupo 1067074">
            <path id="Trazado_807089" data-name="Trazado 807089" d="M222.417,267H218.75a2.75,2.75,0,0,1-2.75-2.75v-5.5a2.75,2.75,0,0,1,2.75-2.75h3.667a2.75,2.75,0,0,1,2.75,2.75v5.5A2.75,2.75,0,0,1,222.417,267Z" transform="translate(-216 -256)" fill="#fab991"/>
          </g>
        </g>
        <g id="Grupo_1067077" data-name="Grupo 1067077" transform="translate(7.333 11)">
          <g id="Grupo_1067076" data-name="Grupo 1067076">
            <path id="Trazado_807090" data-name="Trazado 807090" d="M240,352h3.667v1.833H240Z" transform="translate(-240 -352)" fill="#f0915a"/>
          </g>
        </g>
        <g id="Grupo_1067079" data-name="Grupo 1067079" transform="translate(0 12.833)">
          <g id="Grupo_1067078" data-name="Grupo 1067078">
            <path id="Trazado_807091" data-name="Trazado 807091" d="M194.333,382.667H176V373.5a5.5,5.5,0,0,1,5.5-5.5h7.333a5.5,5.5,0,0,1,5.5,5.5Z" transform="translate(-176 -368)" fill="#d7e6f0"/>
          </g>
        </g>
        <g id="Grupo_1067081" data-name="Grupo 1067081" transform="translate(4.583)">
          <g id="Grupo_1067080" data-name="Grupo 1067080">
            <path id="Trazado_807092" data-name="Trazado 807092" d="M222.417,256H218.75a2.75,2.75,0,0,0-2.75,2.75v2.75a.917.917,0,0,0,.917-.917v-.917a.917.917,0,0,1,.917-.917h5.5a.917.917,0,0,1,.917.917v.917a.917.917,0,0,0,.917.917v-2.75A2.75,2.75,0,0,0,222.417,256Z" transform="translate(-216 -256)" fill="#463c4b"/>
          </g>
        </g>
        <g id="Grupo_1067083" data-name="Grupo 1067083" transform="translate(13.75 4.583)">
          <g id="Grupo_1067082" data-name="Grupo 1067082">
            <path id="Trazado_807093" data-name="Trazado 807093" d="M296,298.75V296a.917.917,0,0,1,.917.917v.917A.917.917,0,0,1,296,298.75Z" transform="translate(-296 -296)" fill="#f0915a"/>
          </g>
        </g>
        <g id="Grupo_1067085" data-name="Grupo 1067085" transform="translate(3.667 4.583)">
          <g id="Grupo_1067084" data-name="Grupo 1067084">
            <path id="Trazado_807094" data-name="Trazado 807094" d="M208.917,298.75V296a.917.917,0,0,0-.917.917v.917A.917.917,0,0,0,208.917,298.75Z" transform="translate(-208 -296)" fill="#f0915a"/>
          </g>
        </g>
      </g>
      <path id="Trazado_807095" data-name="Trazado 807095" d="M243.667,368H240a1.831,1.831,0,0,0,.917,1.586v13.081h1.833V369.586A1.831,1.831,0,0,0,243.667,368Z" transform="translate(-198.333 -311.667)" fill="#f06423"/>
      <g id="Grupo_1067088" data-name="Grupo 1067088" transform="translate(37.083 61.833)">
        <g id="Grupo_1067087" data-name="Grupo 1067087" transform="translate(0)">
          <path id="Trazado_807096" data-name="Trazado 807096" d="M200.458,416a.458.458,0,0,1,.458.458v8.708H200v-8.708A.458.458,0,0,1,200.458,416Z" transform="translate(-200 -416)" fill="#a5c3dc"/>
        </g>
      </g>
      <g id="Grupo_1067090" data-name="Grupo 1067090" transform="translate(49 61.833)">
        <g id="Grupo_1067089" data-name="Grupo 1067089">
          <path id="Trazado_807097" data-name="Trazado 807097" d="M304.458,416a.458.458,0,0,1,.458.458v8.708H304v-8.708A.458.458,0,0,1,304.458,416Z" transform="translate(-304 -416)" fill="#a5c3dc"/>
        </g>
      </g>
      <g id="Grupo_1067105" data-name="Grupo 1067105" transform="translate(52.667 43.5)">
        <g id="Grupo_1067092" data-name="Grupo 1067092" transform="translate(4.583 7.333)">
          <g id="Grupo_1067091" data-name="Grupo 1067091">
            <path id="Trazado_807098" data-name="Trazado 807098" d="M376,320h9.167v7.333H376Z" transform="translate(-376 -320)" fill="#463c4b"/>
          </g>
        </g>
        <g id="Grupo_1067094" data-name="Grupo 1067094" transform="translate(4.583)">
          <g id="Grupo_1067093" data-name="Grupo 1067093">
            <path id="Trazado_807099" data-name="Trazado 807099" d="M382.417,267H378.75a2.75,2.75,0,0,1-2.75-2.75v-5.5a2.75,2.75,0,0,1,2.75-2.75h3.667a2.75,2.75,0,0,1,2.75,2.75v5.5A2.75,2.75,0,0,1,382.417,267Z" transform="translate(-376 -256)" fill="#fab991"/>
          </g>
        </g>
        <g id="Grupo_1067096" data-name="Grupo 1067096" transform="translate(7.333 11)">
          <g id="Grupo_1067095" data-name="Grupo 1067095">
            <path id="Trazado_807100" data-name="Trazado 807100" d="M400,352h3.667v1.833H400Z" transform="translate(-400 -352)" fill="#f0915a"/>
          </g>
        </g>
        <g id="Grupo_1067098" data-name="Grupo 1067098" transform="translate(0 12.833)">
          <g id="Grupo_1067097" data-name="Grupo 1067097">
            <path id="Trazado_807101" data-name="Trazado 807101" d="M354.333,382.667H336V373.5a5.5,5.5,0,0,1,5.5-5.5h7.333a5.5,5.5,0,0,1,5.5,5.5Z" transform="translate(-336 -368)" fill="#fab991"/>
          </g>
        </g>
        <g id="Grupo_1067100" data-name="Grupo 1067100" transform="translate(4.583)">
          <g id="Grupo_1067099" data-name="Grupo 1067099">
            <path id="Trazado_807102" data-name="Trazado 807102" d="M376.917,260.583v-.917a.917.917,0,0,1,.917-.917h5.5a.917.917,0,0,1,.917.917v.917h.917V258.75a2.75,2.75,0,0,0-2.75-2.75H378.75a2.75,2.75,0,0,0-2.75,2.75v1.833Z" transform="translate(-376 -256)" fill="#463c4b"/>
          </g>
        </g>
        <g id="Grupo_1067102" data-name="Grupo 1067102" transform="translate(13.75 4.583)">
          <g id="Grupo_1067101" data-name="Grupo 1067101">
            <path id="Trazado_807103" data-name="Trazado 807103" d="M456,298.75V296a.917.917,0,0,1,.917.917v.917A.917.917,0,0,1,456,298.75Z" transform="translate(-456 -296)" fill="#f0915a"/>
          </g>
        </g>
        <g id="Grupo_1067104" data-name="Grupo 1067104" transform="translate(3.667 4.583)">
          <g id="Grupo_1067103" data-name="Grupo 1067103">
            <path id="Trazado_807104" data-name="Trazado 807104" d="M368.917,298.75V296a.917.917,0,0,0-.917.917v.917A.917.917,0,0,0,368.917,298.75Z" transform="translate(-368 -296)" fill="#f0915a"/>
          </g>
        </g>
      </g>
      <g id="Grupo_1067107" data-name="Grupo 1067107" transform="translate(55.417 61.833)">
        <g id="Grupo_1067106" data-name="Grupo 1067106">
          <path id="Trazado_807105" data-name="Trazado 807105" d="M360.458,416a.458.458,0,0,1,.458.458v8.708H360v-8.708A.458.458,0,0,1,360.458,416Z" transform="translate(-360 -416)" fill="#f0915a"/>
        </g>
      </g>
      <g id="Grupo_1067109" data-name="Grupo 1067109" transform="translate(67.333 61.833)">
        <g id="Grupo_1067108" data-name="Grupo 1067108">
          <path id="Trazado_807106" data-name="Trazado 807106" d="M464.458,416a.458.458,0,0,1,.458.458v8.708H464v-8.708A.458.458,0,0,1,464.458,416Z" transform="translate(-464 -416)" fill="#f0915a"/>
        </g>
      </g>
      <g id="Grupo_1067120" data-name="Grupo 1067120" transform="translate(16 43.5)">
        <g id="Grupo_1067111" data-name="Grupo 1067111" transform="translate(0 12.833)">
          <g id="Grupo_1067110" data-name="Grupo 1067110">
            <path id="Trazado_807107" data-name="Trazado 807107" d="M34.333,382.667H16V373.5a5.5,5.5,0,0,1,5.5-5.5h7.333a5.5,5.5,0,0,1,5.5,5.5Z" transform="translate(-16 -368)" fill="#555a6e"/>
          </g>
        </g>
        <g id="Grupo_1067113" data-name="Grupo 1067113" transform="translate(4.583)">
          <g id="Grupo_1067112" data-name="Grupo 1067112">
            <path id="Trazado_807108" data-name="Trazado 807108" d="M62.417,267H58.75A2.75,2.75,0,0,1,56,264.25v-5.5A2.75,2.75,0,0,1,58.75,256h3.667a2.75,2.75,0,0,1,2.75,2.75v5.5A2.75,2.75,0,0,1,62.417,267Z" transform="translate(-56 -256)" fill="#fab991"/>
          </g>
        </g>
        <g id="Grupo_1067115" data-name="Grupo 1067115" transform="translate(4.583)">
          <g id="Grupo_1067114" data-name="Grupo 1067114">
            <path id="Trazado_807109" data-name="Trazado 807109" d="M62.417,256H58.75A2.75,2.75,0,0,0,56,258.75v2.75a.917.917,0,0,0,.917-.917v-.917a.917.917,0,0,1,.917-.917h5.5a.917.917,0,0,1,.917.917v.917a.917.917,0,0,0,.917.917v-2.75A2.75,2.75,0,0,0,62.417,256Z" transform="translate(-56 -256)" fill="#463c4b"/>
          </g>
        </g>
        <g id="Grupo_1067117" data-name="Grupo 1067117" transform="translate(13.75 4.583)">
          <g id="Grupo_1067116" data-name="Grupo 1067116">
            <path id="Trazado_807110" data-name="Trazado 807110" d="M136,298.75V296a.917.917,0,0,1,.917.917v.917A.917.917,0,0,1,136,298.75Z" transform="translate(-136 -296)" fill="#f0915a"/>
          </g>
        </g>
        <g id="Grupo_1067119" data-name="Grupo 1067119" transform="translate(3.667 4.583)">
          <g id="Grupo_1067118" data-name="Grupo 1067118">
            <path id="Trazado_807111" data-name="Trazado 807111" d="M48.917,298.75V296a.917.917,0,0,0-.917.917v.917A.917.917,0,0,0,48.917,298.75Z" transform="translate(-48 -296)" fill="#f0915a"/>
          </g>
        </g>
      </g>
      <g id="Grupo_1067122" data-name="Grupo 1067122" transform="translate(23.333 54.5)">
        <g id="Grupo_1067121" data-name="Grupo 1067121" transform="translate(0)">
          <path id="Trazado_807112" data-name="Trazado 807112" d="M80,352v1.833a1.833,1.833,0,1,0,3.667,0V352Z" transform="translate(-80 -352)" fill="#f0915a"/>
        </g>
      </g>
      <g id="Grupo_1067124" data-name="Grupo 1067124" transform="translate(18.75 61.833)">
        <g id="Grupo_1067123" data-name="Grupo 1067123">
          <path id="Trazado_807113" data-name="Trazado 807113" d="M40.458,416a.458.458,0,0,1,.458.458v8.708H40v-8.708A.458.458,0,0,1,40.458,416Z" transform="translate(-40 -416)" fill="#463c4b"/>
        </g>
      </g>
      <g id="Grupo_1067126" data-name="Grupo 1067126" transform="translate(30.667 61.833)">
        <g id="Grupo_1067125" data-name="Grupo 1067125">
          <path id="Trazado_807114" data-name="Trazado 807114" d="M144.458,416a.458.458,0,0,1,.458.458v8.708H144v-8.708A.458.458,0,0,1,144.458,416Z" transform="translate(-144 -416)" fill="#463c4b"/>
        </g>
      </g>
      <g id="Grupo_1067128" data-name="Grupo 1067128" transform="translate(20.583 42.278)">
        <g id="Grupo_1067127" data-name="Grupo 1067127" transform="translate(0)">
          <path id="Trazado_807115" data-name="Trazado 807115" d="M64.25,245.333H56.917a.917.917,0,0,0-.917.917v3.972h9.167V246.25A.917.917,0,0,0,64.25,245.333Z" transform="translate(-56 -245.333)" fill="#f06423"/>
        </g>
      </g>
      <g id="Grupo_1067130" data-name="Grupo 1067130" transform="translate(24.067 59.967)">
        <g id="Grupo_1067129" data-name="Grupo 1067129" transform="translate(0 0)">
          <circle id="Elipse_5708" data-name="Elipse 5708" cx="1.008" cy="1.008" r="1.008" fill="#faa019"/>
        </g>
      </g>
      <g id="Grupo_1067132" data-name="Grupo 1067132" transform="translate(24.067 64.404)">
        <g id="Grupo_1067131" data-name="Grupo 1067131" transform="translate(0 0)">
          <circle id="Elipse_5709" data-name="Elipse 5709" cx="1.008" cy="1.008" r="1.008" fill="#faa019"/>
        </g>
      </g>
      <g id="Grupo_1067134" data-name="Grupo 1067134" transform="translate(24.067 69.245)">
        <g id="Grupo_1067133" data-name="Grupo 1067133" transform="translate(0 0)">
          <ellipse id="Elipse_5710" data-name="Elipse 5710" cx="1.008" cy="0.807" rx="1.008" ry="0.807" fill="#faa019"/>
        </g>
      </g>
      <g id="Grupo_1067136" data-name="Grupo 1067136" transform="translate(57.25 46.25)">
        <g id="Grupo_1067135" data-name="Grupo 1067135">
          <path id="Trazado_807116" data-name="Trazado 807116" d="M376,280h9.167v1.833H376Z" transform="translate(-376 -280)" fill="#f06423"/>
        </g>
      </g>
      <g id="Grupo_1067138" data-name="Grupo 1067138" transform="translate(57.708 55.875)">
        <g id="Grupo_1067137" data-name="Grupo 1067137">
          <path id="Trazado_807117" data-name="Trazado 807117" d="M384.125,370.417A4.13,4.13,0,0,1,380,366.292v-1.833a.458.458,0,0,1,.917,0v1.833a3.208,3.208,0,1,0,6.417,0v-1.833a.458.458,0,0,1,.917,0v1.833A4.13,4.13,0,0,1,384.125,370.417Z" transform="translate(-380 -364)" fill="#f06423"/>
        </g>
      </g>
      <g id="Grupo_1067140" data-name="Grupo 1067140" transform="translate(56.333 62.75)">
        <g id="Grupo_1067139" data-name="Grupo 1067139" transform="translate(0 0)">
          <path id="Trazado_807118" data-name="Trazado 807118" d="M368,424h11v8.25H368Z" transform="translate(-368 -424)" fill="#f06423"/>
        </g>
      </g>
      <g id="Grupo_1067142" data-name="Grupo 1067142" transform="translate(56.333 69.167)">
        <g id="Grupo_1067141" data-name="Grupo 1067141">
          <path id="Trazado_807119" data-name="Trazado 807119" d="M368,480h11v1.833H368Z" transform="translate(-368 -480)" fill="#faa019"/>
        </g>
      </g>
      <g id="Grupo_1067151" data-name="Grupo 1067151" transform="translate(30.521 17.833)">
        <g id="Grupo_1067144" data-name="Grupo 1067144" transform="translate(0 0.184)">
          <g id="Grupo_1067143" data-name="Grupo 1067143">
            <ellipse id="Elipse_5711" data-name="Elipse 5711" cx="12.908" cy="12.706" rx="12.908" ry="12.706" fill="#f06423"/>
          </g>
        </g>
        <g id="Grupo_1067146" data-name="Grupo 1067146" transform="translate(0.145 0)">
          <g id="Grupo_1067145" data-name="Grupo 1067145">
            <path id="Trazado_807120" data-name="Trazado 807120" d="M144.917,45.75a.917.917,0,0,1-.917-.917A12.848,12.848,0,0,1,156.833,32a.917.917,0,0,1,0,1.833,11.012,11.012,0,0,0-11,11A.917.917,0,0,1,144.917,45.75Z" transform="translate(-144 -32)" fill="#faa019"/>
          </g>
        </g>
        <g id="Grupo_1067148" data-name="Grupo 1067148" transform="translate(11.145 3.667)">
          <g id="Grupo_1067147" data-name="Grupo 1067147">
            <path id="Trazado_807121" data-name="Trazado 807121" d="M241.833,76.833A1.833,1.833,0,0,1,240,75V65.833a1.833,1.833,0,1,1,3.667,0V75A1.833,1.833,0,0,1,241.833,76.833Z" transform="translate(-240 -64)" fill="#d7e6f0"/>
          </g>
        </g>
        <g id="Grupo_1067150" data-name="Grupo 1067150" transform="translate(11.145 18.333)">
          <g id="Grupo_1067149" data-name="Grupo 1067149">
            <path id="Trazado_807122" data-name="Trazado 807122" d="M241.833,195.667a1.833,1.833,0,1,1,1.833-1.833A1.833,1.833,0,0,1,241.833,195.667Z" transform="translate(-240 -192)" fill="#d7e6f0"/>
          </g>
        </g>
      </g>
    </g>
  </g>
</svg>
