<svg xmlns="http://www.w3.org/2000/svg" width="55" height="55" viewBox="0 0 55 55">
  <g id="Grupo_1071075" data-name="Grupo 1071075" transform="translate(-1304 -13171)">
    <rect id="Rectángulo_375556" data-name="Rectángulo 375556" width="55" height="55" transform="translate(1304 13171)" fill="none"/>
    <g id="ambiental" transform="translate(1304.5 13170.999)">
      <path id="Trazado_807129" data-name="Trazado 807129" d="M52.644,48.072A26.072,26.072,0,1,1,26.572,22,26.072,26.072,0,0,1,52.644,48.072Zm0,0" transform="translate(0 -19.658)" fill="#91e0e8"/>
      <path id="Trazado_807130" data-name="Trazado 807130" d="M154.907,227.256a2.253,2.253,0,0,1,.5.058l.1.022.029-.095a2.222,2.222,0,0,1,2.137-1.581,2.293,2.293,0,0,1,.233.013,6.028,6.028,0,0,0-.748-.908,6.115,6.115,0,0,0-5.228-1.694.435.435,0,0,0-.363.366A6.117,6.117,0,0,0,153,228.33a2.23,2.23,0,0,1,1.908-1.074Zm0,0" transform="translate(-134.932 -199.268)" fill="#37c47a"/>
      <path id="Trazado_807131" data-name="Trazado 807131" d="M154.507,227.3a6.117,6.117,0,0,1-.706-3.856.434.434,0,0,1,.231-.323,6.079,6.079,0,0,0-2.1-.043.434.434,0,0,0-.363.366A6.117,6.117,0,0,0,153,228.334,2.23,2.23,0,0,1,154.507,227.3Zm0,0" transform="translate(-134.932 -199.272)" fill="#2bb381"/>
      <path id="Trazado_807132" data-name="Trazado 807132" d="M120.537,275.457l1.5.824.1.022.109.028.022-.11a2.238,2.238,0,0,1,1.428-1.66l-.557-.306a2.416,2.416,0,0,0-2.7.375,1.522,1.522,0,0,0-.388.644A1.907,1.907,0,0,1,120.537,275.457Zm0,0" transform="translate(-106.829 -244.841)" fill="#ffc987"/>
      <path id="Trazado_807133" data-name="Trazado 807133" d="M96.483,287.047a2.061,2.061,0,0,1,.892.192l.106.051a2.235,2.235,0,0,1,2.73-1.676l.109.028.01-.05-1.671-.917a2.415,2.415,0,0,0-2.7.375,1.414,1.414,0,0,0,0,2.056,2.469,2.469,0,0,1,.532-.059Zm0,0" transform="translate(-84.9 -254.152)" fill="#ffaf68"/>
      <path id="Trazado_807134" data-name="Trazado 807134" d="M258.1,12.014a.706.706,0,0,0-.593-.593,9.9,9.9,0,0,0-11.327,10.942l6.924-6.924a.692.692,0,1,1,.978.978l-6.924,6.924A9.9,9.9,0,0,0,258.1,12.014Zm0,0" transform="translate(-219.478 -10.105)" fill="#37c47a"/>
      <path id="Trazado_807135" data-name="Trazado 807135" d="M257.094,113.465l-1.161,1.16a9.884,9.884,0,0,0,1.222.065A9.851,9.851,0,0,1,257.094,113.465Zm0,0" transform="translate(-228.251 -101.39)" fill="#2bb381"/>
      <path id="Trazado_807136" data-name="Trazado 807136" d="M248.6,19.943a9.875,9.875,0,0,1,9.547-7.567c-.014-.121-.029-.241-.047-.362a.707.707,0,0,0-.593-.593,9.9,9.9,0,0,0-11.327,10.942Zm0,0" transform="translate(-219.479 -10.105)" fill="#2bb381"/>
      <path id="Trazado_807137" data-name="Trazado 807137" d="M104.711,6.321a.692.692,0,0,1,.978-.978l5.623,5.623A9.9,9.9,0,0,0,99.975.112a.707.707,0,0,0-.593.593,9.947,9.947,0,0,0,2.786,8.5,9.949,9.949,0,0,0,8.243,2.821Zm0,0" transform="translate(-88.26 0)" fill="#37c47a"/>
      <path id="Trazado_807138" data-name="Trazado 807138" d="M212.373,102.993s0,0,0,0h-.006Zm0,0" transform="translate(-189.321 -92.028)" fill="#2bb381"/>
      <path id="Trazado_807139" data-name="Trazado 807139" d="M109.079,10.7A9.876,9.876,0,0,1,101.514.01a9.827,9.827,0,0,0-1.538.11.708.708,0,0,0-.593.593,9.947,9.947,0,0,0,2.787,8.5,9.949,9.949,0,0,0,8.243,2.821Zm0,0" transform="translate(-88.26 -0.007)" fill="#2bb381"/>
      <path id="Trazado_807140" data-name="Trazado 807140" d="M156.073,56.936V67.808a2.171,2.171,0,0,1,1.6.017V62.762l1.588-1.588a.8.8,0,0,0-1.129-1.129l-.459.459V56.936l8.359-8.359a.8.8,0,0,0-1.129-1.129l-8.029,8.029-8.019-8.019a.8.8,0,0,0-1.129,1.129Zm0,0" transform="translate(-131.348 -42.19)" fill="#0f9390"/>
      <path id="Trazado_807141" data-name="Trazado 807141" d="M275.231,177.5a6.113,6.113,0,0,1-5.5-.031.436.436,0,0,1-.23-.461,6.086,6.086,0,0,1,8.776-4.378.435.435,0,0,1,.23.461A6.113,6.113,0,0,1,275.231,177.5Zm0,0" transform="translate(-240.373 -153.664)" fill="#37c47a"/>
      <path id="Trazado_807142" data-name="Trazado 807142" d="M274.089,173.67a6.113,6.113,0,0,1,4.387-.4c.012-.058.025-.115.035-.173a.435.435,0,0,0-.23-.461,6.086,6.086,0,0,0-8.776,4.378.435.435,0,0,0,.23.461,6.038,6.038,0,0,0,1.109.434A6.112,6.112,0,0,1,274.089,173.67Zm0,0" transform="translate(-240.373 -153.665)" fill="#2bb381"/>
      <path id="Trazado_807143" data-name="Trazado 807143" d="M118.983,248.944a11.318,11.318,0,0,0,3.289.905l8.83.775c.054,0,.106.007.158.007a1.566,1.566,0,0,0,1.151-.481,1.6,1.6,0,0,0,.424-1.2,2.269,2.269,0,0,0-1.88-2.046l-4.731-.651a2.048,2.048,0,0,1-1.7-1.846,1.406,1.406,0,0,1,.372-1.055,1.38,1.38,0,0,1,1.014-.422c.039,0,.079,0,.119,0l8.043.6A5.73,5.73,0,0,1,137,244.785l.064.057a2.341,2.341,0,0,0-2.32-2.033,2.37,2.37,0,0,0-.4.035,2.343,2.343,0,0,0-2.831-1.318,2.34,2.34,0,0,0-2.934-1.822l-1.2-.922a2.188,2.188,0,0,0-2.528,0l-.8.619a2.344,2.344,0,0,0-2.933,1.552,2.341,2.341,0,0,0-2.748,1.539l-.121,0a2.342,2.342,0,0,0-2.3,1.881,2.343,2.343,0,0,0-2.855,1.731Zm0,0" transform="translate(-100.612 -213.012)" fill="#bf7e52"/>
      <path id="Trazado_807144" data-name="Trazado 807144" d="M116.335,247.667a2.342,2.342,0,0,1,2.916-2.165,2.342,2.342,0,0,1,2.3-1.881c.041,0,.081,0,.121,0a2.339,2.339,0,0,1,2.748-1.539,2.342,2.342,0,0,1,2.933-1.552l.8-.62a1.813,1.813,0,0,1,.4-.228l-1.169-.9a2.188,2.188,0,0,0-2.528,0l-.8.62a2.343,2.343,0,0,0-2.933,1.552,2.341,2.341,0,0,0-2.748,1.539l-.121,0a2.342,2.342,0,0,0-2.3,1.881,2.343,2.343,0,0,0-2.855,1.731Zm0,0" transform="translate(-100.612 -213.013)" fill="#a8683d"/>
      <path id="Trazado_807145" data-name="Trazado 807145" d="M116.653,286.578l-5.062-4.558a5.869,5.869,0,0,0-2.984-1.275l-8.042-.6a1.474,1.474,0,0,0-1.62,1.584,2.162,2.162,0,0,0,1.788,1.946l4.731.651a2.163,2.163,0,0,1,1.788,1.946,1.451,1.451,0,0,1-1.618,1.562l-8.83-.775a11.213,11.213,0,0,1-3.252-.9l-5.9-2.845a2.415,2.415,0,0,0-2.68.516,1.426,1.426,0,0,0,.3,2.2l7.273,4.792a10.765,10.765,0,0,0,3.11,1.293l13.477,2.807Zm0,0" transform="translate(-75.136 -250.326)" fill="#ffc987"/>
      <path id="Trazado_807146" data-name="Trazado 807146" d="M86.026,324.723a2.336,2.336,0,0,1,2.319,3.126l-3-1.975a1.471,1.471,0,0,1-.681-1.081Zm0,0" transform="translate(-75.211 -290.163)" fill="#ffe2b8"/>
      <path id="Trazado_807147" data-name="Trazado 807147" d="M221.738,281.692l-2.187-.155a1.468,1.468,0,0,1,1.619-1.394l2.847.213A2.336,2.336,0,0,1,221.738,281.692Zm0,0" transform="translate(-195.741 -250.326)" fill="#ffe2b8"/>
      <path id="Trazado_807148" data-name="Trazado 807148" d="M316.86,336.054l-1.887-1.7a.534.534,0,0,0-.752.039l-8.758,9.728a.534.534,0,0,0,.039.752l1.887,1.7Zm0,0" transform="translate(-272.389 -298.651)" fill="#fff"/>
      <path id="Trazado_807149" data-name="Trazado 807149" d="M309.028,344.754l-1.058-.953a.534.534,0,0,1-.039-.752l7.477-8.3-.433-.39a.534.534,0,0,0-.752.039l-8.758,9.728a.533.533,0,0,0,.04.751l1.887,1.7Zm0,0" transform="translate(-272.389 -298.651)" fill="#eef6ff"/>
      <path id="Trazado_807150" data-name="Trazado 807150" d="M335.236,349.579l-4.129-3.718a.534.534,0,0,0-.752.039l-10.067,11.181a.534.534,0,0,0,.039.752l3.29,2.962a26.181,26.181,0,0,0,11.619-11.216Zm0,0" transform="translate(-285.635 -308.933)" fill="#159e97"/>
      <path id="Trazado_807151" data-name="Trazado 807151" d="M322.522,430.507a.524.524,0,0,1-.115-.152l-2.116,2.351a.534.534,0,0,0,.039.752l3.29,2.962a26.029,26.029,0,0,0,3.191-1.847Zm0,0" transform="translate(-285.638 -384.557)" fill="#0f9390"/>
      <path id="Trazado_807152" data-name="Trazado 807152" d="M339.385,445.669a.947.947,0,1,1-.947-.947A.947.947,0,0,1,339.385,445.669Zm0,0" transform="translate(-301.13 -397.396)" fill="#ffaf10"/>
    </g>
  </g>
</svg>
