<svg id="opinion-del-cliente_2_" data-name="opinion-del-cliente (2)" xmlns="http://www.w3.org/2000/svg" width="130.862" height="130.862" viewBox="0 0 130.862 130.862">
  <path id="Trazado_807153" data-name="Trazado 807153" d="M361.335,301.926A15.351,15.351,0,0,1,346,286.591a15.337,15.337,0,1,1,30.671,0A15.351,15.351,0,0,1,361.335,301.926Zm0,0" transform="translate(-257.566 -201.735)" fill="#f6a96c"/>
  <path id="Trazado_807154" data-name="Trazado 807154" d="M344.162,392a26.633,26.633,0,0,0-15.6,5.076l-5.63,12.717,9.73,12.877h38.594v-3.834A27.057,27.057,0,0,0,344.162,392Zm0,0" transform="translate(-240.392 -291.809)" fill="#32ddf9"/>
  <path id="Trazado_807155" data-name="Trazado 807155" d="M19.425,32.387,7.549,38.594,9.8,24.979,0,15.668l13.592-1.917L19.425,0,25.4,13.751l13.194,1.917-9.548,9.311L31.3,38.594Zm0,0" transform="translate(0 0)" fill="#ffda2d"/>
  <path id="Trazado_807156" data-name="Trazado 807156" d="M209.754,24.945l2.3,13.649-11.885-6.211-11.885,6.211,2.3-13.649L181,15.668l13.342-1.917L200.169,0l5.981,13.751,13.188,1.917Zm0,0" transform="translate(-134.738)" fill="#ffda2d"/>
  <path id="Trazado_807157" data-name="Trazado 807157" d="M380.169,32.387l-11.876,6.207,2.254-13.615L361,15.668l13.337-1.917L380.169,0l5.975,13.751,13.449,1.917-9.8,9.311,2.254,13.615Zm0,0" transform="translate(-268.732 0)" fill="#fdbf00"/>
  <path id="Trazado_807158" data-name="Trazado 807158" d="M61.335,301.926A15.351,15.351,0,0,1,46,286.591a15.337,15.337,0,1,1,30.671,0A15.351,15.351,0,0,1,61.335,301.926Zm0,0" transform="translate(-34.243 -201.735)" fill="#ffbd86"/>
  <path id="Trazado_807159" data-name="Trazado 807159" d="M27.092,392A27.057,27.057,0,0,0,0,418.837v3.834H38.594l9.511-11.5-5.41-14.092A26.627,26.627,0,0,0,27.092,392Zm0,0" transform="translate(0 -291.809)" fill="#84ecf7"/>
  <path id="Trazado_807160" data-name="Trazado 807160" d="M267.885,38.594,256,32.383V0l5.981,13.751,13.188,1.917-9.585,9.277Zm0,0" transform="translate(-190.569 0)" fill="#fdbf00"/>
  <path id="Trazado_807161" data-name="Trazado 807161" d="M211.335,241A15.38,15.38,0,0,0,196,256.335a15.337,15.337,0,1,0,30.671,0A15.38,15.38,0,0,0,211.335,241Zm0,0" transform="translate(-145.904 -179.403)" fill="#fed2a4"/>
  <path id="Trazado_807162" data-name="Trazado 807162" d="M204.674,388.837v11.5H151v-11.5a26.837,26.837,0,0,1,53.674,0Zm0,0" transform="translate(-112.406 -269.477)" fill="#ff637b"/>
  <path id="Trazado_807163" data-name="Trazado 807163" d="M256,271.926V241a15.38,15.38,0,0,1,15.335,15.335A15.6,15.6,0,0,1,256,271.926Zm0,0" transform="translate(-190.569 -179.403)" fill="#f6a96c"/>
  <path id="Trazado_807164" data-name="Trazado 807164" d="M282.837,388.837v11.5H256V362a26.966,26.966,0,0,1,26.837,26.837Zm0,0" transform="translate(-190.569 -269.477)" fill="#e63950"/>
</svg>
