<svg xmlns="http://www.w3.org/2000/svg" width="174.148" height="177.151" viewBox="0 0 174.148 177.151">
  <g id="Grupo_1071189" data-name="Grupo 1071189" transform="translate(0 0)">
    <path id="Trazado_805290" data-name="Trazado 805290" d="M80,30.005A6.005,6.005,0,0,1,86.005,24h141.12a6.005,6.005,0,0,1,6.005,6.005v99.084a6.005,6.005,0,0,1-6.005,6.005H80Z" transform="translate(-58.982 -24)" fill="#4477a3"/>
    <g id="Grupo_1066787" data-name="Grupo 1066787" transform="translate(33.028 15.013)">
      <path id="Trazado_805291" data-name="Trazado 805291" d="M144,176h15.013v6.005H144Z" transform="translate(-131.99 -133.964)" fill="#c5dafa"/>
      <path id="Trazado_805292" data-name="Trazado 805292" d="M360,64h24.02v6.005H360Z" transform="translate(-266.921 -64)" fill="#c5dafa"/>
      <path id="Trazado_805293" data-name="Trazado 805293" d="M0,0H24.776V6.005H0Z" transform="matrix(0.805, -0.593, 0.593, 0.805, 64.262, 18.304)" fill="#c5dafa"/>
      <path id="Trazado_805294" data-name="Trazado 805294" d="M0,0H25.308V6.005H0Z" transform="matrix(0.805, -0.593, 0.593, 0.805, 35.306, 39.631)" fill="#c5dafa"/>
      <path id="Trazado_805295" data-name="Trazado 805295" d="M440,64h6.005v6.005H440Z" transform="translate(-316.896 -64)" fill="#c5dafa"/>
      <path id="Trazado_805296" data-name="Trazado 805296" d="M112,176h6.005v6.005H112Z" transform="translate(-112 -133.964)" fill="#c5dafa"/>
    </g>
    <path id="Trazado_805297" data-name="Trazado 805297" d="M349.038,391.033,367.054,352H322.015L304,391.033Z" transform="translate(-198.911 -228.896)" fill="#8be0e8"/>
    <path id="Trazado_805298" data-name="Trazado 805298" d="M240,456h69.059v6.005a6.005,6.005,0,0,1-6.005,6.005H246.005A6.005,6.005,0,0,1,240,462.005Z" transform="translate(-158.931 -293.862)" fill="#548aff"/>
    <path id="Trazado_805299" data-name="Trazado 805299" d="M64,280H84.654v27.023H64Z" transform="translate(-48.987 -183.918)" fill="#ffceb6"/>
    <path id="Trazado_805300" data-name="Trazado 805300" d="M94.649,280v21.018a12.281,12.281,0,0,1-8.749-3.626l-4.14-4.14A6.006,6.006,0,0,1,80,289.008V280Z" transform="translate(-58.982 -183.918)" fill="#ffbfa1"/>
    <path id="Trazado_805301" data-name="Trazado 805301" d="M111.013,240v23.656a6.369,6.369,0,0,1-10.873,4.5L96,264.02V240Z" transform="translate(-68.977 -158.932)" fill="#ffceb6"/>
    <path id="Trazado_805302" data-name="Trazado 805302" d="M49.008,249.028l-7-11.662A14.108,14.108,0,0,1,40,230.108h0A14.108,14.108,0,0,1,54.108,216H76.031a6.005,6.005,0,1,1,0,12.01H67.023l-6.005,9.008v12.01Z" transform="translate(-33.995 -143.939)" fill="#c47220"/>
    <path id="Trazado_805303" data-name="Trazado 805303" d="M117.079,387.043H92.4a12.01,12.01,0,0,1-8.927-3.976L72.041,370.363v25.688H24V354.015A18.015,18.015,0,0,1,42.015,336H62.081a21.018,21.018,0,0,1,16.267,7.709l20.716,25.32h18.015Z" transform="translate(-24 -218.9)" fill="#ffb401"/>
    <path id="Trazado_805304" data-name="Trazado 805304" d="M272,437.018V419h6.005l12.01-3,13.38,8.028a3.362,3.362,0,0,1-2.389,6.18l-10.991-2.2-10.409,7.807a6.005,6.005,0,0,1-3.6,1.2Z" transform="translate(-178.921 -268.875)" fill="#ffceb6"/>
    <path id="Trazado_805305" data-name="Trazado 805305" d="M363.023,468.01H342.005A6.005,6.005,0,0,1,336,462.005V456h33.028v6.005A6.005,6.005,0,0,1,363.023,468.01Z" transform="translate(-218.9 -293.862)" fill="#4367e0"/>
    <path id="Trazado_805306" data-name="Trazado 805306" d="M192,248h18.015v15.013H192Z" transform="translate(-128.946 -163.929)" fill="#ffa100"/>
    <path id="Trazado_805307" data-name="Trazado 805307" d="M240,216h18.015v27.023H240Z" transform="translate(-158.931 -143.938)" fill="#ffb401"/>
    <path id="Trazado_805308" data-name="Trazado 805308" d="M288,176h18.015v42.036H288Z" transform="translate(-188.916 -118.951)" fill="#ffc431"/>
    <path id="Trazado_805309" data-name="Trazado 805309" d="M336,136h18.015v57.048H336Z" transform="translate(-218.9 -93.965)" fill="#ffcc4d"/>
    <path id="Trazado_805310" data-name="Trazado 805310" d="M384,104h18.015v69.059H384Z" transform="translate(-248.885 -73.975)" fill="#ffd873"/>
    <path id="Trazado_805311" data-name="Trazado 805311" d="M168,280H276.092v6.005H168Z" transform="translate(-113.954 -183.918)" fill="#7dafff"/>
    <ellipse id="Elipse_5683" data-name="Elipse 5683" cx="5.54" cy="7.387" rx="5.54" ry="7.387" transform="translate(59.656 52.565)" fill="#c5dafa"/>
    <path id="Trazado_805312" data-name="Trazado 805312" d="M185.008,178.015a9.008,9.008,0,1,1,9.008-9.008,9.008,9.008,0,0,1-9.008,9.008Zm0-12.01a3,3,0,1,0,3,3A3,3,0,0,0,185.008,166.005Z" transform="translate(-118.952 -108.957)" fill="#e0edff"/>
    <circle id="Elipse_5684" data-name="Elipse 5684" cx="6.463" cy="6.463" r="6.463" transform="translate(89.202 32.252)" fill="#c5dafa"/>
    <path id="Trazado_805313" data-name="Trazado 805313" d="M265.008,122.015a9.008,9.008,0,1,1,9.008-9.008A9.008,9.008,0,0,1,265.008,122.015Zm0-12.01a3,3,0,1,0,3,3A3,3,0,0,0,265.008,110.005Z" transform="translate(-168.926 -73.975)" fill="#e0edff"/>
    <circle id="Elipse_5685" data-name="Elipse 5685" cx="5.54" cy="5.54" r="5.54" transform="translate(116.902 11.939)" fill="#c5dafa"/>
    <path id="Trazado_805314" data-name="Trazado 805314" d="M337.008,66.015a9.008,9.008,0,1,1,9.008-9.008A9.008,9.008,0,0,1,337.008,66.015Zm0-12.01a3,3,0,1,0,3,3,3,3,0,0,0-3-3Z" transform="translate(-213.903 -38.992)" fill="#e0edff"/>
    <ellipse id="Elipse_5686" data-name="Elipse 5686" cx="1.847" cy="2.77" rx="1.847" ry="2.77" transform="translate(28.263 6.399)" fill="#f5714f"/>
    <ellipse id="Elipse_5687" data-name="Elipse 5687" cx="1.847" cy="2.77" rx="1.847" ry="2.77" transform="translate(37.496 6.399)" fill="#ffc431"/>
    <ellipse id="Elipse_5688" data-name="Elipse 5688" cx="1.847" cy="2.77" rx="1.847" ry="2.77" transform="translate(46.729 6.399)" fill="#3cde8d"/>
    <rect id="Rectángulo_374892" data-name="Rectángulo 374892" width="6.005" height="17.953" rx="3.003" transform="translate(33.79 140.081) rotate(-42)" fill="#ffa100"/>
  </g>
</svg>
