<svg xmlns="http://www.w3.org/2000/svg" width="144.049" height="165.78" viewBox="0 0 144.049 165.78">
  <g id="Grupo_1071193" data-name="Grupo 1071193" transform="translate(0 0)">
    <path id="Trazado_805332" data-name="Trazado 805332" d="M146.345,119.449a53.394,53.394,0,0,1-53.278,47.573H54.361a51.381,51.381,0,0,1-39.168-17.04A50.333,50.333,0,0,1,4.553,129.7a64,64,0,0,1-1.542-22.977,89.964,89.964,0,0,1,45.8-67.851L38.787,8.883a5.79,5.79,0,0,1,.771-5.243,5.914,5.914,0,0,1,4.7-2.39h61.682a5.914,5.914,0,0,1,4.7,2.39,5.6,5.6,0,0,1,.771,5.166L101.394,39.57a96.979,96.979,0,0,1,21.28,16.269A80.912,80.912,0,0,1,146.422,106.8,77.041,77.041,0,0,1,146.345,119.449Z" transform="translate(-2.596 -1.25)" fill="#5ab267"/>
    <path id="Trazado_805333" data-name="Trazado 805333" d="M122.675,55.839A111.753,111.753,0,0,1,17.275,130.4,115.12,115.12,0,0,1,4.553,129.7a64,64,0,0,1-1.542-22.977,89.964,89.964,0,0,1,45.8-67.851L38.787,8.883a5.79,5.79,0,0,1,.771-5.243,5.914,5.914,0,0,1,4.7-2.39h61.682a5.914,5.914,0,0,1,4.7,2.39,5.6,5.6,0,0,1,.771,5.166L101.394,39.57a96.98,96.98,0,0,1,21.28,16.269Z" transform="translate(-2.596 -1.25)" fill="#8cd96b"/>
    <path id="Trazado_805334" data-name="Trazado 805334" d="M44.46,57.939A17.279,17.279,0,0,1,32.895,74.208v3.007a5.783,5.783,0,0,1-11.565,0V74.208a17.125,17.125,0,0,1-9.946-9.021,11.865,11.865,0,0,1-.617-1.465,5.767,5.767,0,1,1,10.872-3.855,1.025,1.025,0,0,0,.231.385,5.652,5.652,0,0,0,5.243,3.47,5.767,5.767,0,0,0,4.549-9.329,5.7,5.7,0,0,0-4.549-2.236A17.294,17.294,0,0,1,21.329,18.54V15.533a5.783,5.783,0,0,1,11.565,0V18.54A17.163,17.163,0,0,1,43.458,29.026a5.767,5.767,0,1,1-10.871,3.855,5.79,5.79,0,1,0-5.474,7.71A17.387,17.387,0,0,1,44.46,57.939Z" transform="translate(45.394 55.787)" fill="#e1e6f0"/>
    <path id="Trazado_805335" data-name="Trazado 805335" d="M21.042,19.593a1.026,1.026,0,0,0,.231.386,100.169,100.169,0,0,1-10.486,4.935,11.867,11.867,0,0,1-.617-1.465,5.767,5.767,0,1,1,10.871-3.855Z" transform="translate(45.99 96.062)" fill="#f3f5f9"/>
    <path id="Trazado_805336" data-name="Trazado 805336" d="M21.329,34.808a5.821,5.821,0,0,0,5.783,5.783,17.31,17.31,0,0,1,13.8,6.862q-4.511,3.7-9.252,6.939a5.7,5.7,0,0,0-4.549-2.236A17.294,17.294,0,0,1,21.329,18.54V15.533a5.783,5.783,0,0,1,11.565,0V18.54A17.163,17.163,0,0,1,43.458,29.026a5.767,5.767,0,1,1-10.871,3.855,5.8,5.8,0,0,0-11.257,1.928Z" transform="translate(45.394 55.787)" fill="#f3f5f9"/>
    <g id="Grupo_1066791" data-name="Grupo 1066791" transform="translate(28.172 34.696)">
      <path id="Trazado_805337" data-name="Trazado 805337" d="M40.171,44.3A5.767,5.767,0,0,1,35,41.1,83.556,83.556,0,0,0,13.562,16.159,5.783,5.783,0,0,1,20.5,6.907,94.32,94.32,0,0,1,45.337,35.936a5.783,5.783,0,0,1-2.591,7.757,5.721,5.721,0,0,1-2.575.609Z" transform="translate(27.294 -5.75)" fill="#ffdf40"/>
      <path id="Trazado_805338" data-name="Trazado 805338" d="M89.136,17.315h-77.1a5.783,5.783,0,0,1,0-11.565h77.1a5.783,5.783,0,1,1,0,11.565Z" transform="translate(-6.25 -5.75)" fill="#ffdf40"/>
    </g>
  </g>
</svg>
