<svg xmlns="http://www.w3.org/2000/svg" xmlns:xlink="http://www.w3.org/1999/xlink" width="96" height="96" viewBox="0 0 96 96">
  <defs>
    <clipPath id="clip-path">
      <rect id="Rectángulo_375627" data-name="Rectángulo 375627" width="72.962" height="54.098" fill="#12263f"/>
    </clipPath>
  </defs>
  <g id="Grupo_1071187" data-name="Grupo 1071187" transform="translate(-919.333 -424)">
    <g id="Grupo_1069952" data-name="Grupo 1069952">
      <g id="Grupo_1016873" data-name="Grupo 1016873" transform="translate(4)">
        <g id="Grupo_246409" data-name="Grupo 246409" transform="translate(-436 129)">
          <circle id="Elipse_4282" data-name="Elipse 4282" cx="48" cy="48" r="48" transform="translate(1351.333 295)" fill="#fffad0"/>
        </g>
      </g>
    </g>
    <g id="Grupo_1071181" data-name="Grupo 1071181" transform="translate(930.853 441.538)">
      <rect id="Rectángulo_375620" data-name="Rectángulo 375620" width="51.32" height="7.536" transform="translate(10.821 35.775)" fill="#12263f"/>
      <g id="Grupo_1071180" data-name="Grupo 1071180">
        <g id="Grupo_1071179" data-name="Grupo 1071179" clip-path="url(#clip-path)">
          <path id="Trazado_807873" data-name="Trazado 807873" d="M66.005,40.93H11.241a3.147,3.147,0,0,1-3.147-3.147V3.147A3.147,3.147,0,0,1,11.241,0H66.005a3.147,3.147,0,0,1,3.147,3.147V37.783a3.147,3.147,0,0,1-3.147,3.147" transform="translate(-2.142)" fill="#727997"/>
          <rect id="Rectángulo_375621" data-name="Rectángulo 375621" width="55.436" height="35.083" transform="translate(8.763 2.712)" fill="#fefefe"/>
          <path id="Trazado_807874" data-name="Trazado 807874" d="M0,70.523v1.118c0,.619.674,1.121,1.505,1.121H71.457c.831,0,1.505-.5,1.505-1.121V70.523Z" transform="translate(0 -18.665)" fill="#12263f"/>
          <path id="Trazado_807875" data-name="Trazado 807875" d="M36.481,58.784H6.534c-.1.107-4.809,4.322-6.247,7.453-.615,1.338-.213,2.042.932,2.042H71.743c1.145,0,1.546-.7.932-2.042-1.438-3.131-6.146-7.345-6.247-7.453Z" transform="translate(0 -15.558)" fill="#727997"/>
          <path id="Trazado_807876" data-name="Trazado 807876" d="M71.1,67.162H7.293l4.422-6.547H66.68Z" transform="translate(-1.93 -16.043)" fill="#9c9eb9"/>
          <path id="Trazado_807877" data-name="Trazado 807877" d="M70.606,66.013l-.138-.2H66.209l-.793-1.588h3.978l-.138-.2H65.314l-.793-1.588h3.662l-.138-.205H64.419l-.8-1.607h-.368l.79,1.607H59.48l-.639-1.607h-.368l.627,1.607H54.541l-.476-1.607H53.7l.463,1.607H49.6l-.313-1.607h-.368l.3,1.607H44.663l-.149-1.607h-.368l.137,1.607H39.956V60.616H39.55v1.607H35.066l.137-1.607h-.368l-.149,1.607H30.126l.3-1.607h-.368l-.313,1.607H25.188l.463-1.607h-.368l-.476,1.607H20.249l.627-1.607h-.368l-.639,1.607H15.309l.79-1.607h-.368l-.8,1.607H10.908l-.138.205h4.057l-.793,1.588H9.7l-.138.2h4.373l-.793,1.588H8.487l-.139.2h4.688l-.574,1.149h.419l.565-1.149h4.914L17.9,67.163h.419l.448-1.149h4.914l-.34,1.149h.419l.332-1.149h4.913l-.224,1.149H29.2l.215-1.149h4.914l-.107,1.149h.42l.1-1.149H39.55v1.149h.405V66.013h4.65l.1,1.149h.419l-.107-1.149h4.913l.215,1.149h.419l-.224-1.149h4.914l.331,1.149H56l-.34-1.149h4.913l.448,1.149h.419l-.457-1.149H65.9l.565,1.149h.419l-.574-1.149ZM20.168,62.429h4.578l-.471,1.588H19.549Zm-4.959,0h4.577l-.632,1.588H14.428Zm3.233,3.38H13.548l.78-1.588h4.746Zm5.3,0H18.851l.619-1.588h4.746Zm5.3,0H24.154l.458-1.588h4.746Zm.349-1.793H24.671l.458-1.588h4.577Zm4.955,1.793h-4.9l.3-1.588H34.5Zm.166-1.793H29.792l.3-1.588h4.578Zm5.032,1.793H34.76l.135-1.588H39.55Zm0-1.793H34.913l.135-1.588h4.5Zm.405-1.588H44.3l.135,1.588h-4.48Zm0,3.38V64.221h4.5l.135,1.588Zm24.184-3.38.78,1.588H60.193l-.632-1.588Zm-4.96,0,.619,1.588H55.072l-.47-1.588Zm-14.5,0H49.26l.3,1.588H44.829ZM45,65.809l-.148-1.588h4.746l.3,1.588Zm4.646-3.38H54.22l.458,1.588H49.951Zm.657,3.38-.309-1.588h4.746l.458,1.588Zm5.3,0-.47-1.588h4.746l.618,1.588Zm5.3,0-.632-1.588H65.02l.781,1.588Z" transform="translate(-2.209 -16.043)" fill="#d0d1de"/>
          <path id="Trazado_807878" data-name="Trazado 807878" d="M48.5,71.7H45.4a.635.635,0,0,0,.154.429.334.334,0,0,0,.235.088h5.419a.334.334,0,0,0,.235-.088A.642.642,0,0,0,51.6,71.7Z" transform="translate(-12.015 -18.976)" fill="#110239"/>
          <path id="Trazado_807879" data-name="Trazado 807879" d="M63.606,37.45H19.876V10.765h43.73Zm-42.914-.816h42.1V11.581h-42.1Z" transform="translate(-5.261 -2.849)" fill="#d0d1de"/>
          <rect id="Rectángulo_375622" data-name="Rectángulo 375622" width="4.066" height="17.406" transform="translate(47.919 14.632)" fill="#3b5620"/>
          <rect id="Rectángulo_375623" data-name="Rectángulo 375623" width="4.066" height="8.004" transform="translate(40.384 24.034)" fill="#632059"/>
          <rect id="Rectángulo_375624" data-name="Rectángulo 375624" width="4.066" height="9.941" transform="translate(32.848 22.097)" fill="#fffad0"/>
          <path id="Trazado_807901" data-name="Trazado 807901" d="M0,0H4.066V15.57H0Z" transform="translate(25.312 16.468)" fill="#61abff"/>
          <rect id="Rectángulo_375626" data-name="Rectángulo 375626" width="4.067" height="12.153" transform="translate(17.777 19.885)" fill="#d0d1de"/>
          <path id="Trazado_807880" data-name="Trazado 807880" d="M49.588,24.517l-7.723-1.534-7.443-7.112L27.027,22.4l-.271-.306,7.677-6.781,7.628,7.289,7.347,1.458,7.459-10.5.332.236Z" transform="translate(-7.082 -3.59)" fill="#110239"/>
          <path id="Trazado_807881" data-name="Trazado 807881" d="M27.529,25.047a.918.918,0,1,1-.918-.918.918.918,0,0,1,.918.918" transform="translate(-6.8 -6.386)" fill="#fd425f"/>
          <path id="Trazado_807882" data-name="Trazado 807882" d="M37.707,15.994a.918.918,0,1,1-.918-.918.918.918,0,0,1,.918.918" transform="translate(-9.494 -3.99)" fill="#fd425f"/>
          <path id="Trazado_807883" data-name="Trazado 807883" d="M48.024,25.775a.918.918,0,1,1-.918-.918.918.918,0,0,1,.918.918" transform="translate(-12.224 -6.579)" fill="#fd425f"/>
          <path id="Trazado_807884" data-name="Trazado 807884" d="M58.271,27.544a.918.918,0,1,1-.918-.918.918.918,0,0,1,.918.918" transform="translate(-14.936 -7.047)" fill="#fd425f"/>
          <path id="Trazado_807885" data-name="Trazado 807885" d="M68.519,13.636a.918.918,0,1,1-.918-.918.918.918,0,0,1,.918.918" transform="translate(-17.649 -3.366)" fill="#fd425f"/>
          <path id="Trazado_807886" data-name="Trazado 807886" d="M36.93,22.81a1.7,1.7,0,0,0,.785-.407,1.015,1.015,0,0,1,.315-.268,2.187,2.187,0,0,0,.39-.273.85.85,0,0,1,.41-.229c.2-.018.093.21,0,.353s-.635.367-.611.561.66-.106.785-.167c.3-.145.316-.392.493-.634.1-.141.193-.174.256.018.046.143-.051.289-.123.407a1.791,1.791,0,0,1-.611.621,2.1,2.1,0,0,0,.629-.521c.1-.12.434-.705.636-.565.406.281-.711,1.314-.977,1.394a2.462,2.462,0,0,0,.667-.483c.121-.109.4-.378.444-.089.069.426-.762.735-1.109.94a2.854,2.854,0,0,0,.716-.317c.31-.157.317.126.027.341a4.094,4.094,0,0,1-.454.26,2.654,2.654,0,0,1-1.7.238c-.241-.026-.711.181-.853.026-.276-.3-.13-.863-.12-1.207" transform="translate(-9.762 -5.724)" fill="#f88667"/>
          <path id="Trazado_807887" data-name="Trazado 807887" d="M32.967,22.22l.493,1.631s-5.769,1.489-7.172,1.707S21.8,22.25,21.8,22.25s-1.052-2.552-.266-2.519c.607.026,5.024,3.4,5.268,3.528s6.164-1.04,6.164-1.04" transform="translate(-5.623 -5.222)" fill="#1b3f5e"/>
          <path id="Trazado_807888" data-name="Trazado 807888" d="M16.1,62.486a6,6,0,0,0,.145,1.622c.187.518,1.519,1.311,1.519,1.311s-1.205.233-1.668-.124A6.969,6.969,0,0,1,14.6,62.822c.071-.243.4-.995.4-.995Z" transform="translate(-3.864 -16.364)" fill="#f88667"/>
          <path id="Trazado_807889" data-name="Trazado 807889" d="M25.86,61.567A5.968,5.968,0,0,0,26,63.189c.187.518,1.519,1.311,1.519,1.311s-1.205.233-1.668-.124A6.963,6.963,0,0,1,24.367,61.9c.071-.243.4-.995.4-.995Z" transform="translate(-6.448 -16.12)" fill="#f88667"/>
          <path id="Trazado_807890" data-name="Trazado 807890" d="M14.691,62.723s-1.011.337-.758,1.221a7.682,7.682,0,0,1,.21,2.022h.295s.063-1.263.253-1.221.611,1.221,1.032,1.221H18.1s.252-.253,0-.4-1.866-.084-2.049-.442-1.363-2.4-1.363-2.4" transform="translate(-3.677 -16.601)" fill="#110239"/>
          <path id="Trazado_807891" data-name="Trazado 807891" d="M24.532,61.765s-1.011.337-.758,1.221a7.682,7.682,0,0,1,.21,2.022h.295s.063-1.263.253-1.221.611,1.221,1.032,1.221h2.38s.252-.253,0-.4-1.866-.085-2.05-.443-1.363-2.4-1.363-2.4" transform="translate(-6.281 -16.347)" fill="#110239"/>
          <path id="Trazado_807892" data-name="Trazado 807892" d="M21.333,31.865s-2.833,1-4.885,0a4.874,4.874,0,0,0-1.441,3.174,11.647,11.647,0,0,0,.084,2.394,32.864,32.864,0,0,1,.272,6.209c-.316,2.806-1.188,10.947-1.188,10.947l1.953.3s1.793-9.828,2.005-11.04.895-6.14.895-6.14,1.216,3.81,1.529,5.655c.049.283.915,10.717.915,10.717l1.892-.012s-.105-11.59-.105-10.98c0,.249-.513-7.817-1.927-11.228" transform="translate(-3.752 -8.434)" fill="#467400"/>
          <path id="Trazado_807893" data-name="Trazado 807893" d="M22.01,40.783a8.759,8.759,0,0,0-1.558-3.091c.088.528.17,1.056.232,1.59l.007-.028s1.04,3.261,1.444,5.211c-.046-2.1.188-2.732-.124-3.681" transform="translate(-5.413 -9.976)" fill="#2f4113"/>
          <path id="Trazado_807894" data-name="Trazado 807894" d="M20.266,15.258c-.2-.04-1.135-2.021-1.536-2.406-.193,1.352-1.01,4.56-1.01,4.56.992,1.064,2.971.412,2.971.412a6.706,6.706,0,0,1-.424-2.566" transform="translate(-4.69 -3.402)" fill="#e45940"/>
          <path id="Trazado_807895" data-name="Trazado 807895" d="M20.2,9.7s1.925.433,2.294.995.368,2.022.571,2.408c.124.234.234.422.3.56.054.12-.082.19-.25.25a.29.29,0,0,0-.179.186c-.115.354-.432,1.255-.751,1.38a2.619,2.619,0,0,1-2.947-1.612c-.59-1.709-.267-4.533.966-4.167" transform="translate(-5.014 -2.559)" fill="#f88667"/>
          <path id="Trazado_807896" data-name="Trazado 807896" d="M17.282,18.142a24.318,24.318,0,0,0,2.643,1,25.1,25.1,0,0,1,1.66,3.925c.105.857.905,6.694.905,6.694a9.1,9.1,0,0,1-7.538.405s1.071-4.6.826-6.414-.033-4.268,1.5-5.614" transform="translate(-3.957 -4.802)" fill="#1b3f5e"/>
          <path id="Trazado_807897" data-name="Trazado 807897" d="M16.742,31.832c-.051-1.953.4-3.728.435-5.683A4.822,4.822,0,0,0,15.766,22.7a9.229,9.229,0,0,0,.013,2.26c.245,1.816-.826,6.415-.826,6.415a10.815,10.815,0,0,0,1.789.454" transform="translate(-3.958 -6.008)" fill="#0c1823"/>
          <path id="Trazado_807898" data-name="Trazado 807898" d="M14.251,21.037c1.084-.9.641-1.8,1.732-2.662l.238-.184c.056-.471-1.079-.228-.766-.7.438-.665,2.278-1.671,2.238-2.318a1.15,1.15,0,0,1,.046-.607c.095-.5.305-.6-.088-.963-.274-.257-.505-.533-.287-.921.177-.315.463-.407.708-.112.065.078.389.729.472.363.024-.1-.114-.3-.126-.415a.454.454,0,0,1,.131-.414c.194-.206.48-.316.681-.524.25-.259.282-.6.646-.744a.935.935,0,0,1,.579-.025c.085.024.451.269.51.246.622-.244.343-1.209-.083-1.506a4.687,4.687,0,0,0-2.646-.892A4.026,4.026,0,0,0,15.424,10.4c-.474.613-.442,1.262-.785,1.921-.312.6-.985.9-1.39,1.441a2.08,2.08,0,0,0-.233,1.768,3.344,3.344,0,0,1,.169,1.371c-.1.6-.574,1.035-.736,1.611a2.547,2.547,0,0,0-.027,1.636c.285,1.07.921,1.361,1.829.89" transform="translate(-3.256 -2.291)" fill="#110239"/>
          <path id="Trazado_807899" data-name="Trazado 807899" d="M12.128,38.633a1.612,1.612,0,0,0,.208.818.978.978,0,0,1,.18.351,2.049,2.049,0,0,0,.169.422.813.813,0,0,1,.124.431c-.026.187-.215.04-.328-.076s-.2-.67-.388-.69-.046.636-.016.766c.07.307.295.379.482.6.109.126.12.217-.072.234-.143.013-.257-.111-.351-.2a1.708,1.708,0,0,1-.444-.7,1.983,1.983,0,0,0,.346.7c.09.119.561.557.387.715-.349.316-1.066-.947-1.083-1.212a2.342,2.342,0,0,0,.3.725c.075.137.265.452-.014.433-.411-.029-.518-.869-.632-1.236a2.744,2.744,0,0,0,.139.735c.078.323-.186.268-.323-.049a3.692,3.692,0,0,1-.142-.479,2.534,2.534,0,0,1,.148-1.629c.076-.219-.013-.7.161-.8.338-.191.83.066,1.148.151" transform="translate(-2.805 -10.166)" fill="#f88667"/>
          <path id="Trazado_807900" data-name="Trazado 807900" d="M12.355,33.709l-1.776.094a44.753,44.753,0,0,1,.45-7.031c.471-1.782,3.835-6.583,4.6-6.947.922-.438,3.658.731,1.654,2.29s-3.908,5.269-3.986,5.419-.943,6.175-.943,6.175" transform="translate(-2.8 -5.223)" fill="#1b3f5e"/>
        </g>
      </g>
    </g>
  </g>
</svg>
