<svg xmlns="http://www.w3.org/2000/svg" xmlns:xlink="http://www.w3.org/1999/xlink" width="190.001" height="194" viewBox="0 0 190.001 194">
  <defs>
    <clipPath id="clip-path">
      <path id="Unión_1" data-name="Unión 1" d="M3976,11884v-184h190v184c0,4.97-42.533,9-95,9S3976,11888.971,3976,11884Z" transform="translate(-2746 -10630)" fill="#636363"/>
    </clipPath>
    <clipPath id="clip-path-2">
      <path id="SVGID_1_" d="M3.42,28.024l18.912,10.3-.065-20.472Z" transform="translate(-3.42 -17.848)" fill="#1b3f5e"/>
    </clipPath>
  </defs>
  <g id="Grupo_1071084" data-name="Grupo 1071084" transform="translate(-1230 -1070)">
    <ellipse id="Elipse_5872" data-name="Elipse 5872" cx="95" cy="10" rx="95" ry="10" transform="translate(1230 1244)" fill="#afafaf"/>
    <g id="Enmascarar_grupo_85" data-name="Enmascarar grupo 85" clip-path="url(#clip-path)">
      <g id="planificacion" transform="translate(1221.703 1067.865)">
        <g id="Grupo_1067271" data-name="Grupo 1067271" transform="translate(38.015 37.08)">
          <g id="Grupo_1067264" data-name="Grupo 1067264" transform="translate(0 0.056)">
            <g id="Grupo_1067263" data-name="Grupo 1067263">
              <g id="Grupo_1067262" data-name="Grupo 1067262">
                <path id="Trazado_807497" data-name="Trazado 807497" d="M87.9,74.226a.834.834,0,0,1-.034-1.667c1.242-.052,2.51-.093,3.766-.123h.021a.834.834,0,0,1,.02,1.668c-1.247.03-2.5.072-3.737.123H87.9Z" transform="translate(-87.064 -72.435)" fill="#c2ace5"/>
              </g>
            </g>
          </g>
          <g id="Grupo_1067267" data-name="Grupo 1067267" transform="translate(11.122 0)">
            <g id="Grupo_1067266" data-name="Grupo 1067266">
              <g id="Grupo_1067265" data-name="Grupo 1067265">
                <path id="Trazado_807498" data-name="Trazado 807498" d="M255.625,206.023a.835.835,0,0,1-.785-1.116c.836-2.337,1.6-4.678,2.271-6.959a.834.834,0,1,1,1.6.471c-.681,2.312-1.455,4.684-2.3,7.05A.832.832,0,0,1,255.625,206.023Zm4.142-14.136a.835.835,0,0,1-.814-1.017c.543-2.419,1-4.835,1.343-7.182a.834.834,0,0,1,1.65.244c-.354,2.387-.813,4.844-1.365,7.3A.834.834,0,0,1,259.767,191.887Zm2.133-14.568-.053,0a.834.834,0,0,1-.78-.885c.106-1.68.16-3.362.16-5,0-.765-.012-1.535-.035-2.287a.834.834,0,1,1,1.667-.051c.023.769.035,1.555.036,2.337,0,1.674-.055,3.392-.164,5.106a.834.834,0,0,1-.831.782Zm-.473-14.707a.833.833,0,0,1-.825-.723,66.369,66.369,0,0,0-1.359-7.145.834.834,0,1,1,1.619-.4,68.253,68.253,0,0,1,1.393,7.325.834.834,0,0,1-.716.938A.858.858,0,0,1,261.428,162.612Zm-3.553-14.27a.835.835,0,0,1-.781-.543,64.045,64.045,0,0,0-2.927-6.651.834.834,0,1,1,1.486-.757,65.792,65.792,0,0,1,3,6.825.835.835,0,0,1-.781,1.126Zm-6.663-13.1a.833.833,0,0,1-.7-.376,71.644,71.644,0,0,0-4.3-5.873.834.834,0,1,1,1.294-1.052,73.331,73.331,0,0,1,4.4,6.01.833.833,0,0,1-.7,1.291Zm-9.378-11.37a.831.831,0,0,1-.588-.243c-1.663-1.655-3.461-3.344-5.345-5.02a.834.834,0,0,1,1.108-1.246c1.907,1.7,3.729,3.407,5.414,5.084a.834.834,0,0,1-.588,1.425Zm-11.01-9.819a.834.834,0,0,1-.523-.185c-1.874-1.513-3.83-3.02-5.813-4.478a.834.834,0,0,1,.988-1.344c2,1.473,3.98,3,5.873,4.524a.834.834,0,0,1-.524,1.483ZM218.947,105.3a.824.824,0,0,1-.464-.142c-2.018-1.354-4.1-2.687-6.178-3.962a.834.834,0,1,1,.871-1.423c2.1,1.287,4.2,2.633,6.236,4a.834.834,0,0,1-.466,1.526Zm-12.573-7.7a.83.83,0,0,1-.405-.106c-2.126-1.184-4.306-2.341-6.482-3.439a.834.834,0,1,1,.752-1.489c2.2,1.108,4.4,2.276,6.542,3.471a.834.834,0,0,1-.407,1.563Zm-13.158-6.642a.831.831,0,0,1-.345-.075c-2.216-1.008-4.482-1.985-6.738-2.9a.834.834,0,0,1,.629-1.545c2.276.927,4.563,1.913,6.8,2.93a.834.834,0,0,1-.346,1.593ZM179.568,85.4a.835.835,0,0,1-.284-.05c-2.285-.826-4.622-1.619-6.947-2.357a.834.834,0,0,1,.505-1.59c2.346.745,4.7,1.545,7.01,2.378a.834.834,0,0,1-.284,1.619Zm-14.043-4.459a.829.829,0,0,1-.221-.03c-2.344-.644-4.736-1.252-7.111-1.806a.834.834,0,0,1,.379-1.624c2.395.559,4.808,1.172,7.173,1.822a.834.834,0,0,1-.221,1.638Zm-14.347-3.351a.86.86,0,0,1-.159-.015c-2.389-.462-4.822-.884-7.228-1.256a.834.834,0,0,1,.255-1.648c2.427.375,4.88.8,7.289,1.267a.834.834,0,0,1-.157,1.653Zm-14.559-2.25a.765.765,0,0,1-.1-.006c-2.41-.281-4.866-.523-7.3-.718a.834.834,0,0,1,.133-1.662c2.456.2,4.932.44,7.362.723a.834.834,0,0,1-.1,1.663Zm-14.684-1.177H121.9c-2.418-.107-4.886-.173-7.334-.2a.834.834,0,0,1,.008-1.668h.008c2.468.024,4.955.09,7.393.2a.834.834,0,0,1-.037,1.667Z" transform="translate(-113.736 -72.3)" fill="#c2ace5"/>
              </g>
            </g>
          </g>
          <g id="Grupo_1067270" data-name="Grupo 1067270" transform="translate(148.047 138.901)">
            <g id="Grupo_1067269" data-name="Grupo 1067269" transform="translate(0 0)">
              <g id="Grupo_1067268" data-name="Grupo 1067268">
                <path id="Trazado_807499" data-name="Trazado 807499" d="M442.915,410.5a.835.835,0,0,1-.763-1.172c.513-1.157,1.008-2.312,1.473-3.432a.834.834,0,0,1,1.54.64c-.47,1.132-.971,2.3-1.488,3.467a.833.833,0,0,1-.763.5Z" transform="translate(-442.081 -405.384)" fill="#c2ace5"/>
              </g>
            </g>
          </g>
        </g>
        <g id="Grupo_1067288" data-name="Grupo 1067288" transform="translate(15.462 27.719)">
          <g id="Grupo_1067274" data-name="Grupo 1067274" transform="translate(0 0)">
            <g id="Grupo_1067273" data-name="Grupo 1067273">
              <g id="Grupo_1067272" data-name="Grupo 1067272">
                <path id="Trazado_807500" data-name="Trazado 807500" d="M3.42,28.024l18.912,10.3-.065-20.472Z" transform="translate(-3.42 -17.848)" fill="#1b3f5e"/>
              </g>
            </g>
          </g>
          <g id="Grupo_1067277" data-name="Grupo 1067277" transform="translate(0 0)">
            <g id="Grupo_1067276" data-name="Grupo 1067276">
              <g id="Grupo_1067275" data-name="Grupo 1067275">
                <path id="Trazado_807501" data-name="Trazado 807501" d="M3.42,28.024,22.266,17.848l.008,2.344L5.585,29.2Z" transform="translate(-3.42 -17.848)" fill="#1b3f5e"/>
              </g>
            </g>
          </g>
          <g id="Grupo_1067280" data-name="Grupo 1067280" transform="translate(11.38 13.642)">
            <g id="Grupo_1067279" data-name="Grupo 1067279">
              <g id="Grupo_1067278" data-name="Grupo 1067278">
                <path id="Trazado_807502" data-name="Trazado 807502" d="M71.316,93.953h0l-4.665-.015a.362.362,0,0,1,0-.724h0l4.665.015a.362.362,0,0,1,0,.724Z" transform="translate(-66.289 -93.214)" fill="#1b3f5e"/>
              </g>
            </g>
          </g>
          <g id="Grupo_1067283" data-name="Grupo 1067283" transform="translate(11.443 6.096)">
            <g id="Grupo_1067282" data-name="Grupo 1067282">
              <g id="Grupo_1067281" data-name="Grupo 1067281">
                <path id="Trazado_807503" data-name="Trazado 807503" d="M71.537,52.262h0L67,52.247a.362.362,0,0,1,0-.724h0l4.54.015a.362.362,0,0,1,0,.724Z" transform="translate(-66.635 -51.523)" fill="#1b3f5e"/>
              </g>
            </g>
          </g>
          <g id="Grupo_1067287" data-name="Grupo 1067287" transform="translate(0 0)">
            <g id="Grupo_1067286" data-name="Grupo 1067286" clip-path="url(#clip-path-2)">
              <g id="Grupo_1067285" data-name="Grupo 1067285" transform="translate(-0.619 9.813)">
                <g id="Grupo_1067284" data-name="Grupo 1067284" transform="translate(0)">
                  <path id="Trazado_807504" data-name="Trazado 807504" d="M19.643,72.845h0L.361,72.783a.362.362,0,0,1,0-.724h0l19.28.062a.362.362,0,0,1,0,.724Z" transform="translate(0 -72.059)" fill="#1b3f5e"/>
                </g>
              </g>
            </g>
          </g>
        </g>
        <g id="Grupo_1067423" data-name="Grupo 1067423" transform="translate(13.952 11.887)">
          <g id="Grupo_1067350" data-name="Grupo 1067350" transform="translate(52.712)">
            <g id="Grupo_1067291" data-name="Grupo 1067291" transform="translate(0 11.095)">
              <g id="Grupo_1067290" data-name="Grupo 1067290">
                <g id="Grupo_1067289" data-name="Grupo 1067289">
                  <path id="Trazado_807505" data-name="Trazado 807505" d="M272.661,211.4H159.1a3.336,3.336,0,0,1-3.336-3.336V41.829a3.336,3.336,0,0,1,3.336-3.336h113.56A3.336,3.336,0,0,1,276,41.829v166.23A3.336,3.336,0,0,1,272.661,211.4Z" transform="translate(-155.764 -38.493)" fill="#131c46"/>
                </g>
              </g>
            </g>
            <g id="Grupo_1067294" data-name="Grupo 1067294" transform="translate(5.019 16.114)">
              <g id="Grupo_1067293" data-name="Grupo 1067293" transform="translate(0 0)">
                <g id="Grupo_1067292" data-name="Grupo 1067292">
                  <path id="Trazado_807506" data-name="Trazado 807506" d="M0,0H162.864V110.195H0Z" transform="translate(110.195) rotate(90)" fill="#fff"/>
                </g>
              </g>
            </g>
            <g id="Grupo_1067321" data-name="Grupo 1067321" transform="translate(10.471 102.957)">
              <g id="Grupo_1067301" data-name="Grupo 1067301" transform="translate(28.466 46.226)">
                <g id="Grupo_1067297" data-name="Grupo 1067297">
                  <g id="Grupo_1067296" data-name="Grupo 1067296">
                    <g id="Grupo_1067295" data-name="Grupo 1067295">
                      <path id="Trazado_807507" data-name="Trazado 807507" d="M249.137,369.626h15.4V399.46h-15.4Z" transform="translate(-249.137 -369.626)" fill="#1b3f5e"/>
                    </g>
                  </g>
                </g>
                <g id="Grupo_1067300" data-name="Grupo 1067300">
                  <g id="Grupo_1067299" data-name="Grupo 1067299">
                    <g id="Grupo_1067298" data-name="Grupo 1067298">
                      <path id="Trazado_807508" data-name="Trazado 807508" d="M249.137,369.626h4.718V399.46h-4.718Z" transform="translate(-249.137 -369.626)" fill="#1b3f5e"/>
                    </g>
                  </g>
                </g>
              </g>
              <g id="Grupo_1067304" data-name="Grupo 1067304" transform="translate(1.512 38.343)">
                <g id="Grupo_1067303" data-name="Grupo 1067303">
                  <g id="Grupo_1067302" data-name="Grupo 1067302">
                    <path id="Trazado_807509" data-name="Trazado 807509" d="M184.5,350.723h15.4V388.44H184.5Z" transform="translate(-184.501 -350.723)" fill="#ffc31a"/>
                  </g>
                </g>
              </g>
              <g id="Grupo_1067307" data-name="Grupo 1067307" transform="translate(1.512 38.343)">
                <g id="Grupo_1067306" data-name="Grupo 1067306">
                  <g id="Grupo_1067305" data-name="Grupo 1067305">
                    <path id="Trazado_807510" data-name="Trazado 807510" d="M184.5,350.723h4.719V388.44H184.5Z" transform="translate(-184.501 -350.723)" fill="#ffaf00"/>
                  </g>
                </g>
              </g>
              <g id="Grupo_1067310" data-name="Grupo 1067310" transform="translate(82.375 34.419)">
                <g id="Grupo_1067309" data-name="Grupo 1067309">
                  <g id="Grupo_1067308" data-name="Grupo 1067308">
                    <path id="Trazado_807511" data-name="Trazado 807511" d="M378.409,341.314h15.4v41.641h-15.4Z" transform="translate(-378.409 -341.314)" fill="#865acc"/>
                  </g>
                </g>
              </g>
              <g id="Grupo_1067314" data-name="Grupo 1067314" transform="translate(82.375 34.419)">
                <g id="Grupo_1067313" data-name="Grupo 1067313">
                  <g id="Grupo_1067312" data-name="Grupo 1067312">
                    <g id="Grupo_1067311" data-name="Grupo 1067311">
                      <path id="Trazado_807512" data-name="Trazado 807512" d="M378.409,341.314h4.719v41.641h-4.719Z" transform="translate(-378.409 -341.314)" fill="#6a42ba"/>
                    </g>
                  </g>
                </g>
              </g>
              <g id="Grupo_1067317" data-name="Grupo 1067317" transform="translate(55.421 26.534)">
                <g id="Grupo_1067316" data-name="Grupo 1067316">
                  <g id="Grupo_1067315" data-name="Grupo 1067315">
                    <path id="Trazado_807513" data-name="Trazado 807513" d="M313.773,322.406h15.4v49.526h-15.4Z" transform="translate(-313.773 -322.406)" fill="#61ceac"/>
                  </g>
                </g>
              </g>
              <g id="Grupo_1067320" data-name="Grupo 1067320" transform="translate(55.421 26.534)">
                <g id="Grupo_1067319" data-name="Grupo 1067319">
                  <g id="Grupo_1067318" data-name="Grupo 1067318">
                    <path id="Trazado_807514" data-name="Trazado 807514" d="M313.773,322.406h4.719v49.526h-4.719Z" transform="translate(-313.773 -322.406)" fill="#52c1a1"/>
                  </g>
                </g>
              </g>
              <path id="Trazado_807515" data-name="Trazado 807515" d="M279.145,259.178l-9.158-.4h-.037a.834.834,0,0,0-.035,1.667l6.8.3-14.9,10.585-14.129-11.12a.836.836,0,0,0-.988-.032L220.555,278.15l-11.124-8.871a.834.834,0,0,0-1-.032l-27.2,18.959a.834.834,0,0,0,.954,1.368l26.693-18.6L220,279.84a.835.835,0,0,0,.993.035L247.142,261.9l14.136,11.126a.834.834,0,0,0,1,.025l15.343-10.9-2.258,6.377a.834.834,0,0,0,1.573.557l3.11-8.784a.938.938,0,0,0-.9-1.12Z" transform="translate(-180.874 -258.777)" fill="#131c46"/>
            </g>
            <g id="Grupo_1067324" data-name="Grupo 1067324" transform="translate(29.469)">
              <g id="Grupo_1067323" data-name="Grupo 1067323">
                <g id="Grupo_1067322" data-name="Grupo 1067322">
                  <path id="Trazado_807516" data-name="Trazado 807516" d="M226.43,11.887h61.3v22h-61.3Z" transform="translate(-226.43 -11.887)" fill="#61ceac"/>
                </g>
              </g>
            </g>
            <g id="Grupo_1067328" data-name="Grupo 1067328" transform="translate(29.469 0)">
              <g id="Grupo_1067327" data-name="Grupo 1067327">
                <g id="Grupo_1067326" data-name="Grupo 1067326">
                  <g id="Grupo_1067325" data-name="Grupo 1067325">
                    <path id="Trazado_807517" data-name="Trazado 807517" d="M231.149,11.888H226.43v22h61.295V29.173h-44.78a11.8,11.8,0,0,1-11.8-11.8Z" transform="translate(-226.43 -11.888)" fill="#52c1a1"/>
                  </g>
                </g>
              </g>
            </g>
            <g id="Grupo_1067349" data-name="Grupo 1067349" transform="translate(13.118 35.122)">
              <g id="Grupo_1067338" data-name="Grupo 1067338" transform="translate(0 0)">
                <g id="Grupo_1067331" data-name="Grupo 1067331">
                  <g id="Grupo_1067330" data-name="Grupo 1067330">
                    <g id="Grupo_1067329" data-name="Grupo 1067329">
                      <path id="Trazado_807518" data-name="Trazado 807518" d="M197.709,117.022h-.063A10.425,10.425,0,0,1,187.221,106.6v-.063a10.425,10.425,0,0,1,10.425-10.425h.063a10.425,10.425,0,0,1,10.425,10.425v.063A10.425,10.425,0,0,1,197.709,117.022Z" transform="translate(-187.221 -96.109)" fill="#afafaf"/>
                    </g>
                  </g>
                </g>
                <g id="Grupo_1067334" data-name="Grupo 1067334" transform="translate(33.198 1.764)">
                  <g id="Grupo_1067333" data-name="Grupo 1067333">
                    <g id="Grupo_1067332" data-name="Grupo 1067332">
                      <path id="Trazado_807519" data-name="Trazado 807519" d="M328.958,102.008h-61.3a.834.834,0,0,1,0-1.668h61.3a.834.834,0,0,1,0,1.668Z" transform="translate(-266.829 -100.34)" fill="#afafaf"/>
                    </g>
                  </g>
                </g>
                <g id="Grupo_1067337" data-name="Grupo 1067337" transform="translate(33.198 17.481)">
                  <g id="Grupo_1067336" data-name="Grupo 1067336">
                    <g id="Grupo_1067335" data-name="Grupo 1067335">
                      <path id="Trazado_807520" data-name="Trazado 807520" d="M328.958,139.7h-61.3a.834.834,0,0,1,0-1.668h61.3a.834.834,0,0,1,0,1.668Z" transform="translate(-266.829 -138.028)" fill="#afafaf"/>
                    </g>
                  </g>
                </g>
              </g>
              <g id="Grupo_1067348" data-name="Grupo 1067348" transform="translate(0 35.363)">
                <g id="Grupo_1067341" data-name="Grupo 1067341">
                  <g id="Grupo_1067340" data-name="Grupo 1067340">
                    <g id="Grupo_1067339" data-name="Grupo 1067339">
                      <path id="Trazado_807521" data-name="Trazado 807521" d="M197.709,201.822h-.063A10.425,10.425,0,0,1,187.221,191.4v-.063a10.425,10.425,0,0,1,10.425-10.425h.063a10.425,10.425,0,0,1,10.425,10.425v.063A10.425,10.425,0,0,1,197.709,201.822Z" transform="translate(-187.221 -180.909)" fill="#afafaf"/>
                    </g>
                  </g>
                </g>
                <g id="Grupo_1067344" data-name="Grupo 1067344" transform="translate(33.198 1.764)">
                  <g id="Grupo_1067343" data-name="Grupo 1067343">
                    <g id="Grupo_1067342" data-name="Grupo 1067342">
                      <path id="Trazado_807522" data-name="Trazado 807522" d="M328.958,186.808h-61.3a.834.834,0,0,1,0-1.668h61.3a.834.834,0,0,1,0,1.668Z" transform="translate(-266.829 -185.14)" fill="#afafaf"/>
                    </g>
                  </g>
                </g>
                <g id="Grupo_1067347" data-name="Grupo 1067347" transform="translate(33.198 17.481)">
                  <g id="Grupo_1067346" data-name="Grupo 1067346">
                    <g id="Grupo_1067345" data-name="Grupo 1067345">
                      <path id="Trazado_807523" data-name="Trazado 807523" d="M328.958,224.5h-61.3a.834.834,0,0,1,0-1.668h61.3a.834.834,0,0,1,0,1.668Z" transform="translate(-266.829 -222.828)" fill="#afafaf"/>
                    </g>
                  </g>
                </g>
              </g>
            </g>
          </g>
          <g id="Grupo_1067422" data-name="Grupo 1067422" transform="translate(0 32.612)">
            <g id="Grupo_1067381" data-name="Grupo 1067381" transform="translate(0 43.403)">
              <g id="Grupo_1067364" data-name="Grupo 1067364" transform="translate(5.424 59.985)">
                <g id="Grupo_1067363" data-name="Grupo 1067363">
                  <g id="Grupo_1067354" data-name="Grupo 1067354" transform="translate(25.875 0)">
                    <g id="Grupo_1067353" data-name="Grupo 1067353">
                      <g id="Grupo_1067352" data-name="Grupo 1067352">
                        <g id="Grupo_1067351" data-name="Grupo 1067351">
                          <path id="Trazado_807524" data-name="Trazado 807524" d="M129.538,373.921c.473-17.177-2.994-35.433-2.994-35.433l-20.486-.473s-2.364,10.558-1.418,20.164c.566,5.752,4.223,18.516,7.065,29.084H129.33C129.341,382.949,129.4,378.992,129.538,373.921Z" transform="translate(-104.416 -338.015)" fill="#131c46"/>
                        </g>
                      </g>
                    </g>
                  </g>
                  <g id="Grupo_1067358" data-name="Grupo 1067358" transform="translate(0 0)">
                    <g id="Grupo_1067357" data-name="Grupo 1067357">
                      <g id="Grupo_1067356" data-name="Grupo 1067356">
                        <g id="Grupo_1067355" data-name="Grupo 1067355">
                          <path id="Trazado_807525" data-name="Trazado 807525" d="M65.894,338.016l-20.486.473s-3.467,18.256-2.994,35.433c.14,5.07.2,9.028.208,12.091H60.247c2.843-9.317,6.5-22.081,7.065-27.833C68.258,348.574,65.894,338.016,65.894,338.016Z" transform="translate(-42.37 -338.016)" fill="#131c46"/>
                        </g>
                      </g>
                    </g>
                  </g>
                  <g id="Grupo_1067362" data-name="Grupo 1067362">
                    <g id="Grupo_1067361" data-name="Grupo 1067361">
                      <g id="Grupo_1067360" data-name="Grupo 1067360">
                        <g id="Grupo_1067359" data-name="Grupo 1067359">
                          <path id="Trazado_807526" data-name="Trazado 807526" d="M50.126,338.488l15.792-.364-.024-.108-20.486.473s-3.467,18.256-2.994,35.433c.14,5.07.2,9.028.208,12.091h4.719c-.011-3.063-.068-7.021-.208-12.091-.472-17.177,2.994-35.433,2.994-35.433Z" transform="translate(-42.369 -338.015)" fill="#0b1226"/>
                        </g>
                      </g>
                    </g>
                  </g>
                </g>
              </g>
              <g id="Grupo_1067367" data-name="Grupo 1067367" transform="translate(6.311 33.345)">
                <g id="Grupo_1067366" data-name="Grupo 1067366">
                  <g id="Grupo_1067365" data-name="Grupo 1067365">
                    <path id="Trazado_807527" data-name="Trazado 807527" d="M88.536,278.063s-42.335-3.511-41.03,5.819-3.01,26.685-3.01,26.685,24.771,12.941,49.541,0c0,0-4.314-17.355-3.01-26.685S50,274.131,50,274.131" transform="translate(-44.496 -274.131)" fill="#1877c8"/>
                  </g>
                </g>
              </g>
              <g id="Grupo_1067370" data-name="Grupo 1067370" transform="translate(10.115 4.09)">
                <g id="Grupo_1067369" data-name="Grupo 1067369">
                  <g id="Grupo_1067368" data-name="Grupo 1067368">
                    <path id="Trazado_807528" data-name="Trazado 807528" d="M91.279,203.978H58.658a5.04,5.04,0,0,0-5.04,5.04v24.054a5.04,5.04,0,0,0,5.04,5.04H91.279a5.04,5.04,0,0,0,5.04-5.04V209.018A5.04,5.04,0,0,0,91.279,203.978Z" transform="translate(-53.618 -203.978)" fill="#1877c8"/>
                  </g>
                </g>
              </g>
              <g id="Grupo_1067373" data-name="Grupo 1067373" transform="translate(23.148)">
                <g id="Grupo_1067372" data-name="Grupo 1067372">
                  <g id="Grupo_1067371" data-name="Grupo 1067371">
                    <path id="Trazado_807529" data-name="Trazado 807529" d="M110.954,215.237s-1.706,10.032,0,13.443l-19.261,3.21L84.871,234c9.5,6.015,22.056,8.159,26.933,8.8,1.208.158,2.4.375,3.6.6,14.827,2.774,9.971-21.432,6.148-35.042a15.716,15.716,0,0,0-11.323-11L97.495,194.17H93.9" transform="translate(-84.871 -194.17)" fill="#1877c8"/>
                  </g>
                </g>
              </g>
              <g id="Grupo_1067377" data-name="Grupo 1067377" transform="translate(0 0.012)">
                <g id="Grupo_1067376" data-name="Grupo 1067376">
                  <g id="Grupo_1067375" data-name="Grupo 1067375">
                    <g id="Grupo_1067374" data-name="Grupo 1067374">
                      <path id="Trazado_807530" data-name="Trazado 807530" d="M44.417,216.043v9.631s16.051-1.07,24.879-3.344c8.49-2.187,10.536.606,10.085,5.82a.786.786,0,0,1-.673.716c-.827.113-2.394.334-4.046.6a15.615,15.615,0,0,0-5.432,1.974c-2.734,1.617-9.446,4.681-25.348,8.81-17,4.413-15.469-17.011-13.05-30.173a15.717,15.717,0,0,1,11.085-12.257l11.9-3.449,7.772-.176" transform="translate(-29.361 -194.198)" fill="#1877c8"/>
                    </g>
                  </g>
                </g>
              </g>
              <g id="Grupo_1067380" data-name="Grupo 1067380" transform="translate(0.001 5.682)">
                <g id="Grupo_1067379" data-name="Grupo 1067379">
                  <g id="Grupo_1067378" data-name="Grupo 1067378">
                    <path id="Trazado_807531" data-name="Trazado 807531" d="M73.556,235.045c-2.734,1.617-9.446,4.681-25.348,8.81-17,4.413-15.469-17.01-13.05-30.173A15.7,15.7,0,0,1,37.55,207.8a15.711,15.711,0,0,0-6.717,10.212c-2.419,13.162-3.945,34.586,13.05,30.173,15.9-4.129,22.614-7.194,25.348-8.81a15.61,15.61,0,0,1,5.432-1.974c1.652-.27,3.219-.491,4.046-.6a.786.786,0,0,0,.673-.715,10.725,10.725,0,0,0-.105-3.052l-.289.046A15.591,15.591,0,0,0,73.556,235.045Z" transform="translate(-29.363 -207.795)" fill="#1f619a"/>
                  </g>
                </g>
              </g>
            </g>
            <g id="Grupo_1067401" data-name="Grupo 1067401" transform="translate(13.461)">
              <g id="Grupo_1067384" data-name="Grupo 1067384" transform="translate(10.826 37.283)">
                <g id="Grupo_1067383" data-name="Grupo 1067383">
                  <g id="Grupo_1067382" data-name="Grupo 1067382">
                    <path id="Trazado_807532" data-name="Trazado 807532" d="M93.691,193.739h-.036a6.051,6.051,0,0,1-6.051-6.051v-8a.2.2,0,0,1,.2-.2H99.547a.2.2,0,0,1,.2.2v8A6.051,6.051,0,0,1,93.691,193.739Z" transform="translate(-87.604 -179.495)" fill="#f9a395"/>
                  </g>
                </g>
              </g>
              <g id="Grupo_1067387" data-name="Grupo 1067387" transform="translate(5.443 9.018)">
                <g id="Grupo_1067386" data-name="Grupo 1067386">
                  <g id="Grupo_1067385" data-name="Grupo 1067385">
                    <path id="Trazado_807533" data-name="Trazado 807533" d="M74.694,111.714v21.037a11.453,11.453,0,1,0,22.906,0V111.714Z" transform="translate(-74.694 -111.714)" fill="#ffc0b3"/>
                  </g>
                </g>
              </g>
              <g id="Grupo_1067390" data-name="Grupo 1067390" transform="translate(0.001 0)">
                <g id="Grupo_1067389" data-name="Grupo 1067389">
                  <g id="Grupo_1067388" data-name="Grupo 1067388">
                    <path id="Trazado_807534" data-name="Trazado 807534" d="M67.12,108.323s.222-4.439,4.439-4.384a16.389,16.389,0,0,1,3.449.52,15.421,15.421,0,0,0,7.7-.09,10.974,10.974,0,0,1,2.814-.429c4.217-.055,4.439,4.384,4.439,4.384v5.9l2.8.759c2.142-4.582,5.367-14.169-1.37-20.37A18.532,18.532,0,0,0,78.8,90.11c-3.621.2-8.615,1.938-11.369,5.906A1.189,1.189,0,0,0,65.6,95.67c-6.968,6.073-3.071,14.96-.768,18.918l2.291-.369v-5.9Z" transform="translate(-61.644 -90.09)" fill="#333"/>
                  </g>
                </g>
              </g>
              <g id="Grupo_1067393" data-name="Grupo 1067393">
                <g id="Grupo_1067392" data-name="Grupo 1067392">
                  <g id="Grupo_1067391" data-name="Grupo 1067391">
                    <path id="Trazado_807535" data-name="Trazado 807535" d="M69.778,96.5a1.189,1.189,0,0,1,1.836.347c2.754-3.967,7.749-5.708,11.369-5.906a14.519,14.519,0,0,1,1.9.031,17.288,17.288,0,0,0-6.087-.867c-3.621.2-8.615,1.938-11.369,5.906a1.189,1.189,0,0,0-1.836-.347c-6.968,6.073-3.071,14.96-.768,18.918l2.291-.369v-2.725C65.419,107.052,64.613,101.006,69.778,96.5Z" transform="translate(-61.642 -90.09)" fill="#212121"/>
                  </g>
                </g>
              </g>
              <g id="Grupo_1067400" data-name="Grupo 1067400" transform="translate(2.457 23.609)">
                <g id="Grupo_1067396" data-name="Grupo 1067396" transform="translate(24.66)">
                  <g id="Grupo_1067395" data-name="Grupo 1067395">
                    <g id="Grupo_1067394" data-name="Grupo 1067394">
                      <path id="Trazado_807536" data-name="Trazado 807536" d="M126.67,148.971s1.946-3.073,3.1-2.064c2.864,2.511-.386,9.3-2.832,7.688" transform="translate(-126.67 -146.704)" fill="#ffc0b3"/>
                    </g>
                  </g>
                </g>
                <g id="Grupo_1067399" data-name="Grupo 1067399">
                  <g id="Grupo_1067398" data-name="Grupo 1067398">
                    <g id="Grupo_1067397" data-name="Grupo 1067397">
                      <path id="Trazado_807537" data-name="Trazado 807537" d="M71.751,148.971s-1.946-3.073-3.1-2.064c-2.864,2.511.386,9.3,2.832,7.688" transform="translate(-67.535 -146.704)" fill="#ffc0b3"/>
                    </g>
                  </g>
                </g>
              </g>
            </g>
            <g id="Grupo_1067404" data-name="Grupo 1067404" transform="translate(46.852 63.636)">
              <g id="Grupo_1067403" data-name="Grupo 1067403">
                <g id="Grupo_1067402" data-name="Grupo 1067402">
                  <path id="Trazado_807538" data-name="Trazado 807538" d="M142.62,254.758a.834.834,0,0,1-.83-.766,52.049,52.049,0,0,1,.694-10.61.834.834,0,0,1,1.645.279,51.417,51.417,0,0,0-.676,10.195.833.833,0,0,1-.763.9C142.665,254.757,142.642,254.758,142.62,254.758Z" transform="translate(-141.714 -242.688)" fill="#1f619a"/>
                </g>
              </g>
            </g>
            <g id="Grupo_1067408" data-name="Grupo 1067408" transform="translate(17.934 70.784)">
              <g id="Grupo_1067407" data-name="Grupo 1067407">
                <g id="Grupo_1067406" data-name="Grupo 1067406">
                  <g id="Grupo_1067405" data-name="Grupo 1067405">
                    <path id="Trazado_807539" data-name="Trazado 807539" d="M94.368,260.58A141.385,141.385,0,0,1,75.3,263.44c-5.48.519-2.189,6.458,1,13.047,10.716-3.115,15.727-5.452,17.995-6.793a15.608,15.608,0,0,1,5.432-1.974c1.652-.27,3.219-.491,4.046-.6a.786.786,0,0,0,.673-.715C104.9,261.186,102.858,258.393,94.368,260.58Z" transform="translate(-72.367 -259.83)" fill="#ffc0b3"/>
                  </g>
                </g>
              </g>
            </g>
            <g id="Grupo_1067411" data-name="Grupo 1067411" transform="translate(20.811 74.314)">
              <g id="Grupo_1067410" data-name="Grupo 1067410">
                <g id="Grupo_1067409" data-name="Grupo 1067409">
                  <path id="Trazado_807540" data-name="Trazado 807540" d="M98.324,274.628a15.609,15.609,0,0,1,5.432-1.974c1.652-.27,3.219-.491,4.046-.6,1.3-.51.6-2.656.568-3.755l-.289.046a15.6,15.6,0,0,0-5.432,1.974c-2.618,1.548-8.89,4.424-23.383,8.292a16.9,16.9,0,0,0,1.063,2.815C91.045,278.307,96.056,275.969,98.324,274.628Z" transform="translate(-79.266 -268.295)" fill="#f9a395"/>
                </g>
              </g>
            </g>
            <g id="Grupo_1067414" data-name="Grupo 1067414" transform="translate(27.595 53.704)">
              <g id="Grupo_1067413" data-name="Grupo 1067413">
                <g id="Grupo_1067412" data-name="Grupo 1067412">
                  <path id="Trazado_807541" data-name="Trazado 807541" d="M117.17,229.637s-1.706,10.032,0,13.443a73.863,73.863,0,0,0-7.7,1.88,75.088,75.088,0,0,1-13.94,5.891s10.487,4.729,20.45,6.146c1.562.222,3.115.5,4.661.81,3.72.755,11.755.91,11.053-12.115-.905-16.787-5.608-26.821-5.608-26.821" transform="translate(-95.534 -218.871)" fill="#1877c8"/>
                </g>
              </g>
            </g>
            <g id="Grupo_1067417" data-name="Grupo 1067417" transform="translate(14.222 64.413)">
              <g id="Grupo_1067416" data-name="Grupo 1067416">
                <g id="Grupo_1067415" data-name="Grupo 1067415">
                  <path id="Trazado_807542" data-name="Trazado 807542" d="M64.3,255.851a.839.839,0,0,1-.834-.834v-9.631a.834.834,0,0,1,1.668,0v8.733c.915-.069,2.417-.186,3.957-.322a.834.834,0,1,1,.147,1.661c-2.476.219-4.855.388-4.878.39Z" transform="translate(-63.465 -244.552)" fill="#1f619a"/>
                </g>
              </g>
            </g>
            <g id="Grupo_1067421" data-name="Grupo 1067421" transform="translate(27.595 78.983)">
              <g id="Grupo_1067420" data-name="Grupo 1067420">
                <g id="Grupo_1067419" data-name="Grupo 1067419">
                  <g id="Grupo_1067418" data-name="Grupo 1067418">
                    <path id="Trazado_807543" data-name="Trazado 807543" d="M112.269,279.49a19.116,19.116,0,0,0-2.795.81,75.12,75.12,0,0,1-13.94,5.891,95.2,95.2,0,0,0,15.858,5.286c3.253-3.691.877-11.987.877-11.987Z" transform="translate(-95.534 -279.49)" fill="#ffc0b3"/>
                  </g>
                </g>
              </g>
            </g>
          </g>
        </g>
      </g>
    </g>
  </g>
</svg>
