<svg id="Grupo_1071186" data-name="Grupo 1071186" xmlns="http://www.w3.org/2000/svg" width="74" height="74" viewBox="0 0 74 74">
  <g id="XMLID_3322_">
    <circle id="Elipse_5677" data-name="Elipse 5677" cx="37" cy="37" r="37" fill="#3b5620"/>
  </g>
  <g id="XMLID_1749_">
    <g id="XMLID_1548_" transform="translate(8.7 25.047)">
      <g id="XMLID_1921_" transform="translate(0 9.171)">
        <g id="XMLID_1939_" transform="translate(3.089)">
          <path id="Trazado_805249" data-name="Trazado 805249" d="M125.476,229.932H81.19a1.972,1.972,0,0,0-1.971,1.973V261.5h48.229V231.905A1.972,1.972,0,0,0,125.476,229.932Z" transform="translate(-79.217 -229.932)" fill="#205081"/>
        </g>
        <g id="XMLID_1938_" transform="translate(7.025 4.084)">
          <path id="Trazado_805250" data-name="Trazado 805250" d="M146.024,257.376H105.666l.038,27.483h40.32Z" transform="translate(-105.666 -257.376)" fill="#fff"/>
        </g>
        <g id="XMLID_3056_" transform="translate(0 31.567)">
          <g id="XMLID_1937_">
            <path id="Trazado_805251" data-name="Trazado 805251" d="M106.478,448.442H64.854a6.392,6.392,0,0,1-6.392-6.392H112.87A6.392,6.392,0,0,1,106.478,448.442Z" transform="translate(-58.462 -442.051)" fill="#1c3b5c"/>
          </g>
        </g>
        <g id="XMLID_1936_" transform="translate(24.218 34.05)">
          <path id="Trazado_805252" data-name="Trazado 805252" d="M226.566,460.222H221.94a.744.744,0,1,1,0-1.488h4.626a.744.744,0,1,1,0,1.488Z" transform="translate(-221.196 -458.734)" fill="#fff"/>
        </g>
      </g>
      <g id="XMLID_2036_" transform="translate(12.448)">
        <g id="XMLID_3615_" transform="translate(6.68 22.996)">
          <g id="XMLID_612_">
            <g id="XMLID_3617_">
              <path id="Trazado_805253" data-name="Trazado 805253" d="M199.109,334.413l-5.324,2.483L187,324.866l4.356-2.031Z" transform="translate(-186.998 -322.835)" fill="#eee"/>
            </g>
            <g id="XMLID_616_" transform="translate(5.154 8.792)">
              <path id="Trazado_805254" data-name="Trazado 805254" d="M228.589,384.7l-1.866-2.785-5.091,2.374,1.633,2.894Z" transform="translate(-221.632 -381.917)" fill="#e0e0e0"/>
            </g>
          </g>
          <g id="XMLID_3616_" transform="translate(7.075 8.981)">
            <circle id="Elipse_5678" data-name="Elipse 5678" cx="0.855" cy="0.855" r="0.855" transform="matrix(0.906, -0.423, 0.423, 0.906, 0, 0.723)" fill="#bdbdbd"/>
          </g>
        </g>
        <g id="XMLID_3585_">
          <g id="XMLID_3592_" transform="translate(0 0.616)">
            <g id="XMLID_3614_">
              <path id="Trazado_805255" data-name="Trazado 805255" d="M155.487,180.2c-1.055,3.518-4.9,7.008-8.01,8.459l-2.894,1.35a4.284,4.284,0,0,0,3.62,7.765l2.894-1.35c3.11-1.45,8.255-2.153,11.627-.7l7.44,3.206-12.351-26.491Z" transform="translate(-142.11 -172.444)" fill="#ff576b"/>
            </g>
            <g id="XMLID_3594_" transform="translate(0.043 20.382)">
              <path id="Trazado_805256" data-name="Trazado 805256" d="M163.013,310.205c-3.373-1.454-8.517-.751-11.627.7l-2.894,1.35a4.281,4.281,0,0,1-5.962-2.831,4.283,4.283,0,0,0,5.962,4.934l2.894-1.35c3.11-1.45,8.255-2.153,11.627-.7l7.44,3.206-1.227-2.633Z" transform="translate(-142.398 -309.405)" fill="#e64e60"/>
            </g>
          </g>
          <g id="XMLID_3591_" transform="translate(15.463)">
            <path id="Trazado_805257" data-name="Trazado 805257" d="M257.217,180.187c3.528,7.568,4.023,14.805,2.3,15.609s-5.981-4.679-9.51-12.247-4.991-14.354-3.267-15.158S253.688,172.619,257.217,180.187Z" transform="translate(-246.016 -168.307)" fill="#eee"/>
          </g>
          <g id="XMLID_3587_" transform="translate(18.468 11.951)">
            <g id="XMLID_3590_">
              <path id="Trazado_805258" data-name="Trazado 805258" d="M266.208,249.74l2.012,4.314,1.931-.9a2.38,2.38,0,0,0-2.011-4.314Z" transform="translate(-266.208 -248.616)" fill="#dee0e5"/>
            </g>
            <g id="XMLID_3589_" transform="translate(1.529 0)">
              <path id="Trazado_805259" data-name="Trazado 805259" d="M280.047,249.992a2.38,2.38,0,0,0-2.238-1.373,2.381,2.381,0,0,1-.488,4.01l-.839.391.483,1.035,1.931-.9A2.38,2.38,0,0,0,280.047,249.992Z" transform="translate(-276.482 -248.617)" fill="#c4cacd"/>
            </g>
          </g>
          <g id="XMLID_2509_" transform="translate(19.153 14.016)">
            <path id="Trazado_805260" data-name="Trazado 805260" d="M272.852,262.905a.712.712,0,0,0-.947-.346l-1.1.511.6,1.295,1.1-.511A.715.715,0,0,0,272.852,262.905Z" transform="translate(-270.808 -262.492)" fill="#fff"/>
          </g>
        </g>
        <g id="XMLID_3579_" transform="translate(3.17 15.474)">
          <g id="XMLID_2568_">
            <path id="Trazado_805261" data-name="Trazado 805261" d="M165.611,273.646l-2.2,1.025a19.141,19.141,0,0,0,3.8,8.1l2.3-1.075a14.965,14.965,0,0,1,2.4-.857,19.048,19.048,0,0,1-4-8.555A15.086,15.086,0,0,1,165.611,273.646Z" transform="translate(-163.413 -272.285)" fill="#fff"/>
          </g>
          <g id="XMLID_3580_" transform="translate(2.054 3.301)">
            <g id="XMLID_3583_">
              <path id="Trazado_805262" data-name="Trazado 805262" d="M177.946,296.31a.748.748,0,0,1-.315-1.419l.767-.358a.744.744,0,1,1,.629,1.349l-.767.358A.741.741,0,0,1,177.946,296.31Z" transform="translate(-177.214 -294.464)" fill="#e0e0e0"/>
            </g>
            <g id="XMLID_5409_" transform="translate(1.426 2.857)">
              <path id="Trazado_805263" data-name="Trazado 805263" d="M187.529,315.509a.748.748,0,0,1-.315-1.419l.767-.358a.744.744,0,1,1,.629,1.349l-.767.358A.742.742,0,0,1,187.529,315.509Z" transform="translate(-186.797 -313.663)" fill="#e0e0e0"/>
            </g>
          </g>
        </g>
      </g>
    </g>
    <g id="XMLID_1750_">
      <g id="XMLID_1141_" transform="translate(4.751 31.956)">
        <g id="XMLID_3300_">
          <g id="XMLID_2108_">
            <ellipse id="Elipse_5679" data-name="Elipse 5679" cx="7.099" cy="7.106" rx="7.099" ry="7.106" fill="#53b3ec"/>
          </g>
          <g id="XMLID_3303_" transform="translate(1.126)">
            <path id="Trazado_805264" data-name="Trazado 805264" d="M52.56,221.838A7.1,7.1,0,0,0,39.487,218a7.1,7.1,0,0,1,9.813,9.812A7.1,7.1,0,0,0,52.56,221.838Z" transform="translate(-39.487 -214.732)" fill="#479fdb"/>
          </g>
        </g>
        <g id="XMLID_2100_" transform="translate(2.698 3.501)">
          <g id="XMLID_2105_">
            <path id="Trazado_805265" data-name="Trazado 805265" d="M53.626,240.445c0-1.35-.673-2.188-1.758-2.188s-1.818.937-1.818,2.28c.012,1.524.9,2.206,1.768,2.206C52.718,242.744,53.626,242.033,53.626,240.445Zm-1.788,1.263c-.507,0-.593-.834-.584-1.2,0-.451.123-1.213.584-1.213.508,0,.584.748.584,1.193C52.422,240.853,52.365,241.705,51.838,241.708Z" transform="translate(-50.05 -238.257)" fill="#fff"/>
          </g>
          <g id="XMLID_2104_" transform="translate(1.779 0)">
            <path id="Trazado_805266" data-name="Trazado 805266" d="M66.1,238.258l-4.095,7.209h1.14l4.1-7.209Z" transform="translate(-62.005 -238.258)" fill="#fff"/>
          </g>
          <g id="XMLID_2101_" transform="translate(5.238 2.683)">
            <path id="Trazado_805267" data-name="Trazado 805267" d="M87.065,256.286c-.9,0-1.818.708-1.818,2.29.011,1.517.9,2.2,1.767,2.2.895,0,1.8-.71,1.8-2.3C88.812,257.125,88.143,256.286,87.065,256.286Zm-.03,3.451c-.494-.006-.6-.836-.594-1.2,0-.584.186-1.213.594-1.213.528,0,.584.834.584,1.193S87.562,259.744,87.035,259.737Z" transform="translate(-85.247 -256.286)" fill="#fff"/>
          </g>
        </g>
      </g>
      <g id="XMLID_1751_" transform="translate(30.927 5.191)">
        <g id="XMLID_1497_" transform="translate(27.391 41.542)">
          <g id="XMLID_2456_">
            <g id="XMLID_1547_">
              <path id="Trazado_805268" data-name="Trazado 805268" d="M397.789,325.891a5.932,5.932,0,1,1,5.913-5.932A5.929,5.929,0,0,1,397.789,325.891Z" transform="translate(-391.876 -314.027)" fill="#00daa9"/>
            </g>
            <g id="XMLID_2458_" transform="translate(0.916)">
              <path id="Trazado_805269" data-name="Trazado 805269" d="M408.939,319.959a5.907,5.907,0,0,0-10.91-3.165,5.863,5.863,0,0,1,3.148-.914,5.931,5.931,0,0,1,5,9.1A5.936,5.936,0,0,0,408.939,319.959Z" transform="translate(-398.029 -314.027)" fill="#01c499"/>
            </g>
          </g>
          <g id="XMLID_1498_" transform="translate(4.255 2.601)">
            <g id="XMLID_1549_">
              <path id="Trazado_805270" data-name="Trazado 805270" d="M422.445,334.307c-.714-.295-.834-.454-.834-.7,0-.227.164-.47.624-.47a2.081,2.081,0,0,1,1.063.345l.326-.859a2.269,2.269,0,0,0-1.009-.362v-.755h-.871v.809a1.449,1.449,0,0,0-1.163,1.386c0,.841.662,1.217,1.379,1.5.658.267.747.512.747.737,0,.336-.292.562-.724.562a2.127,2.127,0,0,1-1.2-.431l-.313.873a2.172,2.172,0,0,0,1.178.444v.82h.871v-.868a1.465,1.465,0,0,0,1.22-1.454A1.705,1.705,0,0,0,422.445,334.307Z" transform="translate(-420.47 -331.506)" fill="#fff"/>
            </g>
          </g>
        </g>
        <g id="XMLID_1752_">
          <g id="XMLID_3269_">
            <g id="XMLID_1755_">
              <path id="Trazado_805271" data-name="Trazado 805271" d="M213.733,46.744a5.932,5.932,0,1,1,5.913-5.932A5.929,5.929,0,0,1,213.733,46.744Z" transform="translate(-207.82 -34.88)" fill="#00daa9"/>
            </g>
            <g id="XMLID_3272_" transform="translate(0.916)">
              <path id="Trazado_805272" data-name="Trazado 805272" d="M224.883,40.812a5.907,5.907,0,0,0-10.91-3.165,5.863,5.863,0,0,1,3.148-.914,5.931,5.931,0,0,1,5,9.1A5.936,5.936,0,0,0,224.883,40.812Z" transform="translate(-213.973 -34.88)" fill="#01c499"/>
            </g>
          </g>
          <g id="XMLID_1753_" transform="translate(4.255 2.601)">
            <g id="XMLID_1754_">
              <path id="Trazado_805273" data-name="Trazado 805273" d="M238.388,55.159c-.714-.295-.834-.454-.834-.7,0-.227.164-.47.624-.47a2.082,2.082,0,0,1,1.063.345l.326-.859a2.269,2.269,0,0,0-1.009-.362v-.755h-.871v.809a1.449,1.449,0,0,0-1.163,1.386c0,.841.662,1.217,1.379,1.5.658.267.747.512.747.737,0,.336-.292.562-.724.562a2.127,2.127,0,0,1-1.2-.431l-.313.873a2.172,2.172,0,0,0,1.178.444v.82h.871v-.868a1.465,1.465,0,0,0,1.22-1.454A1.705,1.705,0,0,0,238.388,55.159Z" transform="translate(-236.413 -52.358)" fill="#fff"/>
            </g>
          </g>
        </g>
      </g>
      <g id="XMLID_3650_" transform="translate(48.771 5.58)">
        <g id="XMLID_3660_">
          <g id="XMLID_3665_" transform="translate(0.003)">
            <g id="XMLID_3668_">
              <path id="Trazado_805274" data-name="Trazado 805274" d="M351.217,37.495H327.754l-.007,13.141h23.47Z" transform="translate(-327.747 -37.495)" fill="#eee"/>
            </g>
            <g id="XMLID_3667_" transform="translate(20.759)">
              <path id="Trazado_805275" data-name="Trazado 805275" d="M467.238,37.495h2.712V50.636h-2.712Z" transform="translate(-467.238 -37.495)" fill="#e0e0e0"/>
            </g>
          </g>
          <g id="XMLID_3661_" transform="translate(0 13.141)">
            <g id="XMLID_3664_">
              <path id="Trazado_805276" data-name="Trazado 805276" d="M327.73,125.8l0,5.775H351.2V125.8Z" transform="translate(-327.727 -125.799)" fill="#ffc42e"/>
            </g>
            <g id="XMLID_3663_" transform="translate(20.762 0)">
              <path id="Trazado_805277" data-name="Trazado 805277" d="M467.238,125.8h2.712v5.775h-2.712Z" transform="translate(-467.238 -125.799)" fill="#f4b42e"/>
            </g>
          </g>
        </g>
        <g id="XMLID_3656_" transform="translate(7.969 2.984)">
          <g id="XMLID_3659_">
            <path id="Trazado_805278" data-name="Trazado 805278" d="M387.411,64.636l-5.9-3.119a.452.452,0,0,1,0-.8l5.9-3.119a.451.451,0,0,1,.662.4v6.238A.451.451,0,0,1,387.411,64.636Z" transform="translate(-381.275 -57.546)" fill="#ff576b"/>
          </g>
          <g id="XMLID_3658_" transform="translate(0 0)">
            <path id="Trazado_805279" data-name="Trazado 805279" d="M387.411,57.6l-5.9,3.119a.452.452,0,0,0,0,.8l1.885,1,4.673-2.472V58A.451.451,0,0,0,387.411,57.6Z" transform="translate(-381.275 -57.546)" fill="#e64e60"/>
          </g>
        </g>
        <g id="XMLID_3654_" transform="translate(1.681 15.27)">
          <path id="Trazado_805280" data-name="Trazado 805280" d="M341.224,141.592h-1.46a.744.744,0,0,1,0-1.488h1.46a.744.744,0,1,1,0,1.488Z" transform="translate(-339.02 -140.104)" fill="#fff"/>
        </g>
        <g id="Grupo_1066782" data-name="Grupo 1066782" transform="translate(5.301 14.539)">
          <path id="Trazado_805281" data-name="Trazado 805281" d="M374.429,137.147h-5.994a1.257,1.257,0,0,0-2.032,0h-2.31a.744.744,0,0,0,0,1.488h2.31a1.256,1.256,0,0,0,2.032,0h5.994a.744.744,0,0,0,0-1.488Z" transform="translate(-363.35 -136.416)" fill="#fff"/>
          <path id="Trazado_805282" data-name="Trazado 805282" d="M457.515,136.665a74.962,74.962,0,1,0-.732.743A.743.743,0,0,0,457.515,136.665Z" transform="translate(-440.99 -135.189)" fill="#fff"/>
        </g>
      </g>
      <g id="XMLID_1580_">
        <g id="XMLID_1615_" transform="translate(5.409 12.505)">
          <g id="XMLID_1628_">
            <path id="Trazado_805283" data-name="Trazado 805283" d="M36.345,84.029V98.777h5.108V84.029ZM38.9,96.044a1.071,1.071,0,1,1,1.073-1.071A1.072,1.072,0,0,1,38.9,96.044Z" transform="translate(-36.345 -84.029)" fill="#ffc42e"/>
          </g>
          <g id="XMLID_1625_" transform="translate(0 0)">
            <path id="Trazado_805284" data-name="Trazado 805284" d="M38.9,96.044a1.071,1.071,0,1,1,0-2.141,1.089,1.089,0,0,1,.161.013V84.029H36.345V98.777H39.06V96.03A1.066,1.066,0,0,1,38.9,96.044Z" transform="translate(-36.345 -84.029)" fill="#f4b42e"/>
          </g>
        </g>
        <g id="XMLID_1601_">
          <g id="XMLID_30_">
            <path id="Trazado_805285" data-name="Trazado 805285" fill="#fed9c9"/>
            <path id="Trazado_805286" data-name="Trazado 805286" d="M72.7,38.3a5.23,5.23,0,0,1-2.321-.544V24.242a10.547,10.547,0,0,0,2.813-3.14,29.409,29.409,0,0,0,2.878-7.97.8.8,0,0,1,.591.28,7.876,7.876,0,0,1,2.127,6.843,23.988,23.988,0,0,1-.937,2.833.527.527,0,0,0,.491.72l9.378.02a1.413,1.413,0,0,1,0,2.827l-3.887,0a.532.532,0,0,0-.48.756.516.516,0,0,0,.479.3h0l2.561,0a1.413,1.413,0,0,1,0,2.827H83.025a.532.532,0,0,0-.48.756.516.516,0,0,0,.479.3h0l2.186,0h0a1.414,1.414,0,0,1-.145,2.819l-2.611,0a.548.548,0,0,0-.556.5.528.528,0,0,0,.527.556h0l1.3-.005a1.42,1.42,0,1,1,.006,2.84H72.7Z" transform="translate(-59.905 -11.178)" fill="#fed9c9"/>
          </g>
          <g id="XMLID_1602_" transform="translate(10.474 1.954)">
            <path id="Trazado_805287" data-name="Trazado 805287" d="M75.907,21.707a25.783,25.783,0,0,0,2.342-5.878,9.206,9.206,0,0,0-1.59-2.416.8.8,0,0,0-.591-.28,29.408,29.408,0,0,1-2.878,7.97,10.547,10.547,0,0,1-2.813,3.14V37.762a5.231,5.231,0,0,0,2.321.544h.395V24.847A10.548,10.548,0,0,0,75.907,21.707Z" transform="translate(-70.379 -13.133)" fill="#ffc5b7"/>
          </g>
        </g>
        <g id="XMLID_1584_" transform="translate(6.892 22.379)">
          <circle id="Elipse_5680" data-name="Elipse 5680" cx="1.071" cy="1.071" r="1.071" fill="#fff"/>
        </g>
      </g>
    </g>
  </g>
</svg>
