<svg xmlns="http://www.w3.org/2000/svg" width="400" height="286.801" viewBox="0 0 400 286.801">
  <g id="Grupo_1071204" data-name="Grupo 1071204" transform="translate(-15.714 -10.476)">
    <path id="Trazado_805770" data-name="Trazado 805770" d="M400,0H0V286.8H400Z" transform="translate(15.714 10.476)" fill="#fff"/>
    <path id="Trazado_805771" data-name="Trazado 805771" d="M172.788,258.554c-37.656.145-73.909-24.927-85.215-58.933-4.264-12.825-4.438-28.632,6-37.753,8.118-7.1,20.07-8,30.966-9.743s23.027-5.86,26.973-15.633c2.962-7.336.294-15.478-.347-23.3-1.6-19.414,10.993-39.156,29.886-46.855s42.687-2.793,56.487,11.649c5.47,5.725,9.362,12.623,14.374,18.71s11.658,11.591,19.723,12.7c13.925,1.925,25.468-9.271,37.878-15.546,23-11.634,54.529-4.843,69.954,15.064,6.377,8.234,10.211,18.261,17.919,25.4,7.5,6.941,17.847,10.38,26.148,16.448,18.729,13.689,24.078,40.116,15.276,60.915s-29.6,35.737-52.334,41.925-47.2,4.457-70.157-.974c-9.2-2.175-18.633-4.954-27.976-3.454-9.811,1.572-18.035,7.607-26.678,12.266-30.918,16.675-71.584,15.628-101.5-2.609l12.642-.265Z" transform="translate(-45.256 -33.359)" fill="#fffad0"/>
    <path id="Trazado_805772" data-name="Trazado 805772" d="M264.824,540.707c93.918,0,170.054-3.628,170.054-8.1s-76.136-8.1-170.054-8.1S94.77,528.128,94.77,532.6,170.906,540.707,264.824,540.707Z" transform="translate(-50.398 -272.405)" fill="#98bb73"/>
    <path id="Trazado_805773" data-name="Trazado 805773" d="M95.635,277.1c0,.169-.01.333-.014.5-.6,20.514,1.5,36.5,5.065,48.963l10.568,6.574-8.692-1.346-.246-.039c4.717,13.694,11.239,22.54,17.4,28.227a45.009,45.009,0,0,0,10.558,7.375q.3.152.593.289c.487.236.96.444,1.413.637l5.812.3c.082-.27.154-.535.227-.81.048-.169.1-.338.135-.511.063-.222.121-.449.178-.67,6.873-26.481-1.789-47.6-13.1-62.656a1,1,0,0,0-.111-.149A102.548,102.548,0,0,0,113.2,290.345l-2.571,6.545-.371-9.169a100.921,100.921,0,0,0-14.282-10.428c-.222-.13-.338-.193-.338-.193Z" transform="translate(-50.786 -144.336)" fill="#354d1d"/>
    <path id="Trazado_805774" data-name="Trazado 805774" d="M95.33,277.1l.193.405,11.938,25,.217.444,3.251,6.815.116.227,10.38,21.734.014.029,16.911,35.414.256.531.405.844.506.024-.4-.839-.588-1.23L121.84,331.544l-.314-.646-25.651-53.7-.14-.294Z" transform="translate(-50.688 -144.233)" fill="#fff"/>
    <path id="Trazado_805775" data-name="Trazado 805775" d="M97.125,324.15l-.221.322,14.8,10.182.221-.322Z" transform="translate(-51.503 -168.692)" fill="#fff"/>
    <path id="Trazado_805776" data-name="Trazado 805776" d="M96.908,313.937l-.221.322,11.6,7.981.221-.322Z" transform="translate(-51.391 -163.405)" fill="#fff"/>
    <path id="Trazado_805777" data-name="Trazado 805777" d="M153.063,332.39l-3.644,28.093.387.05,3.644-28.093Z" transform="translate(-78.688 -172.958)" fill="#fff"/>
    <path id="Trazado_805778" data-name="Trazado 805778" d="M116.345,431.762s-13.781,6.512-33.388-5.18l6.357-3.019-10.38.415c-7.655-5.354-16.052-13.515-24.773-25.791l2.426-1.148-3.145.125q-2.207-3.147-4.433-6.661A76.11,76.11,0,0,1,63,390.942l4.225,5.721-1.2-5.315c16.829,2.552,41.332,11.374,50.318,40.411Z" transform="translate(-26.71 -202.969)" fill="#6d8c4d"/>
    <path id="Trazado_805779" data-name="Trazado 805779" d="M49,390.3l-.221.379,68.378,39.973.222-.379Z" transform="translate(-26.59 -202.937)" fill="#fff"/>
    <path id="Trazado_805780" data-name="Trazado 805780" d="M75.4,412.137l-9.788,1.01.042.408,9.788-1.009Z" transform="translate(-35.306 -214.239)" fill="#fff"/>
    <path id="Trazado_805781" data-name="Trazado 805781" d="M83.282,417.652l-11.416,2.034.072.4,11.416-2.033Z" transform="translate(-38.542 -217.094)" fill="#fff"/>
    <path id="Trazado_805782" data-name="Trazado 805782" d="M133.106,410.978l.342-.386a60.276,60.276,0,0,0-20.77-11.822l-.169.492A59.727,59.727,0,0,1,133.1,410.983Z" transform="translate(-59.582 -207.32)" fill="#354d1d"/>
    <path id="Trazado_805783" data-name="Trazado 805783" d="M182.32,157.086V333.744a4.466,4.466,0,0,0,4.466,4.466h86.836a4.469,4.469,0,0,0,4.466-4.466V157.086a4.466,4.466,0,0,0-4.466-4.466H186.791a4.463,4.463,0,0,0-4.466,4.466Z" transform="translate(-95.719 -79.898)" fill="#4f6736"/>
    <path id="Trazado_805784" data-name="Trazado 805784" d="M173.79,157.086V333.744a4.466,4.466,0,0,0,4.466,4.466h86.836a4.469,4.469,0,0,0,4.466-4.466V157.086a4.466,4.466,0,0,0-4.466-4.466H178.261a4.463,4.463,0,0,0-4.466,4.466Z" transform="translate(-91.304 -79.898)" fill="#d3d9ca"/>
    <path id="Trazado_805785" data-name="Trazado 805785" d="M188.11,192.7V332.72a5.006,5.006,0,0,0,4.833,5.161h72.949a5.006,5.006,0,0,0,4.833-5.161V192.7a5.006,5.006,0,0,0-4.833-5.161H192.943A5.006,5.006,0,0,0,188.11,192.7Z" transform="translate(-98.717 -97.975)" fill="#d3d9ca"/>
    <path id="Trazado_805786" data-name="Trazado 805786" d="M183.775,331.607V191.588a6.105,6.105,0,0,1,5.991-6.2h74.816a6.1,6.1,0,0,1,5.991,6.2V331.607a6.105,6.105,0,0,1-5.991,6.2H189.761a6.1,6.1,0,0,1-5.991-6.2Zm5.991-144.153a4.035,4.035,0,0,0-3.921,4.129V331.607a4.035,4.035,0,0,0,3.921,4.129h74.816a4.035,4.035,0,0,0,3.921-4.129V191.588a4.035,4.035,0,0,0-3.921-4.129H189.761Z" transform="translate(-96.47 -96.862)" fill="#fff"/>
    <path id="Trazado_805787" data-name="Trazado 805787" d="M269.891,338.184H199.117v-.723H269.9a4.111,4.111,0,0,0,4.1-4.1V156.7a4.111,4.111,0,0,0-4.1-4.1H183.06v-.723H269.9a4.833,4.833,0,0,1,4.828,4.828V333.356a4.833,4.833,0,0,1-4.828,4.828Z" transform="translate(-96.103 -79.51)" fill="#4f6736"/>
    <path id="Trazado_805788" data-name="Trazado 805788" d="M173.763,174.88h-.723v41.988h.723Z" transform="translate(-90.916 -91.421)" fill="#4f6736"/>
    <path id="Trazado_805789" data-name="Trazado 805789" d="M448.079,132.28A22.1,22.1,0,1,0,470.8,153.749,22.1,22.1,0,0,0,448.079,132.28Zm18.411,21.594a17.793,17.793,0,1,1-18.782-17.258c.164-.01.328-.014.5-.019a17.809,17.809,0,0,1,18.266,16.8c.01.164.019.323.024.487Z" transform="translate(-222.173 -69.364)" fill="#fcc659"/>
    <path id="Trazado_805790" data-name="Trazado 805790" d="M471.106,158.012c.01.164.019.323.024.487a17.789,17.789,0,1,1-18.782-17.268c.164-.01.328-.014.5-.019a17.809,17.809,0,0,1,18.266,16.8Z" transform="translate(-226.809 -73.989)" fill="#f49b51"/>
    <path id="Trazado_805791" data-name="Trazado 805791" d="M465.428,177.1l-.183-3.343a9.642,9.642,0,0,1-5.147-1.177l.67-2.262a8.842,8.842,0,0,0,4.843,1.158c2.349-.13,3.864-1.577,3.757-3.463-.1-1.818-1.452-2.875-3.96-3.733-3.449-1.138-5.619-2.542-5.778-5.422-.154-2.745,1.683-4.939,4.7-5.6l-.183-3.343,2.05-.116.178,3.212a8.819,8.819,0,0,1,4.365.921l-.7,2.228a8,8,0,0,0-4.23-.892c-2.547.14-3.425,1.717-3.352,3.039.1,1.722,1.37,2.513,4.312,3.545,3.487,1.2,5.3,2.827,5.465,5.774.145,2.614-1.539,5.166-4.915,5.918l.193,3.444Z" transform="translate(-239.267 -78.433)" fill="#fcc659"/>
    <path id="Trazado_805792" data-name="Trazado 805792" d="M496.307,154.708c-.043-.145-.1-.285-.145-.424a17.578,17.578,0,0,0-10.042-10.505l.179-.449a18.062,18.062,0,0,1,10.308,10.761c.063.174.111.318.159.468l-.458.145Z" transform="translate(-252.984 -75.089)" fill="#354d1d"/>
    <path id="Trazado_805793" data-name="Trazado 805793" d="M473.2,142.394a17.566,17.566,0,0,0-11.885-.434l-.15-.458a18.046,18.046,0,0,1,12.213.444Z" transform="translate(-240.068 -73.7)" fill="#354d1d"/>
    <path id="Trazado_805794" data-name="Trazado 805794" d="M505.349,187.836l-.429-.222a17.467,17.467,0,0,0,1.9-6.584l.482.039a17.942,17.942,0,0,1-1.953,6.762Z" transform="translate(-262.716 -94.605)" fill="#354d1d"/>
    <path id="Trazado_805795" data-name="Trazado 805795" d="M494,138.367a21.787,21.787,0,0,0-5.894-3.29l.178-.487a22.239,22.239,0,0,1,6.034,3.372Z" transform="translate(-254.014 -70.565)" fill="#354d1d"/>
    <path id="Trazado_805796" data-name="Trazado 805796" d="M500.054,181.97l-.314-.415a21.852,21.852,0,0,0,4.587-30.151l.42-.3a22.368,22.368,0,0,1-4.7,30.865Z" transform="translate(-260.034 -79.111)" fill="#354d1d"/>
    <path id="Trazado_805797" data-name="Trazado 805797" d="M560.484,217.245a18.666,18.666,0,1,0,17.114,20.1A18.665,18.665,0,0,0,560.484,217.245Zm13.486,19.81a15.023,15.023,0,1,1-14.19-16.2l.42.029A15.037,15.037,0,0,1,574,236.645c0,.135-.014.275-.024.41Z" transform="translate(-281.043 -113.32)" fill="#fcc659"/>
    <path id="Trazado_805798" data-name="Trazado 805798" d="M577.92,240.559c0,.135-.015.275-.024.41a15.023,15.023,0,1,1-14.19-16.2l.42.029a15.048,15.048,0,0,1,13.8,15.768Z" transform="translate(-284.964 -117.235)" fill="#f49b51"/>
    <path id="Trazado_805799" data-name="Trazado 805799" d="M571.441,254.955l.149-2.822a8.144,8.144,0,0,1-4.211-1.457l.772-1.838a7.457,7.457,0,0,0,3.96,1.413c1.982.106,3.386-.97,3.473-2.561.082-1.539-.96-2.547-2.981-3.492-2.793-1.269-4.486-2.648-4.356-5.079.121-2.32,1.867-3.994,4.457-4.278l.15-2.822,1.732.092-.145,2.711a7.449,7.449,0,0,1,3.584,1.172l-.8,1.809a6.783,6.783,0,0,0-3.473-1.138c-2.151-.116-3.029,1.129-3.092,2.248-.077,1.452.916,2.233,3.3,3.372,2.817,1.326,4.192,2.855,4.061,5.344a4.87,4.87,0,0,1-4.669,4.52l-.154,2.909-1.76-.092Z" transform="translate(-295.049 -121)" fill="#fcc659"/>
    <path id="Trazado_805800" data-name="Trazado 805800" d="M601.163,238.447c-.024-.125-.053-.246-.082-.371a14.846,14.846,0,0,0-7.471-9.734l.193-.362a15.251,15.251,0,0,1,7.669,9.975c.034.154.063.28.092.405l-.4.082Z" transform="translate(-308.627 -118.909)" fill="#354d1d"/>
    <path id="Trazado_805801" data-name="Trazado 805801" d="M582.858,226.418a14.807,14.807,0,0,0-9.936-1.447l-.082-.4a15.252,15.252,0,0,1,10.211,1.486Z" transform="translate(-297.875 -116.985)" fill="#354d1d"/>
    <path id="Trazado_805802" data-name="Trazado 805802" d="M605.138,267.246l-.338-.222a14.721,14.721,0,0,0,2.195-5.354l.4.077A15.142,15.142,0,0,1,605.138,267.246Z" transform="translate(-314.42 -136.349)" fill="#354d1d"/>
    <path id="Trazado_805803" data-name="Trazado 805803" d="M600.71,224.52a18.394,18.394,0,0,0-4.65-3.3l.193-.391a18.84,18.84,0,0,1,4.756,3.381l-.3.314Z" transform="translate(-309.896 -115.208)" fill="#354d1d"/>
    <path id="Trazado_805804" data-name="Trazado 805804" d="M598.887,262.137l-.227-.376a18.458,18.458,0,0,0,6.6-24.894l.381-.217a18.888,18.888,0,0,1-6.758,25.482Z" transform="translate(-311.241 -123.397)" fill="#354d1d"/>
    <path id="Trazado_805805" data-name="Trazado 805805" d="M553.1,231.948a4.869,4.869,0,0,1,1.409,2.9,4.9,4.9,0,0,1,2.831-1.548,4.9,4.9,0,0,1-1.413-2.9,4.921,4.921,0,0,1-2.831,1.553Z" transform="translate(-287.657 -120.162)" fill="#ffe6a6"/>
    <path id="Trazado_805806" data-name="Trazado 805806" d="M396.857,349.626c6.073-.926,28.145-9.367,28.145-9.367s-1.621-3.155-7.467-2.32-20.774,4.635-20.774,4.635l.092,7.047Z" transform="translate(-206.726 -175.757)" fill="#fcb47e"/>
    <path id="Trazado_805807" data-name="Trazado 805807" d="M377.389,255.7a23.192,23.192,0,1,0,22.4,23.953A23.189,23.189,0,0,0,377.389,255.7Zm17.885,23.8a18.667,18.667,0,1,1-18.556-19.294c.174,0,.342,0,.521.014a18.684,18.684,0,0,1,18.04,18.768c0,.169,0,.338-.01.511Z" transform="translate(-184.292 -133.25)" fill="#fcc659"/>
    <path id="Trazado_805808" data-name="Trazado 805808" d="M400.142,283.852c0,.169,0,.338-.01.511a18.667,18.667,0,1,1-18.556-19.294c.174,0,.342,0,.521.014A18.691,18.691,0,0,1,400.142,283.852Z" transform="translate(-189.15 -138.108)" fill="#f49b51"/>
    <path id="Trazado_805809" data-name="Trazado 805809" d="M393.2,302.715l.024-3.512a10.123,10.123,0,0,1-5.311-1.563l.849-2.325a9.263,9.263,0,0,0,5,1.529c2.47.014,4.148-1.4,4.158-3.381.01-1.915-1.336-3.106-3.9-4.163-3.54-1.413-5.721-3.029-5.7-6.053.019-2.884,2.084-5.065,5.286-5.566l.024-3.511,2.156.014-.019,3.372a9.274,9.274,0,0,1,4.515,1.244l-.883,2.291a8.426,8.426,0,0,0-4.375-1.211c-2.677-.014-3.695,1.577-3.7,2.966-.01,1.809,1.269,2.72,4.288,3.994,3.574,1.486,5.368,3.3,5.349,6.4-.019,2.749-1.944,5.311-5.532,5.88l-.024,3.618-2.19-.014Z" transform="translate(-202.145 -142.82)" fill="#fcc659"/>
    <path id="Trazado_805810" data-name="Trazado 805810" d="M427.99,280.84c-.039-.154-.082-.3-.125-.453a18.44,18.44,0,0,0-9.835-11.649l.217-.458a18.94,18.94,0,0,1,10.1,11.938c.053.188.1.342.135.5l-.492.125Z" transform="translate(-217.737 -139.771)" fill="#354d1d"/>
    <path id="Trazado_805811" data-name="Trazado 805811" d="M404.581,266.758a18.446,18.446,0,0,0-12.415-1.225l-.125-.492A18.938,18.938,0,0,1,404.8,266.3l-.217.458Z" transform="translate(-204.283 -137.795)" fill="#354d1d"/>
    <path id="Trazado_805812" data-name="Trazado 805812" d="M434.894,316.223l-.434-.26a18.3,18.3,0,0,0,2.417-6.772l.5.072a18.732,18.732,0,0,1-2.484,6.955Z" transform="translate(-226.242 -160.948)" fill="#354d1d"/>
    <path id="Trazado_805813" data-name="Trazado 805813" d="M426.632,263.567a22.92,22.92,0,0,0-5.962-3.83l.217-.5a23.523,23.523,0,0,1,6.1,3.917l-.362.405Z" transform="translate(-219.103 -135.091)" fill="#354d1d"/>
    <path id="Trazado_805814" data-name="Trazado 805814" d="M428.069,309.953l-.3-.453a22.934,22.934,0,0,0,6.758-31.28l.458-.289a23.477,23.477,0,0,1-6.917,32.018Z" transform="translate(-222.778 -144.766)" fill="#354d1d"/>
    <path id="Trazado_805815" data-name="Trazado 805815" d="M357.73,324.715s-.55-6.444-9.83-6.864c-7.187-.323-9.55-4.264-15.488-4.823-5.725-.535-11.591,2.32-11.591,2.32a24.329,24.329,0,0,1-5.778,1.447,17.675,17.675,0,0,1-9.893-2l.092,19.844s15.117-1.3,18.266-.555,17.9,7.139,23.972,6.213,28.145-9.367,28.145-9.367-1.346-3.709-7.187-2.875-11.036,2.691-12.8,2.783a8.7,8.7,0,0,1-3.338-.555l-14-5.841a95.273,95.273,0,0,0,19.429.28Z" transform="translate(-159.303 -162.9)" fill="#ffc49c"/>
    <path id="Trazado_805816" data-name="Trazado 805816" d="M251.66,288.518c0,5.108.207,10.018.593,14.586a.417.417,0,0,0,.01.106c1.481,17.543,5.532,30.142,10.308,30.142s9.107-13.462,10.457-31.941v-.193l.241-21.493v-.174c-1.013-20.466-5.417-35.872-10.7-35.872s-9.439,14.581-10.6,34.217v.092c-.2,3.376-.3,6.9-.3,10.525Z" transform="translate(-131.614 -127.036)" fill="#4f6736"/>
    <path id="Trazado_805817" data-name="Trazado 805817" d="M272.448,373.565c-2.1,18.879-7.375,31.4-13.342,31.4-5.089,0-9.671-8.88-12.256-23.75l.661-.092c2.494,14.34,6.931,23.249,11.6,23.249,5.5,0,10.607-12.512,12.661-30.73l.68-.077Z" transform="translate(-129.124 -194.27)" fill="#4f6736"/>
    <path id="Trazado_805818" data-name="Trazado 805818" d="M242.915,317.983c-.178-3.155-.275-6.415-.275-9.7,0-3.82.13-7.693.391-11.5v-.1a134.336,134.336,0,0,1,1.814-14.827l.656.092a134.469,134.469,0,0,0-1.8,14.769v.1c-.26,3.8-.391,7.655-.391,11.465,0,3.27.092,6.521.27,9.666l-.666.029Z" transform="translate(-126.944 -146.8)" fill="#4f6736"/>
    <path id="Trazado_805819" data-name="Trazado 805819" d="M274.755,266.893l-.661.019c-1.978-18.638-7.139-31.7-12.768-31.7-3.512,0-7,5.147-9.55,14.128l-.646-.14c2.677-9.4,6.295-14.576,10.2-14.576,3.323,0,6.42,3.695,8.952,10.679A95.425,95.425,0,0,1,274.755,266.893Z" transform="translate(-131.339 -122.346)" fill="#4f6736"/>
    <path id="Trazado_805820" data-name="Trazado 805820" d="M434.14,159.614a8.332,8.332,0,0,1,3.8,3.984,8.428,8.428,0,0,1,3.8-3.994,8.342,8.342,0,0,1-3.8-3.984A8.418,8.418,0,0,1,434.14,159.614Z" transform="translate(-226.076 -81.451)" fill="#ffe6a6"/>
    <path id="Trazado_805821" data-name="Trazado 805821" d="M446.67,183.06a4.872,4.872,0,0,1,2.209,2.315,4.883,4.883,0,0,1,2.209-2.32,4.873,4.873,0,0,1-2.209-2.315A4.882,4.882,0,0,1,446.67,183.06Z" transform="translate(-232.563 -94.455)" fill="#ffe6a6"/>
    <path id="Trazado_805822" data-name="Trazado 805822" d="M305.2,322.9l.072,15.734s2.489-.212,5.653-.415c-.164-3.632-.786-12.772-3.024-17.06C307.342,320.091,306.382,320.906,305.2,322.9Z" transform="translate(-159.329 -166.9)" fill="#ffa87d"/>
    <path id="Trazado_805823" data-name="Trazado 805823" d="M385.957,337.332a116.027,116.027,0,0,1-11.957-.7l.048-.478a105.725,105.725,0,0,0,14.162.666l.014.482C387.486,337.322,386.729,337.332,385.957,337.332Z" transform="translate(-194.944 -174.904)" fill="#354d1d"/>
    <path id="Trazado_805824" data-name="Trazado 805824" d="M399.689,346.875a8.967,8.967,0,0,1-3.077-.584l-5.7-2.378.183-.444,5.7,2.378a8.681,8.681,0,0,0,3.232.54,26.018,26.018,0,0,0,3.806-.844,81.738,81.738,0,0,1,8.972-1.939c5.967-.849,7.433,2.991,7.447,3.029l-.453.164c-.053-.145-1.365-3.516-6.926-2.72a80.582,80.582,0,0,0-8.918,1.929,26.445,26.445,0,0,1-3.9.859c-.125,0-.246.01-.367.01Z" transform="translate(-203.698 -178.693)" fill="#354d1d"/>
    <path id="Trazado_805825" data-name="Trazado 805825" d="M328.655,318.691l-.265-.405a37.8,37.8,0,0,1,8.779-3.8l.13.463a37.243,37.243,0,0,0-8.644,3.733Z" transform="translate(-171.334 -163.691)" fill="#354d1d"/>
    <path id="Trazado_805826" data-name="Trazado 805826" d="M281,329.823q-.253,2.243-.661,4.515l-4.741.487-1.481.15-.83.087-20.22,2.084c0-.039,0-.072-.01-.111-.415-5.585-.632-11.576-.632-17.813,0-4.177.1-8.243.289-12.155.01-.227.024-.453.034-.675v-.1h.024l20.76,1.92.728.068,1.592.145,4.481.41A69.6,69.6,0,0,1,281,329.823Z" transform="translate(-132.013 -159.447)" fill="#354d1d"/>
    <path id="Trazado_805827" data-name="Trazado 805827" d="M280.75,329.932q-.268,2.243-.69,4.515l-4.93.487-1.264.125-1.134.111-19.926,1.973-.1.01q-.072-.8-.145-1.606a.412.412,0,0,0-.01-.106c-.4-4.592-.613-9.531-.613-14.663,0-3.642.116-7.187.318-10.583V310.1c.058-.989.13-1.963.2-2.928.01-.227.024-.453.034-.675h.019l2.171.193c.41,4.592,1.852,16.641,5.894,19.945,2.807,2.291,8.735,3,13.433,3.183,3.719.145,6.666-.043,6.666-.043l.068.154Z" transform="translate(-131.759 -159.556)" fill="#36511c"/>
    <path id="Trazado_805828" data-name="Trazado 805828" d="M670.507,205.1a2.611,2.611,0,0,1-.8-3.237c.719-1.355,3.135-1.871,3.135-1.871-.728.931-1.047,3.627-1.775,4.558Z" transform="translate(-347.863 -104.42)" fill="#374263"/>
    <path id="Trazado_805829" data-name="Trazado 805829" d="M683.752,234.327s2.72-6.058-.362-10.554l5.532-3.053a72.3,72.3,0,0,0,5.648,16.786C691.585,240.149,684.191,240.057,683.752,234.327Z" transform="translate(-355.103 -115.151)" fill="#ffc49c"/>
    <path id="Trazado_805830" data-name="Trazado 805830" d="M683.39,225.968a8.865,8.865,0,0,1,1.466,4.987c2.638-1.857,4.8-6,4.8-6Z" transform="translate(-355.103 -117.346)" fill="#374263"/>
    <path id="Trazado_805831" data-name="Trazado 805831" d="M683.857,212.731c-.989,1.259-5.335,4.876-8.32,4.491-3.777-.487-6.049-14.142-2.884-16.732,1.7-1.394,6.425-1.148,9.078,1.963s3.449,8.6,2.132,10.279Z" transform="translate(-348.769 -104.258)" fill="#ffc49c"/>
    <path id="Trazado_805832" data-name="Trazado 805832" d="M649.34,506.088a26.15,26.15,0,0,0,20.181,0l-10.4-3.188Z" transform="translate(-337.476 -261.224)" fill="#374263"/>
    <path id="Trazado_805833" data-name="Trazado 805833" d="M735.612,496.3s-6.507,8.2-19.472,6.02l.207-8.07,19.265,2.055Z" transform="translate(-372.056 -256.746)" fill="#374263"/>
    <path id="Trazado_805834" data-name="Trazado 805834" d="M745.682,502.561l-3.145-6.941-7.587,2.585,4.023,6.41c1.712,2.489,6.671,1.066,6.709-2.05Z" transform="translate(-381.793 -257.455)" fill="#ffc49c"/>
    <path id="Trazado_805835" data-name="Trazado 805835" d="M668.543,512.657l1.384-7.587h-8.016l-.381,7.365C662.35,515.344,667.5,515.595,668.543,512.657Z" transform="translate(-343.786 -262.347)" fill="#ffc49c"/>
    <path id="Trazado_805836" data-name="Trazado 805836" d="M711.536,410.855a46.721,46.721,0,0,1-19.472,6.02s-27.532-39.909-21.594-87.685h20.181s-4.91,36.933,20.89,81.665Z" transform="translate(-347.98 -171.301)" fill="#4f6736"/>
    <path id="Trazado_805837" data-name="Trazado 805837" d="M683.47,392.49a154.784,154.784,0,0,0,10.047,23.866l6.545-45.022a138.33,138.33,0,0,1-2.277-16.327l-2.055-7.988L683.47,392.486Z" transform="translate(-355.144 -180.531)" fill="#4f6736"/>
    <path id="Trazado_805838" data-name="Trazado 805838" d="M648.865,412.454a75.329,75.329,0,0,0,20.181,0l11.075-65.42a25.969,25.969,0,0,0,5.981-12.4,19.64,19.64,0,0,0-.106-7.066,18.491,18.491,0,0,0-.531-2.093l-.695-.1-8.277-1.143-1.949-.27-15.126-2.1L648.86,412.454Z" transform="translate(-337.228 -167.512)" fill="#4f6736"/>
    <path id="Trazado_805839" data-name="Trazado 805839" d="M678.23,328.627c5.007,5.947,17.977,7.766,23.075,8.263a19.638,19.638,0,0,0-.106-7.066l-1.225-2.19L691.7,326.49l-1.949-.27-11.523,2.412Z" transform="translate(-352.431 -169.764)" fill="#4f6736"/>
    <path id="Trazado_805840" data-name="Trazado 805840" d="M666.77,283.59a28.322,28.322,0,0,0,3.941,1.973,49.948,49.948,0,0,0,6.116,2.04,115.452,115.452,0,0,0,21.99,3.261c-4.351-14.562-.68-27.855-3.729-38.351-2.069-7.115-8.759-10.433-8.759-10.433-2.257,1.5-8.166,4.2-10.669,1.929a.734.734,0,0,0-1.076.082c-10.414,13.5-7.322,19.839-7.235,29.852A88.258,88.258,0,0,1,666.77,283.59Z" transform="translate(-346.499 -126.208)" fill="#6d8c4d"/>
    <path id="Trazado_805841" data-name="Trazado 805841" d="M704.943,373.8l-8.082,50.232.524.084,8.082-50.232Z" transform="translate(-362.076 -194.396)" fill="#fff"/>
    <path id="Trazado_805842" data-name="Trazado 805842" d="M671.736,199.648c-.473-1.5.473-2.127,1.558-3.27a4.66,4.66,0,0,1,4.38-.926,7.4,7.4,0,0,1,3.82,1.886c1.8,1.809,2.2,6.7-.965,6.849-5,.227-7.978-1.963-8.793-4.544Z" transform="translate(-349.005 -101.989)" fill="#374263"/>
    <path id="Trazado_805843" data-name="Trazado 805843" d="M683.376,206.706c-.685-2.04-2.349-3.285-3.617-5.026l-6.748-4.2c1.659-2.518,6.849-4.5,10.24-3.261,3.632,1.326,5.74,5.06,7.664,10.645a16.18,16.18,0,0,0,4.278,6.449c9.69,9.213,10.028,18.647,4.124,22.347a8.542,8.542,0,0,1-10.173-.357c-6.569-4.679-6.55-21.869-5.774-26.6Z" transform="translate(-349.729 -101.238)" fill="#374263"/>
    <path id="Trazado_805844" data-name="Trazado 805844" d="M676.42,211.255a9.617,9.617,0,0,0,4.047-.338l-.125-.376c-.034.01-3.357,1.085-5.827-.342a5.436,5.436,0,0,1-2.494-3.849l-.391.082a5.807,5.807,0,0,0,2.687,4.114,5.893,5.893,0,0,0,2.1.714Z" transform="translate(-349.015 -107.712)" fill="#374263"/>
    <path id="Trazado_805845" data-name="Trazado 805845" d="M689.607,215.963a1.774,1.774,0,1,0,2.021-1.486A1.772,1.772,0,0,0,689.607,215.963Z" transform="translate(-358.31 -111.909)" fill="#ffc49c"/>
    <path id="Trazado_805846" data-name="Trazado 805846" d="M728.636,521.26l9.439.01a1,1,0,0,0,.714-.3l8.827-9.242a.894.894,0,0,0-.015-1.254l-4.047-3.907c-.492-.5-1.65-.381-1.6.318.261,3.386-3.753,3.965-6.213,3.425a.616.616,0,0,0-.714.429c-.352,1.268-.806,4.177-1.384,4.958-1.027,1.375-2.576,1.683-3.8,2.32a2.462,2.462,0,0,0-1.211,3.246Z" transform="translate(-378.417 -262.963)" fill="#374263"/>
    <path id="Trazado_805847" data-name="Trazado 805847" d="M742.546,524.335a2.23,2.23,0,0,1-2.436-.917l.309-.188a1.843,1.843,0,0,0,2.036.753Z" transform="translate(-384.464 -271.748)" fill="#fff"/>
    <path id="Trazado_805848" data-name="Trazado 805848" d="M740.58,527.826a2.262,2.262,0,0,1-2.33-.863l.3-.2a1.909,1.909,0,0,0,1.958.709Z" transform="translate(-383.501 -273.575)" fill="#fff"/>
    <path id="Trazado_805849" data-name="Trazado 805849" d="M751.37,514.194a6.611,6.611,0,0,1-2.73.473l.024-.362c.039,0,3.594.207,4.283-2.315l.352.1A3.2,3.2,0,0,1,751.37,514.194Z" transform="translate(-388.88 -265.929)" fill="#fff"/>
    <path id="Trazado_805850" data-name="Trazado 805850" d="M755.415,518.049l-7.3,7.443.258.253,7.3-7.443Z" transform="translate(-388.605 -269.066)" fill="#fff"/>
    <path id="Trazado_805851" data-name="Trazado 805851" d="M655.947,527.517l-20.6.077a1.234,1.234,0,0,1-1.24-1.317v-.024c.015-.159.034-.318.058-.482a3.208,3.208,0,0,1,.473-1.442c.974-1.3,2.865-1.9,6.241-3.251a27.236,27.236,0,0,0,4.7-2.5.651.651,0,0,1,.815.082c4.09,3.97,6.589,3.111,7.332,1.466.569-1.254,1.38-1,1.606-.632.69,1.148,1.08,4.51,1.24,6.2.019.183.034.347.043.482.024.314.039.506.039.506a.719.719,0,0,1-.7.844Z" transform="translate(-329.589 -269.282)" fill="#374263"/>
    <path id="Trazado_805852" data-name="Trazado 805852" d="M649.215,525.953a2.194,2.194,0,0,1-1.249-2.233l.352.053a1.811,1.811,0,0,0,1.052,1.857Z" transform="translate(-336.758 -272.001)" fill="#fff"/>
    <path id="Trazado_805853" data-name="Trazado 805853" d="M645.519,527.342a2.225,2.225,0,0,1-1.206-2.122l.357.043a1.873,1.873,0,0,0,1.023,1.77l-.174.313Z" transform="translate(-334.871 -272.778)" fill="#fff"/>
    <path id="Trazado_805854" data-name="Trazado 805854" d="M668.078,526.195a6.62,6.62,0,0,1-2.648-.627l.164-.318c.034.014,3.164,1.577,4.761-.429l.28.222a3.138,3.138,0,0,1-2.556,1.158Z" transform="translate(-345.805 -272.571)" fill="#fff"/>
    <path id="Trazado_805855" data-name="Trazado 805855" d="M662.648,533.93l-12,.044v.357l12.005-.044Z" transform="translate(-338.151 -277.287)" fill="#fff"/>
    <path id="Trazado_805856" data-name="Trazado 805856" d="M644.4,534.033l-2.841.011v.357l2.841-.011Z" transform="translate(-333.45 -277.34)" fill="#fff"/>
    <path id="Trazado_805857" data-name="Trazado 805857" d="M674.94,309.287a49.941,49.941,0,0,0,6.116,2.04c2.99-3.343,9.565-9.382,10.177-23.418Z" transform="translate(-350.728 -149.932)" fill="#354d1d"/>
    <path id="Trazado_805858" data-name="Trazado 805858" d="M658.543,302.742c19.54-4.433,22.906-24.874,22.906-24.874s-3.227-9-7.177-9.324l-.116-.01a6.992,6.992,0,0,0-7.549,6.661c-.347,7.1-1.746,15.917-10.568,21.146l2.5,6.406Z" transform="translate(-340.944 -139.89)" fill="#6d8c4d"/>
    <path id="Trazado_805859" data-name="Trazado 805859" d="M656.026,291.962l-.246-.415c8.142-4.823,9.261-12.647,10.25-19.554.067-.482.135-.955.207-1.418.357-2.407,1.587-8.282,5.238-10.915l.28.391c-3.507,2.523-4.7,8.253-5.045,10.6-.068.463-.135.936-.207,1.418-.955,6.666-2.142,14.957-10.481,19.9Z" transform="translate(-340.81 -135.309)" fill="#354d1d"/>
    <path id="Trazado_805860" data-name="Trazado 805860" d="M696.452,302.732l-.362-.318c3.372-3.854,5.716-12.261,5.735-12.343l.463.13c-.1.347-2.393,8.6-5.841,12.531Z" transform="translate(-361.677 -151.05)" fill="#354d1d"/>
    <path id="Trazado_805861" data-name="Trazado 805861" d="M680.533,343.038c-.164-.082-4.061-2.069-4.563-5.6l.477-.068c.468,3.28,4.264,5.219,4.3,5.238Z" transform="translate(-351.262 -175.536)" fill="#fff"/>
    <path id="Trazado_805862" data-name="Trazado 805862" d="M642.27,333.527c.048.164-3.425.883-3.222,1.433.275.733,3.053-.584,3.207-.26.072.159-.989.449-1.6.7-.338.14-.28.439-.034.463,2.571.246,6.213-2.4,6.642-2.494.743-.15,1.461-.318,2.156-.5l-1.852-4.746c-.347.246-.709.473-1.081.695a8.063,8.063,0,0,1-2.315,1.076c-.507.014-3.237-.26-3.241.328,0,.613,1.915.405,1.828.888-.053.3-3.81.762-3.536,1.447.179.449,2.417-.14,2.421.125,0,.246-2.9.4-2.667,1.08C639.217,334.478,642.179,333.195,642.27,333.527Z" transform="translate(-332.104 -170.752)" fill="#ffbb8d"/>
    <path id="Trazado_805863" data-name="Trazado 805863" d="M522.981,415.142l-5.875,23.35a.3.3,0,0,0,.029.183.245.245,0,0,0,.145.106l7,1.761a.247.247,0,0,0,.193-.034.231.231,0,0,0,.1-.169L528.1,416.4a.245.245,0,0,0-.178-.27l-4.65-1.167a.247.247,0,0,0-.294.178Z" transform="translate(-269.022 -215.699)" fill="#475d37"/>
    <path id="Trazado_805864" data-name="Trazado 805864" d="M515.094,403.131l-.7-.178,1.018-4.047a4.674,4.674,0,0,0-3.632-5.484l-1.071-.27a5.051,5.051,0,0,0-3.661.434,4.216,4.216,0,0,0-2.132,2.682l-1.018,4.047-.7-.178,1.018-4.047a4.943,4.943,0,0,1,2.489-3.14,5.823,5.823,0,0,1,4.182-.5l1.071.27a5.386,5.386,0,0,1,4.158,6.362l-1.018,4.047Z" transform="translate(-261.82 -203.954)" fill="#374263"/>
    <path id="Trazado_805865" data-name="Trazado 805865" d="M468.788,426.972a.282.282,0,0,0,.014.2.26.26,0,0,0,.154.121l23.312,5.851a.236.236,0,0,0,.285-.15l8.2-22.762a.235.235,0,0,0-.015-.2.263.263,0,0,0-.154-.121l-23.307-5.851a.245.245,0,0,0-.289.154l-8.2,22.762Z" transform="translate(-244.006 -210.055)" fill="#354d1d"/>
    <path id="Trazado_805866" data-name="Trazado 805866" d="M508.694,403.67l-.7-.178,1.49-5.947a4.671,4.671,0,0,0-3.637-5.484l-1.071-.27a5.051,5.051,0,0,0-3.661.434,4.215,4.215,0,0,0-2.132,2.682l-1.49,5.947-.7-.178,1.49-5.947a4.943,4.943,0,0,1,2.489-3.14,5.8,5.8,0,0,1,4.182-.5l1.071.27a5.393,5.393,0,0,1,4.163,6.362l-1.49,5.947Z" transform="translate(-258.507 -203.249)" fill="#374263"/>
    <path id="Trazado_805867" data-name="Trazado 805867" d="M572.889,352.2l-12.3,39.1a.242.242,0,0,0,.154.3l9.42,2.966a.228.228,0,0,0,.193-.024.225.225,0,0,0,.111-.154l9.15-40.068a.233.233,0,0,0-.164-.28l-6.27-1.987a.243.243,0,0,0-.183.014.255.255,0,0,0-.121.145Z" transform="translate(-291.528 -183.127)" fill="#72855e"/>
    <path id="Trazado_805868" data-name="Trazado 805868" d="M567.108,335.68l-.6-.188,1.674-5.315a6.1,6.1,0,0,0-3.979-7.635l-1.293-.405a6.1,6.1,0,0,0-7.64,3.984l-1.674,5.315-.6-.188,1.674-5.315a6.74,6.74,0,0,1,8.427-4.394l1.293.405a6.734,6.734,0,0,1,4.389,8.422Z" transform="translate(-287.605 -167.18)" fill="#4f6736"/>
    <path id="Trazado_805869" data-name="Trazado 805869" d="M495.582,371.878a.248.248,0,0,0,.149.318l31.357,9.869a.243.243,0,0,0,.3-.135l15.445-38.091a.267.267,0,0,0,0-.193.319.319,0,0,0-.145-.13l-31.362-9.869a.233.233,0,0,0-.294.14l-15.449,38.086Z" transform="translate(-257.873 -173.603)" fill="#354d1d"/>
    <path id="Trazado_805870" data-name="Trazado 805870" d="M558.958,336.107l-.6-.188,2.46-7.809a6.1,6.1,0,0,0-3.984-7.64l-1.288-.405a6.1,6.1,0,0,0-7.64,3.984l-2.46,7.814-.6-.188,2.46-7.814a6.721,6.721,0,0,1,8.427-4.394l1.288.405a6.74,6.74,0,0,1,4.394,8.427Z" transform="translate(-283.386 -166.106)" fill="#4f6736"/>
    <path id="Trazado_805871" data-name="Trazado 805871" d="M506.064,359.317l5.142,23.524a.261.261,0,0,0,.106.15.234.234,0,0,0,.178.029l7.052-1.543a.241.241,0,0,0,.159-.116.236.236,0,0,0,.019-.2l-7.51-23a.247.247,0,0,0-.28-.164l-4.683,1.027a.245.245,0,0,0-.183.289Z" transform="translate(-263.305 -186.21)" fill="#f49b51"/>
    <path id="Trazado_805872" data-name="Trazado 805872" d="M478.723,354.9l-.892-4.076a4.868,4.868,0,0,1,.825-3.883,5.743,5.743,0,0,1,3.492-2.291l1.08-.236a5.751,5.751,0,0,1,4.129.622,4.885,4.885,0,0,1,2.373,3.183l.892,4.076-.613.135-.892-4.076a4.254,4.254,0,0,0-2.074-2.773,5.106,5.106,0,0,0-3.675-.55l-1.08.236a5.1,5.1,0,0,0-3.111,2.04,4.249,4.249,0,0,0-.724,3.391l.892,4.076-.613.135Z" transform="translate(-248.635 -179.109)" fill="#4f6736"/>
    <path id="Trazado_805873" data-name="Trazado 805873" d="M465.056,388.518a.258.258,0,0,0,.1.169.249.249,0,0,0,.193.039l23.48-5.147a.236.236,0,0,0,.188-.26l-2.793-24.035a.222.222,0,0,0-.1-.169.262.262,0,0,0-.193-.039l-23.476,5.142a.241.241,0,0,0-.188.265l2.793,24.035Z" transform="translate(-240.636 -186.77)" fill="#fcc659"/>
    <path id="Trazado_805874" data-name="Trazado 805874" d="M473.683,358.007l-1.312-5.986a4.868,4.868,0,0,1,.825-3.883,5.742,5.742,0,0,1,3.492-2.291l1.076-.236a5.751,5.751,0,0,1,4.129.622,4.885,4.885,0,0,1,2.373,3.183l1.312,5.986-.613.135-1.312-5.986a4.254,4.254,0,0,0-2.074-2.773,5.119,5.119,0,0,0-3.68-.55l-1.076.236a5.1,5.1,0,0,0-3.111,2.04,4.267,4.267,0,0,0-.723,3.391l1.312,5.986-.613.135Z" transform="translate(-245.809 -179.73)" fill="#4f6736"/>
    <path id="Trazado_805875" data-name="Trazado 805875" d="M510.4,487.825H452.27V487.1H510.4a2.833,2.833,0,0,0,2.624-1.775,3,3,0,0,0-.6-3.3l-9.956-13.313.579-.434,9.927,13.279a3.687,3.687,0,0,1,.719,4.052A3.539,3.539,0,0,1,510.4,487.825Z" transform="translate(-235.461 -243.302)" fill="#4f6736"/>
    <path id="Trazado_805876" data-name="Trazado 805876" d="M470.855,526.24a5.195,5.195,0,1,0-5.195-5.195A5.195,5.195,0,0,0,470.855,526.24Z" transform="translate(-242.393 -267.927)" fill="#374263"/>
    <path id="Trazado_805877" data-name="Trazado 805877" d="M466.45,509.1l3.13,9.145a1.829,1.829,0,0,0,1.732,1.24,1.929,1.929,0,0,0,.588-.1,1.839,1.839,0,0,0,1.143-2.325l-2.72-7.963H466.45Z" transform="translate(-242.802 -264.433)" fill="#354d1d"/>
    <path id="Trazado_805878" data-name="Trazado 805878" d="M473.86,525.51a1.24,1.24,0,1,0,1.24-1.24A1.239,1.239,0,0,0,473.86,525.51Z" transform="translate(-246.638 -272.286)" fill="#374263"/>
    <path id="Trazado_805879" data-name="Trazado 805879" d="M549.865,526.24a5.195,5.195,0,1,0-5.195-5.195A5.195,5.195,0,0,0,549.865,526.24Z" transform="translate(-283.293 -267.927)" fill="#374263"/>
    <path id="Trazado_805880" data-name="Trazado 805880" d="M545.47,509.1l3.13,9.145a1.829,1.829,0,0,0,1.732,1.24,1.929,1.929,0,0,0,.588-.1,1.839,1.839,0,0,0,1.143-2.325l-2.721-7.963H545.47Z" transform="translate(-283.707 -264.433)" fill="#354d1d"/>
    <path id="Trazado_805881" data-name="Trazado 805881" d="M552.87,525.51a1.24,1.24,0,1,0,1.24-1.24A1.239,1.239,0,0,0,552.87,525.51Z" transform="translate(-287.538 -272.286)" fill="#374263"/>
    <path id="Trazado_805882" data-name="Trazado 805882" d="M600.815,361.325l-.675-.26,9.512-24.252,9.681-.883.063.719-9.232.844Z" transform="translate(-312.007 -174.791)" fill="#4f6736"/>
    <path id="Trazado_805883" data-name="Trazado 805883" d="M496.528,419.88H496.3l-50.68-1.823a7.41,7.41,0,0,1-6.806-7.086L436.37,380.8l.357-.029,81.988-7.037-15.671,41.375a7.133,7.133,0,0,1-6.521,4.785Zm-59.376-38.428,2.388,29.457a6.688,6.688,0,0,0,6.106,6.42l50.68,1.823a6.356,6.356,0,0,0,6.049-4.312l15.261-40.3-80.483,6.907Z" transform="translate(-227.23 -194.358)" fill="#4f6736"/>
    <path id="Trazado_805884" data-name="Trazado 805884" d="M502.09,437.313l-59.9,1.945.023.723,59.9-1.945Z" transform="translate(-230.241 -227.272)" fill="#4f6736"/>
    <path id="Trazado_805885" data-name="Trazado 805885" d="M509.976,405.869l-69.2,4.147.043.723,69.2-4.148Z" transform="translate(-229.512 -210.995)" fill="#4f6736"/>
    <path id="Trazado_805886" data-name="Trazado 805886" d="M556.823,377.4l-14.38,43.1.686.229,14.38-43.1Z" transform="translate(-282.141 -196.258)" fill="#4f6736"/>
    <path id="Trazado_805887" data-name="Trazado 805887" d="M465.789,386.662l-.722.051,2.657,37.712.722-.051Z" transform="translate(-242.086 -201.052)" fill="#4f6736"/>
    <path id="Trazado_805888" data-name="Trazado 805888" d="M526.858,380.489l-8.412,41.383.709.144,8.411-41.383Z" transform="translate(-269.718 -197.856)" fill="#4f6736"/>
    <path id="Trazado_805889" data-name="Trazado 805889" d="M497.433,383.178l-2.413,40.15.722.043,2.414-40.15Z" transform="translate(-257.591 -199.249)" fill="#4f6736"/>
    <path id="Trazado_805890" data-name="Trazado 805890" d="M630.009,337.144l4.741-.458a2.677,2.677,0,1,0-.516-5.33l-4.741.458a2.677,2.677,0,1,0,.516,5.33Z" transform="translate(-325.95 -172.416)" fill="#374263"/>
    <path id="Trazado_805891" data-name="Trazado 805891" d="M237.5,71.229l-.444-.265c5.229-8.721,13.65-14.639,26.51-18.623l.154.492c-12.729,3.941-21.059,9.787-26.215,18.4Z" transform="translate(-124.056 -27.987)" fill="#354d1d"/>
    <path id="Trazado_805892" data-name="Trazado 805892" d="M220.517,69.958l-.487-.178c6.748-18.551,24.074-24.5,40.131-27.879l.106.506C244.35,45.754,227.178,51.643,220.517,69.958Z" transform="translate(-115.24 -22.583)" fill="#354d1d"/>
    <path id="Trazado_805893" data-name="Trazado 805893" d="M806.232,253.353c-5.783-12.005-12.8-19.376-22.072-23.205l.2-.478c9.4,3.878,16.5,11.335,22.342,23.461l-.468.227Z" transform="translate(-407.267 -119.784)" fill="#354d1d"/>
    <path id="Trazado_805894" data-name="Trazado 805894" d="M808.267,252.661c-5.663-15.247-14.031-31.357-33.127-35.235l.1-.506c19.347,3.931,27.8,20.181,33.508,35.563l-.487.178Z" transform="translate(-402.598 -113.184)" fill="#354d1d"/>
    <path id="Trazado_805895" data-name="Trazado 805895" d="M241.2,535.923c0,1.336,9.8,2.421,21.884,2.421s21.884-1.085,21.884-2.421a.372.372,0,0,0-.01-.072V529.31H241.214v6.526A.274.274,0,0,0,241.2,535.923Z" transform="translate(-126.199 -274.895)" fill="#f49b51"/>
    <path id="Trazado_805896" data-name="Trazado 805896" d="M241.2,526.831c0,1.336,9.8,2.421,21.884,2.421s21.884-1.085,21.884-2.421-9.8-2.421-21.884-2.421S241.2,525.5,241.2,526.831Z" transform="translate(-126.199 -272.358)" fill="#fcc659"/>
    <path id="Trazado_805897" data-name="Trazado 805897" d="M230.48,519.563c0,1.336,9.8,2.421,21.884,2.421s21.884-1.085,21.884-2.421a.374.374,0,0,0-.01-.072V512.95H230.494v6.526A.273.273,0,0,0,230.48,519.563Z" transform="translate(-120.65 -266.426)" fill="#f49b51"/>
    <path id="Trazado_805898" data-name="Trazado 805898" d="M252.364,512.893c12.086,0,21.884-1.084,21.884-2.421s-9.8-2.421-21.884-2.421-21.884,1.084-21.884,2.421S240.278,512.893,252.364,512.893Z" transform="translate(-120.65 -263.89)" fill="#fcc659"/>
    <path id="Trazado_805899" data-name="Trazado 805899" d="M241.2,503.2c0,1.336,9.8,2.421,21.884,2.421s21.884-1.085,21.884-2.421a.372.372,0,0,0-.01-.072v-6.54H241.214v6.526A.272.272,0,0,0,241.2,503.2Z" transform="translate(-126.199 -257.958)" fill="#f49b51"/>
    <path id="Trazado_805900" data-name="Trazado 805900" d="M263.084,496.533c12.086,0,21.884-1.084,21.884-2.421s-9.8-2.421-21.884-2.421-21.884,1.084-21.884,2.421S251,496.533,263.084,496.533Z" transform="translate(-126.199 -255.421)" fill="#fcc659"/>
    <path id="Trazado_805901" data-name="Trazado 805901" d="M284.924,545.7c8.9,0,22.144-.714,22.144-2.677h-.516c0,.753-7.428,2.161-21.628,2.161-.516,0-1.027,0-1.534,0v.516C283.892,545.692,284.408,545.7,284.924,545.7Z" transform="translate(-148.039 -281.992)" fill="#354d1d"/>
    <path id="Trazado_805902" data-name="Trazado 805902" d="M262.068,547.14l.024-.516c-2.214-.106-4.249-.251-6.039-.434l-.053.516C257.8,546.889,259.839,547.034,262.068,547.14Z" transform="translate(-133.86 -283.633)" fill="#354d1d"/>
    <path id="Trazado_805903" data-name="Trazado 805903" d="M304.433,528.717c8.224-.748,8.224-1.785,8.224-2.127h-.516c0,.251-1.394,1.032-7.751,1.611l.048.516Z" transform="translate(-158.91 -273.487)" fill="#354d1d"/>
    <path id="Trazado_805904" data-name="Trazado 805904" d="M269.439,531.451c2.46,0,4.876-.043,7.182-.135l-.019-.516c-4.114.159-8.668.178-12.907.048l-.014.516c1.876.058,3.815.087,5.764.087Z" transform="translate(-137.836 -275.667)" fill="#354d1d"/>
    <path id="Trazado_805905" data-name="Trazado 805905" d="M245.877,530.255l.034-.516c-2.335-.154-4.37-.352-6.049-.588l-.072.511C241.483,529.9,243.533,530.1,245.877,530.255Z" transform="translate(-125.469 -274.812)" fill="#354d1d"/>
    <path id="Trazado_805906" data-name="Trazado 805906" d="M317.023,498.8c7.293-.743,7.293-1.683,7.293-2.035H323.8s-.188.844-6.83,1.524l.053.516Z" transform="translate(-165.422 -258.045)" fill="#354d1d"/>
    <path id="Trazado_805907" data-name="Trazado 805907" d="M272.862,501.29c2.518,0,4.978-.048,7.312-.14l-.019-.516c-2.33.092-4.785.14-7.293.14-4.491,0-8.8-.15-12.473-.434l-.039.516C264.03,501.141,268.357,501.29,272.862,501.29Z" transform="translate(-136.112 -259.898)" fill="#354d1d"/>
    <path id="Trazado_805908" data-name="Trazado 805908" d="M225.12,486.833c0,1.336,9.8,2.421,21.884,2.421s21.884-1.085,21.884-2.421a.37.37,0,0,0-.01-.072v-6.54H225.134v6.526A.273.273,0,0,0,225.12,486.833Z" transform="translate(-117.875 -249.483)" fill="#f49b51"/>
    <path id="Trazado_805909" data-name="Trazado 805909" d="M247,480.173c12.086,0,21.884-1.084,21.884-2.421s-9.8-2.421-21.884-2.421-21.884,1.084-21.884,2.421S234.918,480.173,247,480.173Z" transform="translate(-117.875 -246.952)" fill="#fcc659"/>
    <path id="Trazado_805910" data-name="Trazado 805910" d="M233.54,478.606c0,.9,7.983,1.625,17.823,1.625s17.823-.728,17.823-1.625-7.983-1.625-17.823-1.625S233.54,477.708,233.54,478.606Z" transform="translate(-122.234 -247.806)" fill="#f49b51"/>
    <path id="Trazado_805911" data-name="Trazado 805911" d="M141.88,462.571a22.107,22.107,0,1,0,21.5,22.7A22.108,22.108,0,0,0,141.88,462.571Zm17.186,22.583a17.788,17.788,0,1,1-17.794-18.276c.169,0,.328,0,.5.01a17.811,17.811,0,0,1,17.306,17.779v.487Z" transform="translate(-63.031 -240.343)" fill="#fcc659"/>
    <path id="Trazado_805912" data-name="Trazado 805912" d="M163.716,489.3v.487a17.791,17.791,0,1,1-17.8-18.276c.169,0,.328,0,.5.01A17.815,17.815,0,0,1,163.725,489.3Z" transform="translate(-67.671 -244.975)" fill="#f49b51"/>
    <path id="Trazado_805913" data-name="Trazado 805913" d="M157.229,507.409v-3.347a9.673,9.673,0,0,1-5.069-1.457l.8-2.219a8.833,8.833,0,0,0,4.775,1.423c2.354,0,3.946-1.36,3.946-3.246s-1.293-2.952-3.748-3.946c-3.381-1.326-5.47-2.851-5.47-5.735s1.953-4.838,5.007-5.335V480.2h2.055v3.217a8.894,8.894,0,0,1,4.307,1.158l-.83,2.19a8.026,8.026,0,0,0-4.177-1.129c-2.552,0-3.511,1.524-3.511,2.851,0,1.722,1.225,2.585,4.11,3.777,3.415,1.394,5.137,3.116,5.137,6.068,0,2.619-1.823,5.069-5.238,5.634v3.449h-2.089Z" transform="translate(-80.107 -249.473)" fill="#fcc659"/>
    <path id="Trazado_805914" data-name="Trazado 805914" d="M190.115,486.369c-.039-.145-.077-.289-.121-.434a17.585,17.585,0,0,0-9.444-11.046l.2-.439a18.051,18.051,0,0,1,9.7,11.316c.053.178.092.323.13.473l-.468.121Z" transform="translate(-94.803 -246.496)" fill="#354d1d"/>
    <path id="Trazado_805915" data-name="Trazado 805915" d="M167.712,473.077a17.534,17.534,0,0,0-11.841-1.09l-.121-.468a18.044,18.044,0,0,1,12.169,1.119l-.2.439Z" transform="translate(-81.965 -244.68)" fill="#354d1d"/>
    <path id="Trazado_805916" data-name="Trazado 805916" d="M196.945,520.054l-.415-.246a17.48,17.48,0,0,0,2.262-6.468l.478.068A17.973,17.973,0,0,1,196.945,520.054Z" transform="translate(-103.075 -266.628)" fill="#354d1d"/>
    <path id="Trazado_805917" data-name="Trazado 805917" d="M188.721,469.925a21.907,21.907,0,0,0-5.7-3.613l.207-.473a22.2,22.2,0,0,1,5.836,3.7l-.342.391Z" transform="translate(-96.082 -242.039)" fill="#354d1d"/>
    <path id="Trazado_805918" data-name="Trazado 805918" d="M190.559,514.086l-.289-.429a21.844,21.844,0,0,0,6.251-29.847l.434-.28a22.377,22.377,0,0,1-6.4,30.561Z" transform="translate(-99.835 -251.197)" fill="#354d1d"/>
    <path id="Trazado_805919" data-name="Trazado 805919" d="M275.991,168.479H251.859a.429.429,0,1,1,0-.859h24.132a.429.429,0,1,1,0,.859Z" transform="translate(-131.495 -87.663)" fill="#354d1d"/>
    <path id="Trazado_805920" data-name="Trazado 805920" d="M137.6,478.164a8.332,8.332,0,0,1,3.8,3.984,8.428,8.428,0,0,1,3.8-3.994,8.342,8.342,0,0,1-3.8-3.984A8.418,8.418,0,0,1,137.6,478.164Z" transform="translate(-72.57 -246.352)" fill="#ffe6a6"/>
    <path id="Trazado_805921" data-name="Trazado 805921" d="M182.81,529.02a4.872,4.872,0,0,1,2.209,2.315,4.883,4.883,0,0,1,2.209-2.32,4.873,4.873,0,0,1-2.209-2.315A4.883,4.883,0,0,1,182.81,529.02Z" transform="translate(-95.973 -273.544)" fill="#ffe6a6"/>
    <path id="Trazado_805922" data-name="Trazado 805922" d="M134.47,520.51a4.873,4.873,0,0,1,2.209,2.315,4.883,4.883,0,0,1,2.209-2.32,4.873,4.873,0,0,1-2.209-2.315A4.883,4.883,0,0,1,134.47,520.51Z" transform="translate(-70.949 -269.139)" fill="#ffe6a6"/>
  </g>
</svg>
