<svg xmlns="http://www.w3.org/2000/svg" width="142" height="142" viewBox="0 0 142 142">
  <g id="Grupo_1071209" data-name="Grupo 1071209" transform="translate(-318 -9584.563)">
    <circle id="Elipse_5852" data-name="Elipse 5852" cx="71" cy="71" r="71" transform="translate(318 9584.563)" fill="#fff"/>
    <g id="Group_85" data-name="Group 85" transform="translate(332.021 9593.977)">
      <path id="Trazado_806352" data-name="Trazado 806352" d="M355.07,293.882l4.669-.081c1.543-.025,3.072-.045,4.6-.045l-.126.126-.014-3.123.139.14-4.635-.02c-1.546-.008-3.089-.034-4.635-.053l.07-.07-.07,3.123Zm0,0L355,290.76v-.067h.07c1.546-.017,3.089-.045,4.635-.053l4.635-.02h.14v.14l-.014,3.123v.126h-.126c-1.56,0-3.12-.02-4.669-.045Z" transform="translate(-255.935 -209.518)" fill="#bfc7b6"/>
      <path id="Trazado_806353" data-name="Trazado 806353" d="M373.79,308.343h9.27V305.22h-9.27Z" transform="translate(-269.482 -220.044)" fill="#bfc7b6"/>
      <path id="Trazado_806354" data-name="Trazado 806354" d="M88.02,179.2h9.27V176.08H88.02Z" transform="translate(-63.458 -126.941)" fill="#bfc7b6"/>
      <path id="Trazado_806355" data-name="Trazado 806355" d="M106.37,192.952l4.669-.081c1.543-.025,3.072-.045,4.6-.045l-.126.126-.014-3.123.14.14L111,189.95c-1.546-.008-3.089-.033-4.635-.053l.07-.07-.07,3.123Zm0,0-.07-3.123v-.067h.07c1.546-.017,3.089-.045,4.635-.053l4.635-.02h.14v.14l-.014,3.123v.126h-.126c-1.56,0-3.12-.02-4.669-.045Z" transform="translate(-76.636 -136.753)" fill="#bfc7b6"/>
      <path id="Trazado_806356" data-name="Trazado 806356" d="M124.83,178.842l4.669-.081c1.543-.025,3.072-.045,4.6-.045l-.126.126-.014-3.123.14.14-4.635-.02c-1.546-.008-3.089-.033-4.635-.053l.07-.07-.07,3.123Zm0,0-.07-3.123v-.067h.07c1.546-.017,3.089-.045,4.635-.053l4.635-.02h.14v.14l-.014,3.123v.126H134.1c-1.56,0-3.12-.02-4.669-.045Z" transform="translate(-89.945 -126.581)" fill="#bfc7b6"/>
      <path id="Trazado_806357" data-name="Trazado 806357" d="M1.18,307.992l4.669-.081c1.543-.025,3.072-.045,4.6-.045l-.126.126-.014-3.123.14.14-4.635-.02c-1.546-.008-3.089-.033-4.635-.053l.07-.07-.07,3.123Zm0,0-.07-3.123V304.8h.07c1.546-.017,3.089-.045,4.635-.053l4.635-.02h.14v.14l-.014,3.123v.126H10.45c-1.56,0-3.12-.02-4.669-.045Z" transform="translate(-0.8 -219.691)" fill="#bfc7b6"/>
      <path id="Trazado_806358" data-name="Trazado 806358" d="M19.71,24.312l4.669-.081c1.543-.025,3.072-.045,4.6-.045l-.126.126-.014-3.123.14.14-4.635-.02c-1.546-.008-3.089-.033-4.635-.053l.07-.07-.07,3.123Zm0,0-.07-3.123v-.067h.07c1.546-.017,3.089-.045,4.635-.053l4.635-.02h.14v.14l-.014,3.123v.126H28.98c-1.56,0-3.12-.02-4.669-.045Z" transform="translate(-14.159 -15.173)" fill="#bfc7b6"/>
      <path id="Trazado_806359" data-name="Trazado 806359" d="M1.37,38.773h9.27V35.65H1.37Z" transform="translate(-0.988 -25.699)" fill="#bfc7b6"/>
      <path id="Trazado_806360" data-name="Trazado 806360" d="M232.51,89.453h9.27V86.33h-9.27Z" transform="translate(-167.627 -62.236)" fill="#bfc7b6"/>
      <path id="Trazado_806361" data-name="Trazado 806361" d="M213.8,103.2l4.669-.081c1.543-.025,3.072-.045,4.6-.045l-.126.126-.014-3.123.14.14-4.635-.02c-1.546-.008-3.089-.033-4.635-.053l.07-.07-.07,3.123Zm0,0-.07-3.123v-.067h.07c1.546-.017,3.089-.045,4.635-.053l4.635-.02h.14v.14L223.2,103.2v.126h-.126c-1.56,0-3.12-.02-4.669-.045Z" transform="translate(-154.087 -72.048)" fill="#bfc7b6"/>
      <path id="Trazado_806362" data-name="Trazado 806362" d="M373.6,24.312l4.669-.081c1.543-.025,3.072-.045,4.6-.045l-.126.126-.014-3.123.14.14-4.635-.02c-1.546-.008-3.089-.033-4.635-.053l.07-.07-.07,3.123Zm0,0-.07-3.123v-.067h.07c1.546-.017,3.089-.045,4.635-.053l4.635-.02h.14v.14L383,24.312v.126h-.126c-1.56,0-3.12-.02-4.669-.045Z" transform="translate(-269.294 -15.173)" fill="#bfc7b6"/>
      <path id="Trazado_806363" data-name="Trazado 806363" d="M13.2,185.67v8.224l-5.336,6.254A8.222,8.222,0,0,1,13.2,185.67Z" transform="translate(-3.59 -133.855)" fill="#bfc7b6"/>
      <path id="Trazado_806364" data-name="Trazado 806364" d="M34.879,196.894a8.222,8.222,0,0,1-13.559,6.254l5.336-6.254V188.67a8.218,8.218,0,0,1,8.224,8.224Z" transform="translate(-15.371 -136.018)" fill="#bfc7b6"/>
      <path id="Trazado_806365" data-name="Trazado 806365" d="M34.879,196.894a8.222,8.222,0,0,1-13.559,6.254l5.336-6.254V188.67a8.218,8.218,0,0,1,8.224,8.224Z" transform="translate(-15.371 -136.018)" fill="#bcbcbc"/>
      <path id="Trazado_806366" data-name="Trazado 806366" d="M21.32,173.37V162.76" transform="translate(-15.371 -117.338)" fill="none" stroke="#e5e6e4" stroke-miterlimit="10" stroke-width="1"/>
      <path id="Trazado_806367" data-name="Trazado 806367" d="M20.155,158.182a.742.742,0,1,1-.742-.742A.742.742,0,0,1,20.155,158.182Z" transform="translate(-13.46 -113.503)" fill="none" stroke="#e5e6e4" stroke-miterlimit="10" stroke-width="1"/>
      <path id="Trazado_806368" data-name="Trazado 806368" d="M37.641,157.43H29.4v.371h8.241Z" transform="translate(-21.196 -113.495)" fill="#e5e6e4"/>
      <path id="Trazado_806369" data-name="Trazado 806369" d="M34.063,160.1H29.4v.371h4.663Z" transform="translate(-21.196 -115.42)" fill="#e5e6e4"/>
      <path id="Trazado_806370" data-name="Trazado 806370" d="M303.734,71.948a9.976,9.976,0,1,1-9.865-11.439v9.973l9.865,1.462Z" transform="translate(-204.669 -43.621)" fill="#bfc7b6"/>
      <path id="Trazado_806371" data-name="Trazado 806371" d="M336.9,63.213a9.73,9.73,0,0,1-.109,1.462l-9.865-1.462V53.24a9.966,9.966,0,0,1,9.973,9.973Z" transform="translate(-235.698 -38.38)" fill="#bcbcbc"/>
      <path id="Trazado_806372" data-name="Trazado 806372" d="M323.52,109.45h10.607" transform="translate(-233.24 -78.905)" fill="none" stroke="#e5e6e4" stroke-miterlimit="10" stroke-width="1"/>
      <path id="Trazado_806373" data-name="Trazado 806373" d="M362.282,108.275a.742.742,0,1,0-.742-.742A.742.742,0,0,0,362.282,108.275Z" transform="translate(-260.65 -76.987)" fill="none" stroke="#e5e6e4" stroke-miterlimit="10" stroke-width="1"/>
      <path id="Trazado_806374" data-name="Trazado 806374" d="M382.1,107.45h-8.24v.371h8.24Z" transform="translate(-269.532 -77.463)" fill="#e5e6e4"/>
      <path id="Trazado_806375" data-name="Trazado 806375" d="M378.523,110.12H373.86v.371h4.663Z" transform="translate(-269.532 -79.388)" fill="#e5e6e4"/>
      <path id="Trazado_806376" data-name="Trazado 806376" d="M356.758,201.314a71.957,71.957,0,0,0-.106-7.641,97.11,97.11,0,0,0-2.394-15.563c-.667-2.88-1.49-5.712-2.344-8.539-.025-.087-.162-.061-.14.028,2.648,9.971,4.819,20.259,4.671,30.626-.042,2.9-.377,5.749-.653,8.631-.008.078.12.109.137.028a43.086,43.086,0,0,0,.826-7.571Z" transform="translate(-253.608 -122.211)" fill="#4f6736"/>
      <path id="Trazado_806377" data-name="Trazado 806377" d="M343.405,169.793s-4.013,10.183-3.114,12.574a4.593,4.593,0,0,0,2.749,2.9s-2.456,3.5-.74,6.789,5.525,3.131,5.779,6.856c0,0,.212-15.582-4.677-29.128Z" transform="translate(-245.236 -122.406)" fill="#4f6736"/>
      <path id="Trazado_806378" data-name="Trazado 806378" d="M354.51,198.045a.086.086,0,0,0,0-.053,93.33,93.33,0,0,0-3.89-20.483c-.006-.02-.039-.014-.033.008q1.193,4.466,2.107,8.983a4.453,4.453,0,0,0-1.914-1.069.011.011,0,0,0-.008.02,5.083,5.083,0,0,1,1.979,1.32q.176.883.34,1.772a8.187,8.187,0,0,0-3.385-1.97.015.015,0,1,0-.008.028,8.165,8.165,0,0,1,3.463,2.325q.46,2.537.806,5.087a4.862,4.862,0,0,0-2.391-1.37c-.028-.006-.045.034-.014.042a5.046,5.046,0,0,1,2.425,1.554c.006.006.011.008.014.011q.121.9.226,1.8a6.149,6.149,0,0,0-1.677-1.01.013.013,0,0,0-.008.025,5.735,5.735,0,0,1,1.68,1.111.073.073,0,0,0,.022.008c.067.569.134,1.141.19,1.713a8.165,8.165,0,0,0-3.4-2.431c-.025-.011-.039.031-.014.042a8.876,8.876,0,0,1,3.354,2.581.07.07,0,0,0,.084.025c.086.876.165,1.752.229,2.634,0,.011.02.014.02,0-.05-.9-.114-1.8-.187-2.7Z" transform="translate(-252.102 -127.963)" fill="#263238"/>
      <path id="Trazado_806379" data-name="Trazado 806379" d="M349.16,200.361a5.028,5.028,0,0,0-2.411-.751.015.015,0,1,0,0,.031,9.5,9.5,0,0,1,2.383.779C349.166,200.433,349.191,200.383,349.16,200.361Z" transform="translate(-249.976 -143.905)" fill="#263238"/>
      <path id="Trazado_806380" data-name="Trazado 806380" d="M352.462,239.329a5.119,5.119,0,0,0-1.808-.619c-.022,0-.025.031,0,.033a6.786,6.786,0,0,1,1.789.628.024.024,0,0,0,.022-.042Z" transform="translate(-252.789 -172.093)" fill="#263238"/>
      <path id="Trazado_806381" data-name="Trazado 806381" d="M380.742,215.412a27.365,27.365,0,0,0-4.643,4.057,16.723,16.723,0,0,0-3.257,5.522,41.252,41.252,0,0,0-2.425,13.208,32.093,32.093,0,0,0,.714,7.428.071.071,0,0,0,.14-.025,41.694,41.694,0,0,1,.073-12.984c.689-4.211,1.772-8.8,4.448-12.217a33.9,33.9,0,0,1,5.073-4.847C380.96,215.473,380.84,215.345,380.742,215.412Z" transform="translate(-267.047 -155.284)" fill="#4f6736"/>
      <path id="Trazado_806382" data-name="Trazado 806382" d="M372.55,234.662a25.027,25.027,0,0,1,3.385-4.325c2.006-2.006,3.7-3.432,3.957-4.758s-2.009-2.305-2.009-2.305,2.777.5,3.536-.667,1.127-7.917,1.127-7.917-5.051,3.608-7.406,8.662a33.937,33.937,0,0,0-2.59,11.307Z" transform="translate(-268.588 -154.777)" fill="#4f6736"/>
      <path id="Trazado_806383" data-name="Trazado 806383" d="M380.738,220.841a24.686,24.686,0,0,0-5.517,7.055,26.668,26.668,0,0,0-1.116,2.911v.006c-.064.2-.131.4-.19.6a.159.159,0,0,0-.011.034,56.566,56.566,0,0,0-1.434,6.237c0,.014.017.02.02.006.218-1.052.458-2.118.726-3.176a.065.065,0,0,0,.031-.006,4.456,4.456,0,0,1,1.326-.338c.031,0,.028-.056,0-.053a5.012,5.012,0,0,0-1.312.24c.246-.957.511-1.909.809-2.849a13.915,13.915,0,0,1,3-.391.008.008,0,0,0,0-.017,11.233,11.233,0,0,0-2.947.251c.053-.162.106-.321.159-.483a15.05,15.05,0,0,1,2-.338c.011,0,.011-.022,0-.022a9.61,9.61,0,0,0-1.953.237c.273-.812.572-1.616.9-2.4a14.691,14.691,0,0,1,.954-1.853,11.77,11.77,0,0,1,1.619-.287c.017,0,.014-.025,0-.028a4.326,4.326,0,0,0-1.512.151c.265-.43.544-.848.843-1.256a8.542,8.542,0,0,1,3.441-.265c.02,0,.028-.031.008-.036a7.23,7.23,0,0,0-3.3.095c.12-.159.243-.318.366-.474a7.544,7.544,0,0,1,2.118-.332.011.011,0,1,0,0-.022,5.466,5.466,0,0,0-1.973.176c.938-1.164,1.97-2.258,2.994-3.337.047-.05.011-.078-.039-.031Z" transform="translate(-268.53 -159.198)" fill="#263238"/>
      <path id="Trazado_806384" data-name="Trazado 806384" d="M399.232,237.247a4.653,4.653,0,0,0-1-.036.037.037,0,0,0,0,.073c.332.008.664-.014,1,0A.02.02,0,0,0,399.232,237.247Z" transform="translate(-287.08 -171.002)" fill="#263238"/>
      <path id="Trazado_806385" data-name="Trazado 806385" d="M384.832,260.84a4.594,4.594,0,0,0-1.557.313.012.012,0,0,0,.008.022c.513-.123,1.035-.173,1.554-.257a.04.04,0,0,0,0-.078Z" transform="translate(-276.315 -188.048)" fill="#263238"/>
      <path id="Trazado_806386" data-name="Trazado 806386" d="M383.211,252.735a3.511,3.511,0,0,0-.661.059c-.022,0-.02.039,0,.039a3.482,3.482,0,0,0,.661-.031c.036-.008.036-.067,0-.067Z" transform="translate(-275.786 -182.204)" fill="#263238"/>
      <path id="Trazado_806387" data-name="Trazado 806387" d="M319.193,241.116a22.982,22.982,0,0,1,4.7,2.21,14.022,14.022,0,0,1,3.912,3.717,34.719,34.719,0,0,1,5.015,10.127,26.893,26.893,0,0,1,1.139,6.176.059.059,0,0,1-.117.011,35.146,35.146,0,0,0-3.058-10.49c-1.532-3.248-3.466-6.708-6.424-8.86a28.356,28.356,0,0,0-5.224-2.749c-.095-.042-.028-.176.067-.142Z" transform="translate(-230.043 -173.825)" fill="#4f6736"/>
      <path id="Trazado_806388" data-name="Trazado 806388" d="M331.245,254.58a20.968,20.968,0,0,0-3.739-2.718c-2.087-1.161-3.784-1.923-4.3-2.936s1.094-2.33,1.094-2.33-2.132,1.046-3.017.279-2.74-6.145-2.74-6.145a21.619,21.619,0,0,1,7.995,5.3,28.628,28.628,0,0,1,4.71,8.553Z" transform="translate(-229.65 -173.55)" fill="#4f6736"/>
      <path id="Trazado_806389" data-name="Trazado 806389" d="M336.674,256.521a29.329,29.329,0,0,0-10.247-11.561s0,0,0,0a22.752,22.752,0,0,1,3.3,2.578,5.224,5.224,0,0,0-2.645.558c-.017.008-.006.034.014.028a7.266,7.266,0,0,1,2.724-.46.051.051,0,0,0,.031-.011c.159.151.318.3.474.46a8.326,8.326,0,0,0-1.415.187c-.011,0-.008.022,0,.02a7.066,7.066,0,0,1,1.493-.123,30.7,30.7,0,0,1,2.322,2.637,2.359,2.359,0,0,0-.988.073.019.019,0,0,0,.008.036,5.336,5.336,0,0,1,1.055-.014c.134.17.271.343.4.516a9.554,9.554,0,0,0-2.989.29.012.012,0,1,0,.006.022,12.048,12.048,0,0,1,3.07-.2c.126.167.246.338.368.505a6.386,6.386,0,0,0-1.778.2c-.022.006-.017.042.006.036a6.8,6.8,0,0,1,1.842-.142c.53.728,1.038,1.476,1.524,2.23a1.647,1.647,0,0,0-.781.047.011.011,0,0,0,0,.022,3.428,3.428,0,0,1,.846.039q.657,1.026,1.27,2.065c.034.059.128.014.095-.047Z" transform="translate(-235.335 -176.6)" fill="#263238"/>
      <path id="Trazado_806390" data-name="Trazado 806390" d="M345.715,272.62a3.757,3.757,0,0,0-1.429.176c-.014,0-.011.025,0,.022a11.079,11.079,0,0,1,1.423-.145.025.025,0,0,0,0-.05Z" transform="translate(-248.205 -196.533)" fill="#263238"/>
      <path id="Trazado_806391" data-name="Trazado 806391" d="M332.3,252.445a2.373,2.373,0,0,0-.659.039c-.025,0-.017.042.008.039.218-.022.43-.014.647-.022.036,0,.042-.053.006-.056Z" transform="translate(-239.084 -181.989)" fill="#263238"/>
      <path id="Trazado_806392" data-name="Trazado 806392" d="M358.112,307.451H347l1.585-11.606.4-2.975h7.133l.4,2.975Z" transform="translate(-250.168 -211.14)" fill="#455a64"/>
      <path id="Trazado_806393" data-name="Trazado 806393" d="M360.622,295.845H352.68l.4-2.975h7.133Z" transform="translate(-254.263 -211.14)" fill="#263238"/>
      <path id="Trazado_806394" data-name="Trazado 806394" d="M359.653,289.17H350.48v2.52h9.173Z" transform="translate(-252.677 -208.473)" fill="#455a64"/>
      <path id="Trazado_806395" data-name="Trazado 806395" d="M0,344.76l14.246-.067,14.243-.025,28.489-.047,28.489.047,14.246.025,14.246.067-14.246.067-14.246.025-28.489.047-28.489-.047-14.243-.025Z" transform="translate(0 -248.449)" fill="#263238"/>
      <path id="Trazado_806396" data-name="Trazado 806396" d="M182.429,294.1c-.675.22-19.941.05-20.672-.421-.279-.176-.416-2.983-.488-6.382-.017-.734-.028-1.49-.033-2.26L159.8,274.74l12.881.075,1.088,10.292-.078,2.26s7.348,3.365,8.093,3.965,1.32,2.542.645,2.763Z" transform="translate(-115.207 -198.069)" fill="#d3766a"/>
      <path id="Trazado_806397" data-name="Trazado 806397" d="M186.134,320.694c-.675.22-19.941.05-20.672-.421-.338-.218-.472-4.317-.522-8.642l12.532.075-.078,2.26s7.348,3.365,8.093,3.965,1.32,2.542.645,2.763Z" transform="translate(-118.913 -224.665)" fill="#e2e2e2"/>
      <path id="Trazado_806398" data-name="Trazado 806398" d="M186.221,326.533c-.675.22-19.941.05-20.672-.421-.279-.176-.416-2.983-.488-6.382l12.421.073s7.348,3.365,8.093,3.965,1.32,2.542.645,2.763Z" transform="translate(-118.999 -230.505)" fill="#4f6736"/>
      <path id="Trazado_806399" data-name="Trazado 806399" d="M189.6,340.92c-3.229-.109-16.263-.237-19.461-.1-.025,0-.025.02,0,.02,3.2.176,16.233.2,19.461.131C189.67,340.973,189.672,340.923,189.6,340.92Z" transform="translate(-122.649 -245.667)" fill="#263238"/>
      <path id="Trazado_806400" data-name="Trazado 806400" d="M227.245,331.672a2.584,2.584,0,0,0-1.939.773,2.52,2.52,0,0,0-.737,1.719c0,.02.036.02.039,0a3,3,0,0,1,2.637-2.45C227.27,331.714,227.27,331.675,227.245,331.672Z" transform="translate(-161.901 -239.113)" fill="#263238"/>
      <path id="Trazado_806401" data-name="Trazado 806401" d="M204.716,321.177a4.5,4.5,0,0,0-3.608,1.465c-.031.042.028.084.064.064a17.844,17.844,0,0,1,3.564-1.37A.081.081,0,0,0,204.716,321.177Z" transform="translate(-144.981 -231.547)" fill="#263238"/>
      <path id="Trazado_806402" data-name="Trazado 806402" d="M208.276,322.606a4.492,4.492,0,0,0-3.608,1.465c-.031.042.028.084.064.064a17.844,17.844,0,0,1,3.564-1.37A.081.081,0,0,0,208.276,322.606Z" transform="translate(-147.548 -232.577)" fill="#263238"/>
      <path id="Trazado_806403" data-name="Trazado 806403" d="M211.836,324.026a4.492,4.492,0,0,0-3.608,1.465c-.031.042.028.084.064.064a17.843,17.843,0,0,1,3.564-1.37A.081.081,0,0,0,211.836,324.026Z" transform="translate(-150.114 -233.601)" fill="#263238"/>
      <path id="Trazado_806404" data-name="Trazado 806404" d="M215.406,325.456a4.492,4.492,0,0,0-3.608,1.465c-.031.042.028.084.064.064a17.846,17.846,0,0,1,3.564-1.37A.081.081,0,0,0,215.406,325.456Z" transform="translate(-152.688 -234.632)" fill="#263238"/>
      <path id="Trazado_806405" data-name="Trazado 806405" d="M170.4,330.01a1.128,1.128,0,0,0-.014,2.255A1.128,1.128,0,0,0,170.4,330.01Z" transform="translate(-122.059 -237.916)" fill="#e2e2e2"/>
      <path id="Trazado_806406" data-name="Trazado 806406" d="M94.07,103.69s14.642,25.628,15.022,27.42c.58,2.751,3.974,32.753,3.974,32.753l14.413-.089s-2.852-26.784-5.3-34.689c-1.334-4.317-8.349-16.015-11.637-21.789a10.7,10.7,0,0,1-.207-2.877L94.07,103.7Z" transform="translate(-67.819 -74.752)" fill="#37474f"/>
      <path id="Trazado_806407" data-name="Trazado 806407" d="M177.844,310.094c-2.235-.045-9-.232-11.977.011-.022,0-.022.039,0,.042,1.021.159,9.745.053,11.977.008A.031.031,0,1,0,177.844,310.094Z" transform="translate(-119.569 -223.478)" fill="#263238"/>
      <path id="Trazado_806408" data-name="Trazado 806408" d="M103,112.143c.96,1.549,1.976,3.067,2.961,4.6s1.965,3.075,2.93,4.624q2.9,4.638,5.659,9.36a28.432,28.432,0,0,1,2.277,4.565,27.748,27.748,0,0,1,1.253,4.9c.285,1.674.463,3.363.633,5.051q.268,2.7.536,5.394c.366,3.678,1.194,10.208,1.56,13.886.045.452.089.9.128,1.353.006.067-.112.078-.12.011-.413-3.656-1.214-10.172-1.582-13.83q-.276-2.733-.555-5.467c-.173-1.694-.335-3.391-.575-5.076a33.587,33.587,0,0,0-1.035-4.914,23.693,23.693,0,0,0-2.093-4.789c-1.766-3.134-3.636-6.215-5.509-9.287-1.886-3.1-3.792-6.189-5.768-9.237q-.364-.565-.742-1.122c-.02-.028.031-.056.047-.025Z" transform="translate(-74.224 -80.838)" fill="#263238"/>
      <path id="Trazado_806409" data-name="Trazado 806409" d="M67.014,280.531c-.709-.053-18.937-7.7-19.439-8.411a.262.262,0,0,1-.025-.137c.011-.631,1.306-2.818,2.4-5.7.07-.184.553-1.038,1.222-2.188,1.842-3.159,5.1-8.567,5.1-8.567l11.916,4.906-5.838,8.508-.918,2.065s5.548,5.877,6.014,6.714.271,2.852-.435,2.8Z" transform="translate(-34.281 -184.22)" fill="#d3766a"/>
      <path id="Trazado_806410" data-name="Trazado 806410" d="M67.014,302.664c-.709-.053-18.937-7.7-19.439-8.411a.262.262,0,0,1-.025-.137c.011-.631,1.306-2.818,2.4-5.7.07-.184.553-1.038,1.222-2.188l11.182,4.847-.918,2.065s5.548,5.877,6.014,6.714.271,2.852-.435,2.8Z" transform="translate(-34.281 -206.353)" fill="#e2e2e2"/>
      <path id="Trazado_806411" data-name="Trazado 806411" d="M67.01,308.306c-.709-.05-18.937-7.7-19.439-8.411-.193-.268.659-2.76,2.375-5.835l11.486,4.727s5.548,5.874,6.014,6.714.271,2.852-.438,2.8Z" transform="translate(-34.277 -211.998)" fill="#4f6736"/>
      <path id="Trazado_806412" data-name="Trazado 806412" d="M70.867,323.076c-2.952-1.312-14.985-6.321-18-7.392-.025-.008-.031.008-.008.02,2.9,1.365,14.971,6.276,17.991,7.423.064.025.084-.022.02-.05Z" transform="translate(-38.095 -227.586)" fill="#263238"/>
      <path id="Trazado_806413" data-name="Trazado 806413" d="M106.894,330.487a2.586,2.586,0,0,0-2.087-.011,2.52,2.52,0,0,0-1.328,1.317c-.006.017.025.031.036.014a3,3,0,0,1,3.363-1.281.02.02,0,0,0,.017-.036Z" transform="translate(-74.602 -238.098)" fill="#263238"/>
      <path id="Trazado_806414" data-name="Trazado 806414" d="M90.91,312.648a4.51,4.51,0,0,0-3.893,0c-.045.025-.008.089.036.087a17.818,17.818,0,0,1,3.817.067A.081.081,0,0,0,90.91,312.648Z" transform="translate(-62.72 -225.08)" fill="#263238"/>
      <path id="Trazado_806415" data-name="Trazado 806415" d="M93.682,315.308a4.51,4.51,0,0,0-3.893,0c-.045.025-.006.089.036.084a17.818,17.818,0,0,1,3.817.067.081.081,0,0,0,.039-.156Z" transform="translate(-64.719 -226.998)" fill="#263238"/>
      <path id="Trazado_806416" data-name="Trazado 806416" d="M96.45,317.968a4.51,4.51,0,0,0-3.893,0c-.045.025-.008.089.036.086a17.82,17.82,0,0,1,3.817.067A.081.081,0,0,0,96.45,317.968Z" transform="translate(-66.714 -228.916)" fill="#263238"/>
      <path id="Trazado_806417" data-name="Trazado 806417" d="M99.22,320.626a4.5,4.5,0,0,0-3.893,0c-.045.025-.008.089.036.087a17.82,17.82,0,0,1,3.817.067A.081.081,0,0,0,99.22,320.626Z" transform="translate(-68.711 -230.831)" fill="#263238"/>
      <path id="Trazado_806418" data-name="Trazado 806418" d="M55.9,306.431a1.128,1.128,0,0,0-.857,2.085A1.128,1.128,0,0,0,55.9,306.431Z" transform="translate(-39.196 -220.851)" fill="#e2e2e2"/>
      <path id="Trazado_806419" data-name="Trazado 806419" d="M66.716,148.262,53.38,142.684S70.386,116.416,70.531,114.6c.128-1.61-7-15.719-7.236-19.81a12.2,12.2,0,0,1,4.27-9.89l13.442,5.966a9.386,9.386,0,0,1-3.491,3.672s6.893,16.294,6.427,21.27C83.476,120.814,66.716,148.262,66.716,148.262Z" transform="translate(-38.484 -61.205)" fill="#37474f"/>
      <path id="Trazado_806420" data-name="Trazado 806420" d="M73.806,290.47c-1.928-.857-1.362-.639-3.3-1.473-.949-.41-7.18-3.092-8.132-3.318a.022.022,0,0,0-.017.039c.829.522,7.108,3.095,8.062,3.485,1.953.8,1.4.547,3.363,1.323C73.817,290.54,73.842,290.484,73.806,290.47Z" transform="translate(-44.948 -205.955)" fill="#263238"/>
      <path id="Trazado_806421" data-name="Trazado 806421" d="M137.03,118.474a26.126,26.126,0,0,0-4.228,1.314.044.044,0,0,0,.028.084c1.418-.4,2.86-.762,4.256-1.233a.087.087,0,0,0-.053-.165Z" transform="translate(-95.722 -85.409)" fill="#263238"/>
      <path id="Trazado_806422" data-name="Trazado 806422" d="M140.745,116.2a6.7,6.7,0,0,0-.366.737,1.755,1.755,0,0,0-.19.619c0,.042.056.053.081.028a2.2,2.2,0,0,0,.354-.58c.12-.226.246-.452.36-.681.075-.153-.156-.265-.243-.12Z" transform="translate(-101.069 -83.726)" fill="#263238"/>
      <path id="Trazado_806423" data-name="Trazado 806423" d="M141.679,108.334c.087-.212.176-.424.268-.633s.206-.43.285-.656c.011-.036.067-.011.053.025-.087.212-.145.438-.215.656s-.145.438-.22.656c-.14.4-.313.806-.491,1.2a1.546,1.546,0,0,0,.667-.106,1.192,1.192,0,0,0,.474-.558c.126-.237.24-.477.368-.714a5.046,5.046,0,0,0,.393-.8c.011-.036.067-.011.053.025a9.221,9.221,0,0,1-.759,1.7c-.131.209-.234.43-.472.508a1.931,1.931,0,0,1-.79.042c-.033.008-.075-.014-.061-.053a13.333,13.333,0,0,1,.446-1.292Z" transform="translate(-101.819 -77.157)" fill="#263238"/>
      <path id="Trazado_806424" data-name="Trazado 806424" d="M140.461,121.3c.477,1.049.9,2.09,1.345,3.134.435,1.019.843,2.051,1.239,3.086.8,2.093,1.512,4.225,2.132,6.379q.46,1.6.843,3.218a23.513,23.513,0,0,1,.6,3.284,8.651,8.651,0,0,1-.318,3.284c-.327,1.086-2.1,4.775-2.606,5.788-.307.62-.41.536-.262.22.424-.887,2.866-6.008,2.994-8.129a15.777,15.777,0,0,0-.631-3.72c-.24-1.091-.513-2.177-.812-3.254-.589-2.124-1.292-4.205-2.018-6.284-.407-1.166-.843-2.319-1.256-3.483s-.846-2.227-1.306-3.5a.028.028,0,0,1,.053-.02Z" transform="translate(-101.223 -87.432)" fill="#263238"/>
      <path id="Trazado_806425" data-name="Trazado 806425" d="M104.171,101.279c.24-.087.572.064.818.109a7.2,7.2,0,0,0,.949.106,7.6,7.6,0,0,0,.943-.02,2.026,2.026,0,0,0,.9-.226,4.537,4.537,0,0,0,1.166-1.208,7.034,7.034,0,0,0,.915-1.563c.014-.033.061-.011.05.022-.106.321-.184.645-.315.957a6.468,6.468,0,0,1-.452.846,3.634,3.634,0,0,1-1.211,1.339,3.487,3.487,0,0,1-1.9.24,7.273,7.273,0,0,1-1.066-.156c-.254-.056-.681-.1-.84-.326a.079.079,0,0,1,.036-.117Z" transform="translate(-75.066 -70.982)" fill="#263238"/>
      <path id="Trazado_806426" data-name="Trazado 806426" d="M67.185,143.266c2.244-3.307,11-18.8,13.1-22.213a14.373,14.373,0,0,0,1.412-2.537,4.444,4.444,0,0,0-.128-2.919,49.853,49.853,0,0,0-1.992-5.227c-.751-1.713-1.563-3.4-2.361-5.09a48.427,48.427,0,0,1-2.23-5.123,8.736,8.736,0,0,1-.3-5.151,15,15,0,0,1,2.486-4.685c.271-.377.547-.751.82-1.127.02-.028.064.006.042.036a20.167,20.167,0,0,0-2.916,4.83,8.363,8.363,0,0,0-.586,2.718,8.782,8.782,0,0,0,.4,2.793,36.721,36.721,0,0,0,2.135,5.087c.8,1.694,1.61,3.377,2.378,5.084a53.743,53.743,0,0,1,2.076,5.252,7.322,7.322,0,0,1,.525,2.481,5.358,5.358,0,0,1-.957,2.542c-2.045,3.393-10.758,18.772-12.987,22.065q-.423.624-.846,1.245c-.036.05-.109-.011-.075-.061Z" transform="translate(-48.432 -64.293)" fill="#263238"/>
      <path id="Trazado_806427" data-name="Trazado 806427" d="M176.778,53.606c2.478,7.841,5.45,20.262,6.619,22.377.793,1.434-7.194,4.038-7.585,2.983-.5-1.351-2.768-15.6-2.322-24.47C173.675,50.823,176.038,51.264,176.778,53.606Z" transform="translate(-125.035 -37.337)" fill="#d3766a"/>
      <path id="Trazado_806428" data-name="Trazado 806428" d="M181.21,136.154c.181.91,1.052,4.08,1.691,4.468s3.988.3,5.676.3,2.02-.472,1.992-1.052-3.572-.692-3.572-.692,4.733,1.356,5.922,1.577,3.932.913,4.328-.073c.179-.444-.572-.9-.572-.9s1.15.335,1.334-.237c.209-.65-.706-1.01-.706-1.01s.72.145.737-.385c.036-1.186-4.462-1.769-4.462-1.769s3.446,1.677,3.555.709c.153-1.339-6.909-2.807-7.643-3.393a5.019,5.019,0,0,1-1.178-1.454l-7.1,3.9Z" transform="translate(-130.642 -95.342)" fill="#d3766a"/>
      <path id="Trazado_806429" data-name="Trazado 806429" d="M205.454,156.763a.526.526,0,0,0-.159-.452,1.447,1.447,0,0,0-.41-.268,5.377,5.377,0,0,0-.968-.313c-.664-.17-1.348-.287-2.026-.463a8.212,8.212,0,0,1,2.085.234,3.86,3.86,0,0,1,1,.38,1.338,1.338,0,0,1,.416.357.542.542,0,0,1,.07.525Z" transform="translate(-145.551 -111.936)" fill="#263238"/>
      <path id="Trazado_806430" data-name="Trazado 806430" d="M221.825,154.851c-.486-.12-.966-.257-1.446-.393s-.954-.285-1.432-.43l-1.426-.446q-.712-.222-1.432-.441a11.1,11.1,0,0,1,1.479.265c.488.112.968.251,1.448.4s.952.307,1.42.483.935.357,1.39.566Z" transform="translate(-155.789 -110.403)" fill="#263238"/>
      <path id="Trazado_806431" data-name="Trazado 806431" d="M220.183,148.91a9.335,9.335,0,0,1,1.365.19,13.041,13.041,0,0,1,1.337.343,11.782,11.782,0,0,1,1.292.483,10.154,10.154,0,0,1,1.225.631c-.435-.151-.859-.318-1.292-.46s-.862-.293-1.3-.427-.871-.265-1.309-.393-.879-.246-1.323-.366Z" transform="translate(-158.738 -107.353)" fill="#263238"/>
      <path id="Trazado_806432" data-name="Trazado 806432" d="M222.69,144.853a8.528,8.528,0,0,1,2.174.458,8.424,8.424,0,0,1,2,.968c-.7-.248-1.381-.513-2.076-.745s-1.39-.455-2.1-.684Z" transform="translate(-160.547 -104.426)" fill="#263238"/>
      <path id="Trazado_806433" data-name="Trazado 806433" d="M183.594,75.252l-9.027,2.771s-1.713-17.173-1.448-23.354c.193-4.54,2.618-4.138,3.778-1.024C178.487,57.9,183.594,75.252,183.594,75.252Z" transform="translate(-124.788 -36.968)" fill="#4f6736"/>
      <path id="Trazado_806434" data-name="Trazado 806434" d="M183.594,75.252l-9.027,2.771s-1.713-17.173-1.448-23.354c.193-4.54,2.618-4.138,3.778-1.024C178.487,57.9,183.594,75.252,183.594,75.252Z" transform="translate(-124.788 -36.968)" opacity="0.1"/>
      <path id="Trazado_806435" data-name="Trazado 806435" d="M180.231,134.314c1.214-.282,6.142-1.621,7.186-1.981.073-.025.075-.078-.006-.061a66.968,66.968,0,0,0-7.191,2c-.031.008-.022.056.008.047Z" transform="translate(-129.915 -95.355)" fill="#263238"/>
      <path id="Trazado_806436" data-name="Trazado 806436" d="M111.223,67.764,93.849,59.789c-.064-.307,7.024-6.365,13.822-9.937A18.714,18.714,0,0,1,116.2,48.18c1.97.36,3.921,3.932,2.83,5.855-.505.89-3.639,3.234-4.122,4.158-.212.407-.65,2.682-.784,3.12-1.49,4.962-2.715,6.382-2.9,6.452Z" transform="translate(-67.66 -34.685)" fill="#4f6736"/>
      <path id="Trazado_806437" data-name="Trazado 806437" d="M155.823,79.545c-.229-.335-.477-.659-.726-.982a3.677,3.677,0,0,0-.826-.812,14.6,14.6,0,0,0-2.107-1.035c-.028-.011-.042.031-.014.042a8.814,8.814,0,0,1,1.939,1.264c.287.251.583.494.868.748s.55.544.823.815c.028.028.064-.008.045-.039Z" transform="translate(-109.681 -55.303)" fill="#263238"/>
      <path id="Trazado_806438" data-name="Trazado 806438" d="M162.274,80.583a2.414,2.414,0,0,0-.2-.218,3.384,3.384,0,0,0-.452-.368,3.558,3.558,0,0,0-1.052-.48.022.022,0,1,0-.014.042,5.408,5.408,0,0,1,.968.583c.153.112.293.234.433.357.067.059.131.123.2.181s.14.12.212.179c.028.022.064-.014.05-.045a1.6,1.6,0,0,0-.148-.237Z" transform="translate(-115.744 -57.324)" fill="#263238"/>
      <path id="Trazado_806439" data-name="Trazado 806439" d="M176.072,44.943c-.991-.366-1.705-2.883-1.579-4.328.008-.1.631-.79,1.345-1.666.433-.533.9-1.136,1.286-1.719l3.058,3.315a11.146,11.146,0,0,0-1.839,2,1.614,1.614,0,0,0-.134.257.207.207,0,0,1-.022.042C177.959,43.344,177.027,45.3,176.072,44.943Z" transform="translate(-125.789 -26.838)" fill="#d3766a"/>
      <path id="Trazado_806440" data-name="Trazado 806440" d="M182.344,37.65c-.377.678-1.811,3.594.569,5.266a3.083,3.083,0,0,0,.388.232.329.329,0,0,0,.022-.045,1.309,1.309,0,0,1,.134-.254,11.135,11.135,0,0,1,1.836-2l-2.95-3.2Z" transform="translate(-130.902 -27.141)" fill="#263238"/>
      <path id="Trazado_806441" data-name="Trazado 806441" d="M183.419,19.336c-.9,1.351-1.412,5.885-.642,7.163,1.116,1.853,3.589,2.74,5.324,1.253,1.683-1.443,2.241-7.364,1.323-8.592a3.874,3.874,0,0,0-6,.176Z" transform="translate(-131.501 -12.845)" fill="#d3766a"/>
      <path id="Trazado_806442" data-name="Trazado 806442" d="M197.735,37.3s-.025.011-.028.022c-.033.3-.126.65-.416.712-.008,0-.011.017,0,.017C197.634,38.051,197.751,37.6,197.735,37.3Z" transform="translate(-142.231 -26.888)" fill="#263238"/>
      <path id="Trazado_806443" data-name="Trazado 806443" d="M196.878,36c-.483-.109-.664.868-.218.968S197.283,36.09,196.878,36Z" transform="translate(-141.597 -25.944)" fill="#263238"/>
      <path id="Trazado_806444" data-name="Trazado 806444" d="M204.461,38.26s.02.02.02.031c-.067.3-.092.656.165.806.008.006.006.02-.006.017-.324-.109-.287-.58-.176-.854Z" transform="translate(-147.35 -27.58)" fill="#263238"/>
      <path id="Trazado_806445" data-name="Trazado 806445" d="M204.851,37.306c.494.053.349,1.035-.106.985S204.438,37.261,204.851,37.306Z" transform="translate(-147.41 -26.892)" fill="#263238"/>
      <path id="Trazado_806446" data-name="Trazado 806446" d="M196.4,32.564a3.877,3.877,0,0,0,.4-.061.663.663,0,0,0,.4-.142.21.21,0,0,0,.014-.257.517.517,0,0,0-.505-.148.765.765,0,0,0-.494.246.224.224,0,0,0,.184.366Z" transform="translate(-141.421 -23.028)" fill="#263238"/>
      <path id="Trazado_806447" data-name="Trazado 806447" d="M205.629,33.881a3.684,3.684,0,0,1-.368-.173.656.656,0,0,1-.343-.248.207.207,0,0,1,.059-.248.518.518,0,0,1,.527,0,.758.758,0,0,1,.4.374.223.223,0,0,1-.279.3Z" transform="translate(-147.72 -23.888)" fill="#263238"/>
      <path id="Trazado_806448" data-name="Trazado 806448" d="M195.691,46.843c.059.084.114.2.22.226a.813.813,0,0,0,.338-.017c.011,0,.017.011.011.017a.416.416,0,0,1-.413.092.328.328,0,0,1-.187-.313c0-.02.022-.02.031-.008Z" transform="translate(-141.06 -33.761)" fill="#263238"/>
      <path id="Trazado_806449" data-name="Trazado 806449" d="M197.517,36.008a1.053,1.053,0,0,0,.6.586,1.247,1.247,0,0,0,.368.087.687.687,0,0,0,.073.006h.067a.078.078,0,0,0,.073-.056s0-.022,0-.033l.006-.028c.05-.232.092-.589.092-.589.078.059.474.335.491.212a15.807,15.807,0,0,0,.181-3.19.028.028,0,0,0-.056,0c-.162.974-.151,1.967-.3,2.947a1.8,1.8,0,0,0-.458-.237c-.033,0-.073.695-.1.8a.028.028,0,0,1,0,.011,1.451,1.451,0,0,1-1-.53c-.02-.022-.047-.006-.033.022Z" transform="translate(-142.398 -23.771)" fill="#263238"/>
      <path id="Trazado_806450" data-name="Trazado 806450" d="M197.8,44.338a1.23,1.23,0,0,1-.558.287.57.57,0,0,1-.338-.042c-.229-.109-.2-.332-.114-.513a1.368,1.368,0,0,1,.162-.271,1.6,1.6,0,0,0,.848.536Z" transform="translate(-141.832 -31.574)" fill="#263238"/>
      <path id="Trazado_806451" data-name="Trazado 806451" d="M197.245,45.325a.57.57,0,0,1-.338-.042c-.229-.109-.2-.332-.114-.513a.577.577,0,0,1,.452.553Z" transform="translate(-141.832 -32.274)" fill="#ff98b9"/>
      <path id="Trazado_806452" data-name="Trazado 806452" d="M182.454,19.846s-.494-2.838.153-4.113c.293-.578,1.267-.661,1.267-.661a1.448,1.448,0,0,1,.96-1.194c.968-.391,2.629.43,2.629.43s1.741-1.175,3.067.078-.4,2.637-.4,2.637.257,1.046-1.4,1.136c-1.619.089-4.189-1.621-4.189-1.621a10.526,10.526,0,0,1-1.178,2.894.954.954,0,0,1-.907.419Z" transform="translate(-131.409 -9.926)" fill="#263238"/>
      <path id="Trazado_806453" data-name="Trazado 806453" d="M191.726,13.9a2.931,2.931,0,0,0-1.03-.633,3.214,3.214,0,0,0-1.058-.234,1.775,1.775,0,0,0-1.649.79,1.234,1.234,0,0,0-.12.957c0,.014.025.006.02-.008a1.3,1.3,0,0,1,.8-1.451,2.672,2.672,0,0,1,1.9.033,5.2,5.2,0,0,1,1.113.575.019.019,0,0,0,.022-.031Z" transform="translate(-135.41 -9.389)" fill="#263238"/>
      <path id="Trazado_806454" data-name="Trazado 806454" d="M205.316,15.732a1.439,1.439,0,0,0-.6-1.222,2.472,2.472,0,0,0-1.51-.53,3.111,3.111,0,0,0-1.571.427c-.011.006,0,.025.011.02a2.728,2.728,0,0,1,2.788.045,1.489,1.489,0,0,1,.74,1.083,1.483,1.483,0,0,1-.491,1.155,2.759,2.759,0,0,1-1.409.62c-.011,0-.008.02,0,.02a2.851,2.851,0,0,0,1.345-.469A1.614,1.614,0,0,0,205.316,15.732Z" transform="translate(-145.366 -10.075)" fill="#263238"/>
      <path id="Trazado_806455" data-name="Trazado 806455" d="M193.182,24.23a5.116,5.116,0,0,1-2.115-.43,10.5,10.5,0,0,1-1.973-1.1c-.36-.251-.712-.516-1.058-.787-.011-.008-.022.008-.014.017a11.342,11.342,0,0,0,1.875,1.49,5.738,5.738,0,0,0,2.065.784,4.952,4.952,0,0,0,1.219.039c.011,0,.008-.017,0-.017Z" transform="translate(-135.552 -15.794)" fill="#263238"/>
      <path id="Trazado_806456" data-name="Trazado 806456" d="M180.916,32.89s-.586-1.672-1.32-1.5-.564,2.4.1,2.888a.785.785,0,0,0,1.127-.123l.087-1.264Z" transform="translate(-129.135 -22.618)" fill="#d3766a"/>
      <path id="Trazado_806457" data-name="Trazado 806457" d="M181.029,33.7s-.02.011-.008.02a1.989,1.989,0,0,1,.656,1.473.435.435,0,0,0-.594-.29c-.017.006-.008.031.006.031a.481.481,0,0,1,.466.307,2.242,2.242,0,0,1,.128.483c.011.053.1.053.1-.006v-.014a1.754,1.754,0,0,0-.753-2.006Z" transform="translate(-130.504 -24.293)" fill="#263238"/>
      <path id="Trazado_806458" data-name="Trazado 806458" d="M176,50.039l-2.207,1.7-1.105-4.448-1.317.441s.067,6.069.2,5.877l2.048-1.379.536,2.115,1.87-3.413L176,50.039Z" transform="translate(-123.548 -34.091)" fill="#bfc7b6"/>
      <path id="Trazado_806459" data-name="Trazado 806459" d="M175.08,54.577c.29-.575.6-1.144.859-1.73.008-.02-.017-.047-.033-.028a35.9,35.9,0,0,0-1.822,3.176v-.008c-.022-.089-.536-1.9-.558-1.886-.379.187-1.875,1.186-2,1.286-.008-.963-.126-4.512-.234-5.483a.022.022,0,0,0-.045,0c-.064.974.053,5.732.092,5.743a25.349,25.349,0,0,0,2.154-1.462,17.037,17.037,0,0,0,.547,2.238,20.174,20.174,0,0,0,1.038-1.839Z" transform="translate(-123.449 -35.959)" fill="#263238"/>
      <path id="Trazado_806460" data-name="Trazado 806460" d="M161.66,53.26c3.271,7.546,7.345,20.963,8.723,22.947.935,1.348-6.739,4.755-7.239,3.748-.639-1.292-4.2-16.6-4.663-25.469-.193-3.672,2.2-3.477,3.178-1.222Z" transform="translate(-114.249 -37.223)" fill="#d3766a"/>
      <path id="Trazado_806461" data-name="Trazado 806461" d="M177.171,142.914c-1.5-.508-1.951-2.634-1.951-2.634l5.986-4.97a5.068,5.068,0,0,0,2.832,1.911c.393.056,2.341.042,4.339.34a18.713,18.713,0,0,1,4.777,1.2c.335.413-.153,1.158-1.736,1.289s-4.708-.142-4.9-.109a1,1,0,0,0-.181.07,28.4,28.4,0,0,1-2.394,2.813c-.472.4-2.486.539-3.664.561A6.629,6.629,0,0,1,177.171,142.914Z" transform="translate(-126.324 -97.548)" fill="#d3766a"/>
      <path id="Trazado_806462" data-name="Trazado 806462" d="M205.092,146.219s3.692-1.139,4.459-.89,5.587,1.021,5.93,1.429-.153,1.158-1.736,1.289-4.708-.142-4.9-.109-3.24,1.552-3.561,1.6S205.092,146.219,205.092,146.219Z" transform="translate(-147.841 -104.745)" fill="#d3766a"/>
      <path id="Trazado_806463" data-name="Trazado 806463" d="M212.29,145.077c.421-.033.846-.047,1.27-.064.212-.006.424-.008.636-.006.106,0,.212,0,.321.006a1.58,1.58,0,0,1,.162.011,1.264,1.264,0,0,1,.165.028c.826.165,1.658.335,2.484.508s1.652.352,2.478.555a2.685,2.685,0,0,1,.606.24,1.223,1.223,0,0,1,.268.2.544.544,0,0,1,.165.307.439.439,0,0,1-.1.329.908.908,0,0,1-.251.212,2.31,2.31,0,0,1-.589.246,2.645,2.645,0,0,0,.555-.3.913.913,0,0,0,.215-.212.34.34,0,0,0,.064-.262.67.67,0,0,0-.391-.4,2.591,2.591,0,0,0-.58-.2c-.823-.159-1.658-.329-2.484-.5s-1.652-.354-2.478-.564a3.079,3.079,0,0,0-.611-.073c-.209-.011-.421-.017-.633-.025l-1.267-.045Z" transform="translate(-153.049 -104.539)" fill="#263238"/>
      <path id="Trazado_806464" data-name="Trazado 806464" d="M203.53,148.261s4.052-1.231,4.819-.985,5.587,1.021,5.93,1.429-.153,1.158-1.736,1.289-4.708-.142-4.9-.109-3.24,1.552-3.561,1.6-.553-3.231-.553-3.231Z" transform="translate(-146.734 -106.152)" fill="#d3766a"/>
      <path id="Trazado_806465" data-name="Trazado 806465" d="M210.13,146.72c.519-.017,1.038-.011,1.557-.008.26.006.519.014.779.028.131.008.26.017.391.028a3.045,3.045,0,0,1,.393.064c1.013.215,2.029.433,3.042.661l1.518.349.38.092a2.985,2.985,0,0,1,.385.112,1.472,1.472,0,0,1,.366.19.716.716,0,0,1,.276.34.392.392,0,0,1,0,.24.524.524,0,0,1-.114.2,1.175,1.175,0,0,1-.332.248,3.652,3.652,0,0,1-.74.279,4.571,4.571,0,0,1-1.554.128,4.828,4.828,0,0,0,1.524-.232,3.639,3.639,0,0,0,.7-.3,1.081,1.081,0,0,0,.282-.226.283.283,0,0,0,.07-.282.545.545,0,0,0-.218-.243,1.683,1.683,0,0,0-.326-.159c-.229-.078-.494-.12-.745-.179l-1.518-.335c-1.013-.229-2.023-.455-3.033-.706a3.037,3.037,0,0,0-.371-.078c-.126-.017-.254-.031-.382-.045-.257-.025-.516-.045-.773-.061l-1.554-.106Z" transform="translate(-151.492 -105.766)" fill="#263238"/>
      <path id="Trazado_806466" data-name="Trazado 806466" d="M203.56,150.545a28.557,28.557,0,0,1,4.482-.017c.712.229,4.038.553,4.359.932s-.145,1.077-1.616,1.2-3.218.265-3.4.3-3.011.544-3.312.594-.513-3.008-.513-3.008Z" transform="translate(-146.755 -108.449)" fill="#d3766a"/>
      <path id="Trazado_806467" data-name="Trazado 806467" d="M207.068,149.483c.67,0,1.337.008,2,.017.335,0,.667.008,1,.02l.251.008a1.57,1.57,0,0,1,.257.025c.167.025.332.056.5.087.659.131,1.312.273,1.959.441.324.084.647.17.971.262.162.047.321.095.483.148a3.131,3.131,0,0,1,.486.193.42.42,0,0,1,.206.251.432.432,0,0,1-.053.318,1.219,1.219,0,0,1-.382.391,2.17,2.17,0,0,1-.977.374c-.67.075-1.331.134-2,.2s-1.339.12-1.992.167c-.327.042-.659.095-.991.142s-.661.092-1,.128c.647-.173,1.3-.324,1.956-.458l2-.187c.664-.067,1.331-.131,1.99-.212a1.95,1.95,0,0,0,.879-.329,1.04,1.04,0,0,0,.318-.315.183.183,0,0,0-.073-.285,3.066,3.066,0,0,0-.444-.179c-.156-.053-.315-.1-.474-.151-.318-.095-.639-.184-.963-.271-.645-.167-1.289-.338-1.942-.48-.162-.036-.326-.07-.488-.1a3.968,3.968,0,0,0-.491-.045l-1-.053-2-.109Z" transform="translate(-149.279 -107.764)" fill="#263238"/>
      <path id="Trazado_806468" data-name="Trazado 806468" d="M170.582,75.432l-8.7,3.681s-3.307-18.273-3.681-24.451c-.273-4.537,2.177-4.384,3.656-1.406,2.02,4.074,8.72,22.174,8.72,22.174Z" transform="translate(-114.042 -36.852)" fill="#4f6736"/>
      <path id="Trazado_806469" data-name="Trazado 806469" d="M172.523,136.591c1.178-.4,5.944-2.244,6.946-2.71.07-.034.067-.084-.011-.059a67.862,67.862,0,0,0-6.948,2.721C172.481,136.554,172.492,136.6,172.523,136.591Z" transform="translate(-124.358 -96.471)" fill="#263238"/>
      <path id="Trazado_806470" data-name="Trazado 806470" d="M158.706,73.33c.011.449.033.9.059,1.342-.022-.078-.045-.156-.061-.234s-.031-.165-.05-.248-.028-.173-.047-.257c-.006-.025-.047-.028-.05,0a1.565,1.565,0,0,0,.042.41,4,4,0,0,0,.114.407.877.877,0,0,0,.064.176c.05.745.117,1.49.212,2.232.081.639.181,1.275.29,1.909s.483,2.336.611,2.978a.023.023,0,0,0,.045-.008c-.109-.633-.385-2.33-.474-2.966s-.17-1.275-.254-1.914c-.167-1.272-.321-2.551-.474-3.826,0-.017-.031-.014-.028,0Z" transform="translate(-114.308 -52.856)" fill="#263238"/>
      <path id="Trazado_806471" data-name="Trazado 806471" d="M232.314,6.9a6.067,6.067,0,0,1-10.138,3.837l-3.036.446,1.518-2.623a6,6,0,0,1-.416-2.922A6.068,6.068,0,1,1,232.311,6.9Z" transform="translate(-157.988 -0.141)" fill="#e2e2e2"/>
      <path id="Trazado_806472" data-name="Trazado 806472" d="M231.8,6.756a6.1,6.1,0,0,1-1.225,3.075,6.571,6.571,0,0,1-.55.633,6.9,6.9,0,0,1-.639.541,6.013,6.013,0,0,1-1.462.815,5.878,5.878,0,0,1-2.475.407,5.325,5.325,0,0,1-.84-.087,6.117,6.117,0,0,1-3-1.482l.073.022-3.033.466-.22.033.112-.2,1.51-2.629-.008.1A6.139,6.139,0,0,1,227.64.313a6.214,6.214,0,0,1,2.339,1.434A6.108,6.108,0,0,1,231.8,6.756Zm0,0a6.087,6.087,0,0,0-1.842-4.984A6.127,6.127,0,0,0,227.615.391a6.016,6.016,0,0,0-2.7-.2,5.953,5.953,0,0,0-2.506.991A6.242,6.242,0,0,0,220.6,3.159a5.986,5.986,0,0,0-.77,2.567,6.066,6.066,0,0,0,.427,2.643l.022.053-.028.05-1.526,2.618-.109-.159,3.039-.424.042-.006.031.028a5.969,5.969,0,0,0,2.9,1.5,5.1,5.1,0,0,0,.823.1,6.318,6.318,0,0,0,.829,0,6,6,0,0,0,1.621-.357,5.617,5.617,0,0,0,1.462-.79,6.868,6.868,0,0,0,.642-.536,6.585,6.585,0,0,0,.553-.628A6.1,6.1,0,0,0,231.8,6.753Z" transform="translate(-157.469 0)" fill="#263238"/>
      <path id="Trazado_806473" data-name="Trazado 806473" d="M235.482,16.559l-2.592-2.623.871-.859,1.515,1.532,3.145-4.928,1.033.656Z" transform="translate(-167.901 -6.976)" fill="#4f6736"/>
      <path id="Trazado_806474" data-name="Trazado 806474" d="M62.226,366.911c30.346,0,54.946-6.452,54.946-14.41s-24.6-14.41-54.946-14.41S7.28,344.542,7.28,352.5,31.88,366.911,62.226,366.911Z" transform="translate(-5.248 -243.741)" fill="#bfc7b6"/>
      <path id="Trazado_806475" data-name="Trazado 806475" d="M197.22,159.29c24.3,0,43.993,6.309,43.993,14.092H197.22Z" transform="translate(-142.185 -114.836)" fill="#37474f"/>
      <path id="Trazado_806476" data-name="Trazado 806476" d="M241.213,209.79H197.22v49.792h43.993Z" transform="translate(-142.185 -151.244)" fill="#263238"/>
      <path id="Trazado_806477" data-name="Trazado 806477" d="M83.57,212.03v14.092L47.985,234.4c-5.69-2.509-8.422-5.416-8.405-8.3.025-4.348,6.312-8.634,18.139-11.385a112.015,112.015,0,0,1,25.854-2.693Z" transform="translate(-28.535 -152.859)" fill="#4f6736"/>
      <g id="Grupo_1066944" data-name="Grupo 1066944" transform="translate(11.045 59.171)" opacity="0.4">
        <path id="Trazado_806478" data-name="Trazado 806478" d="M83.57,212.03v14.092L47.985,234.4c-5.69-2.509-8.422-5.416-8.405-8.3.025-4.348,6.312-8.634,18.139-11.385a112.015,112.015,0,0,1,25.854-2.693Z" transform="translate(-39.58 -212.03)" fill="#e2e2e2"/>
      </g>
      <path id="Trazado_806479" data-name="Trazado 806479" d="M47.985,270.766V294.3c-5.69-2.509-8.422-5.416-8.405-8.3V262.47C39.563,265.35,42.3,268.258,47.985,270.766Z" transform="translate(-28.535 -189.223)" fill="#4f6736"/>
      <path id="Trazado_806480" data-name="Trazado 806480" d="M105.285,262.5v23.536L69.7,294.318V270.782Z" transform="translate(-50.25 -189.245)" fill="#4f6736"/>
      <g id="Grupo_1066945" data-name="Grupo 1066945" transform="translate(19.45 73.255)" opacity="0.1">
        <path id="Trazado_806481" data-name="Trazado 806481" d="M105.285,262.5v23.536L69.7,294.318V270.782Z" transform="translate(-69.7 -262.5)"/>
      </g>
      <path id="Trazado_806482" data-name="Trazado 806482" d="M105.285,300.33l-13.593,13.4c-9.24-.96-16.28-2.6-21.992-5.118Z" transform="translate(-50.25 -216.518)" fill="#455a64"/>
      <path id="Trazado_806483" data-name="Trazado 806483" d="M91.692,335.128v20.745c-9.24-.96-16.28-2.6-21.992-5.118V330.01C75.412,332.527,82.453,334.168,91.692,335.128Z" transform="translate(-50.25 -237.916)" fill="#263238"/>
      <path id="Trazado_806484" data-name="Trazado 806484" d="M162.1,300.33v20.745l-13.593,13.4V313.73Z" transform="translate(-107.067 -216.518)" fill="#37474f"/>
      <path id="Trazado_806485" data-name="Trazado 806485" d="M220.016,321.26c0,7.783-19.7,14.09-43.993,14.09a125.816,125.816,0,0,1-13.593-.689l13.593-13.4Z" transform="translate(-117.103 -231.608)" fill="#4f6736"/>
      <path id="Trazado_806486" data-name="Trazado 806486" d="M220.016,321.26v15.164c0,7.783-19.7,14.09-43.993,14.09a125.808,125.808,0,0,1-13.593-.689V334.66a125.1,125.1,0,0,0,13.593.689C200.323,335.35,220.016,329.04,220.016,321.26Z" transform="translate(-117.103 -231.608)" fill="#4f6736"/>
      <g id="Grupo_1066946" data-name="Grupo 1066946" transform="translate(45.327 89.652)" opacity="0.1">
        <path id="Trazado_806487" data-name="Trazado 806487" d="M220.016,321.26v15.164c0,7.783-19.7,14.09-43.993,14.09a125.808,125.808,0,0,1-13.593-.689V334.66a125.1,125.1,0,0,0,13.593.689C200.323,335.35,220.016,329.04,220.016,321.26Z" transform="translate(-162.43 -321.26)"/>
      </g>
      <path id="Trazado_806488" data-name="Trazado 806488" d="M253.96,174.933l.075.017a.715.715,0,0,1,.566.689.721.721,0,1,1-1.418-.179.7.7,0,0,1,.58-.522.17.17,0,0,0,.036-.008h.162Z" transform="translate(-182.51 -126.112)" fill="#4f6736"/>
      <path id="Trazado_806489" data-name="Trazado 806489" d="M250.561,186.287V185.1c0-.059,0-.059-.059-.059-.095,0-.087-.008-.087.084v2.33a.384.384,0,0,1-.151.315.223.223,0,0,1-.165.059.36.36,0,0,0-.095,0c-.142.022-.293-.148-.3-.282,0-.061-.006-.123-.006-.184v-2.277c0-.033-.014-.047-.045-.045h-.793c-.061,0-.064,0-.047-.064l.695-2.419c.078-.276.159-.55.237-.826.014-.047.011-.05-.039-.05-.117,0-.095-.017-.126.092-.173.6-.346,1.2-.516,1.8a.288.288,0,0,1-.215.229.32.32,0,0,1-.324-.095.271.271,0,0,1-.056-.279l.184-.65c.134-.463.265-.926.4-1.387a.978.978,0,0,1,.48-.617.812.812,0,0,1,.393-.1H251a.9.9,0,0,1,.818.491,2.375,2.375,0,0,1,.176.488c.165.575.332,1.15.5,1.725a.547.547,0,0,1,.006.251.256.256,0,0,1-.187.173.3.3,0,0,1-.4-.218c-.173-.619-.352-1.239-.53-1.856a.05.05,0,0,0-.056-.045c-.109,0-.109,0-.078.1l.77,2.682c.05.173.1.346.148.516.017.056.017.059-.042.059h-.79c-.059,0-.059,0-.059.061v2.389a.335.335,0,0,1-.193.318.165.165,0,0,1-.081.02h-.089a.341.341,0,0,1-.346-.346v-1.189Z" transform="translate(-179.122 -130.25)" fill="#4f6736"/>
      <path id="Trazado_806490" data-name="Trazado 806490" d="M253.96,174.933l.075.017a.715.715,0,0,1,.566.689.721.721,0,1,1-1.418-.179.7.7,0,0,1,.58-.522.17.17,0,0,0,.036-.008h.162Z" transform="translate(-182.51 -126.112)" fill="#e2e2e2" opacity="0.7"/>
      <path id="Trazado_806491" data-name="Trazado 806491" d="M250.561,186.287V185.1c0-.059,0-.059-.059-.059-.095,0-.087-.008-.087.084v2.33a.384.384,0,0,1-.151.315.223.223,0,0,1-.165.059.36.36,0,0,0-.095,0c-.142.022-.293-.148-.3-.282,0-.061-.006-.123-.006-.184v-2.277c0-.033-.014-.047-.045-.045h-.793c-.061,0-.064,0-.047-.064l.695-2.419c.078-.276.159-.55.237-.826.014-.047.011-.05-.039-.05-.117,0-.095-.017-.126.092-.173.6-.346,1.2-.516,1.8a.288.288,0,0,1-.215.229.32.32,0,0,1-.324-.095.271.271,0,0,1-.056-.279l.184-.65c.134-.463.265-.926.4-1.387a.978.978,0,0,1,.48-.617.812.812,0,0,1,.393-.1H251a.9.9,0,0,1,.818.491,2.375,2.375,0,0,1,.176.488c.165.575.332,1.15.5,1.725a.547.547,0,0,1,.006.251.256.256,0,0,1-.187.173.3.3,0,0,1-.4-.218c-.173-.619-.352-1.239-.53-1.856a.05.05,0,0,0-.056-.045c-.109,0-.109,0-.078.1l.77,2.682c.05.173.1.346.148.516.017.056.017.059-.042.059h-.79c-.059,0-.059,0-.059.061v2.389a.335.335,0,0,1-.193.318.165.165,0,0,1-.081.02h-.089a.341.341,0,0,1-.346-.346v-1.189Z" transform="translate(-179.122 -130.25)" fill="#e2e2e2" opacity="0.7"/>
      <path id="Trazado_806492" data-name="Trazado 806492" d="M299.75,166.073l.075.017a.715.715,0,0,1,.566.689.721.721,0,1,1-1.418-.179.7.7,0,0,1,.58-.522.17.17,0,0,0,.036-.008h.162Z" transform="translate(-215.523 -119.724)" fill="#4f6736"/>
      <path id="Trazado_806493" data-name="Trazado 806493" d="M296.361,177.427v-1.192c0-.059,0-.059-.059-.059-.095,0-.086-.008-.086.084v2.33a.384.384,0,0,1-.151.315.223.223,0,0,1-.165.059.36.36,0,0,0-.095,0c-.142.022-.293-.148-.3-.282,0-.061-.006-.123-.006-.184v-2.277c0-.034-.014-.047-.045-.045h-.793c-.061,0-.064,0-.047-.064l.695-2.419c.078-.276.159-.55.237-.826.014-.047.011-.05-.039-.05-.117,0-.095-.017-.126.092-.173.6-.346,1.2-.516,1.8a.288.288,0,0,1-.215.229.32.32,0,0,1-.324-.095.271.271,0,0,1-.056-.279c.061-.218.123-.433.184-.65.134-.463.265-.926.4-1.387a.978.978,0,0,1,.48-.617.812.812,0,0,1,.393-.1H296.8a.9.9,0,0,1,.818.491,2.375,2.375,0,0,1,.176.488c.165.575.332,1.15.5,1.725a.546.546,0,0,1,.006.251.256.256,0,0,1-.187.173.3.3,0,0,1-.4-.218c-.173-.62-.352-1.239-.53-1.856a.05.05,0,0,0-.056-.045c-.109,0-.109,0-.078.1l.77,2.682c.05.173.1.346.148.516.017.056.017.059-.042.059h-.79c-.059,0-.059,0-.059.061v2.389a.335.335,0,0,1-.193.318.165.165,0,0,1-.081.02h-.089a.341.341,0,0,1-.346-.346v-1.189Z" transform="translate(-212.142 -123.863)" fill="#4f6736"/>
      <path id="Trazado_806494" data-name="Trazado 806494" d="M299.75,166.073l.075.017a.715.715,0,0,1,.566.689.721.721,0,1,1-1.418-.179.7.7,0,0,1,.58-.522.17.17,0,0,0,.036-.008h.162Z" transform="translate(-215.523 -119.724)" fill="#e2e2e2" opacity="0.7"/>
      <path id="Trazado_806495" data-name="Trazado 806495" d="M296.361,177.427v-1.192c0-.059,0-.059-.059-.059-.095,0-.086-.008-.086.084v2.33a.384.384,0,0,1-.151.315.223.223,0,0,1-.165.059.36.36,0,0,0-.095,0c-.142.022-.293-.148-.3-.282,0-.061-.006-.123-.006-.184v-2.277c0-.034-.014-.047-.045-.045h-.793c-.061,0-.064,0-.047-.064l.695-2.419c.078-.276.159-.55.237-.826.014-.047.011-.05-.039-.05-.117,0-.095-.017-.126.092-.173.6-.346,1.2-.516,1.8a.288.288,0,0,1-.215.229.32.32,0,0,1-.324-.095.271.271,0,0,1-.056-.279c.061-.218.123-.433.184-.65.134-.463.265-.926.4-1.387a.978.978,0,0,1,.48-.617.812.812,0,0,1,.393-.1H296.8a.9.9,0,0,1,.818.491,2.375,2.375,0,0,1,.176.488c.165.575.332,1.15.5,1.725a.546.546,0,0,1,.006.251.256.256,0,0,1-.187.173.3.3,0,0,1-.4-.218c-.173-.62-.352-1.239-.53-1.856a.05.05,0,0,0-.056-.045c-.109,0-.109,0-.078.1l.77,2.682c.05.173.1.346.148.516.017.056.017.059-.042.059h-.79c-.059,0-.059,0-.059.061v2.389a.335.335,0,0,1-.193.318.165.165,0,0,1-.081.02h-.089a.341.341,0,0,1-.346-.346v-1.189Z" transform="translate(-212.142 -123.863)" fill="#e2e2e2" opacity="0.7"/>
      <path id="Trazado_806496" data-name="Trazado 806496" d="M204.67,144.7l.075.017a.715.715,0,0,1,.566.689.721.721,0,1,1-1.418-.179.7.7,0,0,1,.58-.522.17.17,0,0,0,.036-.008h.162Z" transform="translate(-146.975 -104.318)" fill="#4f6736"/>
      <path id="Trazado_806497" data-name="Trazado 806497" d="M201.271,156.057v-1.192c0-.059,0-.059-.059-.059-.095,0-.087-.008-.087.084v2.33a.384.384,0,0,1-.151.315.222.222,0,0,1-.165.059.36.36,0,0,0-.095,0c-.142.022-.293-.148-.3-.282,0-.061-.006-.123-.006-.184v-2.277c0-.034-.014-.047-.045-.045h-.793c-.061,0-.064,0-.047-.064l.695-2.419c.078-.276.159-.55.237-.826.014-.047.011-.05-.039-.05-.117,0-.095-.017-.126.092-.173.6-.346,1.2-.516,1.8a.288.288,0,0,1-.215.229.32.32,0,0,1-.324-.095.271.271,0,0,1-.056-.279c.061-.218.123-.433.184-.65.134-.463.265-.926.4-1.387a.978.978,0,0,1,.48-.617.812.812,0,0,1,.393-.1h1.072a.9.9,0,0,1,.818.491,2.222,2.222,0,0,1,.176.488c.165.575.332,1.15.5,1.725a.547.547,0,0,1,.006.251.256.256,0,0,1-.187.173.3.3,0,0,1-.4-.218c-.173-.62-.352-1.239-.53-1.856a.05.05,0,0,0-.056-.045c-.109,0-.109,0-.078.1l.77,2.682c.05.173.1.346.148.516.017.056.017.059-.042.059h-.79c-.059,0-.059,0-.059.061v2.389a.335.335,0,0,1-.193.318.165.165,0,0,1-.081.02h-.089a.341.341,0,0,1-.346-.346v-1.189Z" transform="translate(-143.587 -108.456)" fill="#4f6736"/>
      <path id="Trazado_806498" data-name="Trazado 806498" d="M204.67,144.7l.075.017a.715.715,0,0,1,.566.689.721.721,0,1,1-1.418-.179.7.7,0,0,1,.58-.522.17.17,0,0,0,.036-.008h.162Z" transform="translate(-146.975 -104.318)" fill="#e2e2e2" opacity="0.7"/>
      <path id="Trazado_806499" data-name="Trazado 806499" d="M201.271,156.057v-1.192c0-.059,0-.059-.059-.059-.095,0-.087-.008-.087.084v2.33a.384.384,0,0,1-.151.315.222.222,0,0,1-.165.059.36.36,0,0,0-.095,0c-.142.022-.293-.148-.3-.282,0-.061-.006-.123-.006-.184v-2.277c0-.034-.014-.047-.045-.045h-.793c-.061,0-.064,0-.047-.064l.695-2.419c.078-.276.159-.55.237-.826.014-.047.011-.05-.039-.05-.117,0-.095-.017-.126.092-.173.6-.346,1.2-.516,1.8a.288.288,0,0,1-.215.229.32.32,0,0,1-.324-.095.271.271,0,0,1-.056-.279c.061-.218.123-.433.184-.65.134-.463.265-.926.4-1.387a.978.978,0,0,1,.48-.617.812.812,0,0,1,.393-.1h1.072a.9.9,0,0,1,.818.491,2.222,2.222,0,0,1,.176.488c.165.575.332,1.15.5,1.725a.547.547,0,0,1,.006.251.256.256,0,0,1-.187.173.3.3,0,0,1-.4-.218c-.173-.62-.352-1.239-.53-1.856a.05.05,0,0,0-.056-.045c-.109,0-.109,0-.078.1l.77,2.682c.05.173.1.346.148.516.017.056.017.059-.042.059h-.79c-.059,0-.059,0-.059.061v2.389a.335.335,0,0,1-.193.318.165.165,0,0,1-.081.02h-.089a.341.341,0,0,1-.346-.346v-1.189Z" transform="translate(-143.587 -108.456)" fill="#e2e2e2" opacity="0.7"/>
      <path id="Trazado_806500" data-name="Trazado 806500" d="M79.66,217.1l.075.017a.715.715,0,0,1,.566.689.721.721,0,1,1-1.418-.179.7.7,0,0,1,.58-.522.169.169,0,0,0,.036-.008h.162Z" transform="translate(-56.85 -156.514)" fill="#4f6736"/>
      <path id="Trazado_806501" data-name="Trazado 806501" d="M76.261,228.457v-1.192c0-.059,0-.059-.059-.059-.095,0-.087-.008-.087.084v2.33a.384.384,0,0,1-.151.315.222.222,0,0,1-.165.059.36.36,0,0,0-.095,0c-.142.022-.293-.148-.3-.282,0-.061-.006-.123-.006-.184v-2.277c0-.033-.014-.047-.045-.045h-.793c-.061,0-.064,0-.047-.064l.695-2.419c.078-.276.159-.55.237-.826.014-.047.011-.05-.039-.05-.117,0-.095-.017-.126.092-.173.6-.346,1.2-.516,1.8a.288.288,0,0,1-.215.229.32.32,0,0,1-.324-.095.271.271,0,0,1-.056-.279l.184-.65c.134-.463.265-.926.4-1.387a.978.978,0,0,1,.48-.617.812.812,0,0,1,.393-.1H76.7a.9.9,0,0,1,.818.491,2.375,2.375,0,0,1,.176.488c.165.575.332,1.15.5,1.725a.547.547,0,0,1,.006.251.256.256,0,0,1-.187.173.3.3,0,0,1-.4-.218c-.173-.62-.352-1.239-.53-1.856a.05.05,0,0,0-.056-.045c-.109,0-.109,0-.078.1l.77,2.682c.05.173.1.346.148.516.017.056.017.059-.042.059h-.79c-.059,0-.059,0-.059.061v2.389a.335.335,0,0,1-.193.318.165.165,0,0,1-.081.02h-.089a.341.341,0,0,1-.346-.346v-1.189Z" transform="translate(-53.462 -160.652)" fill="#4f6736"/>
      <path id="Trazado_806502" data-name="Trazado 806502" d="M79.66,217.1l.075.017a.715.715,0,0,1,.566.689.721.721,0,1,1-1.418-.179.7.7,0,0,1,.58-.522.169.169,0,0,0,.036-.008h.162Z" transform="translate(-56.85 -156.514)" fill="#e2e2e2" opacity="0.7"/>
      <path id="Trazado_806503" data-name="Trazado 806503" d="M76.261,228.457v-1.192c0-.059,0-.059-.059-.059-.095,0-.087-.008-.087.084v2.33a.384.384,0,0,1-.151.315.222.222,0,0,1-.165.059.36.36,0,0,0-.095,0c-.142.022-.293-.148-.3-.282,0-.061-.006-.123-.006-.184v-2.277c0-.033-.014-.047-.045-.045h-.793c-.061,0-.064,0-.047-.064l.695-2.419c.078-.276.159-.55.237-.826.014-.047.011-.05-.039-.05-.117,0-.095-.017-.126.092-.173.6-.346,1.2-.516,1.8a.288.288,0,0,1-.215.229.32.32,0,0,1-.324-.095.271.271,0,0,1-.056-.279l.184-.65c.134-.463.265-.926.4-1.387a.978.978,0,0,1,.48-.617.812.812,0,0,1,.393-.1H76.7a.9.9,0,0,1,.818.491,2.375,2.375,0,0,1,.176.488c.165.575.332,1.15.5,1.725a.547.547,0,0,1,.006.251.256.256,0,0,1-.187.173.3.3,0,0,1-.4-.218c-.173-.62-.352-1.239-.53-1.856a.05.05,0,0,0-.056-.045c-.109,0-.109,0-.078.1l.77,2.682c.05.173.1.346.148.516.017.056.017.059-.042.059h-.79c-.059,0-.059,0-.059.061v2.389a.335.335,0,0,1-.193.318.165.165,0,0,1-.081.02h-.089a.341.341,0,0,1-.346-.346v-1.189Z" transform="translate(-53.462 -160.652)" fill="#e2e2e2" opacity="0.7"/>
      <path id="Trazado_806504" data-name="Trazado 806504" d="M112.09,243.273l.075.017a.715.715,0,0,1,.566.689.721.721,0,1,1-1.418-.179.7.7,0,0,1,.58-.522.17.17,0,0,0,.036-.008h.162Z" transform="translate(-80.23 -175.381)" fill="#4f6736"/>
      <path id="Trazado_806505" data-name="Trazado 806505" d="M108.691,254.627v-1.192c0-.059,0-.059-.059-.059-.095,0-.087-.008-.087.084v2.33a.384.384,0,0,1-.151.315.223.223,0,0,1-.165.059.36.36,0,0,0-.095,0c-.142.022-.293-.148-.3-.282,0-.061-.006-.123-.006-.184v-2.277c0-.033-.014-.047-.045-.045h-.793c-.061,0-.064,0-.047-.064l.695-2.419c.078-.276.159-.55.237-.826.014-.047.011-.05-.039-.05-.117,0-.095-.017-.126.092-.173.6-.346,1.2-.516,1.8a.288.288,0,0,1-.215.229.32.32,0,0,1-.324-.095.271.271,0,0,1-.056-.279l.184-.65c.134-.463.265-.926.4-1.387a.979.979,0,0,1,.48-.617.812.812,0,0,1,.393-.1h1.072a.9.9,0,0,1,.818.491,2.375,2.375,0,0,1,.176.488c.165.575.332,1.15.5,1.725a.547.547,0,0,1,.006.251.256.256,0,0,1-.187.173.3.3,0,0,1-.4-.218c-.173-.619-.352-1.239-.53-1.856a.05.05,0,0,0-.056-.045c-.109,0-.109,0-.078.1l.77,2.682c.05.173.1.346.148.516.017.056.017.059-.042.059h-.79c-.059,0-.059,0-.059.061v2.389a.335.335,0,0,1-.193.318.165.165,0,0,1-.081.02h-.089a.341.341,0,0,1-.346-.346v-1.189Z" transform="translate(-76.842 -179.52)" fill="#4f6736"/>
      <path id="Trazado_806506" data-name="Trazado 806506" d="M112.09,243.273l.075.017a.715.715,0,0,1,.566.689.721.721,0,1,1-1.418-.179.7.7,0,0,1,.58-.522.17.17,0,0,0,.036-.008h.162Z" transform="translate(-80.23 -175.381)" fill="#e2e2e2" opacity="0.7"/>
      <path id="Trazado_806507" data-name="Trazado 806507" d="M108.691,254.627v-1.192c0-.059,0-.059-.059-.059-.095,0-.087-.008-.087.084v2.33a.384.384,0,0,1-.151.315.223.223,0,0,1-.165.059.36.36,0,0,0-.095,0c-.142.022-.293-.148-.3-.282,0-.061-.006-.123-.006-.184v-2.277c0-.033-.014-.047-.045-.045h-.793c-.061,0-.064,0-.047-.064l.695-2.419c.078-.276.159-.55.237-.826.014-.047.011-.05-.039-.05-.117,0-.095-.017-.126.092-.173.6-.346,1.2-.516,1.8a.288.288,0,0,1-.215.229.32.32,0,0,1-.324-.095.271.271,0,0,1-.056-.279l.184-.65c.134-.463.265-.926.4-1.387a.979.979,0,0,1,.48-.617.812.812,0,0,1,.393-.1h1.072a.9.9,0,0,1,.818.491,2.375,2.375,0,0,1,.176.488c.165.575.332,1.15.5,1.725a.547.547,0,0,1,.006.251.256.256,0,0,1-.187.173.3.3,0,0,1-.4-.218c-.173-.619-.352-1.239-.53-1.856a.05.05,0,0,0-.056-.045c-.109,0-.109,0-.078.1l.77,2.682c.05.173.1.346.148.516.017.056.017.059-.042.059h-.79c-.059,0-.059,0-.059.061v2.389a.335.335,0,0,1-.193.318.165.165,0,0,1-.081.02h-.089a.341.341,0,0,1-.346-.346v-1.189Z" transform="translate(-76.842 -179.52)" fill="#e2e2e2" opacity="0.7"/>
      <path id="Trazado_806508" data-name="Trazado 806508" d="M133.11,215l.075.017a.715.715,0,0,1,.566.689.721.721,0,1,1-1.418-.179.7.7,0,0,1,.58-.522.171.171,0,0,0,.036-.008h.162Z" transform="translate(-95.384 -155)" fill="#4f6736"/>
      <path id="Trazado_806509" data-name="Trazado 806509" d="M129.721,226.357v-1.192c0-.059,0-.059-.059-.059-.095,0-.087-.008-.087.084v2.33a.384.384,0,0,1-.151.315.222.222,0,0,1-.165.059.359.359,0,0,0-.095,0c-.142.022-.293-.148-.3-.282,0-.061-.006-.123-.006-.184v-2.277c0-.033-.014-.047-.045-.045h-.793c-.061,0-.064,0-.047-.064l.695-2.419c.078-.276.159-.55.237-.826.014-.047.011-.05-.039-.05-.117,0-.095-.017-.126.092-.173.6-.346,1.2-.516,1.8a.288.288,0,0,1-.215.229.32.32,0,0,1-.324-.095.271.271,0,0,1-.056-.279l.184-.65c.134-.463.265-.926.4-1.387a.978.978,0,0,1,.48-.617.812.812,0,0,1,.393-.1h1.072a.9.9,0,0,1,.818.491,2.375,2.375,0,0,1,.176.488c.165.575.332,1.15.5,1.725a.546.546,0,0,1,.006.251.256.256,0,0,1-.187.173.3.3,0,0,1-.4-.218c-.173-.62-.352-1.239-.53-1.856a.05.05,0,0,0-.056-.045c-.109,0-.109,0-.078.1l.77,2.682c.05.173.1.346.148.516.017.056.017.059-.042.059h-.79c-.059,0-.059,0-.059.061v2.389a.335.335,0,0,1-.193.318.165.165,0,0,1-.081.02h-.089a.341.341,0,0,1-.346-.346v-1.189Z" transform="translate(-92.003 -159.139)" fill="#4f6736"/>
      <path id="Trazado_806510" data-name="Trazado 806510" d="M133.11,215l.075.017a.715.715,0,0,1,.566.689.721.721,0,1,1-1.418-.179.7.7,0,0,1,.58-.522.171.171,0,0,0,.036-.008h.162Z" transform="translate(-95.384 -155)" fill="#e2e2e2" opacity="0.7"/>
      <path id="Trazado_806511" data-name="Trazado 806511" d="M129.721,226.357v-1.192c0-.059,0-.059-.059-.059-.095,0-.087-.008-.087.084v2.33a.384.384,0,0,1-.151.315.222.222,0,0,1-.165.059.359.359,0,0,0-.095,0c-.142.022-.293-.148-.3-.282,0-.061-.006-.123-.006-.184v-2.277c0-.033-.014-.047-.045-.045h-.793c-.061,0-.064,0-.047-.064l.695-2.419c.078-.276.159-.55.237-.826.014-.047.011-.05-.039-.05-.117,0-.095-.017-.126.092-.173.6-.346,1.2-.516,1.8a.288.288,0,0,1-.215.229.32.32,0,0,1-.324-.095.271.271,0,0,1-.056-.279l.184-.65c.134-.463.265-.926.4-1.387a.978.978,0,0,1,.48-.617.812.812,0,0,1,.393-.1h1.072a.9.9,0,0,1,.818.491,2.375,2.375,0,0,1,.176.488c.165.575.332,1.15.5,1.725a.546.546,0,0,1,.006.251.256.256,0,0,1-.187.173.3.3,0,0,1-.4-.218c-.173-.62-.352-1.239-.53-1.856a.05.05,0,0,0-.056-.045c-.109,0-.109,0-.078.1l.77,2.682c.05.173.1.346.148.516.017.056.017.059-.042.059h-.79c-.059,0-.059,0-.059.061v2.389a.335.335,0,0,1-.193.318.165.165,0,0,1-.081.02h-.089a.341.341,0,0,1-.346-.346v-1.189Z" transform="translate(-92.003 -159.139)" fill="#e2e2e2" opacity="0.7"/>
      <path id="Trazado_806512" data-name="Trazado 806512" d="M177.02,212.143l.075.017a.715.715,0,0,1,.566.689.721.721,0,1,1-1.418-.179.7.7,0,0,1,.58-.522.17.17,0,0,0,.036-.008h.162Z" transform="translate(-127.041 -152.938)" fill="#4f6736"/>
      <path id="Trazado_806513" data-name="Trazado 806513" d="M173.631,223.5v-1.192c0-.059,0-.059-.059-.059-.095,0-.087-.008-.087.084v2.33a.384.384,0,0,1-.151.315.222.222,0,0,1-.165.059.36.36,0,0,0-.095,0c-.142.022-.293-.148-.3-.282,0-.061-.006-.123-.006-.184v-2.277c0-.033-.014-.047-.045-.045h-.793c-.061,0-.064,0-.047-.064l.695-2.419c.078-.276.159-.55.237-.826.014-.047.011-.05-.039-.05-.117,0-.095-.017-.126.092-.173.6-.346,1.2-.516,1.8a.288.288,0,0,1-.215.229.32.32,0,0,1-.324-.095.271.271,0,0,1-.056-.279c.061-.218.123-.433.184-.65.134-.463.265-.926.4-1.387a.978.978,0,0,1,.48-.617.812.812,0,0,1,.393-.1h1.072a.9.9,0,0,1,.818.491,2.376,2.376,0,0,1,.176.488c.165.575.332,1.15.5,1.725a.546.546,0,0,1,.006.251.256.256,0,0,1-.187.173.3.3,0,0,1-.4-.218c-.173-.62-.352-1.239-.53-1.856a.05.05,0,0,0-.056-.045c-.109,0-.109,0-.078.1l.77,2.682c.05.173.1.346.148.516.017.056.017.059-.042.059h-.79c-.059,0-.059,0-.059.061V224.7a.335.335,0,0,1-.193.318.165.165,0,0,1-.081.02h-.089a.341.341,0,0,1-.346-.346V223.5Z" transform="translate(-123.66 -157.077)" fill="#4f6736"/>
      <path id="Trazado_806514" data-name="Trazado 806514" d="M177.02,212.143l.075.017a.715.715,0,0,1,.566.689.721.721,0,1,1-1.418-.179.7.7,0,0,1,.58-.522.17.17,0,0,0,.036-.008h.162Z" transform="translate(-127.041 -152.938)" fill="#e2e2e2" opacity="0.7"/>
      <path id="Trazado_806515" data-name="Trazado 806515" d="M173.631,223.5v-1.192c0-.059,0-.059-.059-.059-.095,0-.087-.008-.087.084v2.33a.384.384,0,0,1-.151.315.222.222,0,0,1-.165.059.36.36,0,0,0-.095,0c-.142.022-.293-.148-.3-.282,0-.061-.006-.123-.006-.184v-2.277c0-.033-.014-.047-.045-.045h-.793c-.061,0-.064,0-.047-.064l.695-2.419c.078-.276.159-.55.237-.826.014-.047.011-.05-.039-.05-.117,0-.095-.017-.126.092-.173.6-.346,1.2-.516,1.8a.288.288,0,0,1-.215.229.32.32,0,0,1-.324-.095.271.271,0,0,1-.056-.279c.061-.218.123-.433.184-.65.134-.463.265-.926.4-1.387a.978.978,0,0,1,.48-.617.812.812,0,0,1,.393-.1h1.072a.9.9,0,0,1,.818.491,2.376,2.376,0,0,1,.176.488c.165.575.332,1.15.5,1.725a.546.546,0,0,1,.006.251.256.256,0,0,1-.187.173.3.3,0,0,1-.4-.218c-.173-.62-.352-1.239-.53-1.856a.05.05,0,0,0-.056-.045c-.109,0-.109,0-.078.1l.77,2.682c.05.173.1.346.148.516.017.056.017.059-.042.059h-.79c-.059,0-.059,0-.059.061V224.7a.335.335,0,0,1-.193.318.165.165,0,0,1-.081.02h-.089a.341.341,0,0,1-.346-.346V223.5Z" transform="translate(-123.66 -157.077)" fill="#e2e2e2" opacity="0.7"/>
      <path id="Trazado_806516" data-name="Trazado 806516" d="M46.18,242.449a1.222,1.222,0,0,1,.078-.279.882.882,0,0,1,.82-.547c.547-.011,1.094-.006,1.641,0a.915.915,0,0,1,.89.826,1.569,1.569,0,0,1,.006.162v2.132a.318.318,0,0,1-.153.293.311.311,0,0,1-.472-.268v-1.92c0-.1.008-.089-.089-.089h-.025c-.039-.006-.05.014-.047.05v5.509a.421.421,0,0,1-.24.4.165.165,0,0,1-.081.02,1.364,1.364,0,0,0-.151,0,.319.319,0,0,1-.285-.142.421.421,0,0,1-.089-.276v-3.173c0-.036-.011-.05-.047-.05-.123,0-.123,0-.123.12v3.1a.422.422,0,0,1-.24.4.059.059,0,0,1-.02.008.588.588,0,0,1-.4-.042.417.417,0,0,1-.187-.357v-5.5c0-.078,0-.078-.075-.078-.095,0-.087-.008-.087.084v1.914a.312.312,0,0,1-.608.106l-.017-.045v-2.366Z" transform="translate(-33.293 -174.19)" fill="#4f6736"/>
      <path id="Trazado_806517" data-name="Trazado 806517" d="M50.48,237.254a.717.717,0,1,1,0-1.434.719.719,0,0,1,0,1.437Z" transform="translate(-35.874 -170.01)" fill="#4f6736"/>
      <path id="Trazado_806518" data-name="Trazado 806518" d="M46.18,242.449a1.222,1.222,0,0,1,.078-.279.882.882,0,0,1,.82-.547c.547-.011,1.094-.006,1.641,0a.915.915,0,0,1,.89.826,1.569,1.569,0,0,1,.006.162v2.132a.318.318,0,0,1-.153.293.311.311,0,0,1-.472-.268v-1.92c0-.1.008-.089-.089-.089h-.025c-.039-.006-.05.014-.047.05v5.509a.421.421,0,0,1-.24.4.165.165,0,0,1-.081.02,1.364,1.364,0,0,0-.151,0,.319.319,0,0,1-.285-.142.421.421,0,0,1-.089-.276v-3.173c0-.036-.011-.05-.047-.05-.123,0-.123,0-.123.12v3.1a.422.422,0,0,1-.24.4.059.059,0,0,1-.02.008.588.588,0,0,1-.4-.042.417.417,0,0,1-.187-.357v-5.5c0-.078,0-.078-.075-.078-.095,0-.087-.008-.087.084v1.914a.312.312,0,0,1-.608.106l-.017-.045v-2.366Z" transform="translate(-33.293 -174.19)" fill="#e2e2e2" opacity="0.7"/>
      <path id="Trazado_806519" data-name="Trazado 806519" d="M50.48,237.254a.717.717,0,1,1,0-1.434.719.719,0,0,1,0,1.437Z" transform="translate(-35.874 -170.01)" fill="#e2e2e2" opacity="0.7"/>
      <path id="Trazado_806520" data-name="Trazado 806520" d="M148.44,238.569a1.221,1.221,0,0,1,.078-.279.882.882,0,0,1,.82-.547c.547-.011,1.094-.006,1.641,0a.916.916,0,0,1,.89.826,1.568,1.568,0,0,1,.006.162v2.132a.321.321,0,0,1-.153.293.311.311,0,0,1-.472-.268v-1.92c0-.1.008-.089-.089-.089h-.025c-.039-.006-.05.014-.047.05v5.509a.421.421,0,0,1-.24.4.165.165,0,0,1-.081.02,1.36,1.36,0,0,0-.151,0,.319.319,0,0,1-.285-.142.421.421,0,0,1-.089-.276v-3.176c0-.036-.011-.05-.047-.05-.123,0-.123,0-.123.12v3.1a.422.422,0,0,1-.24.4.059.059,0,0,1-.02.008.588.588,0,0,1-.4-.042.424.424,0,0,1-.187-.357v-5.5c0-.078,0-.078-.075-.078-.095,0-.087-.008-.087.084v1.914a.312.312,0,0,1-.608.106l-.017-.045v-2.366Z" transform="translate(-107.017 -171.392)" fill="#4f6736"/>
      <path id="Trazado_806521" data-name="Trazado 806521" d="M152.74,233.364a.717.717,0,1,1,0-1.434.719.719,0,0,1,0,1.437Z" transform="translate(-109.598 -167.206)" fill="#4f6736"/>
      <path id="Trazado_806522" data-name="Trazado 806522" d="M148.44,238.569a1.221,1.221,0,0,1,.078-.279.882.882,0,0,1,.82-.547c.547-.011,1.094-.006,1.641,0a.916.916,0,0,1,.89.826,1.568,1.568,0,0,1,.006.162v2.132a.321.321,0,0,1-.153.293.311.311,0,0,1-.472-.268v-1.92c0-.1.008-.089-.089-.089h-.025c-.039-.006-.05.014-.047.05v5.509a.421.421,0,0,1-.24.4.165.165,0,0,1-.081.02,1.36,1.36,0,0,0-.151,0,.319.319,0,0,1-.285-.142.421.421,0,0,1-.089-.276v-3.176c0-.036-.011-.05-.047-.05-.123,0-.123,0-.123.12v3.1a.422.422,0,0,1-.24.4.059.059,0,0,1-.02.008.588.588,0,0,1-.4-.042.424.424,0,0,1-.187-.357v-5.5c0-.078,0-.078-.075-.078-.095,0-.087-.008-.087.084v1.914a.312.312,0,0,1-.608.106l-.017-.045v-2.366Z" transform="translate(-107.017 -171.392)" fill="#e2e2e2" opacity="0.7"/>
      <path id="Trazado_806523" data-name="Trazado 806523" d="M152.74,233.364a.717.717,0,1,1,0-1.434.719.719,0,0,1,0,1.437Z" transform="translate(-109.598 -167.206)" fill="#e2e2e2" opacity="0.7"/>
      <path id="Trazado_806524" data-name="Trazado 806524" d="M192.63,331.963l.075.017a.715.715,0,0,1,.566.689.721.721,0,1,1-1.418-.179.7.7,0,0,1,.58-.522.171.171,0,0,0,.036-.008h.162Z" transform="translate(-138.295 -239.322)" fill="#4f6736"/>
      <path id="Trazado_806525" data-name="Trazado 806525" d="M189.231,343.317v-1.192c0-.059,0-.059-.059-.059-.095,0-.087-.008-.087.084v2.33a.384.384,0,0,1-.151.315.223.223,0,0,1-.165.059.358.358,0,0,0-.095,0c-.142.022-.293-.148-.3-.282,0-.061-.006-.123-.006-.184v-2.277c0-.033-.014-.047-.045-.045h-.793c-.061,0-.064,0-.047-.064l.695-2.419c.078-.276.159-.55.237-.826.014-.047.011-.05-.039-.05-.117,0-.095-.017-.126.092-.173.6-.346,1.2-.516,1.8a.288.288,0,0,1-.215.229.32.32,0,0,1-.324-.095.271.271,0,0,1-.056-.279l.184-.65c.134-.463.265-.926.4-1.387a.978.978,0,0,1,.48-.617.812.812,0,0,1,.393-.1h1.072a.9.9,0,0,1,.818.491,2.375,2.375,0,0,1,.176.488c.165.575.332,1.15.5,1.725a.547.547,0,0,1,.006.251.256.256,0,0,1-.187.173.3.3,0,0,1-.4-.218c-.173-.62-.352-1.239-.53-1.856a.05.05,0,0,0-.056-.045c-.109,0-.109,0-.078.1l.77,2.682c.05.173.1.346.148.516.017.056.017.059-.042.059H190c-.059,0-.059,0-.059.061v2.389a.335.335,0,0,1-.193.318.165.165,0,0,1-.081.02h-.089a.341.341,0,0,1-.346-.346v-1.189Z" transform="translate(-134.907 -243.46)" fill="#4f6736"/>
      <path id="Trazado_806526" data-name="Trazado 806526" d="M192.63,331.963l.075.017a.715.715,0,0,1,.566.689.721.721,0,1,1-1.418-.179.7.7,0,0,1,.58-.522.171.171,0,0,0,.036-.008h.162Z" transform="translate(-138.295 -239.322)" fill="#e2e2e2" opacity="0.7"/>
      <path id="Trazado_806527" data-name="Trazado 806527" d="M189.231,343.317v-1.192c0-.059,0-.059-.059-.059-.095,0-.087-.008-.087.084v2.33a.384.384,0,0,1-.151.315.223.223,0,0,1-.165.059.358.358,0,0,0-.095,0c-.142.022-.293-.148-.3-.282,0-.061-.006-.123-.006-.184v-2.277c0-.033-.014-.047-.045-.045h-.793c-.061,0-.064,0-.047-.064l.695-2.419c.078-.276.159-.55.237-.826.014-.047.011-.05-.039-.05-.117,0-.095-.017-.126.092-.173.6-.346,1.2-.516,1.8a.288.288,0,0,1-.215.229.32.32,0,0,1-.324-.095.271.271,0,0,1-.056-.279l.184-.65c.134-.463.265-.926.4-1.387a.978.978,0,0,1,.48-.617.812.812,0,0,1,.393-.1h1.072a.9.9,0,0,1,.818.491,2.375,2.375,0,0,1,.176.488c.165.575.332,1.15.5,1.725a.547.547,0,0,1,.006.251.256.256,0,0,1-.187.173.3.3,0,0,1-.4-.218c-.173-.62-.352-1.239-.53-1.856a.05.05,0,0,0-.056-.045c-.109,0-.109,0-.078.1l.77,2.682c.05.173.1.346.148.516.017.056.017.059-.042.059H190c-.059,0-.059,0-.059.061v2.389a.335.335,0,0,1-.193.318.165.165,0,0,1-.081.02h-.089a.341.341,0,0,1-.346-.346v-1.189Z" transform="translate(-134.907 -243.46)" fill="#e2e2e2" opacity="0.7"/>
      <path id="Trazado_806528" data-name="Trazado 806528" d="M220.64,303.693l.075.017a.715.715,0,0,1,.566.689.721.721,0,1,1-1.418-.179.7.7,0,0,1,.58-.522.169.169,0,0,0,.036-.008h.162Z" transform="translate(-158.489 -218.941)" fill="#4f6736"/>
      <path id="Trazado_806529" data-name="Trazado 806529" d="M217.251,315.047v-1.192c0-.059,0-.059-.059-.059-.095,0-.087-.008-.087.084v2.33a.384.384,0,0,1-.151.315.222.222,0,0,1-.165.059.358.358,0,0,0-.095,0c-.142.022-.293-.148-.3-.282,0-.061-.006-.123-.006-.184v-2.277c0-.034-.014-.047-.045-.045h-.793c-.061,0-.064,0-.047-.064l.695-2.419c.078-.276.159-.55.237-.826.014-.047.011-.05-.039-.05-.117,0-.095-.017-.126.092-.173.6-.346,1.2-.516,1.8a.288.288,0,0,1-.215.229.32.32,0,0,1-.324-.095.271.271,0,0,1-.056-.279l.184-.65c.134-.463.265-.927.4-1.387a.979.979,0,0,1,.48-.617.812.812,0,0,1,.393-.1h1.072a.9.9,0,0,1,.818.491,2.375,2.375,0,0,1,.176.488c.165.575.332,1.15.5,1.725a.547.547,0,0,1,.006.251.256.256,0,0,1-.187.173.3.3,0,0,1-.4-.218c-.173-.62-.352-1.239-.53-1.856a.05.05,0,0,0-.056-.045c-.109,0-.109,0-.078.1l.77,2.682c.05.173.1.346.148.516.017.056.017.059-.042.059h-.79c-.059,0-.059,0-.059.061v2.389a.335.335,0,0,1-.193.318.165.165,0,0,1-.081.02H217.6a.341.341,0,0,1-.346-.346v-1.189Z" transform="translate(-155.108 -223.079)" fill="#4f6736"/>
      <path id="Trazado_806530" data-name="Trazado 806530" d="M220.64,303.693l.075.017a.715.715,0,0,1,.566.689.721.721,0,1,1-1.418-.179.7.7,0,0,1,.58-.522.169.169,0,0,0,.036-.008h.162Z" transform="translate(-158.489 -218.941)" fill="#e2e2e2" opacity="0.7"/>
      <path id="Trazado_806531" data-name="Trazado 806531" d="M217.251,315.047v-1.192c0-.059,0-.059-.059-.059-.095,0-.087-.008-.087.084v2.33a.384.384,0,0,1-.151.315.222.222,0,0,1-.165.059.358.358,0,0,0-.095,0c-.142.022-.293-.148-.3-.282,0-.061-.006-.123-.006-.184v-2.277c0-.034-.014-.047-.045-.045h-.793c-.061,0-.064,0-.047-.064l.695-2.419c.078-.276.159-.55.237-.826.014-.047.011-.05-.039-.05-.117,0-.095-.017-.126.092-.173.6-.346,1.2-.516,1.8a.288.288,0,0,1-.215.229.32.32,0,0,1-.324-.095.271.271,0,0,1-.056-.279l.184-.65c.134-.463.265-.927.4-1.387a.979.979,0,0,1,.48-.617.812.812,0,0,1,.393-.1h1.072a.9.9,0,0,1,.818.491,2.375,2.375,0,0,1,.176.488c.165.575.332,1.15.5,1.725a.547.547,0,0,1,.006.251.256.256,0,0,1-.187.173.3.3,0,0,1-.4-.218c-.173-.62-.352-1.239-.53-1.856a.05.05,0,0,0-.056-.045c-.109,0-.109,0-.078.1l.77,2.682c.05.173.1.346.148.516.017.056.017.059-.042.059h-.79c-.059,0-.059,0-.059.061v2.389a.335.335,0,0,1-.193.318.165.165,0,0,1-.081.02H217.6a.341.341,0,0,1-.346-.346v-1.189Z" transform="translate(-155.108 -223.079)" fill="#e2e2e2" opacity="0.7"/>
      <path id="Trazado_806532" data-name="Trazado 806532" d="M276.79,298.453l.075.017a.715.715,0,0,1,.566.689.721.721,0,1,1-1.418-.179.7.7,0,0,1,.58-.522.172.172,0,0,0,.036-.008h.162Z" transform="translate(-198.97 -215.163)" fill="#4f6736"/>
      <path id="Trazado_806533" data-name="Trazado 806533" d="M273.4,309.807v-1.192c0-.059,0-.059-.059-.059-.095,0-.087-.008-.087.084v2.33a.384.384,0,0,1-.151.315.222.222,0,0,1-.165.059.363.363,0,0,0-.095,0c-.142.022-.293-.148-.3-.282,0-.061-.006-.123-.006-.184V308.6c0-.034-.014-.047-.045-.045H271.7c-.061,0-.064,0-.047-.064l.695-2.419c.078-.276.159-.55.237-.826.014-.047.011-.05-.039-.05-.117,0-.095-.017-.126.092-.173.6-.346,1.2-.516,1.8a.288.288,0,0,1-.215.229.32.32,0,0,1-.324-.095.271.271,0,0,1-.056-.279l.184-.65c.134-.463.265-.926.4-1.387a.978.978,0,0,1,.48-.617.812.812,0,0,1,.393-.1h1.072a.9.9,0,0,1,.818.491,2.379,2.379,0,0,1,.176.488c.165.575.332,1.15.5,1.725a.548.548,0,0,1,.006.251.256.256,0,0,1-.187.173.3.3,0,0,1-.4-.218c-.173-.62-.352-1.239-.53-1.856a.05.05,0,0,0-.056-.045c-.109,0-.109,0-.078.1l.77,2.682c.05.173.1.346.148.516.017.056.017.059-.042.059h-.79c-.059,0-.059,0-.059.061v2.389a.335.335,0,0,1-.193.318.165.165,0,0,1-.081.02h-.089a.341.341,0,0,1-.346-.346v-1.189Z" transform="translate(-195.589 -219.301)" fill="#4f6736"/>
      <g id="Grupo_1066947" data-name="Grupo 1066947" transform="translate(75.706 83.287)" opacity="0.8">
        <path id="Trazado_806534" data-name="Trazado 806534" d="M276.79,298.453l.075.017a.715.715,0,0,1,.566.689.721.721,0,1,1-1.418-.179.7.7,0,0,1,.58-.522.172.172,0,0,0,.036-.008h.162Z" transform="translate(-274.676 -298.45)" fill="#e2e2e2"/>
        <path id="Trazado_806535" data-name="Trazado 806535" d="M273.4,309.807v-1.192c0-.059,0-.059-.059-.059-.095,0-.087-.008-.087.084v2.33a.384.384,0,0,1-.151.315.222.222,0,0,1-.165.059.363.363,0,0,0-.095,0c-.142.022-.293-.148-.3-.282,0-.061-.006-.123-.006-.184V308.6c0-.034-.014-.047-.045-.045H271.7c-.061,0-.064,0-.047-.064l.695-2.419c.078-.276.159-.55.237-.826.014-.047.011-.05-.039-.05-.117,0-.095-.017-.126.092-.173.6-.346,1.2-.516,1.8a.288.288,0,0,1-.215.229.32.32,0,0,1-.324-.095.271.271,0,0,1-.056-.279l.184-.65c.134-.463.265-.926.4-1.387a.978.978,0,0,1,.48-.617.812.812,0,0,1,.393-.1h1.072a.9.9,0,0,1,.818.491,2.379,2.379,0,0,1,.176.488c.165.575.332,1.15.5,1.725a.548.548,0,0,1,.006.251.256.256,0,0,1-.187.173.3.3,0,0,1-.4-.218c-.173-.62-.352-1.239-.53-1.856a.05.05,0,0,0-.056-.045c-.109,0-.109,0-.078.1l.77,2.682c.05.173.1.346.148.516.017.056.017.059-.042.059h-.79c-.059,0-.059,0-.059.061v2.389a.335.335,0,0,1-.193.318.165.165,0,0,1-.081.02h-.089a.341.341,0,0,1-.346-.346v-1.189Z" transform="translate(-271.295 -302.588)" fill="#e2e2e2"/>
      </g>
      <path id="Trazado_806536" data-name="Trazado 806536" d="M331.69,305.563l.075.017a.715.715,0,0,1,.566.689.721.721,0,1,1-1.418-.179.7.7,0,0,1,.58-.522.171.171,0,0,0,.036-.008h.162Z" transform="translate(-238.549 -220.289)" fill="#4f6736"/>
      <path id="Trazado_806537" data-name="Trazado 806537" d="M328.3,316.917v-1.192c0-.059,0-.059-.059-.059-.095,0-.087-.008-.087.084v2.33a.384.384,0,0,1-.151.315.222.222,0,0,1-.165.059.358.358,0,0,0-.095,0c-.142.022-.293-.148-.3-.282,0-.061-.006-.123-.006-.184v-2.277c0-.033-.014-.047-.045-.045H326.6c-.061,0-.064,0-.047-.064l.695-2.419c.078-.276.159-.55.237-.826.014-.047.011-.05-.039-.05-.117,0-.095-.017-.126.092-.173.6-.346,1.2-.516,1.8a.288.288,0,0,1-.215.229.32.32,0,0,1-.324-.095.271.271,0,0,1-.056-.279c.061-.218.123-.433.184-.65.134-.463.265-.926.4-1.387a.978.978,0,0,1,.48-.617.812.812,0,0,1,.393-.1h1.072a.9.9,0,0,1,.818.491,2.373,2.373,0,0,1,.176.488c.165.575.332,1.15.5,1.725a.546.546,0,0,1,.006.251.256.256,0,0,1-.187.173.3.3,0,0,1-.4-.218c-.173-.62-.352-1.239-.53-1.856a.05.05,0,0,0-.056-.045c-.109,0-.109,0-.078.1l.77,2.682c.05.173.1.346.148.516.017.056.017.059-.042.059h-.79c-.059,0-.059,0-.059.061v2.389a.335.335,0,0,1-.193.318.165.165,0,0,1-.081.02h-.089a.341.341,0,0,1-.346-.346v-1.189Z" transform="translate(-235.169 -224.427)" fill="#4f6736"/>
      <g id="Grupo_1066948" data-name="Grupo 1066948" transform="translate(91.027 85.271)" opacity="0.8">
        <path id="Trazado_806538" data-name="Trazado 806538" d="M331.69,305.563l.075.017a.715.715,0,0,1,.566.689.721.721,0,1,1-1.418-.179.7.7,0,0,1,.58-.522.171.171,0,0,0,.036-.008h.162Z" transform="translate(-329.576 -305.56)" fill="#e2e2e2"/>
        <path id="Trazado_806539" data-name="Trazado 806539" d="M328.3,316.917v-1.192c0-.059,0-.059-.059-.059-.095,0-.087-.008-.087.084v2.33a.384.384,0,0,1-.151.315.222.222,0,0,1-.165.059.358.358,0,0,0-.095,0c-.142.022-.293-.148-.3-.282,0-.061-.006-.123-.006-.184v-2.277c0-.033-.014-.047-.045-.045H326.6c-.061,0-.064,0-.047-.064l.695-2.419c.078-.276.159-.55.237-.826.014-.047.011-.05-.039-.05-.117,0-.095-.017-.126.092-.173.6-.346,1.2-.516,1.8a.288.288,0,0,1-.215.229.32.32,0,0,1-.324-.095.271.271,0,0,1-.056-.279c.061-.218.123-.433.184-.65.134-.463.265-.926.4-1.387a.978.978,0,0,1,.48-.617.812.812,0,0,1,.393-.1h1.072a.9.9,0,0,1,.818.491,2.373,2.373,0,0,1,.176.488c.165.575.332,1.15.5,1.725a.546.546,0,0,1,.006.251.256.256,0,0,1-.187.173.3.3,0,0,1-.4-.218c-.173-.62-.352-1.239-.53-1.856a.05.05,0,0,0-.056-.045c-.109,0-.109,0-.078.1l.77,2.682c.05.173.1.346.148.516.017.056.017.059-.042.059h-.79c-.059,0-.059,0-.059.061v2.389a.335.335,0,0,1-.193.318.165.165,0,0,1-.081.02h-.089a.341.341,0,0,1-.346-.346v-1.189Z" transform="translate(-326.195 -309.698)" fill="#e2e2e2"/>
      </g>
      <path id="Trazado_806540" data-name="Trazado 806540" d="M246.99,330.149a1.221,1.221,0,0,1,.078-.279.882.882,0,0,1,.82-.547c.547-.011,1.094-.006,1.641,0a.916.916,0,0,1,.89.826,1.568,1.568,0,0,1,.006.162v2.132a.318.318,0,0,1-.153.293.311.311,0,0,1-.472-.268v-1.92c0-.1.008-.089-.089-.089h-.025c-.039-.006-.05.014-.047.05v5.509a.421.421,0,0,1-.24.4.165.165,0,0,1-.081.02,1.356,1.356,0,0,0-.151,0,.318.318,0,0,1-.285-.142.421.421,0,0,1-.089-.276v-3.173c0-.036-.011-.05-.047-.05-.123,0-.123,0-.123.12v3.1a.422.422,0,0,1-.24.4.059.059,0,0,1-.02.008.588.588,0,0,1-.4-.042.417.417,0,0,1-.187-.357v-5.5c0-.078,0-.078-.075-.078-.095,0-.087-.008-.087.084v1.914a.312.312,0,0,1-.608.106l-.017-.045v-2.366Z" transform="translate(-178.066 -237.416)" fill="#4f6736"/>
      <path id="Trazado_806541" data-name="Trazado 806541" d="M251.29,324.954a.717.717,0,1,1,0-1.434.719.719,0,0,1,0,1.437Z" transform="translate(-180.647 -233.237)" fill="#4f6736"/>
      <path id="Trazado_806542" data-name="Trazado 806542" d="M246.99,330.149a1.221,1.221,0,0,1,.078-.279.882.882,0,0,1,.82-.547c.547-.011,1.094-.006,1.641,0a.916.916,0,0,1,.89.826,1.568,1.568,0,0,1,.006.162v2.132a.318.318,0,0,1-.153.293.311.311,0,0,1-.472-.268v-1.92c0-.1.008-.089-.089-.089h-.025c-.039-.006-.05.014-.047.05v5.509a.421.421,0,0,1-.24.4.165.165,0,0,1-.081.02,1.356,1.356,0,0,0-.151,0,.318.318,0,0,1-.285-.142.421.421,0,0,1-.089-.276v-3.173c0-.036-.011-.05-.047-.05-.123,0-.123,0-.123.12v3.1a.422.422,0,0,1-.24.4.059.059,0,0,1-.02.008.588.588,0,0,1-.4-.042.417.417,0,0,1-.187-.357v-5.5c0-.078,0-.078-.075-.078-.095,0-.087-.008-.087.084v1.914a.312.312,0,0,1-.608.106l-.017-.045v-2.366Z" transform="translate(-178.066 -237.416)" fill="#e2e2e2" opacity="0.7"/>
      <path id="Trazado_806543" data-name="Trazado 806543" d="M251.29,324.954a.717.717,0,1,1,0-1.434.719.719,0,0,1,0,1.437Z" transform="translate(-180.647 -233.237)" fill="#e2e2e2" opacity="0.7"/>
      <path id="Trazado_806544" data-name="Trazado 806544" d="M349.88,304.839a1.22,1.22,0,0,1,.078-.279.882.882,0,0,1,.82-.547c.547-.011,1.094-.006,1.641,0a.916.916,0,0,1,.89.826,1.585,1.585,0,0,1,.006.162v2.132a.321.321,0,0,1-.153.293.311.311,0,0,1-.472-.268v-1.92c0-.1.008-.089-.089-.089h-.025c-.039-.006-.05.014-.047.05v5.509a.421.421,0,0,1-.24.4.165.165,0,0,1-.081.02,1.364,1.364,0,0,0-.151,0,.319.319,0,0,1-.285-.142.421.421,0,0,1-.089-.276v-3.173c0-.036-.011-.05-.047-.05-.123,0-.123,0-.123.12v3.1a.422.422,0,0,1-.24.4.06.06,0,0,1-.02.008.588.588,0,0,1-.4-.042.424.424,0,0,1-.187-.357v-5.5c0-.078,0-.078-.075-.078-.095,0-.087-.008-.087.084v1.914a.312.312,0,0,1-.608.106l-.017-.045v-2.366Z" transform="translate(-252.244 -219.169)" fill="#4f6736"/>
      <path id="Trazado_806545" data-name="Trazado 806545" d="M354.18,299.644a.717.717,0,1,1,0-1.434.719.719,0,0,1,0,1.437Z" transform="translate(-254.825 -214.99)" fill="#4f6736"/>
      <path id="Trazado_806546" data-name="Trazado 806546" d="M349.88,304.839a1.22,1.22,0,0,1,.078-.279.882.882,0,0,1,.82-.547c.547-.011,1.094-.006,1.641,0a.916.916,0,0,1,.89.826,1.585,1.585,0,0,1,.006.162v2.132a.321.321,0,0,1-.153.293.311.311,0,0,1-.472-.268v-1.92c0-.1.008-.089-.089-.089h-.025c-.039-.006-.05.014-.047.05v5.509a.421.421,0,0,1-.24.4.165.165,0,0,1-.081.02,1.364,1.364,0,0,0-.151,0,.319.319,0,0,1-.285-.142.421.421,0,0,1-.089-.276v-3.173c0-.036-.011-.05-.047-.05-.123,0-.123,0-.123.12v3.1a.422.422,0,0,1-.24.4.06.06,0,0,1-.02.008.588.588,0,0,1-.4-.042.424.424,0,0,1-.187-.357v-5.5c0-.078,0-.078-.075-.078-.095,0-.087-.008-.087.084v1.914a.312.312,0,0,1-.608.106l-.017-.045v-2.366Z" transform="translate(-252.244 -219.169)" fill="#e2e2e2" opacity="0.7"/>
      <path id="Trazado_806547" data-name="Trazado 806547" d="M354.18,299.644a.717.717,0,1,1,0-1.434.719.719,0,0,1,0,1.437Z" transform="translate(-254.825 -214.99)" fill="#e2e2e2" opacity="0.7"/>
      <path id="Trazado_806548" data-name="Trazado 806548" d="M297.97,329.059a1.22,1.22,0,0,1,.078-.279.882.882,0,0,1,.82-.547c.547-.011,1.094-.006,1.641,0a.916.916,0,0,1,.89.826,1.558,1.558,0,0,1,.006.162v2.132a.321.321,0,0,1-.154.293.311.311,0,0,1-.472-.268v-1.92c0-.1.008-.089-.089-.089h-.025c-.039-.006-.05.014-.047.05v5.509a.421.421,0,0,1-.24.4.165.165,0,0,1-.081.02,1.349,1.349,0,0,0-.151,0,.319.319,0,0,1-.285-.142.421.421,0,0,1-.089-.276v-3.173c0-.036-.011-.05-.047-.05-.123,0-.123,0-.123.12v3.1a.422.422,0,0,1-.24.4.059.059,0,0,1-.02.008.588.588,0,0,1-.4-.042.417.417,0,0,1-.187-.357v-5.5c0-.078,0-.078-.075-.078-.095,0-.087-.008-.087.084v1.914a.312.312,0,0,1-.608.106c-.006-.014-.011-.031-.017-.045v-2.366Z" transform="translate(-214.82 -236.631)" fill="#4f6736"/>
      <path id="Trazado_806549" data-name="Trazado 806549" d="M302.27,323.854a.717.717,0,1,1,0-1.434.719.719,0,0,1,0,1.437Z" transform="translate(-217.401 -232.444)" fill="#4f6736"/>
      <path id="Trazado_806550" data-name="Trazado 806550" d="M297.97,329.059a1.22,1.22,0,0,1,.078-.279.882.882,0,0,1,.82-.547c.547-.011,1.094-.006,1.641,0a.916.916,0,0,1,.89.826,1.558,1.558,0,0,1,.006.162v2.132a.321.321,0,0,1-.154.293.311.311,0,0,1-.472-.268v-1.92c0-.1.008-.089-.089-.089h-.025c-.039-.006-.05.014-.047.05v5.509a.421.421,0,0,1-.24.4.165.165,0,0,1-.081.02,1.349,1.349,0,0,0-.151,0,.319.319,0,0,1-.285-.142.421.421,0,0,1-.089-.276v-3.173c0-.036-.011-.05-.047-.05-.123,0-.123,0-.123.12v3.1a.422.422,0,0,1-.24.4.059.059,0,0,1-.02.008.588.588,0,0,1-.4-.042.417.417,0,0,1-.187-.357v-5.5c0-.078,0-.078-.075-.078-.095,0-.087-.008-.087.084v1.914a.312.312,0,0,1-.608.106c-.006-.014-.011-.031-.017-.045v-2.366Z" transform="translate(-214.82 -236.631)" fill="#e2e2e2" opacity="0.7"/>
      <path id="Trazado_806551" data-name="Trazado 806551" d="M302.27,323.854a.717.717,0,1,1,0-1.434.719.719,0,0,1,0,1.437Z" transform="translate(-217.401 -232.444)" fill="#e2e2e2" opacity="0.7"/>
      <path id="Trazado_806552" data-name="Trazado 806552" d="M72.69,260.629a1.221,1.221,0,0,1,.078-.279.882.882,0,0,1,.82-.547c.547-.011,1.094-.006,1.641,0a.915.915,0,0,1,.89.826,1.567,1.567,0,0,1,.006.162v2.132a.318.318,0,0,1-.153.293.311.311,0,0,1-.472-.268v-1.92c0-.1.008-.089-.089-.089h-.025c-.039-.006-.05.014-.047.05V266.5a.421.421,0,0,1-.24.4.165.165,0,0,1-.081.02,1.364,1.364,0,0,0-.151,0,.318.318,0,0,1-.285-.142.421.421,0,0,1-.089-.276v-3.173c0-.036-.011-.05-.047-.05-.123,0-.123,0-.123.12v3.1a.422.422,0,0,1-.24.4.059.059,0,0,1-.02.008.588.588,0,0,1-.4-.042.417.417,0,0,1-.187-.357v-5.5c0-.078,0-.078-.075-.078-.095,0-.087-.008-.087.084v1.914a.312.312,0,0,1-.608.106L72.693,263v-2.366Z" transform="translate(-52.405 -187.296)" fill="#4f6736"/>
      <path id="Trazado_806553" data-name="Trazado 806553" d="M76.99,255.434a.717.717,0,1,1,0-1.434.719.719,0,0,1,0,1.437Z" transform="translate(-54.986 -183.117)" fill="#4f6736"/>
      <path id="Trazado_806554" data-name="Trazado 806554" d="M72.69,260.629a1.221,1.221,0,0,1,.078-.279.882.882,0,0,1,.82-.547c.547-.011,1.094-.006,1.641,0a.915.915,0,0,1,.89.826,1.567,1.567,0,0,1,.006.162v2.132a.318.318,0,0,1-.153.293.311.311,0,0,1-.472-.268v-1.92c0-.1.008-.089-.089-.089h-.025c-.039-.006-.05.014-.047.05V266.5a.421.421,0,0,1-.24.4.165.165,0,0,1-.081.02,1.364,1.364,0,0,0-.151,0,.318.318,0,0,1-.285-.142.421.421,0,0,1-.089-.276v-3.173c0-.036-.011-.05-.047-.05-.123,0-.123,0-.123.12v3.1a.422.422,0,0,1-.24.4.059.059,0,0,1-.02.008.588.588,0,0,1-.4-.042.417.417,0,0,1-.187-.357v-5.5c0-.078,0-.078-.075-.078-.095,0-.087-.008-.087.084v1.914a.312.312,0,0,1-.608.106L72.693,263v-2.366Z" transform="translate(-52.405 -187.296)" fill="#e2e2e2" opacity="0.7"/>
      <path id="Trazado_806555" data-name="Trazado 806555" d="M76.99,255.434a.717.717,0,1,1,0-1.434.719.719,0,0,1,0,1.437Z" transform="translate(-54.986 -183.117)" fill="#e2e2e2" opacity="0.7"/>
      <path id="Trazado_806556" data-name="Trazado 806556" d="M326.22,173.049a1.221,1.221,0,0,1,.078-.279.882.882,0,0,1,.82-.547c.547-.011,1.094-.006,1.641,0a.915.915,0,0,1,.89.826,1.568,1.568,0,0,1,.006.162v2.132a.318.318,0,0,1-.153.293.311.311,0,0,1-.472-.268v-1.92c0-.1.008-.089-.089-.089h-.025c-.039-.006-.05.014-.047.05v5.509a.421.421,0,0,1-.24.4.165.165,0,0,1-.081.02,1.356,1.356,0,0,0-.151,0,.319.319,0,0,1-.285-.142.421.421,0,0,1-.089-.276v-3.173c0-.036-.011-.05-.047-.05-.123,0-.123,0-.123.12v3.1a.422.422,0,0,1-.24.4.059.059,0,0,1-.02.008.588.588,0,0,1-.4-.042.424.424,0,0,1-.187-.357v-5.5c0-.078,0-.078-.075-.078-.095,0-.086-.008-.086.084v1.914a.312.312,0,0,1-.608.106l-.017-.045v-2.366Z" transform="translate(-235.186 -124.156)" fill="#4f6736"/>
      <path id="Trazado_806557" data-name="Trazado 806557" d="M330.52,167.854a.717.717,0,1,1,0-1.434.719.719,0,0,1,0,1.437Z" transform="translate(-237.768 -119.977)" fill="#4f6736"/>
      <path id="Trazado_806558" data-name="Trazado 806558" d="M326.22,173.049a1.221,1.221,0,0,1,.078-.279.882.882,0,0,1,.82-.547c.547-.011,1.094-.006,1.641,0a.915.915,0,0,1,.89.826,1.568,1.568,0,0,1,.006.162v2.132a.318.318,0,0,1-.153.293.311.311,0,0,1-.472-.268v-1.92c0-.1.008-.089-.089-.089h-.025c-.039-.006-.05.014-.047.05v5.509a.421.421,0,0,1-.24.4.165.165,0,0,1-.081.02,1.356,1.356,0,0,0-.151,0,.319.319,0,0,1-.285-.142.421.421,0,0,1-.089-.276v-3.173c0-.036-.011-.05-.047-.05-.123,0-.123,0-.123.12v3.1a.422.422,0,0,1-.24.4.059.059,0,0,1-.02.008.588.588,0,0,1-.4-.042.424.424,0,0,1-.187-.357v-5.5c0-.078,0-.078-.075-.078-.095,0-.086-.008-.086.084v1.914a.312.312,0,0,1-.608.106l-.017-.045v-2.366Z" transform="translate(-235.186 -124.156)" fill="#e2e2e2" opacity="0.7"/>
      <path id="Trazado_806559" data-name="Trazado 806559" d="M330.52,167.854a.717.717,0,1,1,0-1.434.719.719,0,0,1,0,1.437Z" transform="translate(-237.768 -119.977)" fill="#e2e2e2" opacity="0.7"/>
      <path id="Trazado_806560" data-name="Trazado 806560" d="M218.82,175.5a1.222,1.222,0,0,1,.078-.279.882.882,0,0,1,.82-.547c.547-.011,1.094-.006,1.641,0a.916.916,0,0,1,.89.826,1.568,1.568,0,0,1,.006.162v2.132a.318.318,0,0,1-.153.293.311.311,0,0,1-.472-.268V175.9c0-.1.008-.089-.089-.089h-.025c-.039-.006-.05.014-.047.05v5.509a.421.421,0,0,1-.24.4.165.165,0,0,1-.081.02,1.356,1.356,0,0,0-.151,0,.318.318,0,0,1-.285-.142.421.421,0,0,1-.089-.276V178.2c0-.036-.011-.05-.047-.05-.123,0-.123,0-.123.12v3.1a.422.422,0,0,1-.24.4.059.059,0,0,1-.02.008.588.588,0,0,1-.4-.042.417.417,0,0,1-.187-.357v-5.5c0-.078,0-.078-.075-.078-.095,0-.086-.008-.086.084v1.914a.312.312,0,0,1-.608.106l-.017-.045V175.5Z" transform="translate(-157.757 -125.922)" fill="#4f6736"/>
      <path id="Trazado_806561" data-name="Trazado 806561" d="M223.12,170.3a.717.717,0,1,1,0-1.434.719.719,0,0,1,0,1.437Z" transform="translate(-160.338 -121.743)" fill="#4f6736"/>
      <path id="Trazado_806562" data-name="Trazado 806562" d="M218.82,175.5a1.222,1.222,0,0,1,.078-.279.882.882,0,0,1,.82-.547c.547-.011,1.094-.006,1.641,0a.916.916,0,0,1,.89.826,1.568,1.568,0,0,1,.006.162v2.132a.318.318,0,0,1-.153.293.311.311,0,0,1-.472-.268V175.9c0-.1.008-.089-.089-.089h-.025c-.039-.006-.05.014-.047.05v5.509a.421.421,0,0,1-.24.4.165.165,0,0,1-.081.02,1.356,1.356,0,0,0-.151,0,.318.318,0,0,1-.285-.142.421.421,0,0,1-.089-.276V178.2c0-.036-.011-.05-.047-.05-.123,0-.123,0-.123.12v3.1a.422.422,0,0,1-.24.4.059.059,0,0,1-.02.008.588.588,0,0,1-.4-.042.417.417,0,0,1-.187-.357v-5.5c0-.078,0-.078-.075-.078-.095,0-.086-.008-.086.084v1.914a.312.312,0,0,1-.608.106l-.017-.045V175.5Z" transform="translate(-157.757 -125.922)" fill="#e2e2e2" opacity="0.7"/>
      <path id="Trazado_806563" data-name="Trazado 806563" d="M223.12,170.3a.717.717,0,1,1,0-1.434.719.719,0,0,1,0,1.437Z" transform="translate(-160.338 -121.743)" fill="#e2e2e2" opacity="0.7"/>
      <path id="Trazado_806564" data-name="Trazado 806564" d="M161.39,286.613l.075.017a.715.715,0,0,1,.566.689.721.721,0,1,1-1.418-.179.7.7,0,0,1,.58-.522.169.169,0,0,0,.036-.008h.162Z" transform="translate(-115.773 -206.627)" fill="#4f6736"/>
      <path id="Trazado_806565" data-name="Trazado 806565" d="M158,297.967v-1.192c0-.059,0-.059-.059-.059-.095,0-.087-.008-.087.084v2.33a.384.384,0,0,1-.151.315.222.222,0,0,1-.165.059.358.358,0,0,0-.095,0c-.142.022-.293-.148-.3-.282,0-.061-.006-.123-.006-.184v-2.277c0-.033-.014-.047-.045-.045H156.3c-.061,0-.064,0-.047-.064l.695-2.419c.078-.276.159-.55.237-.826.014-.047.011-.05-.039-.05-.117,0-.095-.017-.126.092-.173.6-.346,1.2-.516,1.8a.288.288,0,0,1-.215.229.32.32,0,0,1-.324-.095.271.271,0,0,1-.056-.279l.184-.65c.134-.463.265-.926.4-1.387a.978.978,0,0,1,.48-.617.812.812,0,0,1,.393-.1h1.072a.9.9,0,0,1,.818.491,2.377,2.377,0,0,1,.176.488c.165.575.332,1.15.5,1.725a.546.546,0,0,1,.006.251.256.256,0,0,1-.187.173.3.3,0,0,1-.4-.218c-.173-.62-.352-1.239-.53-1.856a.05.05,0,0,0-.056-.045c-.109,0-.109,0-.078.1l.77,2.682c.05.173.1.346.148.516.017.056.017.059-.042.059h-.79c-.059,0-.059,0-.059.061v2.389a.335.335,0,0,1-.193.318.165.165,0,0,1-.081.02h-.089a.341.341,0,0,1-.346-.346v-1.189Z" transform="translate(-112.392 -210.765)" fill="#4f6736"/>
      <path id="Trazado_806566" data-name="Trazado 806566" d="M161.39,286.613l.075.017a.715.715,0,0,1,.566.689.721.721,0,1,1-1.418-.179.7.7,0,0,1,.58-.522.169.169,0,0,0,.036-.008h.162Z" transform="translate(-115.773 -206.627)" fill="#e2e2e2" opacity="0.7"/>
      <path id="Trazado_806567" data-name="Trazado 806567" d="M158,297.967v-1.192c0-.059,0-.059-.059-.059-.095,0-.087-.008-.087.084v2.33a.384.384,0,0,1-.151.315.222.222,0,0,1-.165.059.358.358,0,0,0-.095,0c-.142.022-.293-.148-.3-.282,0-.061-.006-.123-.006-.184v-2.277c0-.033-.014-.047-.045-.045H156.3c-.061,0-.064,0-.047-.064l.695-2.419c.078-.276.159-.55.237-.826.014-.047.011-.05-.039-.05-.117,0-.095-.017-.126.092-.173.6-.346,1.2-.516,1.8a.288.288,0,0,1-.215.229.32.32,0,0,1-.324-.095.271.271,0,0,1-.056-.279l.184-.65c.134-.463.265-.926.4-1.387a.978.978,0,0,1,.48-.617.812.812,0,0,1,.393-.1h1.072a.9.9,0,0,1,.818.491,2.377,2.377,0,0,1,.176.488c.165.575.332,1.15.5,1.725a.546.546,0,0,1,.006.251.256.256,0,0,1-.187.173.3.3,0,0,1-.4-.218c-.173-.62-.352-1.239-.53-1.856a.05.05,0,0,0-.056-.045c-.109,0-.109,0-.078.1l.77,2.682c.05.173.1.346.148.516.017.056.017.059-.042.059h-.79c-.059,0-.059,0-.059.061v2.389a.335.335,0,0,1-.193.318.165.165,0,0,1-.081.02h-.089a.341.341,0,0,1-.346-.346v-1.189Z" transform="translate(-112.392 -210.765)" fill="#e2e2e2" opacity="0.7"/>
      <path id="Trazado_806568" data-name="Trazado 806568" d="M100.7,303.623l.075.017a.715.715,0,0,1,.566.689.721.721,0,1,1-1.418-.179.7.7,0,0,1,.58-.522.169.169,0,0,0,.036-.008h.162Z" transform="translate(-72.019 -218.89)" fill="#4f6736"/>
      <path id="Trazado_806569" data-name="Trazado 806569" d="M97.311,314.977v-1.192c0-.059,0-.059-.059-.059-.095,0-.087-.008-.087.084v2.33a.384.384,0,0,1-.151.315.223.223,0,0,1-.165.059.36.36,0,0,0-.095,0c-.142.022-.293-.148-.3-.282,0-.061-.006-.123-.006-.184v-2.277c0-.034-.014-.047-.045-.045h-.793c-.061,0-.064,0-.047-.064l.695-2.419c.078-.276.159-.55.237-.826.014-.047.011-.05-.039-.05-.117,0-.095-.017-.126.092-.173.6-.346,1.2-.516,1.8a.288.288,0,0,1-.215.229.32.32,0,0,1-.324-.095.271.271,0,0,1-.056-.279l.184-.65c.134-.463.265-.926.4-1.387a.978.978,0,0,1,.48-.617.812.812,0,0,1,.393-.1h1.072a.9.9,0,0,1,.818.491,2.378,2.378,0,0,1,.176.488c.165.575.332,1.15.5,1.725a.547.547,0,0,1,.006.251.256.256,0,0,1-.187.173.3.3,0,0,1-.4-.218c-.173-.62-.352-1.239-.53-1.856a.05.05,0,0,0-.056-.045c-.109,0-.109,0-.078.1l.77,2.682c.05.173.1.346.148.516.017.056.017.059-.042.059h-.79c-.059,0-.059,0-.059.061v2.389a.335.335,0,0,1-.193.318.165.165,0,0,1-.081.02h-.089a.341.341,0,0,1-.346-.346v-1.189Z" transform="translate(-68.638 -223.029)" fill="#4f6736"/>
      <path id="Trazado_806570" data-name="Trazado 806570" d="M100.7,303.623l.075.017a.715.715,0,0,1,.566.689.721.721,0,1,1-1.418-.179.7.7,0,0,1,.58-.522.169.169,0,0,0,.036-.008h.162Z" transform="translate(-72.019 -218.89)" fill="#e2e2e2" opacity="0.7"/>
      <path id="Trazado_806571" data-name="Trazado 806571" d="M97.311,314.977v-1.192c0-.059,0-.059-.059-.059-.095,0-.087-.008-.087.084v2.33a.384.384,0,0,1-.151.315.223.223,0,0,1-.165.059.36.36,0,0,0-.095,0c-.142.022-.293-.148-.3-.282,0-.061-.006-.123-.006-.184v-2.277c0-.034-.014-.047-.045-.045h-.793c-.061,0-.064,0-.047-.064l.695-2.419c.078-.276.159-.55.237-.826.014-.047.011-.05-.039-.05-.117,0-.095-.017-.126.092-.173.6-.346,1.2-.516,1.8a.288.288,0,0,1-.215.229.32.32,0,0,1-.324-.095.271.271,0,0,1-.056-.279l.184-.65c.134-.463.265-.926.4-1.387a.978.978,0,0,1,.48-.617.812.812,0,0,1,.393-.1h1.072a.9.9,0,0,1,.818.491,2.378,2.378,0,0,1,.176.488c.165.575.332,1.15.5,1.725a.547.547,0,0,1,.006.251.256.256,0,0,1-.187.173.3.3,0,0,1-.4-.218c-.173-.62-.352-1.239-.53-1.856a.05.05,0,0,0-.056-.045c-.109,0-.109,0-.078.1l.77,2.682c.05.173.1.346.148.516.017.056.017.059-.042.059h-.79c-.059,0-.059,0-.059.061v2.389a.335.335,0,0,1-.193.318.165.165,0,0,1-.081.02h-.089a.341.341,0,0,1-.346-.346v-1.189Z" transform="translate(-68.638 -223.029)" fill="#e2e2e2" opacity="0.7"/>
      <path id="Trazado_806572" data-name="Trazado 806572" d="M130.59,311.989a1.222,1.222,0,0,1,.078-.279.882.882,0,0,1,.82-.547c.547-.011,1.094-.006,1.641,0a.916.916,0,0,1,.89.826,1.567,1.567,0,0,1,.006.162v2.132a.318.318,0,0,1-.153.293.311.311,0,0,1-.472-.268v-1.92c0-.1.008-.089-.089-.089h-.025c-.039-.006-.05.014-.047.05v5.509a.421.421,0,0,1-.24.4.166.166,0,0,1-.081.02,1.356,1.356,0,0,0-.151,0,.318.318,0,0,1-.285-.142.421.421,0,0,1-.089-.276v-3.173c0-.036-.011-.05-.047-.05-.123,0-.123,0-.123.12v3.1a.422.422,0,0,1-.24.4.059.059,0,0,1-.02.008.588.588,0,0,1-.4-.042.417.417,0,0,1-.187-.357v-5.5c0-.078,0-.078-.075-.078-.095,0-.087-.008-.087.084V314.3a.312.312,0,0,1-.608.106l-.017-.045v-2.366Z" transform="translate(-94.148 -224.324)" fill="#4f6736"/>
      <path id="Trazado_806573" data-name="Trazado 806573" d="M134.89,306.794a.717.717,0,1,1,0-1.434.719.719,0,0,1,0,1.437Z" transform="translate(-96.729 -220.145)" fill="#4f6736"/>
      <path id="Trazado_806574" data-name="Trazado 806574" d="M130.59,311.989a1.222,1.222,0,0,1,.078-.279.882.882,0,0,1,.82-.547c.547-.011,1.094-.006,1.641,0a.916.916,0,0,1,.89.826,1.567,1.567,0,0,1,.006.162v2.132a.318.318,0,0,1-.153.293.311.311,0,0,1-.472-.268v-1.92c0-.1.008-.089-.089-.089h-.025c-.039-.006-.05.014-.047.05v5.509a.421.421,0,0,1-.24.4.166.166,0,0,1-.081.02,1.356,1.356,0,0,0-.151,0,.318.318,0,0,1-.285-.142.421.421,0,0,1-.089-.276v-3.173c0-.036-.011-.05-.047-.05-.123,0-.123,0-.123.12v3.1a.422.422,0,0,1-.24.4.059.059,0,0,1-.02.008.588.588,0,0,1-.4-.042.417.417,0,0,1-.187-.357v-5.5c0-.078,0-.078-.075-.078-.095,0-.087-.008-.087.084V314.3a.312.312,0,0,1-.608.106l-.017-.045v-2.366Z" transform="translate(-94.148 -224.324)" fill="#e2e2e2" opacity="0.7"/>
      <path id="Trazado_806575" data-name="Trazado 806575" d="M134.89,306.794a.717.717,0,1,1,0-1.434.719.719,0,0,1,0,1.437Z" transform="translate(-96.729 -220.145)" fill="#e2e2e2" opacity="0.7"/>
      <path id="Trazado_806576" data-name="Trazado 806576" d="M262.06,151.939a1.222,1.222,0,0,1,.078-.279.882.882,0,0,1,.82-.547c.547-.011,1.094-.006,1.641,0a.916.916,0,0,1,.89.826,1.568,1.568,0,0,1,.006.162v2.132a.321.321,0,0,1-.154.293.311.311,0,0,1-.472-.268v-1.92c0-.1.008-.089-.089-.089h-.025c-.039-.006-.05.014-.047.05v5.509a.421.421,0,0,1-.24.4.165.165,0,0,1-.081.02,1.356,1.356,0,0,0-.151,0,.319.319,0,0,1-.285-.142.421.421,0,0,1-.089-.276v-3.173c0-.036-.011-.05-.047-.05-.123,0-.123,0-.123.12v3.1a.422.422,0,0,1-.24.4.059.059,0,0,1-.02.008.588.588,0,0,1-.4-.042.417.417,0,0,1-.187-.357v-5.5c0-.078,0-.078-.075-.078-.095,0-.086-.008-.086.084v1.914a.312.312,0,0,1-.608.106l-.017-.045v-2.366Z" transform="translate(-188.931 -108.937)" fill="#4f6736"/>
      <path id="Trazado_806577" data-name="Trazado 806577" d="M266.36,146.744a.717.717,0,1,1,0-1.434.719.719,0,0,1,0,1.437Z" transform="translate(-191.512 -104.758)" fill="#4f6736"/>
      <path id="Trazado_806578" data-name="Trazado 806578" d="M262.06,151.939a1.222,1.222,0,0,1,.078-.279.882.882,0,0,1,.82-.547c.547-.011,1.094-.006,1.641,0a.916.916,0,0,1,.89.826,1.568,1.568,0,0,1,.006.162v2.132a.321.321,0,0,1-.154.293.311.311,0,0,1-.472-.268v-1.92c0-.1.008-.089-.089-.089h-.025c-.039-.006-.05.014-.047.05v5.509a.421.421,0,0,1-.24.4.165.165,0,0,1-.081.02,1.356,1.356,0,0,0-.151,0,.319.319,0,0,1-.285-.142.421.421,0,0,1-.089-.276v-3.173c0-.036-.011-.05-.047-.05-.123,0-.123,0-.123.12v3.1a.422.422,0,0,1-.24.4.059.059,0,0,1-.02.008.588.588,0,0,1-.4-.042.417.417,0,0,1-.187-.357v-5.5c0-.078,0-.078-.075-.078-.095,0-.086-.008-.086.084v1.914a.312.312,0,0,1-.608.106l-.017-.045v-2.366Z" transform="translate(-188.931 -108.937)" fill="#e2e2e2" opacity="0.7"/>
      <path id="Trazado_806579" data-name="Trazado 806579" d="M266.36,146.744a.717.717,0,1,1,0-1.434.719.719,0,0,1,0,1.437Z" transform="translate(-191.512 -104.758)" fill="#e2e2e2" opacity="0.7"/>
    </g>
  </g>
</svg>
