<svg xmlns="http://www.w3.org/2000/svg" width="146.008" height="140.13" viewBox="0 0 146.008 140.13">
  <g id="analisis_1_" data-name="analisis (1)" transform="translate(0 -10.307)">
    <g id="Grupo_1067169" data-name="Grupo 1067169" transform="translate(36.756 123.368)">
      <path id="Trazado_807165" data-name="Trazado 807165" d="M275.728,433.841a2.138,2.138,0,0,1-1.905-1.164l-11.673-22.79a2.139,2.139,0,1,1,3.807-1.95l11.673,22.79a2.139,2.139,0,0,1-1.9,3.114Z" transform="translate(-223.978 -406.772)" fill="#4272ac"/>
      <path id="Trazado_807166" data-name="Trazado 807166" d="M131.026,433.84a2.139,2.139,0,0,1-1.9-3.114l11.673-22.79a2.139,2.139,0,1,1,3.807,1.95l-11.673,22.79A2.138,2.138,0,0,1,131.026,433.84Z" transform="translate(-128.888 -406.771)" fill="#4272ac"/>
    </g>
    <path id="Trazado_807167" data-name="Trazado 807167" d="M80.428,387.561v-6.846h81.526v6.846a2.724,2.724,0,0,1-2.724,2.724H83.152A2.724,2.724,0,0,1,80.428,387.561Z" transform="translate(-57.492 -264.777)" fill="#f2df33"/>
    <path id="Trazado_807168" data-name="Trazado 807168" d="M335.231,380.715v6.846a2.724,2.724,0,0,1-2.724,2.724h6.915a2.724,2.724,0,0,0,2.724-2.724v-6.846Z" transform="translate(-237.685 -264.777)" fill="#fcab29"/>
    <path id="Trazado_807169" data-name="Trazado 807169" d="M189.243,19.877V13.534a3.227,3.227,0,0,1,3.227-3.227h13.009a3.227,3.227,0,0,1,3.227,3.227v6.343H189.243Z" transform="translate(-135.276)" fill="#f2df33"/>
    <path id="Trazado_807170" data-name="Trazado 807170" d="M228.72,10.308h-6.965a3.227,3.227,0,0,1,3.227,3.227v6.343h6.965V13.535A3.227,3.227,0,0,0,228.72,10.308Z" transform="translate(-158.517 -0.001)" fill="#fcab29"/>
    <path id="Trazado_807171" data-name="Trazado 807171" d="M121.348,36.366H6.05A6.057,6.057,0,0,0,0,42.416v88.238a6.057,6.057,0,0,0,6.05,6.05h115.3a6.057,6.057,0,0,0,6.05-6.05V42.416A6.056,6.056,0,0,0,121.348,36.366Z" transform="translate(0 -18.628)" fill="#ebeef2"/>
    <path id="Trazado_807172" data-name="Trazado 807172" d="M407.577,36.366h-7.159a6.057,6.057,0,0,1,6.05,6.05v88.238a6.057,6.057,0,0,1-6.05,6.05h7.159a6.057,6.057,0,0,0,6.05-6.05V42.416A6.056,6.056,0,0,0,407.577,36.366Z" transform="translate(-286.229 -18.628)" fill="#d1d6de"/>
    <g id="Grupo_1067170" data-name="Grupo 1067170" transform="translate(36.453 39.031)">
      <path id="Trazado_807173" data-name="Trazado 807173" d="M129.968,173.033a2.139,2.139,0,0,1-1.057-4l10.953-6.215a2.139,2.139,0,0,1,2.111,3.721l-10.953,6.215A2.128,2.128,0,0,1,129.968,173.033Z" transform="translate(-127.827 -147.85)" fill="#1b3d66"/>
      <path id="Trazado_807174" data-name="Trazado 807174" d="M209.754,173.032a2.127,2.127,0,0,1-1.053-.279l-10.953-6.215a2.139,2.139,0,0,1,2.111-3.721l10.953,6.215a2.139,2.139,0,0,1-1.057,4Z" transform="translate(-177.033 -147.85)" fill="#1b3d66"/>
      <path id="Trazado_807175" data-name="Trazado 807175" d="M262.608,134.622a2.139,2.139,0,0,1-1.737-3.384l13.821-19.314a2.139,2.139,0,1,1,3.479,2.489L264.35,133.728A2.137,2.137,0,0,1,262.608,134.622Z" transform="translate(-222.645 -111.03)" fill="#1b3d66"/>
    </g>
    <g id="Grupo_1067171" data-name="Grupo 1067171" transform="translate(29.915 65.29)">
      <path id="Trazado_807176" data-name="Trazado 807176" d="M104.9,272.181V289.37a.855.855,0,0,0,.856.855h6.966a.855.855,0,0,0,.856-.855V272.181a.855.855,0,0,0-.856-.855h-6.966A.855.855,0,0,0,104.9,272.181Z" transform="translate(-104.902 -251.873)" fill="#48cfb7"/>
      <path id="Trazado_807177" data-name="Trazado 807177" d="M173.738,233.854v28.118a.855.855,0,0,0,.856.855h6.966a.855.855,0,0,0,.856-.855V233.854a.855.855,0,0,0-.856-.856h-6.966A.856.856,0,0,0,173.738,233.854Z" transform="translate(-154.108 -224.475)" fill="#48cfb7"/>
      <path id="Trazado_807178" data-name="Trazado 807178" d="M242.573,272.181V289.37a.855.855,0,0,0,.856.855h6.966a.855.855,0,0,0,.856-.855V272.181a.855.855,0,0,0-.856-.855h-6.966A.855.855,0,0,0,242.573,272.181Z" transform="translate(-203.313 -251.873)" fill="#48cfb7"/>
      <path id="Trazado_807179" data-name="Trazado 807179" d="M311.409,203.967v36.641a.855.855,0,0,0,.856.855h6.966a.855.855,0,0,0,.856-.855V203.967a.855.855,0,0,0-.856-.856h-6.966A.855.855,0,0,0,311.409,203.967Z" transform="translate(-252.519 -203.111)" fill="#48cfb7"/>
    </g>
    <path id="Trazado_807180" data-name="Trazado 807180" d="M411.253,293.988l16.877,29.232a6.351,6.351,0,0,0,8.676,2.325h0a6.351,6.351,0,0,0,2.325-8.676l-16.877-29.232Z" transform="translate(-293.975 -198.243)" fill="#ed5575"/>
    <path id="Trazado_807181" data-name="Trazado 807181" d="M422.254,287.637l-11,6.351,6.579,11.4a34.59,34.59,0,0,0,11-6.351Z" transform="translate(-293.975 -198.243)" fill="#cc3a60"/>
    <circle id="Elipse_5712" data-name="Elipse 5712" cx="27.365" cy="27.365" r="27.365" transform="translate(85.101 47.343)" fill="#f2df33"/>
    <circle id="Elipse_5713" data-name="Elipse 5713" cx="19.258" cy="19.258" r="19.258" transform="translate(93.209 55.451)" fill="#5c9cee"/>
    <path id="Trazado_807182" data-name="Trazado 807182" d="M171.08,136.4a7.129,7.129,0,1,0,7.129,7.129A7.137,7.137,0,0,0,171.08,136.4Z" transform="translate(-117.197 -90.132)" fill="#f2df33"/>
    <path id="Trazado_807183" data-name="Trazado 807183" d="M102.244,175.479a7.13,7.13,0,1,0,7.129,7.13A7.138,7.138,0,0,0,102.244,175.479Z" transform="translate(-67.991 -118.069)" fill="#5c9cee"/>
    <path id="Trazado_807184" data-name="Trazado 807184" d="M239.916,175.479a7.13,7.13,0,1,0,7.13,7.13A7.138,7.138,0,0,0,239.916,175.479Z" transform="translate(-166.402 -118.069)" fill="#ed5575"/>
    <path id="Trazado_807185" data-name="Trazado 807185" d="M308.752,79.311a7.129,7.129,0,1,0,7.129,7.13A7.138,7.138,0,0,0,308.752,79.311Z" transform="translate(-215.608 -49.326)" fill="#9fd479"/>
  </g>
</svg>
