<svg xmlns="http://www.w3.org/2000/svg" width="197.28" height="108.504" viewBox="0 0 197.28 108.504">
  <g id="camion-de-reparto" transform="translate(0 -14)">
    <path id="Trazado_807186" data-name="Trazado 807186" d="M27.864,24.576H21.288a3.288,3.288,0,0,1,0-6.576h6.576a3.288,3.288,0,1,1,0,6.576Z" transform="translate(41.184 9.152)" fill="#b9bfcc"/>
    <path id="Trazado_807187" data-name="Trazado 807187" d="M16.285,72.168a3.288,3.288,0,0,1-2.591-5.307L36.71,37.269A3.288,3.288,0,1,1,41.9,41.307L18.883,70.9a3.288,3.288,0,0,1-2.6,1.269Z" transform="translate(29.747 50.336)" fill="#8991a0"/>
    <path id="Trazado_807188" data-name="Trazado 807188" d="M3.43,37.167l15.125-2.137a3.321,3.321,0,0,1,3.715,2.828l2.63,19.07L5.3,61.3Z" transform="translate(7.848 48.052)" fill="#d69247"/>
    <path id="Trazado_807189" data-name="Trazado 807189" d="M92.32,46.592v32.88L43,86.048,46.288,17h16.44Z" transform="translate(98.384 6.864)" fill="#ccd0da"/>
    <path id="Trazado_807190" data-name="Trazado 807190" d="M21,89.624V20.576A6.576,6.576,0,0,1,27.576,14H90.048a6.576,6.576,0,0,1,6.576,6.576V89.624Z" transform="translate(48.048 0)" fill="#659ccb"/>
    <path id="Trazado_807191" data-name="Trazado 807191" d="M135.08,52.44h9.864a3.288,3.288,0,0,0,3.288-3.288V39.288A3.288,3.288,0,0,0,144.944,36H23.288A3.288,3.288,0,0,0,20,39.288v9.864a3.288,3.288,0,0,0,3.288,3.288Z" transform="translate(45.76 50.336)" fill="#b9bfcc"/>
    <circle id="Elipse_5714" data-name="Elipse 5714" cx="16.491" cy="16.491" r="16.491" transform="translate(78.843 86.523)" fill="#454a54"/>
    <circle id="Elipse_5715" data-name="Elipse 5715" cx="16.491" cy="16.491" r="16.491" transform="translate(147.807 86.523)" fill="#454a54"/>
    <path id="Trazado_807192" data-name="Trazado 807192" d="M78.592,33.44V46.592H55.576A6.6,6.6,0,0,1,49,40.016V17H62.152a16.726,16.726,0,0,1,9.075,2.7A17.522,17.522,0,0,1,75.9,24.365a16.726,16.726,0,0,1,2.7,9.075Z" transform="translate(112.112 6.864)" fill="#2783ec"/>
    <circle id="Elipse_5716" data-name="Elipse 5716" cx="8.246" cy="8.246" r="8.246" transform="translate(6.882 103.015)" fill="#454a54"/>
    <g id="Grupo_1067172" data-name="Grupo 1067172" transform="translate(82.2 27.152)">
      <path id="Trazado_807193" data-name="Trazado 807193" d="M67.744,36.576H28.288a3.288,3.288,0,1,1,0-6.576H67.744a3.288,3.288,0,0,1,0,6.576Z" transform="translate(-25 9.456)" fill="#1b3f5e"/>
      <path id="Trazado_807194" data-name="Trazado 807194" d="M67.744,32.576H28.288a3.288,3.288,0,0,1,0-6.576H67.744a3.288,3.288,0,0,1,0,6.576Z" transform="translate(-25 0.304)" fill="#1b3f5e"/>
      <path id="Trazado_807195" data-name="Trazado 807195" d="M67.744,28.576H28.288a3.288,3.288,0,1,1,0-6.576H67.744a3.288,3.288,0,0,1,0,6.576Z" transform="translate(-25 -8.848)" fill="#1b3f5e"/>
      <path id="Trazado_807196" data-name="Trazado 807196" d="M67.744,24.576H28.288a3.288,3.288,0,1,1,0-6.576H67.744a3.288,3.288,0,0,1,0,6.576Z" transform="translate(-25 -18)" fill="#1b3f5e"/>
    </g>
    <path id="Trazado_807197" data-name="Trazado 807197" d="M59.864,35.576H53.288a3.288,3.288,0,1,1,0-6.576h6.576a3.288,3.288,0,0,1,0,6.576Z" transform="translate(114.4 34.32)" fill="#8991a0"/>
    <path id="Trazado_807198" data-name="Trazado 807198" d="M69.038,22.489,57.628,33.9a3.3,3.3,0,1,1-4.669-4.669L64.369,17.82A17.522,17.522,0,0,1,69.038,22.489Z" transform="translate(118.971 8.74)" fill="#439af6"/>
    <path id="Trazado_807199" data-name="Trazado 807199" d="M193.992,51.576H3.288a3.288,3.288,0,0,1,0-6.576h190.7a3.288,3.288,0,1,1,0,6.576Z" transform="translate(0 70.928)" fill="#943386"/>
    <path id="Trazado_807200" data-name="Trazado 807200" d="M26.21,46.739l-17.2,4.077a8.325,8.325,0,0,0-2.893-6.05L24.7,40.36a3.288,3.288,0,1,1,1.512,6.379Z" transform="translate(14.003 59.95)" fill="#984b8c"/>
    <path id="Trazado_807201" data-name="Trazado 807201" d="M13.382,35.05l2.532,33.472c-.362-.033-.723-.066-1.118-.066a8.115,8.115,0,0,0-5.359,2.006L6.806,35.576H3.288a3.288,3.288,0,0,1,0-6.576H6.806a6.52,6.52,0,0,1,6.576,6.05Z" transform="translate(0 34.32)" fill="#984b8c"/>
  </g>
</svg>
