<svg xmlns="http://www.w3.org/2000/svg" width="125" height="124.999" viewBox="0 0 125 124.999">
  <g id="centro-de-distribucion" transform="translate(-8 -8.001)">
    <g id="Grupo_1067173" data-name="Grupo 1067173" transform="translate(103.913 8.001)">
      <path id="Trazado_807202" data-name="Trazado 807202" d="M417.668,9.077l-1.721,21.089a.995.995,0,0,1-1.695.622l-4.51-4.51L399.513,36.506a1.993,1.993,0,0,1-2.813,0l-7.533-7.533a1.993,1.993,0,0,1,0-2.814l10.228-10.228-4.51-4.51a.995.995,0,0,1,.622-1.695L416.6,8.005a.994.994,0,0,1,1.072,1.072Z" transform="translate(-388.585 -8.001)" fill="#3b7fb8" fill-rule="evenodd"/>
      <path id="Trazado_807203" data-name="Trazado 807203" d="M417.668,9.077l-.028.345L396.9,11.115a.995.995,0,0,0-.622,1.695l-1.389-1.389a.995.995,0,0,1,.622-1.695L416.6,8a1,1,0,0,1,1.073,1.072ZM390.556,30.361l-1.389-1.389a1.993,1.993,0,0,1,0-2.813l10.228-10.228,1.389,1.389L390.556,27.548A1.993,1.993,0,0,0,390.556,30.361Z" transform="translate(-388.585 -8.001)" fill="#3b7fb8" fill-rule="evenodd"/>
    </g>
    <g id="Grupo_1067174" data-name="Grupo 1067174" transform="translate(103.913 103.914)">
      <path id="Trazado_807204" data-name="Trazado 807204" d="M417.668,416.6l-1.721-21.089a.995.995,0,0,0-1.695-.622l-4.51,4.51-10.228-10.228a1.993,1.993,0,0,0-2.813,0l-7.533,7.533a1.994,1.994,0,0,0,0,2.814l10.228,10.228-4.51,4.51a.995.995,0,0,0,.622,1.695l21.089,1.721a.994.994,0,0,0,1.072-1.072Z" transform="translate(-388.585 -388.586)" fill="#3b7fb8" fill-rule="evenodd"/>
      <path id="Trazado_807205" data-name="Trazado 807205" d="M417.668,436.558l-.028-.345L396.9,434.519a.995.995,0,0,1-.622-1.695l-1.389,1.389a.995.995,0,0,0,.622,1.695L416.6,437.63a1,1,0,0,0,1.073-1.072Zm-27.113-21.284-1.389,1.389a1.993,1.993,0,0,0,0,2.813L399.395,429.7l1.389-1.389-10.228-10.228A1.993,1.993,0,0,1,390.556,415.273Z" transform="translate(-388.585 -408.547)" fill="#3b7fb8" fill-rule="evenodd"/>
    </g>
    <g id="Grupo_1067175" data-name="Grupo 1067175" transform="translate(8 8.001)">
      <path id="Trazado_807206" data-name="Trazado 807206" d="M8,9.077,9.726,30.165a.995.995,0,0,0,1.695.622l4.51-4.51L26.159,36.506a1.994,1.994,0,0,0,2.814,0l7.533-7.533a1.994,1.994,0,0,0,0-2.814L26.277,15.931l4.51-4.51a.995.995,0,0,0-.622-1.695L9.076,8A.995.995,0,0,0,8,9.077Z" transform="translate(-8 -8.001)" fill="#3b7fb8" fill-rule="evenodd"/>
      <path id="Trazado_807207" data-name="Trazado 807207" d="M8,9.077l.028.345,20.744,1.693A.995.995,0,0,1,29.4,12.81l1.389-1.389a.995.995,0,0,0-.622-1.695L9.076,8A1,1,0,0,0,8,9.077ZM35.116,30.361,36.5,28.972a1.993,1.993,0,0,0,0-2.813L26.277,15.931,24.887,17.32,35.116,27.548A1.993,1.993,0,0,1,35.116,30.361Z" transform="translate(-8 -8.001)" fill="#3b7fb8" fill-rule="evenodd"/>
    </g>
    <g id="Grupo_1067176" data-name="Grupo 1067176" transform="translate(8 103.914)">
      <path id="Trazado_807208" data-name="Trazado 807208" d="M8,416.6l1.722-21.089a.995.995,0,0,1,1.695-.622l4.51,4.51,10.228-10.228a1.994,1.994,0,0,1,2.814,0l7.533,7.533a1.994,1.994,0,0,1,0,2.814L26.277,409.741l4.51,4.51a.995.995,0,0,1-.622,1.695L9.076,417.668A.994.994,0,0,1,8,416.6Z" transform="translate(-8 -388.586)" fill="#3b7fb8" fill-rule="evenodd"/>
      <path id="Trazado_807209" data-name="Trazado 807209" d="M8,436.558l.028-.345,20.744-1.693a.995.995,0,0,0,.622-1.695l1.389,1.389a.995.995,0,0,1-.622,1.695L9.076,437.63A.995.995,0,0,1,8,436.558Zm27.113-21.284,1.389,1.389a1.993,1.993,0,0,1,0,2.813L26.276,429.7l-1.389-1.389,10.228-10.228A1.992,1.992,0,0,0,35.116,415.273Z" transform="translate(-8 -408.547)" fill="#3b7fb8" fill-rule="evenodd"/>
    </g>
    <g id="Grupo_1067178" data-name="Grupo 1067178" transform="translate(32.697 27.381)">
      <path id="Trazado_807210" data-name="Trazado 807210" d="M142.042,85.389,107.76,105.181A3.437,3.437,0,0,0,106,108.23v39.586a3.437,3.437,0,0,0,1.76,3.048l34.282,19.793a3.438,3.438,0,0,0,3.52,0l34.282-19.793a3.437,3.437,0,0,0,1.76-3.048V108.23a3.437,3.437,0,0,0-1.76-3.048L145.562,85.389A3.438,3.438,0,0,0,142.042,85.389Z" transform="translate(-106 -84.904)" fill="#f2d1a5" fill-rule="evenodd"/>
      <path id="Trazado_807211" data-name="Trazado 807211" d="M106.461,170.452a3.5,3.5,0,0,0-.46,1.76v39.6a3.438,3.438,0,0,0,1.76,3.042l34.282,19.793a3.506,3.506,0,0,0,1.76.485V192.011Z" transform="translate(-106.001 -148.893)" fill="#e3a76f" fill-rule="evenodd"/>
      <path id="Trazado_807212" data-name="Trazado 807212" d="M143.408,85.389l-34.282,19.793a3.507,3.507,0,0,0-1.3,1.282l37.342,21.56,37.342-21.56a3.506,3.506,0,0,0-1.3-1.282L146.928,85.389a3.438,3.438,0,0,0-3.52,0Z" transform="translate(-107.366 -84.904)" fill="#c48958" fill-rule="evenodd"/>
      <path id="Trazado_807213" data-name="Trazado 807213" d="M208.015,135.364l-10.963,6.329-37.8-21.825,10.963-6.329Z" transform="translate(-145.83 -106.323)" fill="#d1d1d6" fill-rule="evenodd"/>
      <g id="Grupo_1067177" data-name="Grupo 1067177" transform="translate(5.143 29.042)">
        <path id="Trazado_807214" data-name="Trazado 807214" d="M310.57,222.9l8.763-5.059a1.719,1.719,0,0,0,.88-1.524V200.141L309.25,206.47v15.665a.88.88,0,0,0,1.32.762Z" transform="translate(-263.171 -200.141)" fill="#eceff1" fill-rule="evenodd"/>
        <path id="Trazado_807215" data-name="Trazado 807215" d="M127.109,219.629a1.4,1.4,0,1,1,1.408-2.431l16.8,9.7a1.4,1.4,0,0,1-1.408,2.431Zm0,7.734,8.4,4.849a1.4,1.4,0,1,0,1.408-2.431l-8.4-4.849a1.4,1.4,0,1,0-1.408,2.431Z" transform="translate(-126.408 -212.758)" fill="#eceff1" fill-rule="evenodd"/>
      </g>
    </g>
  </g>
</svg>
