<svg xmlns="http://www.w3.org/2000/svg" width="166.005" height="166.213" viewBox="0 0 166.005 166.213">
  <g id="Grupo_1071190" data-name="Grupo 1071190" transform="translate(0 0)">
    <path id="Trazado_805339" data-name="Trazado 805339" d="M410.473,15.368l-3.024-11.6a5.033,5.033,0,0,0-8.429-2.289L386.056,14.442a5.033,5.033,0,0,0-1.292,4.9l4.707,17.03Z" transform="translate(-259.837)" fill="#8d8d8d"/>
    <path id="Trazado_805340" data-name="Trazado 805340" d="M420.644,47.341l11.6,3.024a5.033,5.033,0,0,1,2.289,8.429L421.571,71.759a5.034,5.034,0,0,1-4.9,1.292l-17.03-4.707Z" transform="translate(-270.008 -31.973)" fill="#8d8d8d"/>
    <path id="Trazado_805341" data-name="Trazado 805341" d="M456.159,62.673,443.194,75.638a5.032,5.032,0,0,1-4.9,1.294L431.659,75.1a5.241,5.241,0,0,0,3.874-1.531l13.5-13.5a5.243,5.243,0,0,0,.388-6.986l4.449,1.16a5.031,5.031,0,0,1,2.29,8.426Z" transform="translate(-291.632 -35.854)" fill="#444"/>
    <circle id="Elipse_5689" data-name="Elipse 5689" cx="71.881" cy="71.881" r="71.881" transform="translate(0 22.45)" fill="#ee6161"/>
    <path id="Trazado_805342" data-name="Trazado 805342" d="M199.3,166.509A71.881,71.881,0,0,1,82.08,222.287a71.885,71.885,0,0,0,85.486-115.413A71.812,71.812,0,0,1,199.3,166.509Z" transform="translate(-55.538 -72.179)" fill="#e94444"/>
    <circle id="Elipse_5690" data-name="Elipse 5690" cx="52.73" cy="52.73" r="52.73" transform="translate(19.152 41.602)" fill="#f9f7f8"/>
    <path id="Trazado_805343" data-name="Trazado 805343" d="M206.963,196.464a52.731,52.731,0,0,1-85.181,41.563,52.735,52.735,0,0,0,59.562-86.8A52.711,52.711,0,0,1,206.963,196.464Z" transform="translate(-82.351 -102.134)" fill="#efedef"/>
    <circle id="Elipse_5691" data-name="Elipse 5691" cx="33.48" cy="33.48" r="33.48" transform="translate(38.401 60.852)" fill="#ee6161"/>
    <path id="Trazado_805344" data-name="Trazado 805344" d="M210.081,228.848a33.477,33.477,0,0,1-55.176,25.5,33.481,33.481,0,0,0,37.214-55.167,33.462,33.462,0,0,1,17.962,29.671Z" transform="translate(-104.721 -134.518)" fill="#e94444"/>
    <circle id="Elipse_5692" data-name="Elipse 5692" cx="15.2" cy="15.2" r="15.2" transform="translate(56.681 79.131)" fill="#f9f7f8"/>
    <path id="Trazado_805345" data-name="Trazado 805345" d="M212.2,261.946a15.2,15.2,0,0,1-27.094,9.462,15.2,15.2,0,0,0,18.35-23.223A15.2,15.2,0,0,1,212.2,261.946Z" transform="translate(-125.115 -167.616)" fill="#efedef"/>
    <g id="Grupo_1066793" data-name="Grupo 1066793" transform="translate(69.011 12.911)">
      <path id="Trazado_805346" data-name="Trazado 805346" d="M215.334,123.809a2.435,2.435,0,0,1-1.722-4.156L292.78,40.484a2.435,2.435,0,1,1,3.443,3.443L217.056,123.1a2.428,2.428,0,0,1-1.722.713Z" transform="translate(-212.899 -39.771)" fill="#353535"/>
    </g>
    <circle id="Elipse_5693" data-name="Elipse 5693" cx="23.547" cy="23.547" r="23.547" transform="translate(0 119.118)" fill="#57be92"/>
    <path id="Trazado_805347" data-name="Trazado 805347" d="M65.132,394.795a23.55,23.55,0,0,1-38.578,18.129,23.552,23.552,0,0,0,24.714-39.6A23.55,23.55,0,0,1,65.132,394.795Z" transform="translate(-18.037 -252.13)" fill="#09a76d"/>
    <g id="Grupo_1066794" data-name="Grupo 1066794" transform="translate(9.896 131.921)">
      <path id="Trazado_805348" data-name="Trazado 805348" d="M56.643,407.574a4.542,4.542,0,0,0-6.418.258l-7.824,8.48a.851.851,0,0,1-1.251,0L38.7,413.66A4.553,4.553,0,0,0,32,419.818l5.731,6.273a5.426,5.426,0,0,0,7.995.019L56.9,413.991A4.541,4.541,0,0,0,56.643,407.574Z" transform="translate(-30.804 -406.37)" fill="#f9f7f8"/>
      <path id="Trazado_805349" data-name="Trazado 805349" d="M70.554,413.994l-11.18,12.12a5.428,5.428,0,0,1-8-.02l-.361-.394a5.4,5.4,0,0,0,3.961-1.748l11.18-12.12a4.537,4.537,0,0,0,.548-5.428,4.541,4.541,0,0,1,3.847,7.591Z" transform="translate(-44.456 -406.373)" fill="#efedef"/>
    </g>
  </g>
</svg>
