<svg id="Grupo_1071192" data-name="Grupo 1071192" xmlns="http://www.w3.org/2000/svg" width="175.054" height="197.524" viewBox="0 0 175.054 197.524">
  <path id="Trazado_805350" data-name="Trazado 805350" d="M368.049,128.258H348.4a32.26,32.26,0,0,1-14.1,12.248v21.507a2.411,2.411,0,0,0,2.411,2.411h31.344a2.411,2.411,0,0,0,2.411-2.411V130.669A2.411,2.411,0,0,0,368.049,128.258Z" transform="translate(-216.562 -78.777)" fill="#cb97e7"/>
  <g id="Grupo_1066798" data-name="Grupo 1066798" transform="translate(117.732 51.457)">
    <path id="Trazado_805351" data-name="Trazado 805351" d="M347.012,165.159V133.815a2.4,2.4,0,0,1,.041-.435,32.254,32.254,0,0,1-12.759,10.272v21.507a2.411,2.411,0,0,0,2.411,2.411h12.718A2.411,2.411,0,0,1,347.012,165.159Z" transform="translate(-334.294 -133.38)" fill="#bd80e1"/>
  </g>
  <g id="Grupo_1066811" data-name="Grupo 1066811">
    <path id="Trazado_805352" data-name="Trazado 805352" d="M114.043,272.664A45.806,45.806,0,0,1,91.71,266.88l7.167,19.5h30.332l7.167-19.5A45.807,45.807,0,0,1,114.043,272.664Z" transform="translate(-67.565 -163.92)" fill="#fff0ad"/>
    <path id="Trazado_805353" data-name="Trazado 805353" d="M91.71,266.88l7.167,19.5h16.741l-5.09-13.848A45.762,45.762,0,0,1,91.71,266.88Z" transform="translate(-67.565 -163.92)" fill="#ffe177"/>
    <path id="Trazado_805354" data-name="Trazado 805354" d="M122.077,397.772v6.191a5.962,5.962,0,0,0,5.962,5.962h9.312a5.962,5.962,0,0,0,5.962-5.962v-6.191Z" transform="translate(-86.216 -244.315)" fill="#02c7dd"/>
    <path id="Trazado_805355" data-name="Trazado 805355" d="M131.771,403.963v-6.191h-9.7v6.191a5.962,5.962,0,0,0,5.962,5.962h9.312c.065,0,.127-.008.192-.01A5.957,5.957,0,0,1,131.771,403.963Z" transform="translate(-86.216 -244.315)" fill="#07b2cd"/>
    <path id="Trazado_805356" data-name="Trazado 805356" d="M109.128,366.255v10.558a1.987,1.987,0,0,0,1.987,1.987h27.252a1.987,1.987,0,0,0,1.987-1.987V366.255Z" transform="translate(-78.263 -224.957)" fill="#a6e7f0"/>
    <path id="Trazado_805357" data-name="Trazado 805357" d="M121.929,376.813V366.255h-12.8v10.558a1.987,1.987,0,0,0,1.987,1.987h12.8A1.987,1.987,0,0,1,121.929,376.813Z" transform="translate(-78.263 -224.957)" fill="#6bd9e7"/>
    <path id="Trazado_805358" data-name="Trazado 805358" d="M101.75,58.2a32.006,32.006,0,0,1,.915-7.586A46.479,46.479,0,1,0,122.08,88.4c0-.125,0-.249,0-.374A32.107,32.107,0,0,1,101.75,58.2Z" transform="translate(-29.124 -25.75)" fill="#ffe177"/>
    <g id="Grupo_1066799" data-name="Grupo 1066799" transform="translate(0 16.173)">
      <path id="Trazado_805359" data-name="Trazado 805359" d="M49.13,88.4A46.493,46.493,0,0,1,85.6,43.006a46.478,46.478,0,1,0,0,90.79A46.493,46.493,0,0,1,49.13,88.4Z" transform="translate(-29.123 -41.923)" fill="#ffd15b"/>
    </g>
    <g id="Grupo_1066800" data-name="Grupo 1066800" transform="translate(36.525 107.658)">
      <path id="Trazado_805360" data-name="Trazado 805360" d="M123.8,279.059v14.8h5.787V279.954A45.989,45.989,0,0,1,123.8,279.059Z" transform="translate(-123.798 -279.059)" fill="#b98080"/>
      <path id="Trazado_805361" data-name="Trazado 805361" d="M160.4,279.953v13.905h5.787v-14.8A45.843,45.843,0,0,1,160.4,279.953Z" transform="translate(-146.277 -279.058)" fill="#b98080"/>
    </g>
    <g id="Grupo_1066801" data-name="Grupo 1066801" transform="translate(24.903 122.073)">
      <path id="Trazado_805362" data-name="Trazado 805362" d="M132.849,336.033h-35.2a3.974,3.974,0,0,1-3.974-3.974V320.4a3.974,3.974,0,0,1,3.974-3.974h35.2a3.974,3.974,0,0,1,3.974,3.974v11.662A3.974,3.974,0,0,1,132.849,336.033Z" transform="translate(-93.674 -316.422)" fill="#eaf9fa"/>
    </g>
    <path id="Trazado_805363" data-name="Trazado 805363" d="M110.1,332.059V320.4a3.974,3.974,0,0,1,3.974-3.974H97.649a3.974,3.974,0,0,0-3.974,3.974v11.662a3.975,3.975,0,0,0,3.974,3.974h16.425A3.975,3.975,0,0,1,110.1,332.059Z" transform="translate(-68.771 -194.349)" fill="#d4f2f6"/>
    <g id="Grupo_1066802" data-name="Grupo 1066802" transform="translate(83.997 106.468)">
      <path id="Trazado_805364" data-name="Trazado 805364" d="M324.872,323.57a13.955,13.955,0,0,1-8.893-2.421,1.2,1.2,0,0,0-1.887.968v19.111a1.987,1.987,0,0,1-1.987,1.987H292.995a1.2,1.2,0,0,0-.968,1.887,14.009,14.009,0,1,1-23.085-.035,1.189,1.189,0,0,0-.992-1.852H248.838a1.987,1.987,0,0,1-1.987-1.987V326.22a1.975,1.975,0,0,1,2.14-1.981,14.276,14.276,0,0,0,2.231.039,14.009,14.009,0,0,0-.868-27.991q-.661,0-1.306.06a1.993,1.993,0,0,1-2.2-1.974V277.961a1.987,1.987,0,0,1,1.987-1.987h15.648a1.978,1.978,0,0,1,1.983,2.032q-.006.209-.007.42a14.009,14.009,0,0,0,28.018,0c0-.14,0-.28-.007-.42a1.978,1.978,0,0,1,1.983-2.032h15.648a1.987,1.987,0,0,1,1.987,1.987v19.111a1.189,1.189,0,0,0,1.852.992,14.009,14.009,0,1,1,8.928,25.506Z" transform="translate(-246.851 -275.974)" fill="#fe9738"/>
    </g>
    <g id="Grupo_1066803" data-name="Grupo 1066803" transform="translate(83.997 106.468)">
      <path id="Trazado_805365" data-name="Trazado 805365" d="M324.872,323.57a13.955,13.955,0,0,1-8.893-2.421,1.2,1.2,0,0,0-1.887.968v19.111a1.987,1.987,0,0,1-1.987,1.987H292.995a1.2,1.2,0,0,0-.968,1.887,14.009,14.009,0,1,1-23.085-.035,1.189,1.189,0,0,0-.992-1.852H248.838a1.987,1.987,0,0,1-1.987-1.987V326.22a1.975,1.975,0,0,1,2.14-1.981,14.276,14.276,0,0,0,2.231.039,14.009,14.009,0,0,0-.868-27.991q-.661,0-1.306.06a1.993,1.993,0,0,1-2.2-1.974V277.961a1.987,1.987,0,0,1,1.987-1.987h15.648a1.978,1.978,0,0,1,1.983,2.032q-.006.209-.007.42a14.009,14.009,0,0,0,28.018,0c0-.14,0-.28-.007-.42a1.978,1.978,0,0,1,1.983-2.032h15.648a1.987,1.987,0,0,1,1.987,1.987v19.111a1.189,1.189,0,0,0,1.852.992,14.009,14.009,0,1,1,8.928,25.506Z" transform="translate(-246.851 -275.974)" fill="#fe9738"/>
    </g>
    <g id="Grupo_1066806" data-name="Grupo 1066806" transform="translate(83.997 106.468)">
      <g id="Grupo_1066804" data-name="Grupo 1066804" transform="translate(0)">
        <path id="Trazado_805366" data-name="Trazado 805366" d="M249.046,296.347q.645-.059,1.306-.06a13.978,13.978,0,0,1,10.714,4.984v-23.31a1.987,1.987,0,0,1,1.987-1.987H248.837a1.987,1.987,0,0,0-1.987,1.987v16.411A1.994,1.994,0,0,0,249.046,296.347Z" transform="translate(-246.85 -275.974)" fill="#fe860a"/>
      </g>
      <g id="Grupo_1066805" data-name="Grupo 1066805" transform="translate(0 43.325)">
        <path id="Trazado_805367" data-name="Trazado 805367" d="M261.066,410.2v-21.93a14,14,0,0,1-9.846,4.979,14.3,14.3,0,0,1-2.231-.039,1.975,1.975,0,0,0-2.14,1.981V410.2a1.987,1.987,0,0,0,1.987,1.987h14.216A1.987,1.987,0,0,1,261.066,410.2Z" transform="translate(-246.85 -388.275)" fill="#fe860a"/>
      </g>
    </g>
    <g id="Grupo_1066810" data-name="Grupo 1066810" transform="translate(72.24)">
      <g id="Grupo_1066807" data-name="Grupo 1066807" transform="translate(0)">
        <circle id="Elipse_5694" data-name="Elipse 5694" cx="32.449" cy="32.449" r="32.449" fill="#05e39c"/>
      </g>
      <g id="Grupo_1066808" data-name="Grupo 1066808" transform="translate(0 0)">
        <path id="Trazado_805368" data-name="Trazado 805368" d="M233.135,32.449A32.459,32.459,0,0,1,257.2,1.1a32.449,32.449,0,1,0,0,62.7A32.459,32.459,0,0,1,233.135,32.449Z" transform="translate(-216.375 0)" fill="#0ed290"/>
      </g>
      <g id="Grupo_1066809" data-name="Grupo 1066809" transform="translate(13.124 18.467)">
        <path id="Trazado_805369" data-name="Trazado 805369" d="M266.623,77.722h-.044a2.893,2.893,0,0,1-2.169-1.029L251.074,60.855a2.893,2.893,0,1,1,4.427-3.728l11.191,13.29,19.345-21.588a2.893,2.893,0,0,1,4.31,3.861L268.779,76.76A2.9,2.9,0,0,1,266.623,77.722Z" transform="translate(-250.394 -47.867)" fill="#fff"/>
      </g>
    </g>
  </g>
</svg>
